<svg width="42" height="42" viewBox="0 0 42 42" fill="none" xmlns="http://www.w3.org/2000/svg">
<path d="M12.4843 6.68761C12.8515 6.68761 13.2187 7.05479 13.2187 7.42198L13.2187 12.5626L15.4218 12.5626C16.9824 12.5626 18.3593 13.9395 18.3593 15.5001C18.3593 17.1524 16.9824 18.4376 15.4218 18.4376L9.54684 18.4376C7.8945 18.4376 6.60935 17.1524 6.60935 15.5001C6.60935 13.9395 7.8945 12.5626 9.54684 12.5626L11.75 12.5626L11.75 7.42198C11.75 7.05479 12.0253 6.68761 12.4843 6.68761ZM9.54684 14.0313C8.72067 14.0313 8.07809 14.7657 8.07809 15.5001C8.07809 16.3262 8.72067 16.9688 9.54684 16.9688L15.4218 16.9688C16.1562 16.9688 16.8906 16.3262 16.8906 15.5001C16.8906 14.7657 16.1562 14.0313 15.4218 14.0313L9.54684 14.0313ZM12.4843 21.3751C12.8515 21.3751 13.2187 21.7422 13.2187 22.1094L13.2187 35.3281C13.2187 35.7871 12.8515 36.0625 12.4843 36.0625C12.0253 36.0625 11.75 35.7871 11.75 35.3281L11.75 22.1094C11.75 21.7422 12.0253 21.3751 12.4843 21.3751ZM29.3749 21.3751L31.578 21.3751C33.1386 21.3751 34.5155 22.752 34.5155 24.3126C34.5155 25.9649 33.1386 27.25 31.578 27.25L25.703 27.25C24.0507 27.25 22.7655 25.9649 22.7655 24.3126C22.7655 22.752 24.0507 21.3751 25.703 21.3751L27.9062 21.3751L27.9062 7.42198C27.9062 7.0548 28.1815 6.68761 28.6405 6.68761C29.0077 6.68761 29.3749 7.0548 29.3749 7.42198L29.3749 21.3751ZM24.2343 24.3126C24.2343 25.1387 24.8769 25.7813 25.703 25.7813L31.578 25.7813C32.3124 25.7813 33.0468 25.1387 33.0468 24.3126C33.0468 23.5782 32.3124 22.8438 31.578 22.8438L25.703 22.8438C24.8769 22.8438 24.2343 23.5782 24.2343 24.3126ZM29.3749 35.3281C29.3749 35.7871 29.0077 36.0625 28.6405 36.0625C28.1815 36.0625 27.9062 35.7871 27.9062 35.3281L27.9062 30.9219C27.9062 30.5547 28.1815 30.1875 28.6405 30.1875C29.0077 30.1875 29.3749 30.5547 29.3749 30.9219L29.3749 35.3281ZM35.2499 0.81263C38.4628 0.812631 41.1249 3.47473 41.1249 6.68761L41.1249 36.0625C41.1249 39.3672 38.4628 41.9375 35.2499 41.9375L5.87497 41.9375C2.57029 41.9375 -9.33102e-06 39.3672 -8.75321e-06 36.0625L-3.61714e-06 6.6876C-3.05538e-06 3.47472 2.5703 0.812624 5.87498 0.812625L35.2499 0.81263ZM35.2499 2.28138L5.87498 2.28137C3.39647 2.28137 1.46874 4.30089 1.46874 6.68761L1.46874 36.0625C1.46874 38.541 3.39646 40.4687 5.87497 40.4687L35.2499 40.4688C37.6366 40.4688 39.6561 38.541 39.6561 36.0625L39.6561 6.68761C39.6561 4.3009 37.6366 2.28138 35.2499 2.28138Z" fill="#66C206"/>
<path d="M13.2187 12.5626L12.6187 12.5626L12.6187 13.1626L13.2187 13.1626L13.2187 12.5626ZM11.75 12.5626L11.75 13.1626L12.35 13.1626L12.35 12.5626L11.75 12.5626ZM29.3749 21.3751L28.7749 21.3751L28.7749 21.9751L29.3749 21.9751L29.3749 21.3751ZM27.9062 21.3751L27.9062 21.9751L28.5062 21.9751L28.5062 21.3751L27.9062 21.3751ZM12.4843 7.28761C12.4762 7.28761 12.4818 7.28581 12.5003 7.29443C12.5187 7.30306 12.5422 7.31858 12.5649 7.34136C12.5877 7.36414 12.6033 7.38756 12.6119 7.40606C12.6205 7.42452 12.6187 7.43006 12.6187 7.42198L13.8187 7.42198C13.8187 7.04325 13.6354 6.71474 13.4135 6.49283C13.1916 6.27093 12.8631 6.08761 12.4843 6.08761L12.4843 7.28761ZM12.6187 7.42198L12.6187 12.5626L13.8187 12.5626L13.8187 7.42198L12.6187 7.42198ZM13.2187 13.1626L15.4218 13.1626L15.4218 11.9626L13.2187 11.9626L13.2187 13.1626ZM15.4218 13.1626C16.651 13.1626 17.7593 14.2709 17.7593 15.5001L18.9593 15.5001C18.9593 13.6082 17.3137 11.9626 15.4218 11.9626L15.4218 13.1626ZM17.7593 15.5001C17.7593 16.8089 16.6632 17.8376 15.4218 17.8376L15.4218 19.0376C17.3015 19.0376 18.9593 17.4959 18.9593 15.5001L17.7593 15.5001ZM15.4218 17.8376L9.54684 17.8376L9.54684 19.0376L15.4218 19.0376L15.4218 17.8376ZM9.54684 17.8376C8.22587 17.8376 7.20935 16.821 7.20935 15.5001L6.00935 15.5001C6.00935 17.4838 7.56313 19.0376 9.54684 19.0376L9.54684 17.8376ZM7.20935 15.5001C7.20935 14.2587 8.23797 13.1626 9.54684 13.1626L9.54684 11.9626C7.55103 11.9626 6.00935 13.6204 6.00935 15.5001L7.20935 15.5001ZM9.54684 13.1626L11.75 13.1626L11.75 11.9626L9.54684 11.9626L9.54684 13.1626ZM12.35 12.5626L12.35 7.42198L11.15 7.42198L11.15 12.5626L12.35 12.5626ZM12.35 7.42198C12.35 7.38425 12.3654 7.34648 12.3873 7.32253C12.3971 7.31191 12.4077 7.30433 12.4196 7.299C12.431 7.29394 12.451 7.28761 12.4843 7.28761L12.4843 6.08761C11.6459 6.08761 11.15 6.77363 11.15 7.42198L12.35 7.42198ZM9.54684 13.4313C8.36549 13.4313 7.47809 14.4587 7.47809 15.5001L8.67809 15.5001C8.67809 15.0728 9.07585 14.6313 9.54684 14.6313L9.54684 13.4313ZM7.47809 15.5001C7.47809 16.6576 8.3893 17.5688 9.54684 17.5688L9.54684 16.3688C9.05204 16.3688 8.67809 15.9949 8.67809 15.5001L7.47809 15.5001ZM9.54684 17.5688L15.4218 17.5688L15.4218 16.3688L9.54684 16.3688L9.54684 17.5688ZM15.4218 17.5688C16.4632 17.5688 17.4906 16.6814 17.4906 15.5001L16.2906 15.5001C16.2906 15.9711 15.8491 16.3688 15.4218 16.3688L15.4218 17.5688ZM17.4906 15.5001C17.4906 14.9378 17.2154 14.4257 16.8558 14.0661C16.4962 13.7065 15.9841 13.4313 15.4218 13.4313L15.4218 14.6313C15.5939 14.6313 15.8161 14.7234 16.0073 14.9146C16.1985 15.1058 16.2906 15.328 16.2906 15.5001L17.4906 15.5001ZM15.4218 13.4313L9.54684 13.4313L9.54684 14.6313L15.4218 14.6313L15.4218 13.4313ZM12.4843 21.9751C12.4762 21.9751 12.4818 21.9733 12.5002 21.9819C12.5187 21.9905 12.5422 22.006 12.5649 22.0288C12.5877 22.0516 12.6032 22.075 12.6119 22.0935C12.6205 22.112 12.6187 22.1175 12.6187 22.1094L13.8187 22.1094C13.8187 21.7307 13.6354 21.4022 13.4135 21.1803C13.1916 20.9584 12.8631 20.7751 12.4843 20.7751L12.4843 21.9751ZM12.6187 22.1094L12.6187 35.3281L13.8187 35.3281L13.8187 22.1094L12.6187 22.1094ZM12.6187 35.3281C12.6187 35.3614 12.6124 35.3814 12.6073 35.3928C12.602 35.4048 12.5944 35.4154 12.5838 35.4252C12.5598 35.4471 12.5221 35.4625 12.4843 35.4625L12.4843 36.6625C13.1327 36.6625 13.8187 36.1666 13.8187 35.3281L12.6187 35.3281ZM12.4843 35.4625C12.3751 35.4625 12.3582 35.4321 12.3693 35.4432C12.3804 35.4542 12.35 35.4373 12.35 35.3281L11.15 35.3281C11.15 35.6779 11.2573 36.0282 11.5208 36.2917C11.7843 36.5552 12.1345 36.6625 12.4843 36.6625L12.4843 35.4625ZM12.35 35.3281L12.35 22.1094L11.15 22.1094L11.15 35.3281L12.35 35.3281ZM12.35 22.1094C12.35 22.0717 12.3654 22.0339 12.3873 22.01C12.3971 21.9994 12.4077 21.9918 12.4196 21.9865C12.431 21.9814 12.451 21.9751 12.4843 21.9751L12.4843 20.7751C11.6459 20.7751 11.15 21.4611 11.15 22.1094L12.35 22.1094ZM29.3749 21.9751L31.578 21.9751L31.578 20.7751L29.3749 20.7751L29.3749 21.9751ZM31.578 21.9751C32.8072 21.9751 33.9155 23.0834 33.9155 24.3126L35.1155 24.3126C35.1155 22.4206 33.4699 20.7751 31.578 20.7751L31.578 21.9751ZM33.9155 24.3126C33.9155 25.6214 32.8194 26.65 31.578 26.65L31.578 27.85C33.4577 27.85 35.1155 26.3084 35.1155 24.3126L33.9155 24.3126ZM31.578 26.65L25.703 26.65L25.703 27.85L31.578 27.85L31.578 26.65ZM25.703 26.65C24.3821 26.65 23.3655 25.6335 23.3655 24.3126L22.1655 24.3126C22.1655 26.2963 23.7193 27.85 25.703 27.85L25.703 26.65ZM23.3655 24.3126C23.3655 23.0712 24.3942 21.9751 25.703 21.9751L25.703 20.7751C23.7072 20.7751 22.1655 22.4329 22.1655 24.3126L23.3655 24.3126ZM25.703 21.9751L27.9062 21.9751L27.9062 20.7751L25.703 20.7751L25.703 21.9751ZM28.5062 21.3751L28.5062 7.42198L27.3062 7.42198L27.3062 21.3751L28.5062 21.3751ZM28.5062 7.42198C28.5062 7.38426 28.5216 7.34648 28.5435 7.32254C28.5533 7.31191 28.5639 7.30433 28.5758 7.29901C28.5872 7.29394 28.6072 7.28761 28.6405 7.28761L28.6405 6.08761C27.8021 6.08761 27.3062 6.77364 27.3062 7.42198L28.5062 7.42198ZM28.6405 7.28761C28.6324 7.28761 28.638 7.28581 28.6564 7.29443C28.6749 7.30306 28.6984 7.31859 28.7211 7.34137C28.7439 7.36414 28.7594 7.38756 28.7681 7.40606C28.7767 7.42453 28.7749 7.43006 28.7749 7.42198L29.9749 7.42198C29.9749 7.04325 29.7916 6.71474 29.5697 6.49284C29.3478 6.27093 29.0193 6.08761 28.6405 6.08761L28.6405 7.28761ZM28.7749 7.42198L28.7749 21.3751L29.9749 21.3751L29.9749 7.42198L28.7749 7.42198ZM23.6343 24.3126C23.6343 25.4701 24.5455 26.3813 25.703 26.3813L25.703 25.1813C25.2082 25.1813 24.8343 24.8074 24.8343 24.3126L23.6343 24.3126ZM25.703 26.3813L31.578 26.3813L31.578 25.1813L25.703 25.1813L25.703 26.3813ZM31.578 26.3813C32.6194 26.3813 33.6468 25.4939 33.6468 24.3126L32.4468 24.3126C32.4468 24.7835 32.0053 25.1813 31.578 25.1813L31.578 26.3813ZM33.6468 24.3126C33.6468 23.7502 33.3716 23.2381 33.012 22.8785C32.6524 22.5189 32.1403 22.2438 31.578 22.2438L31.578 23.4438C31.7501 23.4438 31.9723 23.5359 32.1635 23.7271C32.3547 23.9182 32.4468 24.1405 32.4468 24.3126L33.6468 24.3126ZM31.578 22.2438L25.703 22.2438L25.703 23.4438L31.578 23.4438L31.578 22.2438ZM25.703 22.2438C24.5217 22.2438 23.6343 23.2711 23.6343 24.3126L24.8343 24.3126C24.8343 23.8852 25.232 23.4438 25.703 23.4438L25.703 22.2438ZM28.7749 35.3281C28.7749 35.3614 28.7686 35.3814 28.7635 35.3928C28.7582 35.4048 28.7506 35.4154 28.74 35.4252C28.716 35.4471 28.6782 35.4625 28.6405 35.4625L28.6405 36.6625C29.2889 36.6625 29.9749 36.1666 29.9749 35.3281L28.7749 35.3281ZM28.6405 35.4625C28.5313 35.4625 28.5144 35.4321 28.5255 35.4432C28.5365 35.4542 28.5062 35.4373 28.5062 35.3281L27.3062 35.3281C27.3062 35.6779 27.4134 36.0282 27.677 36.2917C27.9405 36.5552 28.2907 36.6625 28.6405 36.6625L28.6405 35.4625ZM28.5062 35.3281L28.5062 30.9219L27.3062 30.9219L27.3062 35.3281L28.5062 35.3281ZM28.5062 30.9219C28.5062 30.8842 28.5216 30.8464 28.5435 30.8225C28.5532 30.8118 28.5638 30.8043 28.5758 30.7989C28.5872 30.7939 28.6072 30.7875 28.6405 30.7875L28.6405 29.5875C27.8021 29.5875 27.3062 30.2736 27.3062 30.9219L28.5062 30.9219ZM28.6405 30.7875C28.6324 30.7875 28.638 30.7857 28.6564 30.7944C28.6749 30.803 28.6984 30.8185 28.7211 30.8413C28.7439 30.8641 28.7594 30.8875 28.7681 30.906C28.7767 30.9245 28.7749 30.93 28.7749 30.9219L29.9749 30.9219C29.9749 30.5432 29.7916 30.2147 29.5697 29.9928C29.3478 29.7709 29.0193 29.5875 28.6405 29.5875L28.6405 30.7875ZM28.7749 30.9219L28.7749 35.3281L29.9749 35.3281L29.9749 30.9219L28.7749 30.9219ZM35.2499 1.41263C38.1314 1.41263 40.5249 3.8061 40.5249 6.68761L41.7249 6.68761C41.7249 3.14336 38.7941 0.212631 35.2499 0.21263L35.2499 1.41263ZM40.5249 6.68761L40.5249 36.0625L41.7249 36.0625L41.7249 6.68761L40.5249 6.68761ZM40.5249 36.0625C40.5249 39.0297 38.1375 41.3375 35.2499 41.3375L35.2499 42.5375C38.788 42.5375 41.7249 39.7047 41.7249 36.0625L40.5249 36.0625ZM35.2499 41.3375L5.87497 41.3375L5.87497 42.5375L35.2499 42.5375L35.2499 41.3375ZM5.87497 41.3375C2.90167 41.3375 0.599991 39.0358 0.599991 36.0625L-0.600009 36.0625C-0.600009 39.6986 2.23892 42.5375 5.87497 42.5375L5.87497 41.3375ZM0.599991 36.0625L0.599996 6.68761L-0.600004 6.6876L-0.600009 36.0625L0.599991 36.0625ZM0.599996 6.68761C0.599997 3.79996 2.90777 1.41262 5.87498 1.41263L5.87498 0.212625C2.23283 0.212624 -0.600003 3.14949 -0.600004 6.6876L0.599996 6.68761ZM5.87498 1.41263L35.2499 1.41263L35.2499 0.21263L5.87498 0.212625L5.87498 1.41263ZM35.2499 1.68138L5.87498 1.68137L5.87498 2.88137L35.2499 2.88138L35.2499 1.68138ZM5.87498 1.68137C3.05699 1.68137 0.868742 3.97769 0.868742 6.68761L2.06874 6.68761C2.06874 4.6241 3.73595 2.88137 5.87498 2.88137L5.87498 1.68137ZM0.868742 6.68761L0.868736 36.0625L2.06874 36.0625L2.06874 6.68761L0.868742 6.68761ZM0.868736 36.0625C0.868736 38.8724 3.06509 41.0687 5.87497 41.0687L5.87497 39.8687C3.72783 39.8687 2.06874 38.2096 2.06874 36.0625L0.868736 36.0625ZM5.87497 41.0687L35.2499 41.0688L35.2499 39.8688L5.87497 39.8687L5.87497 41.0687ZM35.2499 41.0688C37.9598 41.0688 40.2561 38.8805 40.2561 36.0625L39.0561 36.0625C39.0561 38.2015 37.3134 39.8688 35.2499 39.8688L35.2499 41.0688ZM40.2561 36.0625L40.2561 6.68761L39.0561 6.68761L39.0561 36.0625L40.2561 36.0625ZM40.2561 6.68761C40.2561 3.96953 37.968 1.68138 35.2499 1.68138L35.2499 2.88138C37.3052 2.88138 39.0561 4.63227 39.0561 6.68761L40.2561 6.68761Z" fill="#66C206"/>
</svg>
