<svg width="14" height="14" viewBox="0 0 14 14" fill="none" xmlns="http://www.w3.org/2000/svg">
<path d="M7.48145 0.22229C11.0615 0.22229 13.9814 3.14221 13.9814 6.72229C13.9814 10.3278 11.0615 13.2223 7.48145 13.2223C3.87598 13.2223 0.981445 10.3278 0.981445 6.72229C0.981445 3.14221 3.87598 0.22229 7.48145 0.22229ZM7.48145 12.4098C7.8877 12.4098 8.49707 12.0543 9.03027 10.9625C9.28418 10.4547 9.5127 9.84534 9.63965 9.15979H5.29785C5.4248 9.84534 5.65332 10.4547 5.90723 10.9625C6.44043 12.0543 7.0498 12.4098 7.48145 12.4098ZM5.14551 8.34729H9.79199C9.86816 7.83948 9.91895 7.30627 9.91895 6.72229C9.91895 6.1637 9.86816 5.63049 9.79199 5.09729H5.14551C5.06934 5.63049 5.04395 6.1637 5.04395 6.72229C5.04395 7.30627 5.06934 7.83948 5.14551 8.34729ZM9.63965 4.28479C9.5127 3.59924 9.28418 3.01526 9.03027 2.50745C8.49707 1.41565 7.8877 1.03479 7.48145 1.03479C7.0498 1.03479 6.44043 1.41565 5.90723 2.50745C5.65332 3.01526 5.4248 3.59924 5.29785 4.28479H9.63965ZM10.6045 5.09729C10.6807 5.63049 10.7314 6.1637 10.7314 6.72229C10.7314 7.30627 10.6807 7.83948 10.6045 8.34729H12.915C13.0674 7.83948 13.1689 7.30627 13.1689 6.72229C13.1689 6.1637 13.0674 5.63049 12.915 5.09729H10.6045ZM9.28418 1.33948C9.81738 2.05042 10.249 3.09143 10.4775 4.28479H12.6104C11.9502 2.9137 10.7568 1.84729 9.28418 1.33948ZM5.65332 1.33948C4.18066 1.84729 2.9873 2.9137 2.32715 4.28479H4.45996C4.68848 3.09143 5.12012 2.05042 5.65332 1.33948ZM1.79395 6.72229C1.79395 7.30627 1.87012 7.83948 2.02246 8.34729H4.33301C4.25684 7.83948 4.23145 7.30627 4.23145 6.72229C4.23145 6.1637 4.25684 5.63049 4.33301 5.09729H2.02246C1.87012 5.63049 1.79395 6.1637 1.79395 6.72229ZM12.6104 9.15979H10.4775C10.249 10.3785 9.81738 11.3942 9.28418 12.1305C10.7568 11.6227 11.9502 10.5563 12.6104 9.15979ZM4.45996 9.15979H2.32715C2.9873 10.5563 4.18066 11.6227 5.65332 12.1305C5.12012 11.3942 4.68848 10.3785 4.45996 9.15979Z" fill="white"/>
</svg>
