<svg width="42" height="48" viewBox="0 0 42 48" fill="none" xmlns="http://www.w3.org/2000/svg">
<path d="M20.5624 9.18761C21.2968 9.18761 22.0312 9.92198 22.0312 10.6564L22.0312 20.3868L25.9784 24.334C26.5292 24.8848 26.5292 25.8946 25.9784 26.4454C25.4276 26.9961 24.4179 26.9961 23.8671 26.4454L19.4609 22.0391C19.1855 21.7637 19.0019 21.3966 19.0019 20.9376L19.0019 10.6564C19.0019 9.92198 19.7363 9.18761 20.4706 9.18761L20.5624 9.18761ZM20.5624 0.375137C31.8534 0.375139 41.1249 9.64659 41.1249 20.9376L41.1249 41.5C41.1249 44.8047 38.4628 47.375 35.2499 47.375L5.87497 47.375C2.57029 47.375 -9.84462e-06 44.8047 -9.26681e-06 41.5L-5.67156e-06 20.9376C-3.69739e-06 9.64659 9.17966 0.375135 20.5624 0.375137ZM20.5624 3.31263C10.7402 3.31263 2.93749 11.2071 2.93748 20.9376C2.93748 30.668 10.7402 38.5625 20.5624 38.5625C30.2929 38.5625 38.1874 30.668 38.1874 20.9376C38.1874 11.2071 30.2929 3.31263 20.5624 3.31263ZM38.1874 31.586C34.5155 37.5528 27.9979 41.5 20.5624 41.5C13.0351 41.5 6.51755 37.5527 2.93748 31.586L2.93748 41.5C2.93748 43.1523 4.22263 44.4375 5.87497 44.4375L35.2499 44.4375C36.8104 44.4375 38.1874 43.1523 38.1874 41.5L38.1874 31.586Z" fill="#66C206"/>
</svg>
