<svg width="17" height="12" viewBox="0 0 17 12" fill="none" xmlns="http://www.w3.org/2000/svg">
<path d="M4.03125 11.8125C2 11.8125 0.375 10.1875 0.375 8.15625C0.375 6.58203 1.39062 5.21094 2.8125 4.72852C2.8125 4.65234 2.8125 4.57617 2.8125 4.5C2.8125 2.26562 4.61523 0.4375 6.875 0.4375C8.37305 0.4375 9.69336 1.27539 10.3789 2.49414C10.7598 2.21484 11.2422 2.0625 11.75 2.0625C13.0957 2.0625 14.1875 3.1543 14.1875 4.5C14.1875 4.83008 14.1113 5.10938 14.0098 5.38867C15.5078 5.69336 16.625 7.01367 16.625 8.5625C16.625 10.3652 15.1523 11.8125 13.375 11.8125H4.03125ZM11.4199 5.82031C11.6992 5.54102 11.6992 5.10938 11.4199 4.83008C11.1406 4.55078 10.709 4.55078 10.4297 4.83008L7.6875 7.57227L6.54492 6.45508C6.26562 6.17578 5.83398 6.17578 5.55469 6.45508C5.27539 6.73438 5.27539 7.16602 5.55469 7.44531L7.17969 9.07031C7.45898 9.34961 7.89062 9.34961 8.16992 9.07031L11.4199 5.82031Z" fill="#FF9800"/>
</svg>
