<svg width="79" height="20" viewBox="0 0 79 20" fill="none" xmlns="http://www.w3.org/2000/svg">
<path d="M4.50962 14.9001C3.26948 14.9001 2.2047 14.4617 1.31531 13.5848C0.438435 12.6954 0 11.6306 0 10.3905C0 9.16288 0.438435 8.11063 1.31531 7.23376C2.2047 6.35689 3.26948 5.91846 4.50962 5.91846C5.71219 5.91846 6.76444 6.35689 7.66636 7.23376C8.56829 8.11063 9.01925 9.16288 9.01925 10.3905C9.01925 11.2173 8.80629 11.9751 8.38039 12.6641C7.967 13.3405 7.42209 13.8855 6.74565 14.2988C6.0692 14.6997 5.32386 14.9001 4.50962 14.9001Z" fill="url(#paint0_linear_220_638)"/>
<path d="M21.2646 19.6654C19.4037 19.6654 17.803 19.2711 16.4625 18.4826C15.1299 17.6862 14.1048 16.5823 13.3873 15.1708C12.6776 13.7594 12.3228 12.135 12.3228 10.2978C12.3228 8.43687 12.6815 6.80463 13.3991 5.40106C14.1245 3.98961 15.1535 2.88962 16.4861 2.1011C17.8187 1.3047 19.4037 0.906494 21.2409 0.906494C22.8259 0.906494 24.2137 1.1943 25.4043 1.76992C26.595 2.34554 27.5373 3.15378 28.2312 4.19462C28.9251 5.23547 29.3075 6.45768 29.3785 7.86125H24.6237C24.4896 6.95445 24.1348 6.22507 23.5592 5.6731C22.9914 5.11325 22.2463 4.83333 21.3237 4.83333C20.5431 4.83333 19.861 5.04623 19.2775 5.47203C18.7019 5.88995 18.2524 6.50105 17.9291 7.30534C17.6058 8.10963 17.4442 9.08346 17.4442 10.2268C17.4442 11.3859 17.6019 12.3716 17.9173 13.1838C18.2406 13.9959 18.694 14.6149 19.2775 15.0407C19.861 15.4665 20.5431 15.6794 21.3237 15.6794C21.8993 15.6794 22.4158 15.5612 22.8732 15.3246C23.3384 15.088 23.7208 14.745 24.0205 14.2956C24.328 13.8382 24.5291 13.2902 24.6237 12.6515H29.3785C29.2996 14.0393 28.9211 15.2615 28.243 16.3181C27.5728 17.3669 26.6462 18.1869 25.4635 18.7783C24.2807 19.3697 22.8811 19.6654 21.2646 19.6654Z" fill="#0061A3"/>
<path d="M40.1469 19.6654C38.3096 19.6654 36.7207 19.2751 35.3802 18.4945C34.0476 17.7059 33.0186 16.6099 32.2932 15.2063C31.5677 13.7949 31.205 12.1587 31.205 10.2978C31.205 8.4211 31.5677 6.78097 32.2932 5.37741C33.0186 3.96595 34.0476 2.86991 35.3802 2.08927C36.7207 1.30075 38.3096 0.906494 40.1469 0.906494C41.9841 0.906494 43.569 1.30075 44.9016 2.08927C46.2421 2.86991 47.2751 3.96595 48.0005 5.37741C48.726 6.78097 49.0887 8.4211 49.0887 10.2978C49.0887 12.1587 48.726 13.7949 48.0005 15.2063C47.2751 16.6099 46.2421 17.7059 44.9016 18.4945C43.569 19.2751 41.9841 19.6654 40.1469 19.6654ZM40.1705 15.7622C41.0063 15.7622 41.7042 15.5257 42.264 15.0526C42.8239 14.5716 43.2457 13.9171 43.5296 13.0891C43.8214 12.2612 43.9672 11.3189 43.9672 10.2623C43.9672 9.20568 43.8214 8.26339 43.5296 7.43545C43.2457 6.6075 42.8239 5.95303 42.264 5.47203C41.7042 4.99103 41.0063 4.75053 40.1705 4.75053C39.3268 4.75053 38.6171 4.99103 38.0415 5.47203C37.4738 5.95303 37.044 6.6075 36.7523 7.43545C36.4684 8.26339 36.3265 9.20568 36.3265 10.2623C36.3265 11.3189 36.4684 12.2612 36.7523 13.0891C37.044 13.9171 37.4738 14.5716 38.0415 15.0526C38.6171 15.5257 39.3268 15.7622 40.1705 15.7622Z" fill="#0061A3"/>
<path d="M51.6988 19.3106V1.14305H56.5009V4.34839H56.7138C57.0923 3.28388 57.7231 2.44411 58.6063 1.82906C59.4894 1.21402 60.5461 0.906494 61.7761 0.906494C63.022 0.906494 64.0826 1.21796 64.9578 1.84089C65.8331 2.45594 66.4166 3.29177 66.7083 4.34839H66.8976C67.2682 3.30754 67.9384 2.47565 68.9083 1.85272C69.8861 1.2219 71.0413 0.906494 72.3739 0.906494C74.0692 0.906494 75.4452 1.44663 76.5018 2.5269C77.5663 3.59929 78.0985 5.12114 78.0985 7.09244V19.3106H73.0717V8.08598C73.0717 7.07667 72.8036 6.31969 72.2674 5.81504C71.7312 5.31038 71.061 5.05806 70.2567 5.05806C69.342 5.05806 68.6284 5.34981 68.1159 5.93331C67.6033 6.50893 67.347 7.26986 67.347 8.21608V19.3106H62.4622V7.97953C62.4622 7.0885 62.2059 6.37883 61.6933 5.85052C61.1887 5.32221 60.5224 5.05806 59.6945 5.05806C59.1346 5.05806 58.6299 5.19999 58.1805 5.48386C57.7389 5.75984 57.388 6.15016 57.1278 6.65481C56.8676 7.15158 56.7375 7.73509 56.7375 8.40533V19.3106H51.6988Z" fill="#0061A3"/>
<defs>
<linearGradient id="paint0_linear_220_638" x1="4.50962" y1="5.91846" x2="4.50962" y2="14.9001" gradientUnits="userSpaceOnUse">
<stop stop-color="#88CEF3"/>
<stop offset="1" stop-color="#17A8E1"/>
</linearGradient>
</defs>
</svg>
