<svg width="48" height="25" viewBox="0 0 48 25" fill="none" xmlns="http://www.w3.org/2000/svg">
<circle cx="35.1767" cy="12.2185" r="12.0283" fill="#002B49"/>
<path d="M2.0519 20.2448C1.79101 20.2448 1.56713 20.1513 1.38027 19.9645C1.19342 19.7776 1.09999 19.5538 1.09999 19.2929C1.09999 19.032 1.19342 18.8081 1.38027 18.6212C1.56713 18.4344 1.79101 18.3409 2.0519 18.3409C2.3128 18.3409 2.53667 18.4344 2.72353 18.6212C2.91039 18.8081 3.00382 19.032 3.00382 19.2929C3.00382 19.4656 2.95975 19.6243 2.87161 19.7688C2.78699 19.9134 2.67241 20.0297 2.52786 20.1178C2.38683 20.2025 2.22818 20.2448 2.0519 20.2448ZM8.54342 20.3294C7.78189 20.3294 7.12613 20.1496 6.57613 19.79C6.02614 19.4304 5.60307 18.935 5.30692 18.3039C5.01077 17.6728 4.86269 16.9519 4.86269 16.141C4.86269 15.316 5.01429 14.5879 5.31749 13.9569C5.62422 13.3222 6.05082 12.8269 6.59729 12.4708C7.14728 12.1112 7.78894 11.9314 8.52227 11.9314C9.09342 11.9314 9.60816 12.0372 10.0665 12.2487C10.5248 12.4602 10.9003 12.7564 11.1929 13.1372C11.4855 13.5179 11.6671 13.9621 11.7376 14.4698H10.4896C10.3944 14.0996 10.1828 13.7718 9.85495 13.4862C9.53059 13.1971 9.09342 13.0525 8.54342 13.0525C8.05689 13.0525 7.63029 13.1795 7.26363 13.4333C6.90049 13.6836 6.61668 14.0379 6.41219 14.4963C6.21123 14.9511 6.11075 15.4852 6.11075 16.0987C6.11075 16.7262 6.20947 17.2727 6.40691 17.7381C6.60787 18.2034 6.88991 18.5648 7.25305 18.8222C7.61971 19.0796 8.04984 19.2082 8.54342 19.2082C8.86778 19.2082 9.16217 19.1518 9.42659 19.039C9.69101 18.9262 9.91488 18.764 10.0982 18.5525C10.2815 18.3409 10.412 18.0871 10.4896 17.7909H11.7376C11.6671 18.2704 11.4926 18.7023 11.2141 19.0866C10.9391 19.4674 10.5742 19.7706 10.1194 19.9962C9.66809 20.2183 9.14278 20.3294 8.54342 20.3294ZM16.8621 20.3294C16.1288 20.3294 15.4853 20.1549 14.9318 19.8058C14.3818 19.4568 13.9517 18.9685 13.6414 18.3409C13.3347 17.7134 13.1814 16.9801 13.1814 16.141C13.1814 15.2948 13.3347 14.5562 13.6414 13.9251C13.9517 13.294 14.3818 12.804 14.9318 12.4549C15.4853 12.1059 16.1288 11.9314 16.8621 11.9314C17.5954 11.9314 18.2371 12.1059 18.7871 12.4549C19.3406 12.804 19.7707 13.294 20.0774 13.9251C20.3877 14.5562 20.5428 15.2948 20.5428 16.141C20.5428 16.9801 20.3877 17.7134 20.0774 18.3409C19.7707 18.9685 19.3406 19.4568 18.7871 19.8058C18.2371 20.1549 17.5954 20.3294 16.8621 20.3294ZM16.8621 19.2082C17.4191 19.2082 17.8775 19.0655 18.2371 18.7799C18.5967 18.4943 18.8629 18.1188 19.0356 17.6535C19.2084 17.1881 19.2948 16.6839 19.2948 16.141C19.2948 15.598 19.2084 15.0921 19.0356 14.6232C18.8629 14.1543 18.5967 13.7753 18.2371 13.4862C17.8775 13.1971 17.4191 13.0525 16.8621 13.0525C16.305 13.0525 15.8467 13.1971 15.4871 13.4862C15.1275 13.7753 14.8613 14.1543 14.6886 14.6232C14.5158 15.0921 14.4294 15.598 14.4294 16.141C14.4294 16.6839 14.5158 17.1881 14.6886 17.6535C14.8613 18.1188 15.1275 18.4943 15.4871 18.7799C15.8467 19.0655 16.305 19.2082 16.8621 19.2082ZM23.3576 20.2448C23.0967 20.2448 22.8728 20.1513 22.6859 19.9645C22.4991 19.7776 22.4057 19.5538 22.4057 19.2929C22.4057 19.032 22.4991 18.8081 22.6859 18.6212C22.8728 18.4344 23.0967 18.3409 23.3576 18.3409C23.6185 18.3409 23.8423 18.4344 24.0292 18.6212C24.2161 18.8081 24.3095 19.032 24.3095 19.2929C24.3095 19.4656 24.2654 19.6243 24.1773 19.7688C24.0927 19.9134 23.9781 20.0297 23.8335 20.1178C23.6925 20.2025 23.5339 20.2448 23.3576 20.2448Z" fill="#002B49"/>
<path d="M31.6683 16.839V12.0372H32.9164V20.1602H31.6683V18.7852H31.5837C31.3933 19.1977 31.0972 19.5485 30.6952 19.8376C30.2933 20.1231 29.7856 20.2659 29.1722 20.2659C28.6645 20.2659 28.2132 20.1549 27.8183 19.9328C27.4235 19.7071 27.1132 19.3687 26.8876 18.9174C26.6619 18.4626 26.5491 17.8897 26.5491 17.1986V12.0372H27.7972V17.114C27.7972 17.7063 27.9629 18.1788 28.2943 18.5313C28.6292 18.8839 29.0558 19.0602 29.5741 19.0602C29.8844 19.0602 30.1999 18.9808 30.5207 18.8222C30.8451 18.6635 31.1166 18.4203 31.3351 18.0924C31.5573 17.7645 31.6683 17.3467 31.6683 16.839ZM36.3657 17.1986L36.3446 15.6544H36.5984L40.1522 12.0372H41.6965L37.91 15.866H37.8042L36.3657 17.1986ZM35.2023 20.1602V9.3295H36.4504V20.1602H35.2023ZM40.3638 20.1602L37.1907 16.141L38.0792 15.2737L41.9503 20.1602H40.3638Z" fill="white"/>
</svg>
