<svg width="51" height="72" viewBox="0 0 51 72" fill="none" xmlns="http://www.w3.org/2000/svg">
<path d="M40.8472 48.2806L41.1641 46.8547C41.4017 45.7457 40.768 44.5574 39.7381 44.0821L31.1034 40.3588C30.0735 39.9627 28.8852 40.2004 28.2515 41.0718L26.9048 42.7354L40.8472 48.2806ZM0.683594 20.5543C0.604376 40.5173 16.9233 56.757 36.8863 56.757C38.0746 56.757 39.0252 56.044 39.2628 54.8557L40.055 51.687L24.7659 45.3496C19.2206 42.6561 14.7844 38.2199 12.091 32.6747L5.75355 17.3856L2.58483 18.1777C1.39656 18.4154 0.604376 19.366 0.683594 20.5543ZM16.3688 29.1891C17.2402 28.5553 17.4778 27.367 17.0817 26.3372L13.3585 17.7024C12.8832 16.6726 11.6949 16.0389 10.5066 16.2765L9.15993 16.5934L14.7052 30.5358L16.3688 29.1891Z" fill="#66C206"/>
<path d="M40.055 51.6868L40.8472 48.2804L26.9048 42.7351L24.7659 45.3493L40.055 51.6868ZM12.091 32.6744L14.7052 30.5355L9.15993 16.5931L5.75355 17.3853L12.091 32.6744Z" fill="#CAD6CA"/>
<path d="M34.8759 17.0212C34.8759 16.3607 35.384 15.8018 36.0953 15.8018C36.7559 15.8018 37.3148 16.3607 37.3148 17.0212V23.3217L41.6337 26.1671C42.1926 26.5736 42.345 27.3357 41.9385 27.8946C41.5829 28.4535 40.8207 28.606 40.2618 28.1995L35.384 24.9476C35.0791 24.7444 34.8759 24.3379 34.8759 23.9314V17.0212ZM36.0953 10.924C43.2596 10.924 49.1028 16.7672 49.1028 23.9314C49.1028 31.1465 43.2596 36.9389 36.0953 36.9389C28.8803 36.9389 23.0879 31.1465 23.0879 23.9314C23.0879 16.7672 28.8803 10.924 36.0953 10.924ZM25.5268 23.9314C25.5268 29.7746 30.2522 34.5 36.0953 34.5C41.8877 34.5 46.6639 29.7746 46.6639 23.9314C46.6639 18.139 41.8877 13.3629 36.0953 13.3629C30.2522 13.3629 25.5268 18.139 25.5268 23.9314Z" fill="#CAD6CA"/>
</svg>
