<svg width="44" height="58" viewBox="0 0 44 58" fill="none" xmlns="http://www.w3.org/2000/svg">
<path d="M19.1463 47.4112C18.8304 42.9882 15.2762 39.5129 10.8532 39.276C12.5118 35.4848 15.4342 29.2452 17.8826 25.6909C24.3592 16.134 33.9951 15.8181 39.6819 16.9239C40.6296 17.0818 41.3405 17.7927 41.4985 18.7405C42.6042 24.4272 42.2883 34.0631 32.7314 40.5397C29.1772 42.9092 23.0165 45.7526 19.1463 47.4112ZM31.8626 23.4004C30.046 23.4004 28.7033 24.8221 28.7033 26.5598C28.7033 28.3764 30.046 29.7191 31.8626 29.7191C33.6002 29.7191 35.0219 28.3764 35.0219 26.5598C35.0219 24.8221 33.6002 23.4004 31.8626 23.4004Z" fill="#66C206"/>
<path d="M3.34981 39.197C2.71794 39.197 2.08608 38.8811 1.77015 38.2492C1.37524 37.6963 1.37524 36.9065 1.77015 36.3536L5.95624 29.4821C6.98301 27.8235 8.79961 26.7177 10.7742 26.7177H17.1718C14.9603 30.3509 12.3538 35.8007 10.8532 39.197H3.34981ZM31.6256 47.6481C31.6256 49.6227 30.5988 51.4393 28.9402 52.4661L22.0687 56.6522C21.5158 56.9681 20.726 57.0471 20.1731 56.6522C19.5413 56.3362 19.1463 55.7044 19.1463 54.9935V47.4112C22.6216 45.9105 28.0714 43.4621 31.6256 41.2505V47.6481ZM14.6443 53.5718C10.7742 57.521 1.5332 56.8891 1.5332 56.8891C1.5332 56.8891 0.901341 47.6481 4.77149 43.778C7.53589 41.0926 11.9589 41.0926 14.6443 43.778C17.3297 46.4634 17.3297 50.8864 14.6443 53.5718ZM10.9321 47.4902C10.0633 46.5424 8.56267 46.5424 7.69386 47.4902C6.35115 48.7539 6.5881 51.8342 6.5881 51.8342C6.5881 51.8342 9.66842 52.0712 10.9321 50.7285C11.8799 49.8597 11.8799 48.359 10.9321 47.4902Z" fill="#E8F3E8"/>
</svg>
