<svg width="43" height="50" viewBox="0 0 43 50" fill="none" xmlns="http://www.w3.org/2000/svg">
<path d="M39.2053 44.5271C39.2053 44.5271 16.1423 18.8577 15.9054 18.5418C17.0901 17.831 19.0647 17.1991 21.987 17.1991C24.9884 17.1991 26.9629 17.9099 28.1477 18.5418C27.9107 18.9367 23.7246 23.5967 23.7246 23.5967L29.9643 30.5472L32.6497 27.6248C34.9402 25.0974 35.3351 21.3852 33.5975 18.4628L30.1222 12.5391C29.8063 11.9862 29.3324 11.5123 28.7795 11.1964C25.6202 8.9849 18.7487 8.82693 15.2735 11.1964C14.7206 11.5123 14.2467 11.9862 13.9308 12.5391L10.4555 18.3049C10.3766 18.5418 7.53319 23.2018 11.4033 27.4669L30.9911 49.1871C31.6229 49.8979 32.6497 50.0559 33.4395 49.503L38.8893 47.2915C39.8371 46.6597 39.9951 45.3959 39.2053 44.5271Z" fill="#66C206"/>
<path d="M22.1447 39.3929L13.0617 49.2657C12.4298 49.8976 11.4031 50.0555 10.6132 49.5027L5.16344 47.2911C4.21564 46.6593 4.05768 45.3955 4.84751 44.5267L15.8261 32.4424L22.1447 39.3929Z" fill="#66C206"/>
<path d="M27.663 6.21293H32.7969C34.8505 6.21293 36.5881 7.95055 36.5881 10.0041V15.138L40.1423 18.7712C41.643 20.1929 41.643 22.6413 40.1423 24.063L36.5881 27.6962V32.7511C36.5881 34.8837 34.8505 36.5423 32.7969 36.5423H27.663L24.0298 40.1755C22.6081 41.6762 20.1597 41.6762 18.738 40.1755L15.1048 36.5423H10.0499C7.91735 36.5423 6.25871 34.8837 6.25871 32.7511V27.6962L2.6255 24.063C1.12483 22.6413 1.12483 20.1929 2.6255 18.7712L6.25871 15.138V10.0041C6.25871 7.95055 7.91735 6.21293 10.0499 6.21293H15.1048L18.738 2.65871C20.1597 1.15804 22.6081 1.15804 24.0298 2.65871L27.663 6.21293Z" fill="#E8F3E8"/>
<path fill-rule="evenodd" clip-rule="evenodd" d="M28.0708 5.21293H32.7969C35.4027 5.21293 37.5881 7.39827 37.5881 10.0041V14.7302L40.8447 18.0591C42.7422 19.8725 42.7422 22.9617 40.8447 24.7751L37.5881 28.104V32.7511C37.5881 35.4495 35.3891 37.5423 32.7969 37.5423H28.0772L24.7458 40.8737C22.9317 42.7768 19.8361 42.7768 18.022 40.8737L14.6906 37.5423H10.0499C7.36506 37.5423 5.25871 35.4359 5.25871 32.7511V28.1104L1.92734 24.7791C0.0242193 22.9649 0.0242194 19.8693 1.92734 18.0551L5.25871 14.7238V10.0041C5.25871 7.41188 7.35154 5.21293 10.0499 5.21293H14.697L18.0259 1.95636C19.8393 0.0588167 22.9285 0.0588167 24.7419 1.95636L28.0708 5.21293ZM27.663 6.21293L24.0298 2.65871C22.6081 1.15804 20.1597 1.15804 18.738 2.65871L15.1048 6.21293H10.0499C7.91735 6.21293 6.25871 7.95055 6.25871 10.0041V15.138L2.6255 18.7712C1.12483 20.1929 1.12483 22.6413 2.6255 24.063L6.25871 27.6962V32.7511C6.25871 34.8837 7.91735 36.5423 10.0499 36.5423H15.1048L18.738 40.1755C20.1597 41.6762 22.6081 41.6762 24.0298 40.1755L27.663 36.5423H32.7969C34.8505 36.5423 36.5881 34.8837 36.5881 32.7511V27.6962L40.1423 24.063C41.643 22.6413 41.643 20.1929 40.1423 18.7712L36.5881 15.138V10.0041C36.5881 7.95055 34.8505 6.21293 32.7969 6.21293H27.663Z" fill="#66C206"/>
<path d="M36.8809 21.416C36.8809 29.9749 29.9426 36.9131 21.3838 36.9131C12.825 36.9131 5.88672 29.9749 5.88672 21.416C5.88672 12.8572 12.825 5.91895 21.3838 5.91895C29.9426 5.91895 36.8809 12.8572 36.8809 21.416Z" fill="white"/>
<path fill-rule="evenodd" clip-rule="evenodd" d="M21.3838 35.9131C29.3903 35.9131 35.8809 29.4226 35.8809 21.416C35.8809 13.4095 29.3903 6.91895 21.3838 6.91895C13.3773 6.91895 6.88672 13.4095 6.88672 21.416C6.88672 29.4226 13.3773 35.9131 21.3838 35.9131ZM21.3838 36.9131C29.9426 36.9131 36.8809 29.9749 36.8809 21.416C36.8809 12.8572 29.9426 5.91895 21.3838 5.91895C12.825 5.91895 5.88672 12.8572 5.88672 21.416C5.88672 29.9749 12.825 36.9131 21.3838 36.9131Z" fill="#66C206"/>
<path d="M8.16406 21.4165C8.16406 14.1353 14.051 8.19678 21.3838 8.19678C28.665 8.19678 34.6035 14.1353 34.6035 21.4165C34.6035 28.7493 28.665 34.6362 21.3838 34.6362C14.051 34.6362 8.16406 28.7493 8.16406 21.4165ZM22.4166 15.1165C22.4166 14.4968 21.9518 13.9804 21.3321 13.9804C20.7125 13.9804 20.1961 14.4968 20.1961 15.1165V15.9427C19.8862 16.046 19.5764 16.0976 19.3182 16.2525C18.3887 16.6657 17.5108 17.3886 17.3043 18.5247C17.0461 19.7124 17.5625 20.7968 18.5953 21.4165C19.3182 21.8813 20.2994 22.1911 21.0739 22.3977C21.1772 22.4493 21.2805 22.4493 21.4354 22.5009C22.0551 22.6558 22.6748 22.8108 23.1912 23.1722C23.8108 23.5854 23.501 24.36 22.8813 24.5665C22.4682 24.7731 21.7453 24.8764 20.8674 24.7214C20.2477 24.6182 19.6797 24.4116 19.06 24.205C18.9567 24.205 18.8018 24.1534 18.6985 24.1018C18.1305 23.8952 17.4592 24.205 17.3043 24.8247C17.0977 25.3927 17.4075 26.0124 17.9756 26.219C18.6985 26.4772 19.4731 26.6837 20.1961 26.8387V27.7682C20.1961 28.3878 20.7125 28.8526 21.3321 28.8526C21.9518 28.8526 22.4166 28.3878 22.4166 27.7682V26.9936C22.8813 26.9419 23.3461 26.8387 23.7592 26.6321C24.6887 26.2706 25.5149 25.496 25.7215 24.36C25.9281 23.1722 25.4633 22.0362 24.4822 21.3649C23.7076 20.7968 22.6748 20.5386 21.8485 20.2804C21.7453 20.2804 21.642 20.2288 21.4871 20.1772C20.919 20.0222 20.2994 19.8673 19.783 19.5575C19.1633 19.1444 19.628 18.5247 20.1961 18.2665C20.8158 18.0083 21.5903 17.9567 22.3133 18.0599C22.6748 18.1632 23.0363 18.2665 23.3977 18.3698C23.4494 18.3698 23.5526 18.4214 23.6043 18.4214C24.224 18.5763 24.8436 18.2665 24.9986 17.6468C25.1535 17.0788 24.792 16.4591 24.224 16.2525C24.1207 16.2525 24.0174 16.2009 23.9141 16.2009C23.4494 16.046 22.933 15.8911 22.4166 15.8394V15.1165Z" fill="#66C206"/>
</svg>
