<svg width="438" height="435" viewBox="0 0 438 435" fill="none" xmlns="http://www.w3.org/2000/svg">
<path d="M182.152 192.271L17.5792 287.288C-2.89151 299.107 -5.11479 316.983 12.6103 327.217L187.129 427.973C204.854 438.208 235.817 436.924 256.284 425.109L420.86 330.089C441.331 318.273 443.553 300.395 425.829 290.16L251.311 189.404C243.279 184.766 232.534 182.495 221.274 182.495C207.683 182.495 193.347 185.807 182.152 192.271Z" fill="black"/>
<path d="M182.152 192.271L17.5792 287.288C-2.89151 299.107 -5.11479 316.983 12.6103 327.217L187.129 427.973C204.854 438.208 235.817 436.924 256.284 425.109L420.86 330.089C441.331 318.273 443.553 300.395 425.829 290.16L251.311 189.404C243.279 184.766 232.534 182.495 221.274 182.495C207.683 182.495 193.347 185.807 182.152 192.271Z" fill="white"/>
<path fill-rule="evenodd" clip-rule="evenodd" d="M85.6875 224.128L218.097 300.575L350.512 224.126L218.102 147.677L85.6875 224.128Z" fill="#8DDE39"/>
<path fill-rule="evenodd" clip-rule="evenodd" d="M218.1 300.574V355.618L350.514 279.167V224.125L218.1 300.574Z" fill="#8DDE39"/>
<path fill-rule="evenodd" clip-rule="evenodd" d="M85.748 279.12L218.163 355.571V300.53L85.748 224.078V279.12Z" fill="#8DDE39"/>
<path fill-rule="evenodd" clip-rule="evenodd" d="M289.627 282.169C289.627 284.607 291.339 285.596 293.451 284.377C295.563 283.158 297.275 280.191 297.275 277.753C297.275 275.316 295.563 274.327 293.451 275.546C291.339 276.765 289.627 279.729 289.627 282.169ZM280.649 297.717C280.649 300.157 282.361 301.144 284.473 299.925C286.585 298.706 288.298 295.742 288.298 293.302C288.298 290.864 286.585 289.875 284.473 291.094C282.361 292.315 280.649 295.28 280.649 297.717ZM271.34 292.727C271.34 295.165 273.052 296.154 275.164 294.935C277.276 293.716 278.986 290.749 278.986 288.311C278.986 285.874 277.276 284.885 275.164 286.104C273.052 287.325 271.34 290.287 271.34 292.727ZM262.363 308.277C262.363 310.714 264.075 311.703 266.187 310.484C268.299 309.265 270.009 306.299 270.009 303.861C270.009 301.423 268.299 300.434 266.187 301.653C264.075 302.872 262.363 305.836 262.363 308.277ZM253.052 303.285C253.052 305.725 254.764 306.712 256.876 305.493C258.988 304.274 260.7 301.307 260.7 298.869C260.7 296.432 258.988 295.443 256.876 296.662C254.764 297.883 253.052 300.847 253.052 303.285ZM244.075 318.835C244.075 321.272 245.787 322.261 247.899 321.042C250.011 319.824 251.723 316.857 251.723 314.419C251.723 311.981 250.011 310.992 247.899 312.211C245.787 313.43 244.075 316.395 244.075 318.835ZM234.766 313.843C234.766 316.283 236.478 317.27 238.59 316.051C240.702 314.832 242.411 311.865 242.411 309.428C242.411 306.99 240.702 306.001 238.59 307.22C236.478 308.441 234.766 311.405 234.766 313.843ZM318.448 270.161C318.448 276.547 322.931 279.136 328.462 275.941C333.991 272.75 338.474 264.984 338.474 258.598C338.474 252.211 333.991 249.625 328.462 252.817C322.931 256.009 318.448 263.775 318.448 270.161Z" fill="#579713"/>
<mask id="mask0_429_1705" style="mask-type:alpha" maskUnits="userSpaceOnUse" x="96" y="285" width="244" height="85">
<path d="M96.5039 285.359H339.818V369.151H96.5039V285.359Z" fill="white"/>
</mask>
<g mask="url(#mask0_429_1705)">
<path fill-rule="evenodd" clip-rule="evenodd" d="M218.162 355.599L339.818 285.359V298.913L218.162 369.152L96.5039 298.913V285.359L218.162 355.599Z" fill="#579713"/>
</g>
<path fill-rule="evenodd" clip-rule="evenodd" d="M218.097 226.949L350.512 150.5L218.1 74.051L85.6875 150.502L218.097 226.949Z" fill="#8DDE39"/>
<path fill-rule="evenodd" clip-rule="evenodd" d="M218.1 281.992L350.512 205.543V150.499L218.1 226.951V281.992Z" fill="#8DDE39"/>
<path fill-rule="evenodd" clip-rule="evenodd" d="M85.748 205.495L218.16 281.944V226.902L85.748 150.453V205.495Z" fill="#8DDE39"/>
<path fill-rule="evenodd" clip-rule="evenodd" d="M289.627 208.543C289.627 210.983 291.339 211.97 293.451 210.751C295.563 209.532 297.275 206.568 297.275 204.127C297.275 201.69 295.563 200.701 293.451 201.92C291.339 203.141 289.627 206.105 289.627 208.543ZM280.649 224.092C280.649 226.53 282.361 227.519 284.473 226.3C286.585 225.081 288.298 222.115 288.298 219.677C288.298 217.239 286.585 216.25 284.473 217.469C282.361 218.688 280.649 221.652 280.649 224.092ZM271.34 219.101C271.34 221.541 273.052 222.528 275.164 221.309C277.276 220.09 278.986 217.126 278.986 214.686C278.986 212.248 277.276 211.259 275.164 212.478C273.052 213.699 271.34 216.663 271.34 219.101ZM262.363 234.651C262.363 237.088 264.075 238.077 266.187 236.858C268.299 235.639 270.009 232.673 270.009 230.235C270.009 227.797 268.299 226.808 266.187 228.027C264.075 229.248 262.363 232.213 262.363 234.651ZM253.052 229.659C253.052 232.099 254.764 233.086 256.876 231.867C258.988 230.648 260.7 227.684 260.7 225.244C260.7 222.806 258.988 221.819 256.876 223.036C254.764 224.257 253.052 227.222 253.052 229.659ZM244.075 245.209C244.075 247.649 245.787 248.635 247.899 247.416C250.011 246.198 251.723 243.231 251.723 240.793C251.723 238.355 250.011 237.366 247.899 238.585C245.787 239.807 244.075 242.771 244.075 245.209ZM234.766 240.218C234.766 242.656 236.478 243.645 238.59 242.426C240.702 241.207 242.411 238.24 242.411 235.803C242.411 233.365 240.702 232.376 238.59 233.595C236.478 234.814 234.766 237.778 234.766 240.218ZM318.448 196.535C318.448 202.921 322.931 205.51 328.462 202.316C333.991 199.124 338.474 191.358 338.474 184.972C338.474 178.588 333.991 175.999 328.462 179.191C322.931 182.386 318.448 190.149 318.448 196.535Z" fill="#579713"/>
<path fill-rule="evenodd" clip-rule="evenodd" d="M218.162 281.975L339.818 211.735V225.288L218.162 295.526L96.5039 225.288V211.735L218.162 281.975Z" fill="#579713"/>
<path fill-rule="evenodd" clip-rule="evenodd" d="M218.097 153.323L350.512 76.8739L218.1 0.427368L85.6875 76.8763L218.097 153.323Z" fill="#66C206"/>
<path fill-rule="evenodd" clip-rule="evenodd" d="M218.1 208.367L350.512 131.918V76.8737L218.1 153.325V208.367Z" fill="#8DDE39"/>
<path fill-rule="evenodd" clip-rule="evenodd" d="M85.748 131.87L218.16 208.319V153.278L85.748 76.8287V131.87Z" fill="#8DDE39"/>
<path fill-rule="evenodd" clip-rule="evenodd" d="M289.627 134.918C289.627 137.356 291.339 138.345 293.451 137.126C295.563 135.907 297.275 132.94 297.275 130.503C297.275 128.065 295.563 127.076 293.451 128.295C291.339 129.514 289.627 132.478 289.627 134.918ZM280.649 150.467C280.649 152.907 282.361 153.893 284.473 152.674C286.585 151.456 288.298 148.491 288.298 146.051C288.298 143.613 286.585 142.624 284.473 143.843C282.361 145.065 280.649 148.029 280.649 150.467ZM271.34 145.476C271.34 147.914 273.052 148.903 275.164 147.684C277.276 146.465 278.986 143.498 278.986 141.061C278.986 138.623 277.276 137.634 275.164 138.853C273.052 140.072 271.34 143.036 271.34 145.476ZM262.363 161.025C262.363 163.465 264.075 164.451 266.187 163.233C268.299 162.014 270.009 159.049 270.009 156.609C270.009 154.172 268.299 153.183 266.187 154.401C264.075 155.623 262.363 158.587 262.363 161.025ZM253.052 156.034C253.052 158.472 254.764 159.461 256.876 158.242C258.988 157.023 260.7 154.057 260.7 151.619C260.7 149.181 258.988 148.192 256.876 149.411C254.764 150.63 253.052 153.594 253.052 156.034ZM244.075 171.584C244.075 174.022 245.787 175.01 247.899 173.792C250.011 172.573 251.723 169.606 251.723 167.168C251.723 164.731 250.011 163.742 247.899 164.96C245.787 166.179 244.075 169.144 244.075 171.584ZM234.766 166.593C234.766 169.033 236.478 170.019 238.59 168.8C240.702 167.582 242.411 164.615 242.411 162.177C242.411 159.739 240.702 158.75 238.59 159.969C236.478 161.19 234.766 164.155 234.766 166.593ZM318.448 122.91C318.448 129.297 322.931 131.885 328.462 128.691C333.991 125.499 338.474 117.733 338.474 111.347C338.474 104.961 333.991 102.372 328.462 105.567C322.931 108.759 318.448 116.524 318.448 122.91Z" fill="#579713"/>
<path fill-rule="evenodd" clip-rule="evenodd" d="M218.162 208.349L339.818 138.109V151.662L218.162 221.902L96.5039 151.662V138.109L218.162 208.349Z" fill="#579713"/>
<path fill-rule="evenodd" clip-rule="evenodd" d="M30.02 217.413C30.02 257.996 90.5475 325.703 90.5475 325.703C90.5475 325.703 151.078 327.619 151.078 287.036C151.078 265.467 152.744 218.577 152.744 218.577L90.5475 157.123L26.791 147.917C26.791 147.917 30.02 196.782 30.02 217.413Z" fill="#6DC67E"/>
<path fill-rule="evenodd" clip-rule="evenodd" d="M13.8535 154.478L26.7902 147.919L34.5759 164.545L13.8535 154.478Z" fill="#6DC67E"/>
<path fill-rule="evenodd" clip-rule="evenodd" d="M110.938 327.145L130.311 317.922L112.117 312.643L110.938 327.145Z" fill="#6DC67E"/>
<path fill-rule="evenodd" clip-rule="evenodd" d="M17.0825 223.975C17.0825 264.555 77.61 332.265 77.61 332.265C77.61 332.265 138.14 334.181 138.14 293.595C138.14 272.029 139.807 225.136 139.807 225.136L77.61 163.682L13.8535 154.476C13.8535 154.476 17.0825 203.341 17.0825 223.975Z" fill="#59C170"/>
<path fill-rule="evenodd" clip-rule="evenodd" d="M65.9065 216.693C65.9065 209.73 70.8079 206.899 76.8321 210.381C82.8564 213.862 87.7548 222.355 87.7548 229.318V235.63L65.9065 223.006V216.693ZM73.6032 251.466C72.2041 249.482 71.3693 247.138 71.3693 245.1C71.3693 241.619 73.82 240.202 76.8321 241.943C79.8443 243.683 82.2949 247.931 82.2949 251.413C82.2949 253.451 81.4572 254.829 80.0581 255.197L80.9196 264.646C80.9641 265.116 80.8394 265.493 80.5809 265.674C80.3225 265.861 79.9512 265.838 79.5621 265.615L74.0992 262.457C73.7101 262.234 73.3418 261.827 73.0833 261.343C72.8249 260.859 72.7001 260.339 72.7417 259.92L73.6032 251.466ZM52.248 216.693V256.145C52.248 259.626 54.7017 263.874 57.7138 265.615L95.9505 287.707C97.4862 288.595 98.8794 288.663 99.8716 288.051C100.825 287.466 101.413 286.257 101.413 284.552V245.1C101.413 244.227 100.804 243.167 100.047 242.733L95.9505 240.365V234.053C95.9505 221.868 87.3745 207.003 76.8321 200.914C66.2897 194.821 57.7138 199.776 57.7138 211.958V218.271L53.6145 215.903C52.86 215.466 52.248 215.82 52.248 216.693Z" fill="white"/>
</svg>
