<svg width="1839" height="1215" viewBox="0 0 1839 1215" fill="none" xmlns="http://www.w3.org/2000/svg">
<path opacity="0.2" fill-rule="evenodd" clip-rule="evenodd" d="M922.742 458.488C922.742 711.336 1127.72 916.31 1380.56 916.31C1633.41 916.31 1838.39 711.336 1838.39 458.488C1838.39 205.64 1633.41 0.665824 1380.56 0.665813C1127.72 0.665801 922.742 205.64 922.742 458.488ZM1071.87 458.488C1071.87 629.408 1210.43 767.965 1381.35 767.965C1552.27 767.966 1690.82 629.408 1690.82 458.488C1690.82 287.568 1552.27 149.01 1381.35 149.01C1210.43 149.01 1071.87 287.568 1071.87 458.488Z" fill="url(#paint0_linear_671_408)"/>
<g clip-path="url(#clip0_671_408)">
<path d="M1509.48 886.017C1509.77 886.018 1510.06 886.105 1510.3 886.268C1510.54 886.43 1510.73 886.661 1510.85 886.931C1510.99 887.271 1511 887.652 1510.88 888C1510.75 888.347 1510.51 888.636 1510.18 888.81C1509.85 888.984 1509.48 889.03 1509.12 888.939C1508.76 888.848 1508.45 888.627 1508.25 888.319C1508.06 888.035 1507.97 887.693 1508.01 887.352C1508.04 887.011 1508.19 886.692 1508.43 886.45C1508.71 886.173 1509.09 886.017 1509.48 886.017ZM1509.48 871.097C1509.87 871.097 1510.25 871.253 1510.53 871.531C1510.8 871.808 1510.96 872.185 1510.96 872.577C1510.96 872.97 1510.8 873.346 1510.53 873.624C1510.25 873.901 1509.87 874.057 1509.48 874.057C1509.09 874.057 1508.71 873.901 1508.43 873.624C1508.16 873.346 1508 872.97 1508 872.577C1508 872.185 1508.16 871.808 1508.43 871.531C1508.71 871.253 1509.09 871.097 1509.48 871.097Z" fill="#4E9406"/>
<path d="M1509.48 859.137C1509.67 859.137 1509.87 859.099 1510.05 859.025C1510.23 858.95 1510.39 858.841 1510.53 858.704C1510.66 858.566 1510.77 858.403 1510.85 858.224C1510.92 858.044 1510.96 857.852 1510.96 857.657C1510.96 857.463 1510.92 857.27 1510.85 857.091C1510.77 856.911 1510.66 856.748 1510.53 856.611C1510.39 856.473 1510.23 856.364 1510.05 856.29C1509.87 856.216 1509.67 856.177 1509.48 856.177C1509.09 856.177 1508.71 856.333 1508.43 856.611C1508.16 856.888 1508 857.265 1508 857.657C1508 858.05 1508.16 858.426 1508.43 858.704C1508.71 858.981 1509.09 859.137 1509.48 859.137ZM1509.48 844.227C1509.87 844.227 1510.25 844.071 1510.53 843.794C1510.8 843.516 1510.96 843.14 1510.96 842.747C1510.96 842.355 1510.8 841.978 1510.53 841.701C1510.25 841.423 1509.87 841.267 1509.48 841.267C1509.09 841.267 1508.71 841.423 1508.43 841.701C1508.16 841.978 1508 842.355 1508 842.747C1508 843.14 1508.16 843.516 1508.43 843.794C1508.71 844.071 1509.09 844.227 1509.48 844.227ZM1509.48 829.307C1509.87 829.307 1510.25 829.151 1510.53 828.874C1510.8 828.596 1510.96 828.22 1510.96 827.827C1510.96 827.435 1510.8 827.058 1510.53 826.781C1510.25 826.503 1509.87 826.347 1509.48 826.347C1509.09 826.347 1508.71 826.503 1508.43 826.781C1508.16 827.058 1508 827.435 1508 827.827C1508 828.22 1508.16 828.596 1508.43 828.874C1508.71 829.151 1509.09 829.307 1509.48 829.307ZM1509.48 814.387C1509.87 814.387 1510.25 814.231 1510.53 813.954C1510.8 813.676 1510.96 813.3 1510.96 812.907C1510.96 812.515 1510.8 812.138 1510.53 811.861C1510.25 811.583 1509.87 811.427 1509.48 811.427C1509.09 811.427 1508.71 811.583 1508.43 811.861C1508.16 812.138 1508 812.515 1508 812.907C1508 813.3 1508.16 813.676 1508.43 813.954C1508.71 814.231 1509.09 814.387 1509.48 814.387ZM1509.48 799.477C1509.87 799.477 1510.25 799.321 1510.53 799.044C1510.8 798.766 1510.96 798.39 1510.96 797.997C1510.96 797.605 1510.8 797.228 1510.53 796.951C1510.25 796.673 1509.87 796.517 1509.48 796.517C1509.09 796.517 1508.71 796.673 1508.43 796.951C1508.16 797.228 1508 797.605 1508 797.997C1508 798.39 1508.16 798.766 1508.43 799.044C1508.71 799.321 1509.09 799.477 1509.48 799.477ZM1509.48 784.557C1509.67 784.557 1509.87 784.519 1510.05 784.445C1510.23 784.37 1510.39 784.261 1510.53 784.124C1510.66 783.986 1510.77 783.823 1510.85 783.644C1510.92 783.464 1510.96 783.272 1510.96 783.077C1510.96 782.883 1510.92 782.69 1510.85 782.511C1510.77 782.331 1510.66 782.168 1510.53 782.031C1510.39 781.893 1510.23 781.784 1510.05 781.71C1509.87 781.636 1509.67 781.597 1509.48 781.597C1509.09 781.597 1508.71 781.753 1508.43 782.031C1508.16 782.308 1508 782.685 1508 783.077C1508 783.47 1508.16 783.846 1508.43 784.124C1508.71 784.401 1509.09 784.557 1509.48 784.557Z" fill="#E4E4E4"/>
<path d="M1520.78 886.017C1521.07 886.018 1521.36 886.105 1521.6 886.268C1521.85 886.43 1522.04 886.661 1522.15 886.931C1522.23 887.133 1522.27 887.352 1522.26 887.57C1522.25 887.789 1522.19 888.003 1522.09 888.196C1521.98 888.389 1521.84 888.557 1521.66 888.687C1521.49 888.818 1521.28 888.907 1521.07 888.95C1520.85 888.993 1520.63 888.987 1520.42 888.934C1520.21 888.881 1520.01 888.781 1519.84 888.642C1519.67 888.503 1519.54 888.328 1519.44 888.13C1519.35 887.932 1519.3 887.716 1519.3 887.497C1519.3 887.303 1519.34 887.11 1519.41 886.929C1519.48 886.749 1519.59 886.586 1519.73 886.448C1519.87 886.31 1520.03 886.201 1520.21 886.127C1520.39 886.053 1520.59 886.016 1520.78 886.017H1520.78ZM1520.78 871.097C1521.07 871.098 1521.36 871.184 1521.6 871.346C1521.84 871.508 1522.03 871.738 1522.14 872.007C1522.26 872.276 1522.29 872.573 1522.23 872.859C1522.18 873.146 1522.04 873.409 1521.83 873.617C1521.63 873.825 1521.37 873.968 1521.08 874.027C1520.79 874.087 1520.5 874.06 1520.23 873.951C1519.96 873.842 1519.72 873.656 1519.56 873.415C1519.39 873.174 1519.3 872.889 1519.3 872.597C1519.3 872.401 1519.33 872.206 1519.4 872.023C1519.48 871.841 1519.58 871.675 1519.72 871.535C1519.86 871.395 1520.02 871.284 1520.21 871.209C1520.39 871.134 1520.58 871.096 1520.78 871.097H1520.78Z" fill="#4E9406"/>
<path d="M1520.78 859.137C1520.97 859.137 1521.17 859.099 1521.35 859.025C1521.52 858.95 1521.69 858.841 1521.83 858.704C1521.96 858.566 1522.07 858.403 1522.15 858.224C1522.22 858.044 1522.26 857.852 1522.26 857.657C1522.26 857.463 1522.22 857.27 1522.15 857.091C1522.07 856.911 1521.96 856.748 1521.83 856.611C1521.69 856.473 1521.52 856.364 1521.35 856.29C1521.17 856.216 1520.97 856.177 1520.78 856.177C1520.39 856.177 1520.01 856.333 1519.73 856.611C1519.45 856.888 1519.3 857.265 1519.3 857.657C1519.3 858.05 1519.45 858.426 1519.73 858.704C1520.01 858.981 1520.39 859.137 1520.78 859.137ZM1520.78 844.227C1521.17 844.227 1521.55 844.071 1521.83 843.794C1522.1 843.516 1522.26 843.14 1522.26 842.747C1522.26 842.355 1522.1 841.978 1521.83 841.701C1521.55 841.423 1521.17 841.267 1520.78 841.267C1520.39 841.267 1520.01 841.423 1519.73 841.701C1519.45 841.978 1519.3 842.355 1519.3 842.747C1519.3 843.14 1519.45 843.516 1519.73 843.794C1520.01 844.071 1520.39 844.227 1520.78 844.227ZM1520.78 829.307C1521.17 829.307 1521.55 829.151 1521.83 828.874C1522.1 828.596 1522.26 828.22 1522.26 827.827C1522.26 827.435 1522.1 827.058 1521.83 826.781C1521.55 826.503 1521.17 826.347 1520.78 826.347C1520.39 826.347 1520.01 826.503 1519.73 826.781C1519.45 827.058 1519.3 827.435 1519.3 827.827C1519.3 828.22 1519.45 828.596 1519.73 828.874C1520.01 829.151 1520.39 829.307 1520.78 829.307ZM1520.78 814.387C1521.17 814.387 1521.55 814.231 1521.83 813.954C1522.1 813.676 1522.26 813.3 1522.26 812.907C1522.26 812.515 1522.1 812.138 1521.83 811.861C1521.55 811.583 1521.17 811.427 1520.78 811.427C1520.39 811.427 1520.01 811.583 1519.73 811.861C1519.45 812.138 1519.3 812.515 1519.3 812.907C1519.3 813.3 1519.45 813.676 1519.73 813.954C1520.01 814.231 1520.39 814.387 1520.78 814.387ZM1520.78 799.477C1521.17 799.477 1521.55 799.321 1521.83 799.044C1522.1 798.766 1522.26 798.39 1522.26 797.997C1522.26 797.605 1522.1 797.228 1521.83 796.951C1521.55 796.673 1521.17 796.517 1520.78 796.517C1520.39 796.517 1520.01 796.673 1519.73 796.951C1519.45 797.228 1519.3 797.605 1519.3 797.997C1519.3 798.39 1519.45 798.766 1519.73 799.044C1520.01 799.321 1520.39 799.477 1520.78 799.477ZM1520.78 784.557C1520.97 784.557 1521.17 784.519 1521.35 784.445C1521.52 784.37 1521.69 784.261 1521.83 784.124C1521.96 783.986 1522.07 783.823 1522.15 783.644C1522.22 783.464 1522.26 783.272 1522.26 783.077C1522.26 782.883 1522.22 782.69 1522.15 782.511C1522.07 782.331 1521.96 782.168 1521.83 782.031C1521.69 781.893 1521.52 781.784 1521.35 781.71C1521.17 781.636 1520.97 781.597 1520.78 781.597C1520.39 781.597 1520.01 781.753 1519.73 782.031C1519.45 782.308 1519.3 782.685 1519.3 783.077C1519.3 783.47 1519.45 783.846 1519.73 784.124C1520.01 784.401 1520.39 784.557 1520.78 784.557Z" fill="#E4E4E4"/>
<path d="M1532.07 886.017C1532.36 886.018 1532.65 886.105 1532.89 886.268C1533.13 886.43 1533.32 886.661 1533.44 886.931C1533.56 887.225 1533.58 887.549 1533.5 887.857C1533.43 888.165 1533.25 888.44 1533.01 888.642C1532.76 888.843 1532.46 888.96 1532.14 888.976C1531.82 888.991 1531.51 888.904 1531.25 888.728C1530.98 888.551 1530.78 888.294 1530.67 887.995C1530.57 887.696 1530.56 887.371 1530.65 887.067C1530.74 886.763 1530.93 886.497 1531.19 886.308C1531.44 886.119 1531.75 886.017 1532.07 886.017ZM1532.07 871.097C1532.27 871.092 1532.46 871.127 1532.65 871.199C1532.83 871.271 1533 871.379 1533.14 871.517C1533.28 871.655 1533.39 871.819 1533.47 872.002C1533.55 872.184 1533.59 872.379 1533.59 872.577C1533.59 872.774 1533.55 872.97 1533.47 873.152C1533.39 873.334 1533.28 873.499 1533.14 873.637C1533 873.775 1532.83 873.883 1532.65 873.955C1532.46 874.027 1532.27 874.061 1532.07 874.056C1531.68 874.046 1531.32 873.886 1531.05 873.61C1530.78 873.333 1530.63 872.963 1530.63 872.577C1530.63 872.191 1530.78 871.82 1531.05 871.544C1531.32 871.268 1531.68 871.107 1532.07 871.097Z" fill="#4E9406"/>
<path d="M1532.07 856.187C1532.36 856.187 1532.65 856.274 1532.89 856.437C1533.14 856.6 1533.33 856.832 1533.44 857.103C1533.55 857.374 1533.58 857.672 1533.52 857.96C1533.46 858.247 1533.32 858.511 1533.11 858.717C1532.9 858.924 1532.64 859.064 1532.35 859.12C1532.06 859.176 1531.77 859.145 1531.5 859.032C1531.23 858.918 1531 858.727 1530.83 858.482C1530.67 858.238 1530.59 857.95 1530.59 857.657C1530.59 857.463 1530.63 857.271 1530.7 857.092C1530.78 856.913 1530.89 856.751 1531.02 856.614C1531.16 856.478 1531.32 856.37 1531.5 856.296C1531.68 856.223 1531.88 856.186 1532.07 856.187ZM1532.07 841.267C1532.46 841.267 1532.84 841.423 1533.12 841.701C1533.39 841.978 1533.55 842.355 1533.55 842.747C1533.55 843.14 1533.39 843.516 1533.12 843.794C1532.84 844.071 1532.46 844.227 1532.07 844.227C1531.68 844.227 1531.3 844.071 1531.02 843.794C1530.75 843.516 1530.59 843.14 1530.59 842.747C1530.59 842.355 1530.75 841.978 1531.02 841.701C1531.3 841.423 1531.68 841.267 1532.07 841.267ZM1532.07 826.347C1532.46 826.347 1532.84 826.503 1533.12 826.781C1533.39 827.058 1533.55 827.435 1533.55 827.827C1533.55 828.22 1533.39 828.596 1533.12 828.874C1532.84 829.151 1532.46 829.307 1532.07 829.307C1531.68 829.307 1531.3 829.151 1531.02 828.874C1530.75 828.596 1530.59 828.22 1530.59 827.827C1530.59 827.435 1530.75 827.058 1531.02 826.781C1531.3 826.503 1531.68 826.347 1532.07 826.347ZM1532.07 811.427C1532.46 811.427 1532.84 811.583 1533.12 811.861C1533.39 812.138 1533.55 812.515 1533.55 812.907C1533.55 813.3 1533.39 813.676 1533.12 813.954C1532.84 814.231 1532.46 814.387 1532.07 814.387C1531.68 814.387 1531.3 814.231 1531.02 813.954C1530.75 813.676 1530.59 813.3 1530.59 812.907C1530.59 812.515 1530.75 812.138 1531.02 811.861C1531.3 811.583 1531.68 811.427 1532.07 811.427ZM1532.07 796.517C1532.46 796.517 1532.84 796.673 1533.12 796.951C1533.39 797.228 1533.55 797.605 1533.55 797.997C1533.55 798.39 1533.39 798.766 1533.12 799.044C1532.84 799.321 1532.46 799.477 1532.07 799.477C1531.68 799.477 1531.3 799.321 1531.02 799.044C1530.75 798.766 1530.59 798.39 1530.59 797.997C1530.59 797.605 1530.75 797.228 1531.02 796.951C1531.3 796.673 1531.68 796.517 1532.07 796.517ZM1532.07 781.597C1532.26 781.597 1532.46 781.636 1532.64 781.71C1532.82 781.784 1532.98 781.893 1533.12 782.031C1533.25 782.168 1533.36 782.331 1533.44 782.511C1533.51 782.69 1533.55 782.883 1533.55 783.077C1533.55 783.272 1533.51 783.464 1533.44 783.644C1533.36 783.823 1533.25 783.986 1533.12 784.124C1532.98 784.261 1532.82 784.37 1532.64 784.445C1532.46 784.519 1532.26 784.557 1532.07 784.557C1531.68 784.557 1531.3 784.401 1531.02 784.124C1530.75 783.846 1530.59 783.47 1530.59 783.077C1530.59 782.685 1530.75 782.308 1531.02 782.031C1531.3 781.753 1531.68 781.597 1532.07 781.597V781.597Z" fill="#E4E4E4"/>
<path d="M1543.37 886.017C1543.66 886.018 1543.95 886.105 1544.19 886.268C1544.44 886.43 1544.63 886.661 1544.74 886.931C1544.86 887.225 1544.88 887.549 1544.81 887.857C1544.73 888.165 1544.55 888.44 1544.31 888.642C1544.06 888.843 1543.76 888.96 1543.44 888.976C1543.13 888.991 1542.81 888.904 1542.55 888.728C1542.28 888.551 1542.08 888.294 1541.98 887.995C1541.87 887.696 1541.86 887.371 1541.95 887.067C1542.05 886.763 1542.23 886.497 1542.49 886.308C1542.74 886.119 1543.05 886.017 1543.37 886.017H1543.37ZM1543.37 871.097C1543.57 871.092 1543.76 871.127 1543.95 871.199C1544.13 871.271 1544.3 871.379 1544.44 871.517C1544.58 871.655 1544.7 871.819 1544.77 872.002C1544.85 872.184 1544.89 872.379 1544.89 872.577C1544.89 872.774 1544.85 872.97 1544.77 873.152C1544.7 873.334 1544.58 873.499 1544.44 873.637C1544.3 873.775 1544.13 873.883 1543.95 873.955C1543.76 874.027 1543.57 874.061 1543.37 874.056C1542.98 874.046 1542.62 873.886 1542.35 873.61C1542.08 873.333 1541.93 872.963 1541.93 872.577C1541.93 872.191 1542.08 871.82 1542.35 871.544C1542.62 871.268 1542.98 871.107 1543.37 871.097Z" fill="#4E9406"/>
<path d="M1543.37 856.187C1543.66 856.187 1543.95 856.274 1544.19 856.437C1544.44 856.6 1544.63 856.832 1544.74 857.103C1544.85 857.374 1544.88 857.672 1544.82 857.96C1544.76 858.247 1544.62 858.511 1544.41 858.717C1544.2 858.924 1543.94 859.064 1543.65 859.12C1543.36 859.176 1543.07 859.145 1542.8 859.032C1542.53 858.918 1542.29 858.727 1542.13 858.482C1541.97 858.238 1541.89 857.95 1541.89 857.657C1541.89 857.463 1541.93 857.271 1542 857.092C1542.08 856.913 1542.19 856.751 1542.32 856.614C1542.46 856.478 1542.62 856.37 1542.8 856.296C1542.98 856.223 1543.17 856.186 1543.37 856.187ZM1543.37 841.267C1543.76 841.267 1544.14 841.423 1544.42 841.701C1544.69 841.978 1544.85 842.355 1544.85 842.747C1544.85 843.14 1544.69 843.516 1544.42 843.794C1544.14 844.071 1543.76 844.227 1543.37 844.227C1542.98 844.227 1542.6 844.071 1542.32 843.794C1542.04 843.516 1541.89 843.14 1541.89 842.747C1541.89 842.355 1542.04 841.978 1542.32 841.701C1542.6 841.423 1542.98 841.267 1543.37 841.267ZM1543.37 826.347C1543.76 826.347 1544.14 826.503 1544.42 826.781C1544.69 827.058 1544.85 827.435 1544.85 827.827C1544.85 828.22 1544.69 828.596 1544.42 828.874C1544.14 829.151 1543.76 829.307 1543.37 829.307C1542.98 829.307 1542.6 829.151 1542.32 828.874C1542.04 828.596 1541.89 828.22 1541.89 827.827C1541.89 827.435 1542.04 827.058 1542.32 826.781C1542.6 826.503 1542.98 826.347 1543.37 826.347ZM1543.37 811.427C1543.76 811.427 1544.14 811.583 1544.42 811.861C1544.69 812.139 1544.85 812.515 1544.85 812.908C1544.85 813.3 1544.69 813.677 1544.42 813.955C1544.14 814.232 1543.76 814.388 1543.37 814.388C1542.98 814.388 1542.6 814.232 1542.32 813.955C1542.04 813.677 1541.89 813.301 1541.89 812.908C1541.89 812.516 1542.04 812.139 1542.32 811.862C1542.6 811.584 1542.98 811.428 1543.37 811.428V811.427ZM1543.37 796.517C1543.76 796.517 1544.14 796.673 1544.42 796.951C1544.69 797.228 1544.85 797.605 1544.85 797.997C1544.85 798.39 1544.69 798.766 1544.42 799.044C1544.14 799.321 1543.76 799.477 1543.37 799.477C1542.98 799.477 1542.6 799.321 1542.32 799.044C1542.04 798.766 1541.89 798.39 1541.89 797.997C1541.89 797.605 1542.04 797.228 1542.32 796.951C1542.6 796.673 1542.98 796.517 1543.37 796.517ZM1543.37 781.597C1543.56 781.597 1543.76 781.636 1543.94 781.71C1544.11 781.784 1544.28 781.893 1544.42 782.031C1544.55 782.168 1544.66 782.331 1544.74 782.511C1544.81 782.69 1544.85 782.883 1544.85 783.077C1544.85 783.272 1544.81 783.464 1544.74 783.644C1544.66 783.823 1544.55 783.986 1544.42 784.124C1544.28 784.261 1544.11 784.37 1543.94 784.445C1543.76 784.519 1543.56 784.557 1543.37 784.557C1542.98 784.557 1542.6 784.401 1542.32 784.124C1542.04 783.846 1541.89 783.47 1541.89 783.077C1541.89 782.685 1542.04 782.308 1542.32 782.031C1542.6 781.753 1542.98 781.597 1543.37 781.597V781.597Z" fill="#E4E4E4"/>
<path d="M1466.48 886.017C1466.77 886.018 1467.06 886.105 1467.3 886.268C1467.55 886.43 1467.74 886.661 1467.85 886.931C1467.97 887.225 1467.99 887.549 1467.92 887.857C1467.84 888.165 1467.66 888.44 1467.42 888.642C1467.17 888.843 1466.87 888.96 1466.55 888.976C1466.24 888.991 1465.92 888.904 1465.66 888.728C1465.39 888.551 1465.19 888.294 1465.09 887.995C1464.98 887.696 1464.97 887.371 1465.06 887.067C1465.16 886.763 1465.34 886.497 1465.6 886.308C1465.85 886.119 1466.16 886.017 1466.48 886.017ZM1466.48 871.097C1466.68 871.092 1466.87 871.127 1467.06 871.199C1467.24 871.271 1467.41 871.379 1467.55 871.517C1467.69 871.655 1467.81 871.819 1467.88 872.002C1467.96 872.184 1468 872.379 1468 872.577C1468 872.774 1467.96 872.97 1467.88 873.152C1467.81 873.334 1467.69 873.499 1467.55 873.637C1467.41 873.775 1467.24 873.883 1467.06 873.955C1466.87 874.027 1466.68 874.061 1466.48 874.056C1466.09 874.046 1465.73 873.886 1465.46 873.61C1465.19 873.333 1465.04 872.963 1465.04 872.577C1465.04 872.191 1465.19 871.82 1465.46 871.544C1465.73 871.268 1466.09 871.107 1466.48 871.097Z" fill="#4E9406"/>
<path d="M1466.48 859.137C1466.67 859.137 1466.87 859.099 1467.05 859.025C1467.23 858.95 1467.39 858.841 1467.53 858.704C1467.66 858.566 1467.77 858.403 1467.85 858.224C1467.92 858.044 1467.96 857.852 1467.96 857.657C1467.96 857.463 1467.92 857.27 1467.85 857.091C1467.77 856.911 1467.66 856.748 1467.53 856.611C1467.39 856.473 1467.23 856.364 1467.05 856.29C1466.87 856.216 1466.67 856.177 1466.48 856.177C1466.09 856.177 1465.71 856.333 1465.43 856.611C1465.16 856.888 1465 857.265 1465 857.657C1465 858.05 1465.16 858.426 1465.43 858.704C1465.71 858.981 1466.09 859.137 1466.48 859.137ZM1466.48 844.227C1466.87 844.227 1467.25 844.071 1467.53 843.794C1467.8 843.516 1467.96 843.14 1467.96 842.747C1467.96 842.355 1467.8 841.978 1467.53 841.701C1467.25 841.423 1466.87 841.267 1466.48 841.267C1466.09 841.267 1465.71 841.423 1465.43 841.701C1465.16 841.978 1465 842.355 1465 842.747C1465 843.14 1465.16 843.516 1465.43 843.794C1465.71 844.071 1466.09 844.227 1466.48 844.227ZM1466.48 829.307C1466.87 829.307 1467.25 829.151 1467.53 828.874C1467.8 828.596 1467.96 828.22 1467.96 827.827C1467.96 827.435 1467.8 827.058 1467.53 826.781C1467.25 826.503 1466.87 826.347 1466.48 826.347C1466.09 826.347 1465.71 826.503 1465.43 826.781C1465.16 827.058 1465 827.435 1465 827.827C1465 828.22 1465.16 828.596 1465.43 828.874C1465.71 829.151 1466.09 829.307 1466.48 829.307ZM1466.48 814.387C1466.87 814.387 1467.25 814.231 1467.53 813.954C1467.8 813.676 1467.96 813.3 1467.96 812.907C1467.96 812.515 1467.8 812.138 1467.53 811.861C1467.25 811.583 1466.87 811.427 1466.48 811.427C1466.09 811.427 1465.71 811.583 1465.43 811.861C1465.16 812.138 1465 812.515 1465 812.907C1465 813.3 1465.16 813.676 1465.43 813.954C1465.71 814.231 1466.09 814.387 1466.48 814.387ZM1466.48 799.477C1466.87 799.477 1467.25 799.321 1467.53 799.044C1467.8 798.766 1467.96 798.39 1467.96 797.997C1467.96 797.605 1467.8 797.228 1467.53 796.951C1467.25 796.673 1466.87 796.517 1466.48 796.517C1466.09 796.517 1465.71 796.673 1465.43 796.951C1465.16 797.228 1465 797.605 1465 797.997C1465 798.39 1465.16 798.766 1465.43 799.044C1465.71 799.321 1466.09 799.477 1466.48 799.477ZM1466.48 784.557C1466.67 784.557 1466.87 784.519 1467.05 784.445C1467.23 784.37 1467.39 784.261 1467.53 784.124C1467.66 783.986 1467.77 783.823 1467.85 783.644C1467.92 783.464 1467.96 783.272 1467.96 783.077C1467.96 782.883 1467.92 782.69 1467.85 782.511C1467.77 782.331 1467.66 782.168 1467.53 782.031C1467.39 781.893 1467.23 781.784 1467.05 781.71C1466.87 781.636 1466.67 781.597 1466.48 781.597C1466.09 781.597 1465.71 781.753 1465.43 782.031C1465.16 782.308 1465 782.685 1465 783.077C1465 783.47 1465.16 783.846 1465.43 784.124C1465.71 784.401 1466.09 784.557 1466.48 784.557Z" fill="#E4E4E4"/>
<path d="M1477.78 886.017C1478.07 886.018 1478.36 886.105 1478.6 886.268C1478.85 886.43 1479.04 886.661 1479.15 886.931C1479.23 887.133 1479.27 887.352 1479.26 887.57C1479.25 887.789 1479.19 888.003 1479.09 888.196C1478.98 888.389 1478.84 888.557 1478.66 888.687C1478.49 888.818 1478.28 888.907 1478.07 888.95C1477.85 888.993 1477.63 888.987 1477.42 888.934C1477.21 888.881 1477.01 888.781 1476.84 888.642C1476.67 888.503 1476.54 888.328 1476.44 888.13C1476.35 887.932 1476.3 887.716 1476.3 887.497C1476.3 887.303 1476.34 887.11 1476.41 886.929C1476.48 886.749 1476.59 886.586 1476.73 886.448C1476.87 886.31 1477.03 886.201 1477.21 886.127C1477.39 886.053 1477.59 886.016 1477.78 886.017H1477.78ZM1477.78 871.097C1478.07 871.098 1478.36 871.184 1478.6 871.346C1478.84 871.508 1479.03 871.738 1479.14 872.007C1479.26 872.276 1479.29 872.573 1479.23 872.859C1479.18 873.146 1479.04 873.409 1478.83 873.617C1478.63 873.825 1478.37 873.968 1478.08 874.027C1477.79 874.087 1477.5 874.06 1477.23 873.951C1476.96 873.842 1476.72 873.656 1476.56 873.415C1476.39 873.174 1476.3 872.889 1476.3 872.597C1476.3 872.401 1476.33 872.206 1476.4 872.023C1476.48 871.841 1476.58 871.675 1476.72 871.535C1476.86 871.395 1477.02 871.284 1477.21 871.209C1477.39 871.134 1477.58 871.096 1477.78 871.097H1477.78Z" fill="#4E9406"/>
<path d="M1477.78 859.137C1477.98 859.137 1478.17 859.099 1478.35 859.025C1478.53 858.95 1478.69 858.841 1478.83 858.704C1478.96 858.566 1479.07 858.403 1479.15 858.224C1479.22 858.044 1479.26 857.852 1479.26 857.657C1479.26 857.463 1479.22 857.27 1479.15 857.091C1479.07 856.911 1478.96 856.748 1478.83 856.611C1478.69 856.473 1478.53 856.364 1478.35 856.29C1478.17 856.216 1477.98 856.177 1477.78 856.177C1477.39 856.177 1477.01 856.333 1476.73 856.611C1476.46 856.888 1476.3 857.265 1476.3 857.657C1476.3 858.05 1476.46 858.426 1476.73 858.704C1477.01 858.981 1477.39 859.137 1477.78 859.137ZM1477.78 844.227C1478.17 844.227 1478.55 844.071 1478.83 843.794C1479.1 843.516 1479.26 843.14 1479.26 842.747C1479.26 842.355 1479.1 841.978 1478.83 841.701C1478.55 841.423 1478.17 841.267 1477.78 841.267C1477.39 841.267 1477.01 841.423 1476.73 841.701C1476.46 841.978 1476.3 842.355 1476.3 842.747C1476.3 843.14 1476.46 843.516 1476.73 843.794C1477.01 844.071 1477.39 844.227 1477.78 844.227ZM1477.78 829.307C1478.17 829.307 1478.55 829.151 1478.83 828.874C1479.1 828.596 1479.26 828.22 1479.26 827.827C1479.26 827.435 1479.1 827.058 1478.83 826.781C1478.55 826.503 1478.17 826.347 1477.78 826.347C1477.39 826.347 1477.01 826.503 1476.73 826.781C1476.46 827.058 1476.3 827.435 1476.3 827.827C1476.3 828.22 1476.46 828.596 1476.73 828.874C1477.01 829.151 1477.39 829.307 1477.78 829.307ZM1477.78 814.387C1478.17 814.387 1478.55 814.231 1478.83 813.954C1479.1 813.676 1479.26 813.3 1479.26 812.907C1479.26 812.515 1479.1 812.138 1478.83 811.861C1478.55 811.583 1478.17 811.427 1477.78 811.427C1477.39 811.427 1477.01 811.583 1476.73 811.861C1476.46 812.138 1476.3 812.515 1476.3 812.907C1476.3 813.3 1476.46 813.676 1476.73 813.954C1477.01 814.231 1477.39 814.387 1477.78 814.387ZM1477.78 799.477C1478.17 799.477 1478.55 799.321 1478.83 799.044C1479.1 798.766 1479.26 798.39 1479.26 797.997C1479.26 797.605 1479.1 797.228 1478.83 796.951C1478.55 796.673 1478.17 796.517 1477.78 796.517C1477.39 796.517 1477.01 796.673 1476.73 796.951C1476.46 797.228 1476.3 797.605 1476.3 797.997C1476.3 798.39 1476.46 798.766 1476.73 799.044C1477.01 799.321 1477.39 799.477 1477.78 799.477ZM1477.78 784.557C1477.98 784.557 1478.17 784.519 1478.35 784.445C1478.53 784.37 1478.69 784.261 1478.83 784.124C1478.96 783.986 1479.07 783.823 1479.15 783.644C1479.22 783.464 1479.26 783.272 1479.26 783.077C1479.26 782.883 1479.22 782.69 1479.15 782.511C1479.07 782.331 1478.96 782.168 1478.83 782.031C1478.69 781.893 1478.53 781.784 1478.35 781.71C1478.17 781.636 1477.98 781.597 1477.78 781.597C1477.39 781.597 1477.01 781.753 1476.73 782.031C1476.46 782.308 1476.3 782.685 1476.3 783.077C1476.3 783.47 1476.46 783.846 1476.73 784.124C1477.01 784.401 1477.39 784.557 1477.78 784.557Z" fill="#E4E4E4"/>
<path d="M1489.07 886.017C1489.36 886.018 1489.65 886.105 1489.89 886.268C1490.14 886.43 1490.32 886.661 1490.44 886.931C1490.56 887.225 1490.58 887.549 1490.51 887.857C1490.43 888.165 1490.25 888.44 1490.01 888.642C1489.76 888.843 1489.46 888.96 1489.14 888.976C1488.82 888.991 1488.51 888.904 1488.25 888.728C1487.98 888.551 1487.78 888.294 1487.68 887.995C1487.57 887.696 1487.56 887.371 1487.65 887.067C1487.75 886.763 1487.93 886.497 1488.19 886.308C1488.44 886.119 1488.75 886.017 1489.07 886.017ZM1489.07 871.097C1489.27 871.092 1489.46 871.127 1489.65 871.199C1489.83 871.271 1490 871.379 1490.14 871.517C1490.28 871.655 1490.4 871.819 1490.47 872.002C1490.55 872.184 1490.59 872.379 1490.59 872.577C1490.59 872.774 1490.55 872.97 1490.47 873.152C1490.4 873.334 1490.28 873.499 1490.14 873.637C1490 873.775 1489.83 873.883 1489.65 873.955C1489.46 874.027 1489.27 874.061 1489.07 874.056C1488.68 874.046 1488.32 873.886 1488.05 873.61C1487.78 873.333 1487.63 872.963 1487.63 872.577C1487.63 872.191 1487.78 871.82 1488.05 871.544C1488.32 871.268 1488.68 871.107 1489.07 871.097Z" fill="#4E9406"/>
<path d="M1489.07 856.187C1489.36 856.187 1489.65 856.274 1489.89 856.437C1490.14 856.6 1490.33 856.832 1490.44 857.103C1490.55 857.374 1490.58 857.672 1490.52 857.96C1490.46 858.247 1490.32 858.511 1490.11 858.717C1489.9 858.924 1489.64 859.064 1489.35 859.12C1489.06 859.176 1488.77 859.145 1488.5 859.032C1488.23 858.918 1488 858.727 1487.83 858.482C1487.67 858.238 1487.59 857.95 1487.59 857.657C1487.59 857.463 1487.63 857.271 1487.7 857.092C1487.78 856.913 1487.89 856.751 1488.02 856.614C1488.16 856.478 1488.32 856.37 1488.5 856.296C1488.68 856.223 1488.88 856.186 1489.07 856.187ZM1489.07 841.267C1489.46 841.267 1489.84 841.423 1490.12 841.701C1490.39 841.978 1490.55 842.355 1490.55 842.747C1490.55 843.14 1490.39 843.516 1490.12 843.794C1489.84 844.071 1489.46 844.227 1489.07 844.227C1488.68 844.227 1488.3 844.071 1488.02 843.794C1487.75 843.516 1487.59 843.14 1487.59 842.747C1487.59 842.355 1487.75 841.978 1488.02 841.701C1488.3 841.423 1488.68 841.267 1489.07 841.267ZM1489.07 826.347C1489.46 826.347 1489.84 826.503 1490.12 826.781C1490.39 827.058 1490.55 827.435 1490.55 827.827C1490.55 828.22 1490.39 828.596 1490.12 828.874C1489.84 829.151 1489.46 829.307 1489.07 829.307C1488.68 829.307 1488.3 829.151 1488.02 828.874C1487.75 828.596 1487.59 828.22 1487.59 827.827C1487.59 827.435 1487.75 827.058 1488.02 826.781C1488.3 826.503 1488.68 826.347 1489.07 826.347ZM1489.07 811.427C1489.46 811.427 1489.84 811.583 1490.12 811.861C1490.39 812.138 1490.55 812.515 1490.55 812.907C1490.55 813.3 1490.39 813.676 1490.12 813.954C1489.84 814.231 1489.46 814.387 1489.07 814.387C1488.68 814.387 1488.3 814.231 1488.02 813.954C1487.75 813.676 1487.59 813.3 1487.59 812.907C1487.59 812.515 1487.75 812.138 1488.02 811.861C1488.3 811.583 1488.68 811.427 1489.07 811.427ZM1489.07 796.517C1489.46 796.517 1489.84 796.673 1490.12 796.951C1490.39 797.228 1490.55 797.605 1490.55 797.997C1490.55 798.39 1490.39 798.766 1490.12 799.044C1489.84 799.321 1489.46 799.477 1489.07 799.477C1488.68 799.477 1488.3 799.321 1488.02 799.044C1487.75 798.766 1487.59 798.39 1487.59 797.997C1487.59 797.605 1487.75 797.228 1488.02 796.951C1488.3 796.673 1488.68 796.517 1489.07 796.517ZM1489.07 781.597C1489.26 781.597 1489.46 781.636 1489.64 781.71C1489.82 781.784 1489.98 781.893 1490.12 782.031C1490.25 782.168 1490.36 782.331 1490.44 782.511C1490.51 782.69 1490.55 782.883 1490.55 783.077C1490.55 783.272 1490.51 783.464 1490.44 783.644C1490.36 783.823 1490.25 783.986 1490.12 784.124C1489.98 784.261 1489.82 784.37 1489.64 784.445C1489.46 784.519 1489.26 784.557 1489.07 784.557C1488.68 784.557 1488.3 784.401 1488.02 784.124C1487.75 783.846 1487.59 783.47 1487.59 783.077C1487.59 782.685 1487.75 782.308 1488.02 782.031C1488.3 781.753 1488.68 781.597 1489.07 781.597V781.597Z" fill="#E4E4E4"/>
<path d="M1500.37 886.017C1500.66 886.018 1500.95 886.105 1501.19 886.268C1501.44 886.43 1501.63 886.661 1501.74 886.931C1501.86 887.225 1501.88 887.549 1501.81 887.857C1501.73 888.165 1501.55 888.44 1501.31 888.642C1501.06 888.843 1500.76 888.96 1500.44 888.976C1500.13 888.991 1499.81 888.904 1499.55 888.728C1499.28 888.551 1499.08 888.294 1498.98 887.995C1498.87 887.696 1498.86 887.371 1498.95 887.067C1499.05 886.763 1499.23 886.497 1499.49 886.308C1499.74 886.119 1500.05 886.017 1500.37 886.017H1500.37ZM1500.37 871.097C1500.57 871.092 1500.76 871.127 1500.95 871.199C1501.13 871.271 1501.3 871.379 1501.44 871.517C1501.58 871.655 1501.7 871.819 1501.77 872.002C1501.85 872.184 1501.89 872.379 1501.89 872.577C1501.89 872.774 1501.85 872.97 1501.77 873.152C1501.7 873.334 1501.58 873.499 1501.44 873.637C1501.3 873.775 1501.13 873.883 1500.95 873.955C1500.76 874.027 1500.57 874.061 1500.37 874.056C1499.98 874.046 1499.62 873.886 1499.35 873.61C1499.08 873.333 1498.93 872.963 1498.93 872.577C1498.93 872.191 1499.08 871.82 1499.35 871.544C1499.62 871.268 1499.98 871.107 1500.37 871.097Z" fill="#4E9406"/>
<path d="M1500.37 856.187C1500.66 856.187 1500.95 856.274 1501.19 856.437C1501.44 856.6 1501.63 856.832 1501.74 857.103C1501.85 857.374 1501.88 857.672 1501.82 857.96C1501.76 858.247 1501.62 858.511 1501.41 858.717C1501.21 858.924 1500.94 859.064 1500.65 859.12C1500.37 859.176 1500.07 859.145 1499.8 859.032C1499.53 858.918 1499.3 858.727 1499.14 858.482C1498.97 858.238 1498.89 857.95 1498.89 857.657C1498.89 857.463 1498.93 857.271 1499 857.092C1499.08 856.913 1499.19 856.751 1499.32 856.614C1499.46 856.478 1499.63 856.37 1499.81 856.296C1499.98 856.223 1500.18 856.186 1500.37 856.187ZM1500.37 841.267C1500.76 841.267 1501.14 841.423 1501.42 841.701C1501.69 841.978 1501.85 842.355 1501.85 842.747C1501.85 843.14 1501.69 843.516 1501.42 843.794C1501.14 844.071 1500.76 844.227 1500.37 844.227C1499.98 844.227 1499.6 844.071 1499.32 843.794C1499.05 843.516 1498.89 843.14 1498.89 842.747C1498.89 842.355 1499.05 841.978 1499.32 841.701C1499.6 841.423 1499.98 841.267 1500.37 841.267ZM1500.37 826.347C1500.76 826.347 1501.14 826.503 1501.42 826.781C1501.69 827.058 1501.85 827.435 1501.85 827.827C1501.85 828.22 1501.69 828.596 1501.42 828.874C1501.14 829.151 1500.76 829.307 1500.37 829.307C1499.98 829.307 1499.6 829.151 1499.32 828.874C1499.05 828.596 1498.89 828.22 1498.89 827.827C1498.89 827.435 1499.05 827.058 1499.32 826.781C1499.6 826.503 1499.98 826.347 1500.37 826.347ZM1500.37 811.427C1500.76 811.427 1501.14 811.583 1501.42 811.861C1501.7 812.139 1501.85 812.515 1501.85 812.908C1501.85 813.3 1501.7 813.677 1501.42 813.955C1501.14 814.232 1500.76 814.388 1500.37 814.388C1499.98 814.388 1499.6 814.232 1499.32 813.955C1499.05 813.677 1498.89 813.301 1498.89 812.908C1498.89 812.516 1499.05 812.139 1499.32 811.862C1499.6 811.584 1499.98 811.428 1500.37 811.428V811.427ZM1500.37 796.517C1500.76 796.517 1501.14 796.673 1501.42 796.951C1501.69 797.228 1501.85 797.605 1501.85 797.997C1501.85 798.39 1501.69 798.766 1501.42 799.044C1501.14 799.321 1500.76 799.477 1500.37 799.477C1499.98 799.477 1499.6 799.321 1499.32 799.044C1499.05 798.766 1498.89 798.39 1498.89 797.997C1498.89 797.605 1499.05 797.228 1499.32 796.951C1499.6 796.673 1499.98 796.517 1500.37 796.517ZM1500.37 781.597C1500.57 781.597 1500.76 781.636 1500.94 781.71C1501.12 781.784 1501.28 781.893 1501.42 782.031C1501.55 782.168 1501.66 782.331 1501.74 782.511C1501.81 782.69 1501.85 782.883 1501.85 783.077C1501.85 783.272 1501.81 783.464 1501.74 783.644C1501.66 783.823 1501.55 783.986 1501.42 784.124C1501.28 784.261 1501.12 784.37 1500.94 784.445C1500.76 784.519 1500.57 784.557 1500.37 784.557C1499.98 784.557 1499.6 784.401 1499.32 784.124C1499.05 783.846 1498.89 783.47 1498.89 783.077C1498.89 782.685 1499.05 782.308 1499.32 782.031C1499.6 781.753 1499.98 781.597 1500.37 781.597V781.597Z" fill="#E4E4E4"/>
</g>
<path fill-rule="evenodd" clip-rule="evenodd" d="M0.673828 729.097C0.673828 996.122 1.05483 1214.6 1.52083 1214.6C1.98683 1214.6 6.36783 1212.09 11.2548 1209.02C84.7028 1162.91 127.025 1096.98 144.091 1002.1C150.45 966.738 153.02 938.857 156.673 865.597C159.809 802.686 162.625 773.246 168.279 744.248C184.754 659.757 227.452 613.904 308.174 594.019C334.916 587.431 357.638 585.031 406.674 583.614C425.537 583.069 445.199 581.964 451.674 581.085C512.661 572.81 558.183 552.184 595.921 515.725C616.156 496.175 629.826 477.187 643.17 450.097C658.526 418.92 667.368 387.576 671.803 348.597C673.355 334.953 673.337 298.007 671.772 284.597C670.445 273.235 666.151 249.983 664.651 246.036L663.724 243.597H332.199H0.673828V729.097Z" fill="white" fill-opacity="0.2"/>
<defs>
<linearGradient id="paint0_linear_671_408" x1="1380.51" y1="-3.94694" x2="1380.51" y2="908.236" gradientUnits="userSpaceOnUse">
<stop stop-color="white"/>
<stop offset="0.983" stop-color="#66C206"/>
</linearGradient>
<clipPath id="clip0_671_408">
<rect width="80" height="108" fill="white" transform="translate(1465 781.597)"/>
</clipPath>
</defs>
</svg>
