<svg width="48" height="42" viewBox="0 0 48 42" fill="none" xmlns="http://www.w3.org/2000/svg">
<path d="M41.6249 0.312631L6.37498 0.312625C3.0703 0.312624 0.499997 2.97472 0.499996 6.1876L0.499991 35.5625C0.499991 38.8672 3.07029 41.4375 6.37497 41.4375L41.6249 41.4375C44.8377 41.4375 47.4998 38.8672 47.4998 35.5625L47.4998 6.18761C47.4998 2.97473 44.8377 0.312632 41.6249 0.312631ZM44.5623 35.5625C44.5623 37.2149 43.1854 38.5 41.6249 38.5L6.37497 38.5C4.72263 38.5 3.43748 37.2148 3.43748 35.5625L3.43748 26.75C3.43748 25.1895 4.72264 23.8125 6.37497 23.8125L41.6249 23.8126C43.1854 23.8126 44.5624 25.1895 44.5623 26.75L44.5623 35.5625ZM44.5624 21.7012C43.6444 21.2423 42.6346 20.8751 41.6249 20.8751L6.37497 20.8751C5.27342 20.8751 4.26365 21.2422 3.43748 21.7012L3.43749 6.18761C3.43749 4.62706 4.72264 3.25012 6.37498 3.25012L41.6249 3.25012C43.1854 3.25012 44.5624 4.62707 44.5624 6.18761L44.5624 21.7012ZM29.8749 28.9532C28.5897 28.9532 27.6718 29.9629 27.6718 31.1563C27.6718 32.4414 28.5897 33.3594 29.8749 33.3594C31.0683 33.3594 32.078 32.4414 32.078 31.1563C32.078 29.9629 31.0683 28.9532 29.8749 28.9532ZM38.6874 28.9532C37.4022 28.9532 36.4843 29.9629 36.4843 31.1563C36.4842 32.4414 37.4022 33.3594 38.6874 33.3594C39.8807 33.3594 40.8905 32.4414 40.8905 31.1563C40.8905 29.9629 39.8807 28.9532 38.6874 28.9532Z" fill="#66C206"/>
</svg>
