<svg width="61" height="62" viewBox="0 0 61 62" fill="none" xmlns="http://www.w3.org/2000/svg">
<path d="M22.6499 27.5306C22.6499 25.5146 20.8711 23.7358 18.8551 23.7358L17.0763 23.7358C12.8072 23.7358 9.48685 27.1748 9.48685 31.4439L9.48684 37.0174C9.48684 41.2865 12.8072 44.6069 17.0763 44.6069L18.9737 44.6069C20.9897 44.6069 22.7684 42.9467 22.7684 40.8122L22.6499 27.5306ZM30.3579 0.967376C13.2816 0.967373 0.474338 15.1977 -7.90854e-06 31.3253L-8.7379e-06 36.0687C-9.02818e-06 37.7289 1.18585 38.9148 2.72746 38.9148C4.15049 38.9148 5.6921 37.7289 5.6921 36.0687L5.6921 31.3253C5.69211 17.8065 16.7206 6.77807 30.3579 6.77807C43.8767 6.77808 55.0237 17.8065 55.0237 31.3253L55.0237 48.4016C55.0237 51.1291 52.8892 53.1451 50.2803 53.1451L37.1173 53.1451C36.1686 51.4849 34.2712 50.299 32.2553 50.299L28.5791 50.299C25.8517 50.299 23.3614 52.1964 22.7684 54.9239C22.1755 58.6 24.903 61.6832 28.342 61.6832L32.2553 61.6832C34.2712 61.6832 36.1686 60.616 37.1173 58.8372L50.2803 58.8372C55.9724 58.8372 60.7159 54.2123 60.7159 48.4016L60.7159 31.3253C60.1229 15.1977 47.3157 0.967379 30.3579 0.967376ZM43.6395 44.6069C47.79 44.6069 51.229 41.2865 51.229 37.0174L51.229 31.4439C51.229 27.1748 47.79 23.7358 43.6395 23.7358L41.7421 23.7358C39.6076 23.7358 37.9474 25.5146 37.9474 27.6492L37.9474 40.8122C37.9474 42.9467 39.6076 44.6069 41.7421 44.6069L43.6395 44.6069Z" fill="#66C206"/>
</svg>
