<svg width="575" height="623" viewBox="0 0 575 623" fill="none" xmlns="http://www.w3.org/2000/svg">
<path opacity="0.3" d="M294.611 469.12L203.62 417.125C200.209 415.204 200.634 411.797 204.473 409.667L256.889 379.409C260.727 377.276 266.48 376.851 269.89 378.766L360.88 430.765C364.289 432.682 363.865 436.093 360.029 438.223L307.607 468.479C303.777 470.824 298.022 471.039 294.611 469.12Z" fill="#D5E1F2"/>
<path d="M368.979 413.289V200.836L284.59 178.675L269.035 169.724C265.411 167.595 259.231 168.02 255.183 170.364L240.692 178.675H195.73L209.158 383.882C209.158 385.373 209.797 386.653 211.503 387.718L295.885 451.435C299.507 453.567 305.685 453.138 309.739 450.796L365.993 418.405C367.912 416.697 369.191 414.996 368.979 413.289Z" fill="#DAE4F2"/>
<path d="M262.433 168.445C259.873 168.445 257.101 169.084 254.974 170.364L240.486 178.675H195.518V391.767C195.518 393.259 196.158 394.535 197.865 395.603L295.464 451.221C297.166 452.287 299.512 452.712 301.854 452.499L302.921 238.125L262.431 168.445H262.433Z" fill="white" stroke="#BBCDE5" stroke-width="1.81545"/>
<path d="M296.316 451.646C299.297 452.924 303.774 452.924 307.398 451.434V235.569H296.316V451.646Z" fill="#BBCDE5"/>
<path d="M295.462 238.127L197.867 182.509C194.245 180.376 194.671 176.756 198.932 174.412L255.188 142.021C259.236 139.677 265.628 139.465 269.04 141.382L366.638 197C370.258 199.129 369.835 202.751 365.571 205.097L309.315 237.486C305.267 240.046 299.087 240.257 295.463 238.127H295.462Z" fill="#E8F0FB"/>
<path d="M365.568 201.261L309.313 233.65C305.266 235.994 298.87 236.208 295.461 234.289L197.864 178.461C197.012 178.034 196.586 177.395 196.157 176.97C194.881 178.887 195.517 181.017 197.864 182.511L295.463 238.127C299.084 240.258 305.266 239.832 309.314 237.488L365.568 205.097C368.767 203.18 369.834 200.622 368.338 198.705C367.912 199.558 366.846 200.409 365.568 201.261Z" fill="#FAFDFF"/>
<path d="M298.231 215.537L233.234 177.82C231.532 176.756 231.742 175.263 233.661 173.984L259.871 158.855C261.788 157.79 264.774 157.577 266.479 158.643L331.472 196.359C333.179 197.425 332.963 198.915 331.049 200.193L304.836 215.323C302.917 216.391 299.934 216.605 298.229 215.537H298.231Z" fill="#66C206"/>
<path d="M263.071 179.524L259.236 177.395C259.024 177.182 259.024 176.97 259.236 176.97L262.858 174.839C263.071 174.624 263.499 174.624 263.713 174.839L267.546 176.97C267.764 177.182 267.764 177.395 267.546 177.395L263.924 179.524C263.712 179.738 263.283 179.738 263.071 179.524ZM275.643 186.77L271.808 184.64C271.598 184.426 271.598 184.215 271.808 184.215L275.432 182.084C275.643 181.872 276.068 181.872 276.282 182.084L280.118 184.215C280.33 184.428 280.33 184.64 280.118 184.64L276.496 186.77C276.282 186.984 276.071 186.984 275.643 186.77ZM288.431 194.015L284.593 191.884C284.38 191.671 284.38 191.457 284.593 191.457L288.215 189.329C288.333 189.226 288.484 189.169 288.641 189.169C288.798 189.169 288.95 189.226 289.068 189.329L292.904 191.457C293.116 191.671 293.116 191.884 292.904 191.884L289.282 194.015C288.856 194.228 288.641 194.228 288.429 194.015H288.431ZM301.003 201.259L297.167 199.129C296.954 198.915 296.954 198.704 297.167 198.704L300.789 196.573C300.907 196.47 301.059 196.414 301.216 196.414C301.373 196.414 301.525 196.47 301.644 196.573L305.476 198.704C305.688 198.917 305.688 199.129 305.476 199.129L301.854 201.259C301.644 201.473 301.213 201.473 301.003 201.259Z" fill="#D4ECFF"/>
<path d="M233.234 177.82C233.449 177.82 233.661 177.607 233.661 177.607L259.871 162.477C261.79 161.412 264.774 161.199 266.479 162.265L331.472 199.772C332.963 198.703 333.179 197.212 331.472 196.359L266.479 158.643C264.776 157.577 261.79 157.79 259.871 158.855L233.661 173.984C231.742 175.263 231.532 176.97 233.234 177.82Z" fill="#0D54A9"/>
<path d="M320.392 280.318L357.258 259.223C359.388 257.943 361.094 254.747 361.094 251.979V238.766C361.094 235.998 359.388 234.718 357.258 235.998L320.392 257.093C318.261 258.369 316.558 261.568 316.558 264.339V277.55C316.558 280.106 318.261 281.382 320.392 280.318Z" fill="#66C206"/>
<path d="M359.18 235.355C359.817 235.996 360.033 236.847 360.033 238.125V251.338C360.033 254.107 358.327 257.304 356.195 258.584L319.329 279.679C318.688 280.104 318.053 280.104 317.41 280.104C318.053 280.743 319.117 280.959 320.181 280.104L357.049 259.008C359.178 257.728 360.883 254.531 360.883 251.765V238.552C361.097 236.847 360.242 235.569 359.178 235.357L359.18 235.355Z" fill="white"/>
<path d="M331.475 265.827L334.883 263.912C335.308 263.698 335.736 262.845 335.736 262.42V258.8C335.736 258.157 335.309 257.943 334.883 258.157L331.473 260.076C331.049 260.288 330.62 261.143 330.62 261.568V265.19C330.622 265.825 331.049 266.256 331.473 265.826L331.475 265.827ZM342.769 259.437L346.179 257.52C346.605 257.309 347.034 256.452 347.034 256.028V252.406C347.034 251.765 346.607 251.552 346.18 251.765L342.769 253.684C342.341 253.898 341.916 254.748 341.916 255.176V258.8C342.128 259.435 342.341 259.649 342.769 259.435V259.437Z" fill="white"/>
<path d="M320.392 375.786L357.258 354.69C359.388 353.408 361.094 350.215 361.094 347.446V334.232C361.094 331.46 359.388 330.183 357.258 331.459L320.392 352.559C318.261 353.839 316.558 357.034 316.558 359.802V373.013C316.558 375.787 318.261 377.065 320.392 375.787V375.786Z" fill="#66C206"/>
<path d="M359.18 331.035C359.817 331.676 360.033 332.527 360.033 333.803V347.02C360.033 349.786 358.327 352.982 356.195 354.26L319.329 375.359C318.688 375.784 318.053 375.784 317.41 375.784C318.053 376.423 319.117 376.637 320.181 375.784L357.049 354.688C359.178 353.406 360.883 350.213 360.883 347.444V334.232C361.097 332.311 360.242 331.249 359.178 331.036L359.18 331.035Z" fill="white"/>
<path d="M331.475 361.511L334.883 359.586C335.308 359.376 335.736 358.522 335.736 358.098V354.476C335.736 353.839 335.309 353.623 334.883 353.839L331.473 355.752C331.049 355.968 330.62 356.818 330.62 357.246V360.868C330.622 361.511 331.049 361.721 331.473 361.511H331.475ZM342.769 354.904L346.179 352.984C346.605 352.771 347.034 351.92 347.034 351.491V347.871C347.034 347.232 346.607 347.018 346.18 347.232L342.769 349.149C342.341 349.362 341.916 350.215 341.916 350.642V354.263C342.128 354.904 342.341 355.117 342.769 354.904Z" fill="white"/>
<path d="M320.392 423.519L357.258 402.42C359.388 401.144 361.094 397.949 361.094 395.178V381.965C361.094 379.197 359.388 377.917 357.258 379.197L320.392 400.292C318.261 401.568 316.558 404.765 316.558 407.536V420.747C316.558 423.517 318.261 424.797 320.392 423.517V423.519Z" fill="#66C206"/>
<path d="M359.18 378.768C359.817 379.411 360.033 380.259 360.033 381.539V394.75C360.033 397.52 358.327 400.717 356.195 401.995L319.329 423.091C318.688 423.514 318.053 423.514 317.41 423.514C318.053 424.155 319.117 424.367 320.181 423.514L357.047 402.418C359.178 401.142 360.881 397.947 360.881 395.176V381.963C361.099 380.048 360.242 378.983 359.178 378.768H359.18Z" fill="white"/>
<path d="M331.475 409.242L334.883 407.322C335.308 407.111 335.736 406.256 335.736 405.833V402.208C335.736 401.572 335.313 401.356 334.883 401.572L331.473 403.487C331.049 403.702 330.62 404.553 330.62 404.978V408.6C330.622 409.242 331.049 409.453 331.473 409.242H331.475ZM342.769 402.634L346.179 400.717C346.605 400.505 347.034 399.65 347.034 399.228V395.601C347.034 394.962 346.607 394.75 346.18 394.962L342.769 396.879C342.343 397.092 341.916 397.95 341.916 398.37V401.995C342.128 402.634 342.341 402.848 342.769 402.634Z" fill="white"/>
<path d="M320.392 328.052L357.258 306.956C359.388 305.68 361.094 302.481 361.094 299.713V286.502C361.094 283.733 359.388 282.453 357.258 283.733L320.392 304.827C318.261 306.105 316.558 309.304 316.558 312.074V325.285C316.558 328.052 318.261 329.332 320.392 328.052Z" fill="#66C206"/>
<path d="M359.18 283.303C359.817 283.942 360.033 284.791 360.033 286.069V299.284C360.033 302.053 358.327 305.25 356.195 306.528L319.329 327.623C318.688 328.048 318.053 328.048 317.41 328.048C318.053 328.687 319.117 328.9 320.181 328.048L357.049 306.953C359.178 305.676 360.883 302.477 360.883 299.707V286.498C361.097 284.581 360.242 283.303 359.178 283.303H359.18Z" fill="white"/>
<path d="M331.475 313.775L334.883 311.858C335.308 311.644 335.736 310.79 335.736 310.366V306.742C335.736 306.101 335.313 305.889 334.883 306.101L331.473 308.02C331.049 308.234 330.62 309.088 330.62 309.512V313.134C330.622 313.561 331.049 313.987 331.473 313.773L331.475 313.775ZM342.769 307.169L346.179 305.25C346.605 305.037 347.034 304.184 347.034 303.761V299.921C347.034 299.286 346.607 299.07 346.18 299.286L342.769 301.201C342.343 301.415 341.916 302.267 341.916 302.69V306.314C342.128 307.169 342.341 307.379 342.769 307.169Z" fill="white"/>
<path d="M288.431 266.682L203.19 217.458C201.274 216.392 199.78 213.41 199.78 210.85V194.656C199.78 192.096 201.273 191.032 203.19 192.096L288.429 241.324C290.348 242.39 291.838 245.372 291.838 247.93V264.124C291.84 266.682 290.349 267.748 288.431 266.682Z" fill="#66C206"/>
<path opacity="0.5" d="M285.873 260.927L205.536 214.686C204.47 214.047 203.831 212.556 203.831 211.277V199.131C203.831 197.851 204.686 197.212 205.538 197.851L285.873 244.305C286.939 244.948 287.576 246.438 287.576 247.716V259.86C287.576 260.927 286.937 261.57 285.873 260.927Z" fill="#D4ECFF"/>
<path d="M222.37 218.095L210.439 211.064C209.586 210.423 208.734 209.147 208.734 207.867C208.734 206.587 209.588 205.948 210.441 206.587L222.37 213.618C223.225 214.259 224.073 215.537 224.073 216.814C224.073 218.095 223.225 218.736 222.37 218.095ZM232.6 221.721C232.6 222.999 231.747 223.426 230.681 222.787C229.616 222.146 228.766 220.655 228.766 219.373C228.766 218.095 229.616 217.671 230.681 218.31C231.535 218.949 232.6 220.439 232.6 221.721ZM239.419 225.767C239.419 227.046 238.566 227.472 237.502 226.833C236.436 226.192 235.585 224.702 235.585 223.42C235.585 222.144 236.438 221.719 237.502 222.356C238.564 222.997 239.419 224.488 239.419 225.767ZM246.449 229.816C246.449 231.094 245.599 231.521 244.533 230.883C243.466 230.243 242.614 228.752 242.614 227.474C242.614 226.194 243.468 225.767 244.533 226.408C245.599 227.044 246.449 228.54 246.449 229.816ZM282.462 254.323L278.413 251.977C277.772 251.554 277.348 250.701 277.348 249.849V245.583C277.348 244.734 277.772 244.309 278.411 244.733L282.462 247.075C283.104 247.502 283.529 248.357 283.529 249.209V253.473C283.742 254.108 283.104 254.535 282.462 254.323Z" fill="white"/>
<path d="M288.431 295.448L203.19 246.224C201.274 245.158 199.78 242.176 199.78 239.618V223.208C199.78 220.65 201.273 219.586 203.19 220.65L288.429 269.874C290.348 270.938 291.838 273.922 291.838 276.482V292.678C291.84 295.448 290.349 296.512 288.431 295.448Z" fill="#66C206"/>
<path opacity="0.5" d="M285.873 289.693L205.536 243.239C204.47 242.6 203.831 241.11 203.831 239.83V227.685C203.831 226.407 204.686 225.766 205.538 226.407L285.873 272.86C286.939 273.499 287.576 274.99 287.576 276.268V288.413C287.576 289.693 286.937 290.334 285.873 289.693Z" fill="#D4ECFF"/>
<path d="M222.37 246.863L210.439 239.83C209.586 239.191 208.734 237.911 208.734 236.635C208.734 235.355 209.588 234.716 210.441 235.355L222.37 242.388C223.225 243.027 224.073 244.307 224.073 245.583C224.073 246.649 223.225 247.29 222.37 246.863ZM232.6 250.483C232.6 251.763 231.747 252.19 230.681 251.549C229.616 250.91 228.766 249.417 228.766 248.139C228.766 246.861 229.616 246.436 230.681 247.072C231.535 247.714 232.6 249.207 232.6 250.485V250.483ZM239.419 254.321C239.419 255.601 238.566 256.027 237.502 255.387C236.436 254.751 235.585 253.259 235.585 251.975C235.585 250.699 236.438 250.272 237.502 250.912C238.564 251.549 239.419 253.255 239.419 254.321ZM246.449 258.368C246.449 259.647 245.599 260.074 244.533 259.435C243.466 258.8 242.614 257.302 242.614 256.026C242.614 254.746 243.468 254.319 244.533 254.958C245.599 255.601 246.449 257.089 246.449 258.368ZM282.462 282.876L278.413 280.531C277.772 280.106 277.348 279.253 277.348 278.399V274.138C277.348 273.285 277.772 272.86 278.411 273.285L282.462 275.629C283.104 276.054 283.529 276.909 283.529 277.76V282.023C283.742 282.876 283.104 283.301 282.462 282.876Z" fill="white"/>
<path d="M288.431 324.003L203.19 274.777C201.274 273.71 199.78 270.729 199.78 268.173V251.973C199.78 249.419 201.273 248.353 203.19 249.419L288.429 298.645C290.348 299.709 291.838 302.69 291.838 305.25V321.445C291.84 324.005 290.349 325.281 288.431 324.005V324.003Z" fill="#66C206"/>
<path opacity="0.5" d="M285.873 318.463L205.536 272.009C204.47 271.368 203.831 269.876 203.831 268.598V256.452C203.831 255.174 204.686 254.533 205.538 255.174L285.873 301.632C286.939 302.267 287.576 303.757 287.576 305.039V317.185C287.576 318.463 286.937 318.891 285.873 318.463Z" fill="#D4ECFF"/>
<path d="M222.37 275.42L210.439 268.385C209.586 267.744 208.734 266.466 208.734 265.19C208.734 263.91 209.588 263.269 210.441 263.91L222.37 270.94C223.225 271.582 224.073 272.864 224.073 274.14C224.073 275.42 223.225 276.054 222.37 275.42ZM232.6 279.04C232.6 280.318 231.747 280.743 230.681 280.106C229.616 279.467 228.766 277.974 228.766 276.696C228.766 275.42 229.616 274.99 230.681 275.631C231.535 276.27 232.6 277.762 232.6 279.04ZM239.419 283.09C239.419 284.367 238.566 284.793 237.502 284.156C236.436 283.515 235.585 282.023 235.585 280.743C235.585 279.467 236.438 279.04 237.502 279.679C238.564 280.318 239.419 281.809 239.419 283.092V283.09ZM246.449 287.139C246.449 288.415 245.599 288.842 244.533 288.203C243.468 287.564 242.614 286.073 242.614 284.793C242.614 283.517 243.468 283.09 244.533 283.729C245.599 284.368 246.449 285.859 246.449 287.139ZM282.462 311.644L278.413 309.302C277.772 308.873 277.348 308.02 277.348 307.169V302.908C277.348 302.055 277.772 301.632 278.411 302.055L282.462 304.4C283.104 304.823 283.529 305.676 283.529 306.528V310.791C283.742 311.644 283.104 311.858 282.462 311.644Z" fill="white"/>
<path d="M288.431 352.771L203.19 303.543C201.274 302.479 199.78 299.497 199.78 296.94V280.743C199.78 278.187 201.273 277.121 203.19 278.187L288.429 327.411C290.348 328.477 291.838 331.459 291.838 334.019V350.213C291.84 352.769 290.349 353.838 288.431 352.769V352.771Z" fill="#66C206"/>
<path opacity="0.5" d="M285.873 347.018L205.536 300.562C204.47 299.92 203.831 298.431 203.831 297.151V285.007C203.831 283.729 204.686 283.09 205.538 283.729L285.873 330.183C286.939 330.822 287.576 332.314 287.576 333.592V345.74C287.576 347.018 286.937 347.659 285.873 347.018Z" fill="#D4ECFF"/>
<path d="M222.37 304.186L210.439 297.153C209.586 296.512 208.734 295.236 208.734 293.958C208.734 292.68 209.588 292.037 210.441 292.68L222.37 299.709C223.225 300.352 224.073 301.633 224.073 302.91C224.073 304.186 223.225 304.611 222.37 304.186ZM232.6 307.81C232.6 309.088 231.747 309.513 230.681 308.874C229.616 308.234 228.766 306.744 228.766 305.464C228.766 304.19 229.616 303.761 230.681 304.4C231.535 305.037 232.6 306.53 232.6 307.81ZM239.419 311.858C239.419 313.134 238.566 313.561 237.502 312.92C236.436 312.285 235.585 310.791 235.585 309.513C235.585 308.234 236.438 307.81 237.502 308.445C238.564 309.088 239.419 310.576 239.419 311.858ZM246.449 315.692C246.449 316.97 245.599 317.399 244.533 316.756C243.468 316.117 242.614 314.628 242.614 313.349C242.614 312.071 243.468 311.644 244.533 312.281C245.599 312.918 246.449 314.63 246.449 315.694V315.692ZM282.462 340.197L278.413 337.855C277.772 337.429 277.348 336.577 277.348 335.722V331.458C277.348 330.606 277.772 330.181 278.411 330.606L282.462 332.954C283.104 333.377 283.529 334.23 283.529 335.081V339.348C283.742 340.197 283.104 340.626 282.462 340.197Z" fill="white"/>
<path d="M288.431 381.539L203.19 332.315C201.274 331.249 199.78 328.266 199.78 325.71V309.512C199.78 306.955 201.273 305.889 203.19 306.955L288.429 356.179C290.348 357.246 291.838 360.227 291.838 362.787V378.983C291.84 381.324 290.349 382.604 288.431 381.539Z" fill="#66C206"/>
<path opacity="0.5" d="M285.873 375.785L205.536 329.33C204.47 328.689 203.831 327.199 203.831 325.92V313.775C203.831 312.497 204.686 311.858 205.538 312.497L285.873 358.951C286.939 359.59 287.576 361.082 287.576 362.36V374.509C287.576 375.785 286.937 376.212 285.873 375.785Z" fill="#D4ECFF"/>
<path d="M222.37 332.741L210.439 325.71C209.586 325.069 208.734 323.789 208.734 322.511C208.734 321.231 209.588 320.592 210.441 321.231L222.37 328.264C223.225 328.905 224.073 330.181 224.073 331.459C224.073 332.741 223.225 333.38 222.37 332.741ZM232.6 336.363C232.6 337.639 231.747 338.066 230.681 337.429C229.616 336.788 228.766 335.295 228.766 334.019C228.766 332.739 229.616 332.313 230.681 332.954C231.535 333.591 232.6 335.295 232.6 336.363ZM239.419 340.411C239.419 341.689 238.566 342.118 237.502 341.479C236.436 340.838 235.585 339.348 235.585 338.068C235.585 336.79 236.438 336.365 237.502 337.002C238.564 337.639 239.419 339.137 239.419 340.411ZM246.449 344.462C246.449 345.738 245.599 346.165 244.533 345.527C243.466 344.886 242.614 343.396 242.614 342.118C242.614 340.838 243.468 340.411 244.533 341.049C245.599 341.689 246.449 343.182 246.449 344.462ZM282.462 368.967L278.413 366.621C277.772 366.198 277.348 365.343 277.348 364.49V360.227C277.348 359.374 277.772 358.949 278.411 359.374L282.462 361.719C283.104 362.144 283.529 362.997 283.529 363.847V368.113C283.742 368.967 283.104 369.393 282.462 368.967Z" fill="white"/>
<path d="M288.431 410.092L203.19 360.868C201.274 359.802 199.78 356.819 199.78 354.262V338.068C199.78 335.512 201.273 334.446 203.19 335.512L288.431 384.736C290.349 385.803 291.84 388.784 291.84 391.34V407.536C291.84 410.092 290.348 411.16 288.431 410.092Z" fill="#66C206"/>
<path opacity="0.5" d="M285.873 404.343L205.536 357.885C204.47 357.246 203.831 355.752 203.831 354.476V342.541C203.831 341.265 204.686 340.626 205.538 341.265L285.871 387.718C286.937 388.359 287.574 389.852 287.574 391.132V403.277C287.574 404.343 286.935 404.978 285.871 404.343H285.873Z" fill="#D4ECFF"/>
<path d="M222.37 361.511L210.439 354.476C209.586 353.84 208.734 352.559 208.734 351.28C208.734 349.999 209.588 349.36 210.441 349.999L222.37 357.034C223.225 357.673 224.073 358.951 224.073 360.229C224.073 361.511 223.225 362.146 222.37 361.511ZM232.6 365.131C232.6 366.409 231.747 366.837 230.681 366.198C229.616 365.557 228.766 364.065 228.766 362.787C228.766 361.509 229.616 361.08 230.681 361.721C231.535 362.36 232.6 363.849 232.6 365.131ZM239.419 369.183C239.419 370.457 238.566 370.884 237.502 370.247C236.436 369.606 235.585 368.115 235.585 366.835C235.585 365.555 236.438 365.131 237.502 365.768C238.564 366.409 239.419 367.899 239.419 369.181V369.183ZM246.449 373.231C246.449 374.507 245.599 374.932 244.533 374.295C243.468 373.654 242.614 372.164 242.614 370.884C242.614 369.606 243.468 369.181 244.533 369.818C245.599 370.455 246.449 371.951 246.449 373.231ZM282.462 397.522L278.413 395.18C277.772 394.751 277.348 393.9 277.348 393.047V388.784C277.348 387.931 277.772 387.508 278.411 387.931L282.462 390.276C283.104 390.701 283.529 391.553 283.529 392.406V396.669C283.742 397.522 283.104 397.948 282.462 397.522Z" fill="white"/>
<path d="M288.432 438.862L203.191 389.637C201.275 388.57 199.781 385.585 199.781 383.029V366.835C199.781 364.276 201.274 363.212 203.191 364.276L288.43 413.5C290.349 414.565 291.839 417.548 291.839 420.106V436.304C291.841 438.645 290.349 439.927 288.432 438.862Z" fill="#66C206"/>
<path opacity="0.5" d="M285.874 433.108L205.537 386.653C204.473 386.015 203.832 384.521 203.832 383.241V371.098C203.832 369.82 204.687 369.181 205.537 369.82L285.874 416.274C286.94 416.916 287.577 418.407 287.577 419.687V431.832C287.577 433.108 286.938 433.747 285.874 433.108Z" fill="#D4ECFF"/>
<path d="M222.37 390.278L210.439 383.243C209.584 382.604 208.734 381.326 208.734 380.048C208.734 378.768 209.586 378.127 210.439 378.768L222.37 385.805C223.225 386.44 224.073 387.718 224.073 388.998C224.073 390.064 223.225 390.703 222.37 390.278Z" fill="white"/>
<path d="M228.235 388.728C226.808 389.551 226.844 392.284 228.314 394.832C229.785 397.38 232.133 398.778 233.56 397.954C234.987 397.131 234.951 394.398 233.481 391.85C232.011 389.302 229.662 387.904 228.235 388.728Z" fill="white"/>
<path d="M249.009 403.702C249.009 404.978 248.158 405.405 247.092 404.766C246.024 404.127 245.175 402.634 245.175 401.356C245.175 400.078 246.024 399.651 247.092 400.292C248.158 400.931 249.009 402.42 249.009 403.702ZM256.042 407.75C256.042 409.028 255.189 409.455 254.123 408.818C253.057 408.177 252.206 406.688 252.206 405.406C252.206 404.128 253.061 403.704 254.123 404.343C255.189 404.978 256.042 406.47 256.042 407.75ZM282.464 426.29L278.414 423.946C277.775 423.519 277.35 422.67 277.35 421.814V417.552C277.35 416.697 277.775 416.272 278.414 416.697L282.464 419.042C283.107 419.469 283.532 420.319 283.532 421.175V425.436C283.744 426.29 283.107 426.714 282.464 426.29Z" fill="white"/>
<path opacity="0.3" d="M406.593 541.49L315.603 489.496C312.191 487.575 312.616 484.167 316.456 482.038L368.872 451.78C372.709 449.647 378.463 449.222 381.872 451.137L472.862 503.135C476.272 505.052 475.847 508.463 472.011 510.593L419.59 540.849C415.759 543.195 410.004 543.409 406.593 541.49Z" fill="#D5E1F2"/>
<path d="M480.96 485.659V273.206L396.571 251.045L381.016 242.095C377.393 239.965 371.213 240.39 367.164 242.734L352.673 251.045H307.712L321.139 456.253C321.139 457.743 321.778 459.023 323.485 460.089L407.867 523.806C411.489 525.937 417.667 525.509 421.72 523.167L477.974 490.775C479.893 489.067 481.173 487.366 480.96 485.659Z" fill="#DAE4F2"/>
<path d="M374.416 240.815C371.856 240.815 369.084 241.454 366.956 242.734L352.469 251.045H307.5V464.137C307.5 465.63 308.141 466.906 309.847 467.973L407.446 523.592C409.149 524.657 411.494 525.082 413.836 524.87L414.904 310.496L374.414 240.815H374.416Z" fill="white" stroke="#BBCDE5" stroke-width="1.81545"/>
<path d="M408.298 524.016C411.279 525.294 415.756 525.294 419.379 523.804V307.94H408.298V524.016Z" fill="#BBCDE5"/>
<path d="M407.443 310.498L309.848 254.879C306.226 252.746 306.653 249.126 310.914 246.783L367.169 214.391C371.218 212.047 377.61 211.835 381.021 213.752L478.62 269.37C482.24 271.5 481.817 275.122 477.552 277.467L421.297 309.857C417.248 312.416 411.069 312.627 407.445 310.498H407.443Z" fill="#E8F0FB"/>
<path d="M477.55 273.631L421.295 306.021C417.248 308.364 410.853 308.579 407.443 306.66L309.846 250.831C308.995 250.404 308.568 249.765 308.14 249.341C306.864 251.258 307.499 253.387 309.846 254.881L407.445 310.498C411.067 312.629 417.248 312.202 421.297 309.859L477.55 277.467C480.749 275.55 481.817 272.992 480.321 271.075C479.894 271.928 478.828 272.78 477.55 273.631Z" fill="#FAFDFF"/>
<path d="M410.213 287.908L345.216 250.19C343.513 249.126 343.724 247.634 345.643 246.354L371.852 231.226C373.769 230.16 376.756 229.948 378.46 231.014L443.454 268.73C445.16 269.795 444.944 271.286 443.031 272.564L416.817 287.694C414.898 288.761 411.916 288.975 410.211 287.908H410.213Z" fill="#66C206"/>
<path d="M375.053 251.895L371.219 249.765C371.006 249.553 371.006 249.34 371.219 249.34L374.841 247.209C375.053 246.995 375.482 246.995 375.696 247.209L379.528 249.34C379.746 249.553 379.746 249.765 379.528 249.765L375.906 251.895C375.694 252.109 375.266 252.109 375.053 251.895ZM387.625 259.14L383.791 257.011C383.58 256.796 383.58 256.586 383.791 256.586L387.414 254.455C387.625 254.242 388.05 254.242 388.264 254.455L392.1 256.586C392.313 256.798 392.313 257.011 392.1 257.011L388.478 259.14C388.264 259.354 388.054 259.354 387.625 259.14ZM400.413 266.386L396.575 264.254C396.363 264.042 396.363 263.828 396.575 263.828L400.197 261.7C400.315 261.596 400.467 261.539 400.624 261.539C400.781 261.539 400.932 261.596 401.05 261.7L404.886 263.828C405.099 264.042 405.099 264.254 404.886 264.254L401.265 266.386C400.838 266.598 400.624 266.598 400.411 266.386H400.413ZM412.985 273.629L409.149 271.5C408.937 271.286 408.937 271.075 409.149 271.075L412.771 268.944C412.89 268.841 413.041 268.784 413.198 268.784C413.355 268.784 413.507 268.841 413.626 268.944L417.458 271.075C417.671 271.287 417.671 271.5 417.458 271.5L413.837 273.629C413.626 273.844 413.196 273.844 412.985 273.629Z" fill="#D4ECFF"/>
<path d="M345.216 250.19C345.43 250.19 345.643 249.978 345.643 249.978L371.852 234.848C373.771 233.782 376.756 233.57 378.46 234.635L443.454 272.143C444.944 271.073 445.16 269.583 443.454 268.73L378.46 231.014C376.758 229.948 373.771 230.16 371.852 231.226L345.643 246.354C343.724 247.634 343.513 249.34 345.216 250.19Z" fill="#0D54A9"/>
<path d="M432.374 352.689L469.241 331.593C471.37 330.313 473.077 327.118 473.077 324.349V311.137C473.077 308.368 471.37 307.088 469.241 308.368L432.374 329.464C430.243 330.74 428.54 333.939 428.54 336.709V349.92C428.54 352.476 430.243 353.752 432.374 352.689Z" fill="#66C206"/>
<path d="M471.163 307.725C471.8 308.366 472.016 309.218 472.016 310.496V323.709C472.016 326.477 470.309 329.674 468.178 330.954L431.312 352.05C430.671 352.474 430.035 352.474 429.393 352.474C430.035 353.113 431.099 353.329 432.163 352.474L469.031 331.379C471.161 330.099 472.865 326.902 472.865 324.135V310.922C473.08 309.218 472.224 307.94 471.161 307.727L471.163 307.725Z" fill="white"/>
<path d="M443.457 338.198L446.864 336.282C447.289 336.068 447.717 335.215 447.717 334.79V331.17C447.717 330.528 447.291 330.313 446.864 330.528L443.455 332.446C443.03 332.659 442.602 333.514 442.602 333.939V337.561C442.603 338.196 443.03 338.626 443.455 338.196L443.457 338.198ZM454.751 331.807L458.16 329.89C458.587 329.68 459.015 328.823 459.015 328.398V324.776C459.015 324.135 458.588 323.923 458.162 324.135L454.751 326.054C454.322 326.268 453.897 327.118 453.897 327.547V331.17C454.11 331.806 454.322 332.02 454.751 331.806V331.807Z" fill="white"/>
<path d="M432.374 448.156L469.241 427.061C471.37 425.779 473.077 422.585 473.077 419.817V406.602C473.077 403.83 471.37 402.554 469.241 403.83L432.374 424.929C430.243 426.209 428.54 429.404 428.54 432.173V445.384C428.54 448.158 430.243 449.436 432.374 448.158V448.156Z" fill="#66C206"/>
<path d="M471.163 403.405C471.8 404.046 472.016 404.897 472.016 406.174V419.39C472.016 422.157 470.309 425.352 468.178 426.63L431.312 447.729C430.671 448.154 430.035 448.154 429.393 448.154C430.035 448.793 431.099 449.007 432.163 448.154L469.031 427.059C471.161 425.777 472.865 422.584 472.865 419.815V406.602C473.08 404.681 472.224 403.619 471.161 403.407L471.163 403.405Z" fill="white"/>
<path d="M443.457 433.881L446.864 431.957C447.289 431.746 447.717 430.893 447.717 430.468V426.846C447.717 426.209 447.291 425.993 446.864 426.209L443.455 428.123C443.03 428.339 442.602 429.188 442.602 429.617V433.238C442.603 433.881 443.03 434.092 443.455 433.881H443.457ZM454.751 427.275L458.16 425.354C458.587 425.142 459.015 424.29 459.015 423.862V420.242C459.015 419.603 458.588 419.388 458.162 419.603L454.751 421.52C454.322 421.732 453.897 422.585 453.897 423.012V426.634C454.11 427.275 454.322 427.487 454.751 427.275Z" fill="white"/>
<path d="M432.374 495.89L469.241 474.79C471.37 473.514 473.077 470.319 473.077 467.549V454.336C473.077 451.567 471.37 450.287 469.241 451.567L432.374 472.663C430.243 473.939 428.54 477.136 428.54 479.906V493.117C428.54 495.888 430.243 497.168 432.374 495.888V495.89Z" fill="#66C206"/>
<path d="M471.163 451.139C471.8 451.782 472.016 452.629 472.016 453.909V467.12C472.016 469.891 470.309 473.088 468.178 474.366L431.312 495.461C430.671 495.884 430.035 495.884 429.393 495.884C430.035 496.525 431.099 496.737 432.163 495.884L469.029 474.789C471.161 473.512 472.864 470.317 472.864 467.547V454.334C473.081 452.419 472.224 451.353 471.161 451.139H471.163Z" fill="white"/>
<path d="M443.457 481.613L446.864 479.692C447.289 479.482 447.717 478.626 447.717 478.203V474.578C447.717 473.943 447.295 473.727 446.864 473.943L443.455 475.858C443.03 476.072 442.602 476.924 442.602 477.348V480.97C442.603 481.613 443.03 481.823 443.455 481.613H443.457ZM454.751 475.005L458.16 473.088C458.587 472.875 459.015 472.02 459.015 471.599V467.972C459.015 467.333 458.588 467.12 458.162 467.333L454.751 469.25C454.324 469.462 453.897 470.321 453.897 470.74V474.366C454.11 475.005 454.322 475.219 454.751 475.005Z" fill="white"/>
<path d="M432.374 400.422L469.241 379.327C471.37 378.051 473.077 374.852 473.077 372.083V358.872C473.077 356.103 471.37 354.824 469.241 356.103L432.374 377.197C430.243 378.475 428.54 381.674 428.54 384.445V397.656C428.54 400.422 430.243 401.702 432.374 400.422Z" fill="#66C206"/>
<path d="M471.163 355.673C471.8 356.312 472.016 357.162 472.016 358.44V371.655C472.016 374.423 470.309 377.62 468.178 378.898L431.312 399.994C430.671 400.419 430.035 400.419 429.393 400.419C430.035 401.058 431.099 401.27 432.163 400.419L469.031 379.323C471.161 378.047 472.865 374.848 472.865 372.078V358.868C473.08 356.951 472.224 355.673 471.161 355.673H471.163Z" fill="white"/>
<path d="M443.457 386.146L446.864 384.228C447.289 384.014 447.717 383.161 447.717 382.736V379.113C447.717 378.472 447.295 378.259 446.864 378.472L443.455 380.391C443.03 380.605 442.602 381.458 442.602 381.883V385.505C442.603 385.931 443.03 386.358 443.455 386.144L443.457 386.146ZM454.751 379.539L458.16 377.62C458.587 377.408 459.015 376.555 459.015 376.132V372.292C459.015 371.656 458.588 371.44 458.162 371.656L454.751 373.572C454.324 373.786 453.897 374.637 453.897 375.06V378.684C454.11 379.539 454.322 379.75 454.751 379.539Z" fill="white"/>
<path d="M400.413 339.053L315.172 289.829C313.257 288.763 311.763 285.78 311.763 283.22V267.027C311.763 264.467 313.255 263.403 315.172 264.467L400.411 313.695C402.33 314.76 403.821 317.743 403.821 320.301V336.495C403.822 339.053 402.332 340.118 400.413 339.053Z" fill="#66C206"/>
<path opacity="0.5" d="M397.855 333.298L317.517 287.056C316.452 286.417 315.812 284.927 315.812 283.647V271.502C315.812 270.222 316.668 269.583 317.519 270.222L397.855 316.676C398.92 317.318 399.557 318.809 399.557 320.087V332.23C399.557 333.298 398.918 333.94 397.855 333.298Z" fill="#D4ECFF"/>
<path d="M334.352 290.466L322.421 283.435C321.567 282.794 320.716 281.517 320.716 280.238C320.716 278.958 321.569 278.319 322.422 278.958L334.352 285.989C335.207 286.63 336.055 287.908 336.055 289.184C336.055 290.466 335.207 291.107 334.352 290.466ZM344.582 294.091C344.582 295.369 343.728 295.796 342.663 295.157C341.597 294.516 340.748 293.026 340.748 291.744C340.748 290.466 341.597 290.041 342.663 290.68C343.516 291.319 344.582 292.81 344.582 294.091ZM351.401 298.138C351.401 299.416 350.547 299.843 349.483 299.204C348.418 298.563 347.566 297.072 347.566 295.791C347.566 294.514 348.42 294.09 349.483 294.727C350.546 295.368 351.401 296.858 351.401 298.138ZM358.43 302.186C358.43 303.464 357.58 303.891 356.515 303.254C355.447 302.613 354.596 301.123 354.596 299.845C354.596 298.565 355.449 298.138 356.515 298.779C357.58 299.414 358.43 300.91 358.43 302.186ZM394.443 326.693L390.395 324.348C389.754 323.925 389.329 323.071 389.329 322.22V317.954C389.329 317.104 389.754 316.679 390.393 317.104L394.443 319.446C395.086 319.873 395.511 320.728 395.511 321.579V325.844C395.723 326.479 395.086 326.906 394.443 326.693Z" fill="white"/>
<path d="M400.413 367.819L315.172 318.595C313.257 317.529 311.763 314.546 311.763 311.988V295.578C311.763 293.02 313.255 291.956 315.172 293.02L400.411 342.244C402.33 343.308 403.821 346.293 403.821 348.853V365.048C403.822 367.819 402.332 368.882 400.413 367.819Z" fill="#66C206"/>
<path opacity="0.5" d="M397.855 362.064L317.517 315.61C316.452 314.971 315.812 313.48 315.812 312.2V300.055C315.812 298.777 316.668 298.136 317.519 298.777L397.855 345.231C398.92 345.87 399.557 347.36 399.557 348.638V360.784C399.557 362.064 398.918 362.704 397.855 362.064Z" fill="#D4ECFF"/>
<path d="M334.352 319.234L322.421 312.2C321.567 311.561 320.716 310.282 320.716 309.005C320.716 307.725 321.569 307.086 322.422 307.725L334.352 314.758C335.207 315.397 336.055 316.677 336.055 317.954C336.055 319.019 335.207 319.66 334.352 319.234ZM344.582 322.854C344.582 324.133 343.728 324.56 342.663 323.919C341.597 323.28 340.748 321.788 340.748 320.51C340.748 319.232 341.597 318.807 342.663 319.442C343.516 320.085 344.582 321.577 344.582 322.855V322.854ZM351.401 326.691C351.401 327.971 350.547 328.398 349.483 327.757C348.418 327.122 347.566 325.629 347.566 324.346C347.566 323.07 348.42 322.643 349.483 323.282C350.546 323.919 351.401 325.626 351.401 326.691ZM358.43 330.738C358.43 332.018 357.58 332.445 356.515 331.806C355.447 331.17 354.596 329.672 354.596 328.396C354.596 327.116 355.449 326.69 356.515 327.329C357.58 327.971 358.43 329.46 358.43 330.738ZM394.443 355.247L390.395 352.901C389.754 352.476 389.329 351.623 389.329 350.77V346.509C389.329 345.656 389.754 345.231 390.393 345.656L394.443 347.999C395.086 348.424 395.511 349.279 395.511 350.131V354.393C395.723 355.247 395.086 355.671 394.443 355.247Z" fill="white"/>
<path d="M400.413 396.374L315.172 347.148C313.257 346.08 311.763 343.099 311.763 340.543V324.344C311.763 321.79 313.255 320.724 315.172 321.79L400.411 371.016C402.33 372.079 403.821 375.06 403.821 377.62V393.816C403.822 396.376 402.332 397.652 400.413 396.376V396.374Z" fill="#66C206"/>
<path opacity="0.5" d="M397.855 390.833L317.517 344.379C316.452 343.739 315.812 342.246 315.812 340.968V328.823C315.812 327.545 316.668 326.904 317.519 327.545L397.855 374.002C398.92 374.637 399.557 376.128 399.557 377.41V389.555C399.557 390.833 398.918 391.262 397.855 390.833Z" fill="#D4ECFF"/>
<path d="M334.352 347.791L322.421 340.756C321.567 340.115 320.716 338.837 320.716 337.56C320.716 336.281 321.569 335.64 322.422 336.281L334.352 343.31C335.207 343.953 336.055 345.234 336.055 346.511C336.055 347.791 335.207 348.424 334.352 347.791ZM344.582 351.411C344.582 352.689 343.728 353.113 342.663 352.476C341.597 351.837 340.748 350.345 340.748 349.067C340.748 347.791 341.597 347.36 342.663 348.001C343.516 348.64 344.582 350.132 344.582 351.411ZM351.401 355.461C351.401 356.737 350.547 357.164 349.483 356.526C348.418 355.886 347.566 354.393 347.566 353.113C347.566 351.837 348.42 351.411 349.483 352.05C350.546 352.689 351.401 354.179 351.401 355.463V355.461ZM358.43 359.509C358.43 360.786 357.58 361.212 356.515 360.573C355.449 359.934 354.596 358.444 354.596 357.164C354.596 355.887 355.449 355.461 356.515 356.1C357.58 356.739 358.43 358.229 358.43 359.509ZM394.443 384.014L390.395 381.672C389.754 381.244 389.329 380.391 389.329 379.539V375.278C389.329 374.425 389.754 374.002 390.393 374.425L394.443 376.771C395.086 377.194 395.511 378.047 395.511 378.898V383.161C395.723 384.014 395.086 384.228 394.443 384.014Z" fill="white"/>
<path d="M400.413 425.141L315.172 375.914C313.257 374.85 311.763 371.867 311.763 369.311V353.113C311.763 350.557 313.255 349.492 315.172 350.557L400.411 399.781C402.33 400.847 403.821 403.83 403.821 406.39V422.583C403.822 425.14 402.332 426.209 400.413 425.14V425.141Z" fill="#66C206"/>
<path opacity="0.5" d="M397.855 419.388L317.517 372.933C316.452 372.29 315.812 370.801 315.812 369.521V357.378C315.812 356.1 316.668 355.461 317.519 356.1L397.855 402.554C398.92 403.193 399.557 404.685 399.557 405.963V418.11C399.557 419.388 398.918 420.029 397.855 419.388Z" fill="#D4ECFF"/>
<path d="M334.352 376.557L322.421 369.523C321.567 368.883 320.716 367.606 320.716 366.328C320.716 365.05 321.569 364.407 322.422 365.05L334.352 372.08C335.207 372.722 336.055 374.004 336.055 375.28C336.055 376.557 335.207 376.981 334.352 376.557ZM344.582 380.18C344.582 381.458 343.728 381.883 342.663 381.244C341.597 380.605 340.748 379.114 340.748 377.835C340.748 376.56 341.597 376.132 342.663 376.771C343.516 377.408 344.582 378.9 344.582 380.18ZM351.401 384.229C351.401 385.505 350.547 385.931 349.483 385.291C348.418 384.655 347.566 383.161 347.566 381.883C347.566 380.605 348.42 380.18 349.483 380.816C350.546 381.458 351.401 382.947 351.401 384.229ZM358.43 388.063C358.43 389.341 357.58 389.769 356.515 389.127C355.449 388.488 354.596 386.999 354.596 385.719C354.596 384.441 355.449 384.014 356.515 384.652C357.58 385.289 358.43 387.001 358.43 388.065V388.063ZM394.443 412.568L390.395 410.226C389.754 409.799 389.329 408.948 389.329 408.093V403.828C389.329 402.977 389.754 402.552 390.393 402.977L394.443 405.324C395.086 405.747 395.511 406.6 395.511 407.452V411.718C395.723 412.568 395.086 412.996 394.443 412.568Z" fill="white"/>
<path d="M400.413 453.909L315.172 404.685C313.257 403.619 311.763 400.637 311.763 398.08V381.883C311.763 379.325 313.255 378.259 315.172 379.325L400.411 428.549C402.33 429.617 403.821 432.598 403.821 435.157V451.353C403.822 453.695 402.332 454.975 400.413 453.909Z" fill="#66C206"/>
<path opacity="0.5" d="M397.855 448.156L317.517 401.7C316.452 401.059 315.812 399.569 315.812 398.291V386.146C315.812 384.867 316.668 384.228 317.519 384.867L397.855 431.321C398.92 431.96 399.557 433.453 399.557 434.731V446.88C399.557 448.156 398.918 448.583 397.855 448.156Z" fill="#D4ECFF"/>
<path d="M334.352 405.112L322.421 398.08C321.567 397.44 320.716 396.16 320.716 394.882C320.716 393.602 321.569 392.963 322.422 393.602L334.352 400.635C335.207 401.276 336.055 402.552 336.055 403.83C336.055 405.112 335.207 405.751 334.352 405.112ZM344.582 408.733C344.582 410.01 343.728 410.436 342.663 409.799C341.597 409.158 340.748 407.666 340.748 406.39C340.748 405.11 341.597 404.683 342.663 405.324C343.516 405.961 344.582 407.666 344.582 408.733ZM351.401 412.782C351.401 414.06 350.547 414.488 349.483 413.849C348.418 413.209 347.566 411.718 347.566 410.438C347.566 409.16 348.42 408.735 349.483 409.372C350.546 410.01 351.401 411.507 351.401 412.782ZM358.43 416.832C358.43 418.108 357.58 418.535 356.515 417.898C355.447 417.257 354.596 415.766 354.596 414.488C354.596 413.209 355.449 412.782 356.515 413.419C357.58 414.06 358.43 415.552 358.43 416.832ZM394.443 441.337L390.395 438.992C389.754 438.569 389.329 437.713 389.329 436.86V432.598C389.329 431.744 389.754 431.319 390.393 431.744L394.443 434.09C395.086 434.515 395.511 435.368 395.511 436.218V440.484C395.723 441.337 395.086 441.764 394.443 441.337Z" fill="white"/>
<path d="M400.413 482.463L315.172 433.238C313.257 432.173 311.763 429.19 311.763 426.632V410.438C311.763 407.882 313.255 406.816 315.172 407.882L400.413 457.106C402.332 458.174 403.822 461.155 403.822 463.711V479.906C403.822 482.463 402.33 483.53 400.413 482.463Z" fill="#66C206"/>
<path opacity="0.5" d="M397.855 476.713L317.517 430.256C316.452 429.617 315.812 428.122 315.812 426.846V414.911C315.812 413.635 316.668 412.996 317.519 413.635L397.853 460.089C398.918 460.73 399.556 462.222 399.556 463.502V475.647C399.556 476.713 398.917 477.348 397.853 476.713H397.855Z" fill="#D4ECFF"/>
<path d="M334.352 433.881L322.421 426.846C321.567 426.211 320.716 424.929 320.716 423.651C320.716 422.369 321.569 421.73 322.422 422.369L334.352 429.404C335.207 430.043 336.055 431.321 336.055 432.599C336.055 433.881 335.207 434.516 334.352 433.881ZM344.582 437.501C344.582 438.779 343.728 439.208 342.663 438.569C341.597 437.928 340.748 436.435 340.748 435.157C340.748 433.879 341.597 433.451 342.663 434.092C343.516 434.731 344.582 436.219 344.582 437.501ZM351.401 441.553C351.401 442.828 350.547 443.254 349.483 442.617C348.418 441.976 347.566 440.486 347.566 439.206C347.566 437.926 348.42 437.501 349.483 438.138C350.546 438.779 351.401 440.27 351.401 441.551V441.553ZM358.43 445.602C358.43 446.878 357.58 447.303 356.515 446.665C355.449 446.025 354.596 444.534 354.596 443.254C354.596 441.976 355.449 441.551 356.515 442.189C357.58 442.826 358.43 444.322 358.43 445.602ZM394.443 469.892L390.395 467.55C389.754 467.122 389.329 466.271 389.329 465.417V461.155C389.329 460.301 389.754 459.878 390.393 460.301L394.443 462.647C395.086 463.072 395.511 463.923 395.511 464.776V469.039C395.723 469.892 395.086 470.319 394.443 469.892Z" fill="white"/>
<path d="M400.413 511.232L315.172 462.008C313.257 460.94 311.763 457.956 311.763 455.4V439.206C311.763 436.646 313.255 435.582 315.172 436.646L400.411 485.87C402.33 486.936 403.821 489.919 403.821 492.477V508.674C403.822 511.016 402.33 512.298 400.413 511.232Z" fill="#66C206"/>
<path opacity="0.5" d="M397.856 505.479L317.518 459.023C316.454 458.386 315.813 456.892 315.813 455.612V443.468C315.813 442.19 316.669 441.551 317.518 442.19L397.856 488.644C398.921 489.287 399.558 490.777 399.558 492.057V504.202C399.558 505.479 398.919 506.118 397.856 505.479Z" fill="#D4ECFF"/>
<path d="M334.352 462.649L322.421 455.614C321.565 454.975 320.716 453.697 320.716 452.419C320.716 451.139 321.567 450.498 322.421 451.139L334.352 458.175C335.207 458.811 336.055 460.089 336.055 461.369C336.055 462.434 335.207 463.073 334.352 462.649Z" fill="white"/>
<path d="M340.217 461.098C338.791 461.921 338.826 464.654 340.297 467.202C341.767 469.75 344.116 471.148 345.543 470.325C346.969 469.501 346.934 466.768 345.463 464.22C343.993 461.672 341.644 460.275 340.217 461.098Z" fill="white"/>
<path d="M360.99 476.072C360.99 477.348 360.139 477.775 359.073 477.136C358.006 476.497 357.156 475.005 357.156 473.727C357.156 472.449 358.006 472.022 359.073 472.663C360.139 473.302 360.99 474.79 360.99 476.072ZM368.024 480.121C368.024 481.399 367.17 481.825 366.105 481.188C365.039 480.547 364.187 479.059 364.187 477.777C364.187 476.499 365.043 476.074 366.105 476.713C367.17 477.348 368.024 478.841 368.024 480.121ZM394.446 498.66L390.395 496.316C389.756 495.89 389.331 495.04 389.331 494.185V489.922C389.331 489.067 389.756 488.642 390.395 489.067L394.446 491.413C395.088 491.839 395.513 492.689 395.513 493.546V497.807C395.726 498.66 395.088 499.085 394.446 498.66Z" fill="white"/>
<path d="M272.02 257.091C270.956 257.091 270.315 256.238 270.315 255.386V181.868C270.315 180.802 271.171 180.163 272.022 180.163C273.088 180.163 273.728 181.016 273.728 181.87V255.386C273.73 256.24 272.875 257.093 272.022 257.093L272.02 257.091Z" fill="white"/>
<path d="M265.628 177.18H278.412V204.67H265.63L265.628 177.18Z" fill="white"/>
<path d="M276.497 207.44C273.937 208.933 269.892 208.933 267.545 207.44C264.989 205.948 264.989 203.604 267.545 202.326C270.103 200.834 274.151 200.834 276.495 202.326C279.053 203.604 279.053 205.948 276.495 207.44H276.497Z" fill="white"/>
<path d="M261.581 138.827H282.25V182.084H261.581V138.827Z" fill="white"/>
<path d="M265.632 181.655V191.032C269.466 192.739 274.582 192.739 278.414 191.032V181.655C274.58 179.949 269.254 179.949 265.634 181.655H265.632Z" fill="#4A830F"/>
<path d="M279.269 186.345C275.22 188.689 268.618 188.689 264.564 186.345C260.515 183.999 260.515 180.163 264.564 177.819C268.612 175.477 275.22 175.477 279.269 177.819C283.317 180.163 283.317 183.999 279.269 186.345ZM343.625 297.579C342.557 297.579 341.918 296.726 341.918 295.876V222.356C341.918 221.292 342.771 220.65 343.625 220.65C344.476 220.65 345.328 221.503 345.328 222.356V295.875C345.54 296.728 344.687 297.579 343.625 297.579Z" fill="white"/>
<path d="M337.23 217.454H350.015V244.946H337.23V217.454Z" fill="white"/>
<path d="M348.1 247.716C345.54 249.205 341.495 249.205 339.148 247.716C336.591 246.224 336.591 243.88 339.148 242.602C341.707 241.11 345.754 241.11 348.098 242.602C350.658 243.878 350.658 246.224 348.098 247.716H348.1Z" fill="white"/>
<path d="M333.394 179.099H354.064V222.356H333.394V179.099Z" fill="white"/>
<path d="M337.228 222.145V231.52C341.064 233.225 346.178 233.225 350.012 231.52V222.145C346.39 220.439 341.062 220.439 337.228 222.145Z" fill="#4A830F"/>
<path d="M350.866 226.619C346.817 228.961 340.213 228.961 336.166 226.619C332.114 224.273 332.114 220.439 336.166 218.095C340.213 215.75 346.817 215.75 350.868 218.095C354.916 220.437 354.916 224.275 350.868 226.619H350.866Z" fill="white"/>
<path d="M413.305 250.91L441.009 234.501L414.585 201.471L407.764 212.981L413.305 250.91ZM211.932 69.7819L256.256 44.2113C256.256 44.2113 254.551 69.5714 254.551 69.7819L229.189 77.6665L211.932 69.7819Z" fill="#9DEA4D"/>
<path d="M420.972 168.016C417.982 166.325 414.75 165.104 411.389 164.394C406.908 140.951 390.502 116.02 371.109 104.726C365.358 101.316 359.603 99.6133 354.701 99.1866C352.145 70.8456 332.328 38.4544 308.247 24.6043C295.674 17.3588 284.381 16.5074 275.856 20.9806L275.428 21.1949C275.217 21.4073 275.007 21.4073 274.792 21.6215L248.579 36.9639L257.315 43.7827C249.43 47.1921 244.534 55.9299 244.534 68.9285C244.534 92.7944 261.151 121.774 281.824 133.707L420.76 233.009C436.315 241.959 448.889 234.714 448.889 216.815C448.89 198.913 436.529 176.754 420.972 168.016Z" fill="#9DEA4D"/>
<path d="M246.023 58.2737L305.904 23.3263C294.184 17.3571 283.741 16.7199 275.859 20.9807L275.428 21.195C275.218 21.4074 275.007 21.4074 274.793 21.6216L248.58 36.964L257.316 43.7828C251.991 46.1284 247.942 51.0283 246.023 58.2737ZM356.837 161.411L400.52 135.841C393.06 122.84 382.62 111.546 371.322 104.94C369.83 104.088 368.339 103.235 366.847 102.596L311.229 135.198L356.835 161.411H356.837Z" fill="#9DEA4D"/>
<path d="M261.153 39.7362L280.546 51.0283L316.347 29.9327C313.791 27.8014 311.018 26.0967 308.25 24.3902C304.332 22.029 300.099 20.2356 295.678 19.0636L261.153 39.7362ZM395.617 128.169L360.669 148.625L372.814 162.263L404.567 143.511C402.009 138.184 399.026 132.856 395.617 128.169Z" fill="#9DEA4D"/>
<path d="M393.699 183.999C390.707 182.309 387.475 181.088 384.113 180.377C379.634 156.938 363.225 132.005 343.836 120.709C338.081 117.3 332.326 115.595 327.426 115.168C324.868 86.8272 305.052 54.4359 280.97 40.584C255.187 25.6683 234.304 37.8155 234.304 67.6488V70.6334C215.34 61.8956 200.633 71.6972 200.633 94.0745C200.633 117.942 217.255 146.922 237.926 158.855L393.699 248.782C409.252 257.732 421.827 250.486 421.827 232.586C421.615 214.686 409.041 192.949 393.699 183.999Z" fill="#E8F3E8"/>
<path d="M234.093 70.6333V67.4344C223.647 63.386 214.697 65.0907 209.158 71.6971C215.126 66.7972 224.074 65.9458 234.092 70.6333H234.093ZM395.832 181.87C392.839 180.178 389.605 178.955 386.241 178.246C381.768 154.805 365.358 129.873 345.965 118.579C340.214 115.17 334.461 113.465 329.557 113.04C327.001 84.6976 307.183 52.3063 283.103 38.4562C266.909 29.0794 252.845 30.3575 244.32 39.7343C252.845 32.4907 266.058 32.0622 280.758 40.5857C304.84 54.4376 324.657 86.8289 327.215 115.17C332.327 115.597 337.868 117.301 343.623 120.711C363.014 132.006 379.424 156.938 383.899 180.377C386.882 180.802 390.077 182.082 393.486 184.001C409.041 192.951 421.615 214.686 421.615 232.588C421.615 238.98 419.91 244.094 417.136 247.505C421.403 244.308 423.959 238.341 423.959 230.458C423.959 212.553 411.387 190.82 395.83 181.87H395.832Z" fill="#66C206"/>
<path d="M230.899 78.2236L242.617 83.552L241.977 70.5552V67.783C241.977 56.2748 245.39 47.9637 251.78 44.3419C258.17 40.7201 267.122 41.7839 276.926 47.5389C298.448 59.8985 316.986 89.9442 319.545 116.154L320.184 122.758L326.793 123.185C330.841 123.397 335.314 125.102 340.004 127.66C357.051 137.462 372.393 160.262 376.443 182L377.507 187.327L383.048 188.178C385.178 188.605 387.525 189.458 389.871 190.736C402.869 198.194 413.947 217.373 413.947 232.502C413.947 238.256 412.458 242.306 409.686 243.798C406.914 245.291 402.653 244.65 397.753 241.879L241.978 151.955C223.864 141.516 208.521 114.879 208.521 93.9945C208.521 85.6833 210.863 79.5053 215.13 76.7332C216.833 75.6693 218.962 75.0303 221.306 75.0303C224.078 75.6675 227.279 76.5207 230.899 78.2236Z" fill="#97DF4B"/>
<path d="M308.674 175.476L312.722 173.344L308.674 170.36V175.476ZM296.312 119.859L300.361 117.939V120.072L296.312 119.859ZM320.393 162.477L324.441 160.347L316.557 152.674L320.393 162.477Z" fill="#C6E5BB"/>
<path d="M311.449 173.344L292.054 161.838C290.987 161.199 290.352 159.709 290.352 158.641V136.055L313.364 149.695V172.279C313.364 173.344 312.513 173.771 311.449 173.344Z" fill="#C6E5BB"/>
<path d="M300.153 117.939L279.058 131.366C278.205 132.007 278.845 134.136 280.338 134.775L301.858 147.347L323.382 159.919C324.66 160.771 325.512 159.492 324.66 157.79L303.777 119.643C302.711 118.367 301.221 117.301 300.153 117.937V117.939Z" fill="#C6E5BB"/>
<path d="M307.397 175.263L288.008 163.755C286.941 163.116 286.302 161.624 286.302 160.56V137.97L309.316 151.608V174.196C309.104 175.476 308.249 175.902 307.397 175.263Z" fill="white"/>
<path d="M296.103 120.074L275.007 133.495C274.154 134.136 274.793 136.266 276.285 136.905L297.808 149.477L319.332 162.05C320.608 162.904 321.461 161.624 320.608 159.919L299.727 121.776C298.661 120.497 296.956 119.434 296.105 120.072L296.103 120.074Z" fill="#E8FBE8"/>
<path d="M269.892 199.982C269.892 201.26 269.038 201.685 267.971 201.046C266.907 200.407 266.056 198.915 266.056 197.637C266.056 196.359 266.909 195.932 267.971 196.573C269.042 197.21 269.892 198.703 269.892 199.982ZM341.914 240.897C341.914 242.175 341.063 242.602 339.999 241.961C338.933 241.322 338.08 239.832 338.08 238.552C338.08 237.274 338.933 236.849 339.999 237.488C341.065 238.125 341.914 239.619 341.914 240.897Z" fill="#D4ECFF"/>
<path opacity="0.3" d="M213.42 518.984L122.429 466.99C119.02 465.069 119.445 461.658 123.284 459.53L175.704 429.27C179.538 427.141 185.291 426.716 188.702 428.631L279.693 480.629C283.106 482.545 282.677 485.956 278.841 488.087L226.42 518.344C222.584 520.475 216.831 520.9 213.421 518.984H213.42Z" fill="#D5E1F2"/>
<path d="M287.792 463.154V250.697L203.192 228.534L187.637 219.584C184.016 217.454 177.838 217.879 173.786 220.223L159.298 228.534H114.335L127.758 433.747C127.758 435.236 128.401 436.514 130.1 437.58L214.486 501.293C218.112 503.424 224.29 502.999 228.342 500.654L284.593 468.266C286.941 466.563 288.006 464.857 287.792 463.154Z" fill="#DAE4F2"/>
<path d="M181.245 218.095C178.685 218.095 175.915 218.734 173.787 220.012L159.3 228.323H114.335V441.417C114.335 442.908 114.974 444.186 116.681 445.252L214.276 500.87C215.982 501.935 218.324 502.36 220.668 502.146L221.735 287.774L181.245 218.097V218.095Z" fill="white" stroke="#BBCDE5" stroke-width="1.81545"/>
<path d="M215.341 501.296C218.322 502.575 222.797 502.575 226.42 501.082V285.432H215.339V501.296H215.341Z" fill="#BBCDE5"/>
<path d="M214.272 287.988L116.678 232.37C113.055 230.24 113.48 226.619 117.742 224.273L173.998 191.885C178.046 189.54 184.44 189.327 187.849 191.245L285.448 246.863C289.07 248.994 288.645 252.618 284.382 254.96L228.125 287.351C224.077 289.693 217.893 289.905 214.273 287.988H214.272Z" fill="#E8F0FB"/>
<path d="M284.382 250.909L228.125 283.301C224.076 285.646 217.682 285.857 214.273 283.942L116.678 228.323C115.821 227.897 115.398 227.258 114.971 226.831C113.693 228.748 114.332 230.88 116.678 232.372L214.273 287.99C217.895 290.121 224.076 289.697 228.125 287.349L284.382 254.961C287.579 253.041 288.643 250.485 287.15 248.567C286.726 249.421 285.662 250.27 284.382 250.909Z" fill="#FAFDFF"/>
<path d="M217.041 265.4L152.05 227.684C150.343 226.619 150.557 225.125 152.473 223.848L178.684 208.72C180.601 207.654 183.584 207.44 185.289 208.506L250.286 246.224C251.989 247.289 251.776 248.78 249.857 250.06L223.646 265.19C221.73 266.254 218.749 266.254 217.041 265.402V265.4Z" fill="#66C206"/>
<path d="M182.095 229.387L178.259 227.258C178.047 227.045 178.047 226.831 178.259 226.831L181.883 224.702C182.093 224.489 182.52 224.489 182.736 224.702L186.568 226.831C186.782 227.049 186.782 227.258 186.568 227.258L182.948 229.387C182.734 229.387 182.309 229.6 182.095 229.387ZM194.671 236.633L190.836 234.503C190.624 234.291 190.624 234.077 190.836 234.077L194.456 231.947C194.575 231.844 194.726 231.788 194.883 231.788C195.04 231.788 195.191 231.844 195.31 231.947L199.144 234.077C199.356 234.291 199.356 234.503 199.144 234.503L195.522 236.633H194.671ZM207.239 243.88L203.405 241.747C203.19 241.536 203.19 241.322 203.405 241.322L207.027 239.191C207.239 238.978 207.667 238.978 207.88 239.191L211.716 241.322C211.928 241.536 211.928 241.747 211.716 241.747L208.094 243.88H207.241H207.239ZM219.813 251.124L215.979 248.992C215.766 248.78 215.766 248.568 215.979 248.568L219.6 246.436C219.813 246.224 220.241 246.224 220.455 246.436L224.288 248.568C224.502 248.78 224.502 248.992 224.288 248.992L220.666 251.124H219.813Z" fill="#D4ECFF"/>
<path d="M152.049 227.684C152.259 227.684 152.472 227.47 152.472 227.47L178.683 212.34C180.6 211.274 183.583 211.062 185.288 212.128L250.285 249.846C251.775 248.78 251.988 247.286 250.285 246.436L185.29 208.72C183.587 207.654 180.602 207.867 178.685 208.933L152.474 224.061C150.557 224.914 150.344 226.619 152.049 227.684Z" fill="#0D54A9"/>
<path d="M239.206 329.969L276.072 308.871C278.202 307.593 279.908 304.398 279.908 301.628V288.415C279.908 285.646 278.202 284.366 276.072 285.646L239.206 306.742C237.075 308.02 235.368 311.215 235.368 313.985V327.198C235.582 329.969 237.075 331.247 239.206 329.969Z" fill="#457A2B"/>
<path d="M277.99 285.22C278.629 285.859 278.843 286.712 278.843 287.99V301.203C278.843 303.971 277.138 307.17 275.007 308.446L238.139 329.542C237.504 329.969 236.864 329.969 236.224 329.969C236.864 330.609 237.93 330.822 238.992 329.969L275.86 308.871C277.99 307.593 279.695 304.398 279.695 301.628V288.415C279.909 286.499 279.268 285.434 277.99 285.22Z" fill="white"/>
<path d="M250.289 315.694L253.698 313.777C254.121 313.564 254.55 312.711 254.55 312.286V308.661C254.55 308.022 254.127 307.808 253.696 308.022L250.289 309.941C249.86 310.155 249.434 311.006 249.434 311.433V315.057C249.648 315.692 249.86 315.906 250.287 315.692L250.289 315.694Z" fill="#4A830F"/>
<path d="M261.794 309.087L265.203 307.168C265.63 306.956 266.056 306.101 266.056 305.676V302.054C266.056 301.415 265.632 301.201 265.203 301.415L261.794 303.332C261.369 303.545 260.94 304.398 260.94 304.821V308.448C260.94 309.087 261.153 309.3 261.794 309.087Z" fill="white"/>
<path d="M239.206 425.648L276.072 404.553C278.202 403.271 279.908 400.08 279.908 397.307V384.098C279.908 381.33 278.202 380.048 276.072 381.33L239.206 402.421C237.075 403.7 235.368 406.895 235.368 409.665V422.878C235.582 425.436 237.075 426.716 239.206 425.648Z" fill="#457A2B"/>
<path d="M277.99 380.689C278.629 381.324 278.843 382.177 278.843 383.456V396.668C278.843 399.437 277.138 402.636 275.007 403.912L238.139 425.008C237.504 425.434 236.864 425.434 236.224 425.434C236.864 426.073 237.93 426.287 238.992 425.434L275.86 404.337C277.99 403.059 279.695 399.862 279.695 397.091V383.88C279.909 382.177 279.268 380.899 277.99 380.689Z" fill="white"/>
<path d="M250.289 411.158L253.698 409.242C254.121 409.028 254.55 408.175 254.55 407.75V404.126C254.55 403.487 254.127 403.271 253.696 403.487L250.289 405.406C249.86 405.619 249.434 406.472 249.434 406.895V410.52C249.648 411.156 249.86 411.37 250.287 411.156L250.289 411.158Z" fill="#4A830F"/>
<path d="M261.794 404.767L265.203 402.848C265.63 402.636 266.056 401.781 266.056 401.358V397.732C266.056 397.091 265.632 396.879 265.203 397.091L261.794 399.012C261.369 399.224 260.94 400.08 260.94 400.501V404.124C260.94 404.553 261.153 404.978 261.794 404.767Z" fill="white"/>
<path d="M239.206 473.378L276.072 452.283C278.202 451.008 279.908 447.81 279.908 445.039V431.83C279.908 429.06 278.202 427.781 276.072 429.06L239.206 450.155C237.075 451.435 235.368 454.632 235.368 457.399V470.61C235.582 473.168 237.075 474.448 239.206 473.38V473.378Z" fill="#457A2B"/>
<path d="M277.99 428.421C278.629 429.06 278.843 429.909 278.843 431.191V444.4C278.843 447.169 277.138 450.368 275.007 451.644L238.139 472.745C237.504 473.168 236.864 473.168 236.224 473.168C236.864 473.811 237.93 474.021 238.992 473.168L275.86 452.072C277.99 450.796 279.695 447.597 279.695 444.827V431.828C279.909 429.911 279.268 428.633 277.99 428.421Z" fill="white"/>
<path d="M250.289 458.891L253.698 456.974C254.121 456.76 254.55 455.908 254.55 455.484V451.862C254.55 451.219 254.127 451.008 253.696 451.219L250.289 453.142C249.86 453.354 249.434 454.204 249.434 454.63V458.252C249.648 458.891 249.86 459.318 250.287 458.891H250.289Z" fill="#4A830F"/>
<path d="M261.794 452.499L265.203 450.58C265.63 450.368 266.056 449.518 266.056 449.089V445.468C266.056 444.829 265.632 444.614 265.203 444.829L261.794 446.744C261.369 446.958 260.94 447.81 260.94 448.236V451.86C260.94 452.499 261.153 452.709 261.794 452.499Z" fill="white"/>
<path d="M239.206 377.704L276.072 356.607C278.202 355.329 279.908 352.132 279.908 349.363V336.15C279.908 333.38 278.202 332.102 276.072 333.38L239.206 354.475C237.075 355.754 235.368 358.951 235.368 361.719V374.932C235.582 377.704 237.075 378.979 239.206 377.704Z" fill="#457A2B"/>
<path d="M277.99 332.953C278.629 333.594 278.843 334.446 278.843 335.724V348.935C278.843 351.705 277.138 354.904 275.007 356.178L238.139 377.277C237.504 377.704 236.864 377.704 236.224 377.704C236.864 378.343 237.93 378.556 238.992 377.704L275.86 356.607C277.99 355.329 279.695 352.132 279.695 349.363V336.15C279.909 334.444 279.268 333.166 277.99 332.953Z" fill="white"/>
<path d="M250.289 363.424L253.698 361.508C254.121 361.291 254.55 360.441 254.55 360.016V356.394C254.55 355.753 254.127 355.541 253.696 355.753L250.289 357.671C249.86 357.885 249.434 358.736 249.434 359.163V362.787C249.648 363.422 249.86 363.64 250.287 363.422L250.289 363.424Z" fill="#4A830F"/>
<path d="M261.794 356.819L265.203 354.902C265.63 354.69 266.056 353.836 266.056 353.41V349.788C266.056 349.149 265.632 348.935 265.203 349.149L261.794 351.068C261.369 351.28 260.94 352.132 260.94 352.557V356.182C260.94 356.817 261.153 357.244 261.794 356.817V356.819Z" fill="white"/>
<path d="M207.239 316.545L122.004 267.319C120.085 266.254 118.591 263.271 118.591 260.715V244.305C118.591 241.747 120.083 240.681 122.004 241.747L207.241 290.973C209.158 292.039 210.65 295.021 210.65 297.581V313.775C210.647 316.545 209.156 317.611 207.239 316.545Z" fill="#66C206"/>
<path opacity="0.5" d="M204.685 310.79L124.345 264.337C123.283 263.697 122.641 262.205 122.641 260.927V248.782C122.641 247.504 123.496 246.863 124.347 247.504L204.681 293.956C205.748 294.596 206.389 296.089 206.389 297.369V309.514C206.602 310.79 205.748 311.429 204.685 310.79Z" fill="#D4ECFF"/>
<path d="M141.182 267.96L129.249 260.927C128.397 260.288 127.544 259.01 127.544 257.732C127.544 256.45 128.399 255.813 129.25 256.45L141.182 263.483C142.035 264.124 142.888 265.402 142.888 266.68C142.888 267.746 142.035 268.383 141.182 267.958V267.96ZM151.412 271.582C151.412 272.86 150.558 273.288 149.493 272.648C148.427 272.009 147.576 270.516 147.576 269.238C147.576 267.958 148.429 267.534 149.493 268.173C150.557 268.812 151.412 270.3 151.412 271.582ZM158.23 275.416C158.23 276.696 157.374 277.123 156.312 276.482C155.244 275.843 154.396 274.352 154.396 273.072C154.396 271.793 155.246 271.368 156.312 272.007C157.375 272.646 158.23 274.351 158.23 275.416ZM165.26 279.465C165.26 280.745 164.41 281.171 163.345 280.53C162.279 279.891 161.428 278.401 161.428 277.121C161.428 275.843 162.281 275.416 163.345 276.055C164.41 276.696 165.26 278.187 165.26 279.465ZM172.081 283.513C172.081 284.791 171.227 285.22 170.163 284.577C169.096 283.938 168.245 282.447 168.245 281.169C168.245 279.891 169.098 279.463 170.163 280.104C171.229 280.743 172.081 282.237 172.081 283.513ZM201.489 303.971L197.441 301.63C196.8 301.201 196.373 300.348 196.373 299.495V295.234C196.373 294.382 196.798 293.954 197.441 294.382L201.489 296.726C202.128 297.153 202.555 298.004 202.555 298.857V303.118C202.555 303.971 201.916 304.398 201.489 303.971Z" fill="white"/>
<path d="M207.239 345.099L122.004 295.874C120.085 294.809 118.591 291.826 118.591 289.266V273.072C118.591 270.516 120.083 269.451 122.004 270.516L207.241 319.74C209.158 320.808 210.65 323.789 210.65 326.347V342.541C210.647 345.099 209.156 346.377 207.239 345.099Z" fill="#66C206"/>
<path opacity="0.5" d="M204.685 339.558L124.345 293.104C123.283 292.465 122.641 290.975 122.641 289.695V277.549C122.641 276.271 123.496 275.632 124.347 276.271L204.681 322.725C205.748 323.364 206.389 324.856 206.389 326.134V338.28C206.602 339.346 205.748 339.985 204.685 339.558Z" fill="#D4ECFF"/>
<path d="M141.182 296.514L129.249 289.48C128.397 288.841 127.544 287.562 127.544 286.284C127.544 285.005 128.399 284.365 129.25 285.005L141.182 292.037C142.035 292.676 142.888 293.954 142.888 295.232C142.888 296.514 142.035 297.153 141.182 296.514ZM151.412 300.135C151.412 301.413 150.558 301.84 149.493 301.201C148.427 300.56 147.576 299.07 147.576 297.788C147.576 296.512 148.429 296.087 149.493 296.724C150.558 297.365 151.412 298.857 151.412 300.135ZM158.23 304.184C158.23 305.464 157.374 305.889 156.312 305.25C155.244 304.61 154.396 303.118 154.396 301.84C154.396 300.562 155.246 300.134 156.312 300.774C157.375 301.413 158.23 302.908 158.23 304.184ZM165.26 308.234C165.26 309.512 164.41 309.939 163.345 309.3C162.279 308.661 161.428 307.17 161.428 305.89C161.428 304.612 162.281 304.184 163.345 304.825C164.41 305.464 165.26 306.956 165.26 308.234ZM172.081 312.283C172.081 313.562 171.227 313.987 170.163 313.348C169.096 312.709 168.245 311.219 168.245 309.939C168.245 308.661 169.098 308.232 170.163 308.873C171.229 309.512 172.081 311.004 172.081 312.283ZM201.489 332.739L197.441 330.395C196.8 329.971 196.373 329.117 196.373 328.266V324.003C196.373 323.15 196.798 322.725 197.441 323.15L201.489 325.495C202.128 325.92 202.555 326.774 202.555 327.625V331.888C202.555 332.739 201.916 332.951 201.489 332.739Z" fill="white"/>
<path d="M207.24 373.866L122.005 324.644C120.088 323.577 118.594 320.596 118.594 318.036V301.84C118.594 299.284 120.086 298.216 122.007 299.284L207.242 348.51C209.159 349.574 210.652 352.557 210.652 355.116V371.31C210.648 373.866 209.158 374.932 207.24 373.866Z" fill="#66C206"/>
<path opacity="0.5" d="M204.683 368.113L124.343 321.659C123.281 321.018 122.641 319.528 122.641 318.25V306.101C122.641 304.823 123.494 304.184 124.349 304.823L204.683 351.278C205.748 351.917 206.389 353.408 206.389 354.688V366.833C206.6 368.113 205.747 368.752 204.683 368.113Z" fill="#D4ECFF"/>
<path d="M141.182 325.281L129.249 318.25C128.397 317.609 127.544 316.331 127.544 315.053C127.544 313.775 128.399 313.134 129.25 313.775L141.182 320.808C142.035 321.447 142.888 322.725 142.888 324.003C142.888 325.281 142.035 325.706 141.182 325.281ZM151.412 328.903C151.412 330.181 150.558 330.608 149.493 329.969C148.427 329.33 147.576 327.837 147.576 326.559C147.576 325.279 148.429 324.853 149.493 325.492C150.558 326.134 151.412 327.625 151.412 328.903ZM158.23 332.951C158.23 334.231 157.374 334.656 156.312 334.017C155.246 333.378 154.396 331.886 154.396 330.608C154.396 329.33 155.246 328.901 156.312 329.542C157.375 330.181 158.23 331.675 158.23 332.951ZM165.26 336.789C165.26 338.067 164.41 338.492 163.345 337.853C162.279 337.214 161.428 335.722 161.428 334.444C161.428 333.166 162.281 332.737 163.345 333.378C164.41 334.017 165.26 335.724 165.26 336.789ZM172.081 340.838C172.081 342.118 171.227 342.543 170.163 341.903C169.096 341.263 168.245 339.772 168.245 338.49C168.245 337.214 169.098 336.788 170.163 337.428C171.229 338.067 172.081 339.558 172.081 340.838ZM201.489 361.292L197.441 358.949C196.8 358.522 196.373 357.671 196.373 356.817V352.555C196.373 351.701 196.798 351.277 197.441 351.701L201.489 354.047C202.128 354.472 202.555 355.325 202.555 356.177V360.439C202.555 361.292 201.916 361.721 201.489 361.292Z" fill="white"/>
<path d="M207.239 402.636L122.004 353.41C120.085 352.344 118.591 349.361 118.591 346.805V330.61C118.591 328.053 120.083 326.988 122.004 328.053L207.241 377.276C209.158 378.343 210.65 381.324 210.65 383.882V400.081C210.647 402.422 209.156 403.7 207.239 402.636Z" fill="#66C206"/>
<path opacity="0.5" d="M204.685 396.883L124.345 350.425C123.283 349.788 122.641 348.297 122.641 347.018V334.872C122.641 333.594 123.496 332.953 124.347 333.594L204.685 380.048C205.75 380.691 206.391 382.179 206.391 383.459V395.603C206.602 396.883 205.748 397.307 204.685 396.883Z" fill="#D4ECFF"/>
<path d="M141.182 353.836L129.249 346.805C128.397 346.164 127.544 344.886 127.544 343.608C127.544 342.33 128.399 341.691 129.25 342.33L141.182 349.365C142.035 350.004 142.888 351.282 142.888 352.56C142.888 353.836 142.035 354.476 141.182 353.836ZM151.412 357.458C151.412 358.736 150.558 359.163 149.493 358.524C148.427 357.885 147.576 356.394 147.576 355.116C147.576 353.837 148.429 353.41 149.493 354.049C150.557 354.688 151.412 356.394 151.412 357.458ZM158.23 361.505C158.23 362.785 157.374 363.211 156.312 362.572C155.244 361.933 154.396 360.443 154.396 359.163C154.396 357.885 155.246 357.456 156.312 358.099C157.375 358.735 158.23 360.229 158.23 361.505ZM165.26 365.559C165.26 366.835 164.41 367.262 163.345 366.623C162.279 365.984 161.428 364.491 161.428 363.215C161.428 361.935 162.281 361.507 163.345 362.148C164.41 362.787 165.26 364.279 165.26 365.559ZM172.081 369.605C172.081 370.884 171.227 371.308 170.163 370.671C169.096 370.03 168.245 368.538 168.245 367.258C168.245 365.978 169.098 365.557 170.163 366.196C171.229 366.835 172.081 368.327 172.081 369.605ZM201.489 390.06L197.441 387.718C196.8 387.295 196.373 386.442 196.373 385.589V381.322C196.373 380.475 196.798 380.046 197.441 380.475L201.489 382.817C202.128 383.243 202.555 384.093 202.555 384.946V389.209C202.555 390.06 201.916 390.489 201.489 390.06Z" fill="white"/>
<path d="M207.24 431.191L122.005 381.965C120.088 380.899 118.594 377.917 118.594 375.36V359.163C118.594 356.607 120.086 355.541 122.007 356.607L207.242 405.831C209.159 406.897 210.652 409.879 210.652 412.439V428.633C210.648 431.191 209.158 432.255 207.24 431.191Z" fill="#66C206"/>
<path opacity="0.5" d="M204.685 425.432L124.345 378.979C123.283 378.341 122.641 376.851 122.641 375.571V363.424C122.641 362.148 123.496 361.505 124.347 362.148L204.681 408.599C205.748 409.242 206.389 410.733 206.389 412.013V424.158C206.602 425.434 205.748 426.075 204.685 425.434V425.432Z" fill="#D4ECFF"/>
<path d="M141.182 382.604L129.249 375.571C128.397 374.932 127.544 373.652 127.544 372.374C127.544 371.096 128.399 370.457 129.25 371.096L141.182 378.131C142.035 378.766 142.888 380.046 142.888 381.324C142.888 382.604 142.035 383.243 141.182 382.604ZM151.412 386.224C151.412 387.504 150.558 387.931 149.493 387.293C148.427 386.653 147.576 385.162 147.576 383.88C147.576 382.604 148.429 382.177 149.493 382.817C150.558 383.456 151.412 384.946 151.412 386.224ZM158.23 390.274C158.23 391.551 157.374 391.981 156.312 391.34C155.246 390.703 154.396 389.209 154.396 387.931C154.396 386.653 155.246 386.224 156.312 386.863C157.375 387.504 158.23 388.996 158.23 390.274ZM165.26 394.323C165.26 395.601 164.41 396.029 163.345 395.388C162.279 394.749 161.428 393.259 161.428 391.981C161.428 390.703 162.281 390.274 163.345 390.915C164.41 391.551 165.26 393.045 165.26 394.323ZM172.081 398.161C172.081 399.439 171.227 399.864 170.163 399.228C169.096 398.587 168.245 397.093 168.245 395.815C168.245 394.539 169.098 394.112 170.163 394.751C171.229 395.387 172.081 397.093 172.081 398.161ZM201.489 418.617L197.441 416.272C196.8 415.849 196.373 414.995 196.373 414.14V409.879C196.373 409.026 196.798 408.598 197.441 409.026L201.489 411.368C202.128 411.797 202.555 412.65 202.555 413.499V417.762C202.555 418.615 201.916 419.042 201.489 418.615V418.617Z" fill="white"/>
<path d="M207.24 459.959L122.005 410.733C120.088 409.669 118.594 406.684 118.594 404.128V387.932C118.594 385.376 120.086 384.309 122.007 385.376L207.242 434.6C209.159 435.666 210.652 438.647 210.652 441.207V457.401C210.648 459.743 209.158 461.026 207.24 459.959Z" fill="#66C206"/>
<path opacity="0.5" d="M204.685 454.205L124.345 407.748C123.283 407.109 122.641 405.619 122.641 404.339V392.193C122.641 390.919 123.496 390.276 124.347 390.919L204.681 437.371C205.748 438.012 206.389 439.502 206.389 440.782V452.927C206.602 454.205 205.748 454.845 204.685 454.205Z" fill="#D4ECFF"/>
<path d="M141.182 411.37L129.249 404.339C128.397 403.7 127.544 402.422 127.544 401.144C127.544 399.864 128.399 399.225 129.25 399.864L141.182 406.897C142.035 407.536 142.888 408.816 142.888 410.092C142.888 411.158 142.035 411.798 141.182 411.37ZM151.412 414.994C151.412 416.272 150.558 416.698 149.493 416.061C148.427 415.42 147.576 413.93 147.576 412.652C147.576 411.37 148.429 410.943 149.493 411.584C150.558 412.223 151.412 413.716 151.412 414.995V414.994ZM158.23 418.83C158.23 420.11 157.374 420.536 156.312 419.897C155.246 419.258 154.396 417.768 154.396 416.488C154.396 415.21 155.246 414.781 156.312 415.422C157.375 416.057 158.23 417.764 158.23 418.83ZM165.26 422.88C165.26 424.158 164.41 424.585 163.345 423.946C162.279 423.308 161.428 421.814 161.428 420.536C161.428 419.258 162.281 418.83 163.345 419.471C164.41 420.11 165.26 421.6 165.26 422.88ZM172.081 426.928C172.081 428.206 171.227 428.631 170.163 427.992C169.096 427.353 168.245 425.861 168.245 424.583C168.245 423.307 169.098 422.876 170.163 423.519C171.229 424.158 172.081 425.649 172.081 426.928ZM201.489 447.387L197.441 445.041C196.8 444.616 196.373 443.761 196.373 442.91V438.649C196.373 437.796 196.798 437.375 197.441 437.796L201.489 440.138C202.128 440.566 202.555 441.419 202.555 442.273V446.533C202.555 447.387 201.916 447.81 201.489 447.387Z" fill="white"/>
<path d="M207.24 488.512L122.005 439.288C120.088 438.22 118.594 435.239 118.594 432.68V416.486C118.594 413.93 120.086 412.864 122.007 413.93L207.242 463.152C209.159 464.218 210.652 467.2 210.652 469.758V485.956C210.648 488.512 209.158 489.79 207.24 488.512Z" fill="#66C206"/>
<path opacity="0.5" d="M204.685 482.968L124.345 436.517C123.283 435.875 122.641 434.384 122.641 433.104V420.959C122.641 419.683 123.496 419.04 124.347 419.683L204.681 466.138C205.748 466.779 206.389 468.268 206.389 469.55V481.693C206.602 482.757 205.748 483.4 204.685 482.968Z" fill="#D4ECFF"/>
<path d="M141.182 439.925L129.249 432.892C128.397 432.253 127.544 430.977 127.544 429.695C127.544 428.419 128.399 427.778 129.25 428.419L141.182 435.45C142.035 436.091 142.888 437.369 142.888 438.645C142.888 439.925 142.035 440.564 141.182 439.925ZM196.161 469.975C196.161 472.315 194.456 473.382 192.537 472.102C190.406 470.824 188.913 468.054 188.913 465.71C188.913 463.366 190.622 462.297 192.537 463.58C194.67 464.859 196.161 467.627 196.161 469.975ZM151.412 443.975C151.412 445.255 150.558 445.68 149.493 445.041C148.427 444.402 147.576 442.912 147.576 441.632C147.576 440.352 148.429 439.925 149.493 440.564C150.558 441.205 151.412 442.699 151.412 443.975ZM158.23 448.02C158.23 449.3 157.374 449.727 156.312 449.088C155.246 448.449 154.396 446.958 154.396 445.68C154.396 444.398 155.246 443.974 156.312 444.613C157.375 445.254 158.23 446.744 158.23 448.02ZM165.26 451.862C165.26 453.138 164.41 453.565 163.345 452.927C162.279 452.285 161.428 450.796 161.428 449.518C161.428 448.238 162.281 447.81 163.345 448.447C164.408 449.084 165.26 450.796 165.26 451.86V451.862Z" fill="white"/>
<path opacity="0.3" d="M334.462 588.238L243.472 536.244C240.061 534.323 240.485 530.916 244.325 528.786L296.741 498.528C300.579 496.395 306.332 495.97 309.741 497.885L400.732 549.883C404.141 551.801 403.716 555.212 399.88 557.341L347.459 587.598C343.628 589.943 337.873 590.157 334.462 588.238Z" fill="#D5E1F2"/>
<path d="M408.83 532.408V319.955L324.44 297.793L308.885 288.843C305.262 286.714 299.082 287.139 295.033 289.482L280.542 297.793H235.581L249.008 503.001C249.008 504.492 249.647 505.771 251.354 506.837L335.736 570.554C339.358 572.685 345.536 572.257 349.59 569.915L405.843 537.524C407.762 535.815 409.042 534.114 408.83 532.408Z" fill="#DAE4F2"/>
<path d="M302.285 287.563C299.725 287.563 296.953 288.202 294.825 289.482L280.338 297.793H235.369V510.886C235.369 512.378 236.01 513.654 237.717 514.722L335.315 570.34C337.018 571.405 339.364 571.83 341.706 571.618L342.773 357.244L302.283 287.563H302.285Z" fill="white" stroke="#BBCDE5" stroke-width="1.81545"/>
<path d="M336.167 570.765C339.148 572.043 343.625 572.043 347.249 570.552V354.688H336.167V570.765Z" fill="#BBCDE5"/>
<path d="M335.312 357.246L237.717 301.628C234.095 299.495 234.522 295.875 238.783 293.531L295.038 261.14C299.087 258.796 305.479 258.583 308.89 260.501L406.489 316.119C410.109 318.248 409.686 321.87 405.421 324.216L349.166 356.605C345.118 359.165 338.938 359.375 335.314 357.246H335.312Z" fill="#E8F0FB"/>
<path d="M405.42 320.38L349.164 352.769C345.118 355.113 338.722 355.327 335.312 353.408L237.716 297.579C236.864 297.153 236.437 296.514 236.009 296.089C234.733 298.006 235.368 300.135 237.716 301.63L335.314 357.246C338.936 359.377 345.118 358.951 349.166 356.607L405.42 324.216C408.618 322.298 409.686 319.74 408.19 317.823C407.763 318.677 406.698 319.528 405.42 320.38Z" fill="#FAFDFF"/>
<path d="M338.082 334.656L273.085 296.938C271.382 295.875 271.593 294.382 273.512 293.102L299.721 277.974C301.638 276.909 304.625 276.696 306.33 277.762L371.323 315.478C373.029 316.543 372.813 318.034 370.9 319.312L344.686 334.442C342.767 335.51 339.785 335.724 338.08 334.656H338.082Z" fill="#66C206"/>
<path d="M302.921 298.643L299.087 296.513C298.875 296.301 298.875 296.089 299.087 296.089L302.709 293.957C302.921 293.743 303.35 293.743 303.564 293.957L307.396 296.089C307.614 296.301 307.614 296.513 307.396 296.513L303.775 298.643C303.562 298.857 303.134 298.857 302.921 298.643ZM315.493 305.888L311.659 303.759C311.448 303.545 311.448 303.334 311.659 303.334L315.283 301.203C315.493 300.99 315.918 300.99 316.132 301.203L319.968 303.334C320.181 303.547 320.181 303.759 319.968 303.759L316.347 305.888C316.132 306.103 315.922 306.103 315.493 305.888ZM328.281 313.134L324.443 311.003C324.231 310.79 324.231 310.576 324.443 310.576L328.065 308.448C328.183 308.345 328.335 308.287 328.492 308.287C328.649 308.287 328.801 308.345 328.919 308.448L332.755 310.576C332.967 310.79 332.967 311.003 332.755 311.003L329.133 313.134C328.706 313.346 328.492 313.346 328.279 313.134H328.281ZM340.853 320.378L337.017 318.248C336.805 318.034 336.805 317.823 337.017 317.823L340.639 315.692C340.758 315.589 340.91 315.533 341.067 315.533C341.224 315.533 341.375 315.589 341.494 315.692L345.327 317.823C345.539 318.036 345.539 318.248 345.327 318.248L341.705 320.378C341.494 320.592 341.064 320.592 340.853 320.378Z" fill="#D4ECFF"/>
<path d="M273.085 296.938C273.299 296.938 273.512 296.726 273.512 296.726L299.721 281.596C301.64 280.53 304.625 280.318 306.33 281.384L371.323 318.891C372.813 317.822 373.029 316.331 371.323 315.478L306.33 277.762C304.627 276.696 301.64 276.909 299.721 277.974L273.512 293.102C271.593 294.382 271.382 296.089 273.085 296.938Z" fill="#0D54A9"/>
<path d="M360.243 399.437L397.11 378.341C399.239 377.061 400.946 373.866 400.946 371.098V357.885C400.946 355.116 399.239 353.836 397.11 355.116L360.243 376.212C358.112 377.488 356.409 380.687 356.409 383.457V396.668C356.409 399.224 358.112 400.501 360.243 399.437Z" fill="#66C206"/>
<path d="M399.032 354.474C399.669 355.115 399.885 355.966 399.885 357.244V370.457C399.885 373.225 398.178 376.422 396.047 377.702L359.181 398.798C358.54 399.223 357.904 399.223 357.262 399.223C357.904 399.862 358.968 400.078 360.032 399.223L396.9 378.127C399.03 376.847 400.735 373.65 400.735 370.884V357.671C400.949 355.966 400.094 354.688 399.03 354.475L399.032 354.474Z" fill="white"/>
<path d="M371.326 384.946L374.733 383.031C375.158 382.817 375.587 381.963 375.587 381.538V377.918C375.587 377.276 375.16 377.062 374.733 377.276L371.324 379.195C370.899 379.407 370.471 380.262 370.471 380.687V384.309C370.473 384.944 370.899 385.375 371.324 384.944L371.326 384.946ZM382.62 378.556L386.029 376.639C386.456 376.428 386.884 375.571 386.884 375.146V371.524C386.884 370.884 386.458 370.671 386.031 370.884L382.62 372.803C382.191 373.017 381.766 373.866 381.766 374.295V377.918C381.979 378.554 382.191 378.768 382.62 378.554V378.556Z" fill="white"/>
<path d="M360.243 494.904L397.11 473.809C399.239 472.527 400.946 469.334 400.946 466.565V453.35C400.946 450.578 399.239 449.302 397.11 450.578L360.243 471.677C358.112 472.957 356.409 476.153 356.409 478.921V492.132C356.409 494.906 358.112 496.184 360.243 494.906V494.904Z" fill="#66C206"/>
<path d="M399.032 450.153C399.669 450.794 399.885 451.646 399.885 452.922V466.138C399.885 468.905 398.178 472.1 396.047 473.378L359.181 494.478C358.54 494.902 357.904 494.902 357.262 494.902C357.904 495.541 358.968 495.756 360.032 494.902L396.9 473.807C399.03 472.525 400.735 469.332 400.735 466.563V453.35C400.949 451.43 400.094 450.368 399.03 450.155L399.032 450.153Z" fill="white"/>
<path d="M371.326 480.629L374.733 478.705C375.158 478.495 375.587 477.641 375.587 477.216V473.595C375.587 472.957 375.16 472.741 374.733 472.957L371.324 474.871C370.899 475.087 370.471 475.937 370.471 476.365V479.987C370.473 480.629 370.899 480.84 371.324 480.629H371.326ZM382.62 474.023L386.029 472.102C386.456 471.89 386.884 471.038 386.884 470.61V466.99C386.884 466.351 386.458 466.137 386.031 466.351L382.62 468.268C382.191 468.48 381.766 469.334 381.766 469.76V473.382C381.979 474.023 382.191 474.235 382.62 474.023Z" fill="white"/>
<path d="M360.243 542.638L397.11 521.539C399.239 520.262 400.946 517.067 400.946 514.297V501.084C400.946 498.315 399.239 497.036 397.11 498.315L360.243 519.411C358.112 520.687 356.409 523.884 356.409 526.655V539.866C356.409 542.636 358.112 543.916 360.243 542.636V542.638Z" fill="#66C206"/>
<path d="M399.032 497.887C399.669 498.53 399.885 499.378 399.885 500.658V513.869C399.885 516.639 398.178 519.836 396.047 521.114L359.181 542.21C358.54 542.633 357.904 542.633 357.262 542.633C357.904 543.273 358.968 543.486 360.032 542.633L396.898 521.537C399.03 520.261 400.733 517.066 400.733 514.295V501.082C400.951 499.167 400.094 498.101 399.03 497.887H399.032Z" fill="white"/>
<path d="M371.326 528.361L374.733 526.44C375.158 526.23 375.587 525.375 375.587 524.952V521.326C375.587 520.691 375.164 520.475 374.733 520.691L371.324 522.606C370.899 522.82 370.471 523.672 370.471 524.097V527.718C370.473 528.361 370.899 528.572 371.324 528.361H371.326ZM382.62 521.753L386.029 519.836C386.456 519.623 386.884 518.768 386.884 518.347V514.72C386.884 514.081 386.458 513.868 386.031 514.081L382.62 515.998C382.193 516.21 381.766 517.069 381.766 517.488V521.114C381.979 521.753 382.191 521.967 382.62 521.753Z" fill="white"/>
<path d="M360.243 447.171L397.11 426.075C399.239 424.799 400.946 421.6 400.946 418.831V405.62C400.946 402.852 399.239 401.572 397.11 402.852L360.243 423.946C358.112 425.224 356.409 428.422 356.409 431.193V444.404C356.409 447.171 358.112 448.45 360.243 447.171Z" fill="#66C206"/>
<path d="M399.032 402.421C399.669 403.06 399.885 403.91 399.885 405.188V418.403C399.885 421.171 398.178 424.368 396.047 425.646L359.181 446.742C358.54 447.167 357.904 447.167 357.262 447.167C357.904 447.806 358.968 448.018 360.032 447.167L396.9 426.071C399.03 424.795 400.735 421.596 400.735 418.826V405.617C400.949 403.7 400.094 402.421 399.03 402.421H399.032Z" fill="white"/>
<path d="M371.326 432.894L374.733 430.977C375.158 430.762 375.587 429.909 375.587 429.484V425.861C375.587 425.22 375.164 425.008 374.733 425.22L371.324 427.139C370.899 427.353 370.471 428.206 370.471 428.631V432.253C370.473 432.68 370.899 433.106 371.324 432.892L371.326 432.894ZM382.62 426.287L386.029 424.369C386.456 424.156 386.884 423.303 386.884 422.88V419.04C386.884 418.405 386.458 418.189 386.031 418.405L382.62 420.32C382.193 420.534 381.766 421.386 381.766 421.809V425.432C381.979 426.287 382.191 426.498 382.62 426.287Z" fill="white"/>
<path d="M328.282 385.801L243.041 336.577C241.126 335.511 239.632 332.528 239.632 329.969V313.775C239.632 311.215 241.124 310.151 243.041 311.215L328.28 360.443C330.199 361.508 331.69 364.491 331.69 367.049V383.243C331.692 385.801 330.201 386.867 328.282 385.801Z" fill="#66C206"/>
<path opacity="0.5" d="M325.724 380.046L245.386 333.805C244.321 333.166 243.682 331.675 243.682 330.395V318.25C243.682 316.97 244.537 316.331 245.388 316.97L325.724 363.424C326.789 364.066 327.427 365.557 327.427 366.835V378.979C327.427 380.046 326.788 380.689 325.724 380.046Z" fill="#D4ECFF"/>
<path d="M262.221 337.214L250.29 330.183C249.436 329.542 248.585 328.266 248.585 326.986C248.585 325.706 249.438 325.067 250.291 325.706L262.221 332.737C263.076 333.378 263.924 334.656 263.924 335.932C263.924 337.214 263.076 337.855 262.221 337.214ZM272.451 340.84C272.451 342.118 271.598 342.544 270.532 341.905C269.466 341.264 268.617 339.774 268.617 338.492C268.617 337.214 269.466 336.789 270.532 337.428C271.385 338.067 272.451 339.558 272.451 340.84ZM279.27 344.886C279.27 346.164 278.416 346.591 277.353 345.952C276.287 345.311 275.435 343.821 275.435 342.539C275.435 341.263 276.289 340.838 277.353 341.475C278.415 342.116 279.27 343.606 279.27 344.886ZM286.299 348.935C286.299 350.213 285.449 350.639 284.384 350.002C283.316 349.361 282.465 347.871 282.465 346.593C282.465 345.313 283.318 344.886 284.384 345.527C285.449 346.163 286.299 347.658 286.299 348.935ZM322.312 373.441L318.264 371.096C317.623 370.673 317.198 369.82 317.198 368.968V364.702C317.198 363.852 317.623 363.427 318.262 363.852L322.312 366.194C322.955 366.621 323.38 367.476 323.38 368.327V372.592C323.592 373.227 322.955 373.654 322.312 373.441Z" fill="white"/>
<path d="M328.282 414.567L243.041 365.343C241.126 364.277 239.632 361.294 239.632 358.736V342.327C239.632 339.769 241.124 338.705 243.041 339.769L328.28 388.993C330.199 390.057 331.69 393.041 331.69 395.601V411.797C331.692 414.567 330.201 415.631 328.282 414.567Z" fill="#66C206"/>
<path opacity="0.5" d="M325.724 408.812L245.386 362.358C244.321 361.719 243.682 360.229 243.682 358.949V346.803C243.682 345.525 244.537 344.884 245.388 345.525L325.724 391.979C326.789 392.618 327.427 394.109 327.427 395.387V407.532C327.427 408.812 326.788 409.453 325.724 408.812Z" fill="#D4ECFF"/>
<path d="M262.221 365.982L250.29 358.949C249.436 358.31 248.585 357.03 248.585 355.754C248.585 354.474 249.438 353.835 250.291 354.474L262.221 361.507C263.076 362.146 263.924 363.426 263.924 364.702C263.924 365.768 263.076 366.408 262.221 365.982ZM272.451 369.602C272.451 370.882 271.598 371.308 270.532 370.667C269.466 370.028 268.617 368.536 268.617 367.258C268.617 365.98 269.466 365.555 270.532 366.191C271.385 366.833 272.451 368.326 272.451 369.604V369.602ZM279.27 373.44C279.27 374.72 278.416 375.146 277.353 374.505C276.287 373.87 275.435 372.378 275.435 371.094C275.435 369.818 276.289 369.391 277.353 370.03C278.415 370.668 279.27 372.374 279.27 373.44ZM286.299 377.486C286.299 378.766 285.449 379.193 284.384 378.554C283.316 377.918 282.465 376.421 282.465 375.144C282.465 373.864 283.318 373.438 284.384 374.077C285.449 374.72 286.299 376.208 286.299 377.486ZM322.312 401.995L318.264 399.649C317.623 399.225 317.198 398.371 317.198 397.518V393.257C317.198 392.404 317.623 391.979 318.262 392.404L322.312 394.748C322.955 395.172 323.38 396.028 323.38 396.879V401.142C323.592 401.995 322.955 402.42 322.312 401.995Z" fill="white"/>
<path d="M328.282 443.122L243.041 393.896C241.126 392.829 239.632 389.848 239.632 387.292V371.092C239.632 368.538 241.124 367.472 243.041 368.538L328.28 417.764C330.199 418.828 331.69 421.809 331.69 424.369V440.564C331.692 443.124 330.201 444.4 328.282 443.124V443.122Z" fill="#66C206"/>
<path opacity="0.5" d="M325.724 437.581L245.386 391.128C244.321 390.487 243.682 388.994 243.682 387.716V375.571C243.682 374.293 244.537 373.652 245.388 374.293L325.724 420.75C326.789 421.386 327.427 422.876 327.427 424.158V436.303C327.427 437.581 326.788 438.01 325.724 437.581Z" fill="#D4ECFF"/>
<path d="M262.221 394.539L250.29 387.504C249.436 386.863 248.585 385.585 248.585 384.309C248.585 383.029 249.438 382.388 250.291 383.029L262.221 390.058C263.076 390.701 263.924 391.983 263.924 393.259C263.924 394.539 263.076 395.172 262.221 394.539ZM272.451 398.159C272.451 399.437 271.598 399.862 270.532 399.225C269.466 398.585 268.617 397.093 268.617 395.815C268.617 394.539 269.466 394.109 270.532 394.749C271.385 395.388 272.451 396.881 272.451 398.159ZM279.27 402.209C279.27 403.485 278.416 403.912 277.353 403.275C276.287 402.634 275.435 401.142 275.435 399.862C275.435 398.585 276.289 398.159 277.353 398.798C278.415 399.437 279.27 400.927 279.27 402.211V402.209ZM286.299 406.258C286.299 407.534 285.449 407.96 284.384 407.321C283.318 406.682 282.465 405.192 282.465 403.912C282.465 402.636 283.318 402.209 284.384 402.848C285.449 403.487 286.299 404.978 286.299 406.258ZM322.312 430.763L318.264 428.421C317.623 427.992 317.198 427.139 317.198 426.287V422.027C317.198 421.173 317.623 420.75 318.262 421.173L322.312 423.519C322.955 423.942 323.38 424.795 323.38 425.647V429.909C323.592 430.763 322.955 430.977 322.312 430.763Z" fill="white"/>
<path d="M328.282 471.89L243.041 422.662C241.126 421.598 239.632 418.615 239.632 416.059V399.862C239.632 397.306 241.124 396.24 243.041 397.306L328.28 446.53C330.199 447.595 331.69 450.578 331.69 453.138V469.332C331.692 471.888 330.201 472.957 328.282 471.888V471.89Z" fill="#66C206"/>
<path opacity="0.5" d="M325.724 466.137L245.386 419.681C244.321 419.038 243.682 417.55 243.682 416.27V404.126C243.682 402.848 244.537 402.209 245.388 402.848L325.724 449.302C326.789 449.941 327.427 451.433 327.427 452.711V464.858C327.427 466.137 326.788 466.777 325.724 466.137Z" fill="#D4ECFF"/>
<path d="M262.221 423.305L250.29 416.272C249.436 415.631 248.585 414.355 248.585 413.077C248.585 411.798 249.438 411.156 250.291 411.798L262.221 418.828C263.076 419.471 263.924 420.752 263.924 422.029C263.924 423.305 263.076 423.73 262.221 423.305ZM272.451 426.928C272.451 428.207 271.598 428.631 270.532 427.992C269.466 427.353 268.617 425.863 268.617 424.583C268.617 423.308 269.466 422.88 270.532 423.519C271.385 424.156 272.451 425.649 272.451 426.928ZM279.27 430.977C279.27 432.253 278.416 432.68 277.353 432.039C276.287 431.403 275.435 429.909 275.435 428.631C275.435 427.353 276.289 426.928 277.353 427.564C278.415 428.206 279.27 429.695 279.27 430.977ZM286.299 434.811C286.299 436.089 285.449 436.518 284.384 435.875C283.318 435.236 282.465 433.747 282.465 432.467C282.465 431.189 283.318 430.763 284.384 431.4C285.449 432.037 286.299 433.749 286.299 434.813V434.811ZM322.312 459.316L318.264 456.974C317.623 456.548 317.198 455.696 317.198 454.841V450.576C317.198 449.725 317.623 449.3 318.262 449.725L322.312 452.072C322.955 452.495 323.38 453.349 323.38 454.2V458.466C323.592 459.316 322.955 459.745 322.312 459.316Z" fill="white"/>
<path d="M328.282 500.657L243.041 451.433C241.126 450.368 239.632 447.385 239.632 444.829V428.631C239.632 426.073 241.124 425.008 243.041 426.073L328.28 475.297C330.199 476.365 331.69 479.346 331.69 481.906V498.101C331.692 500.443 330.201 501.723 328.282 500.657Z" fill="#66C206"/>
<path opacity="0.5" d="M325.724 494.904L245.386 448.449C244.321 447.808 243.682 446.317 243.682 445.039V432.894C243.682 431.616 244.537 430.977 245.388 431.616L325.724 478.07C326.789 478.709 327.427 480.201 327.427 481.479V493.628C327.427 494.904 326.788 495.331 325.724 494.904Z" fill="#D4ECFF"/>
<path d="M262.221 451.86L250.29 444.829C249.436 444.188 248.585 442.908 248.585 441.63C248.585 440.35 249.438 439.711 250.291 440.35L262.221 447.383C263.076 448.024 263.924 449.3 263.924 450.578C263.924 451.86 263.076 452.499 262.221 451.86ZM272.451 455.482C272.451 456.758 271.598 457.185 270.532 456.547C269.466 455.907 268.617 454.414 268.617 453.138C268.617 451.858 269.466 451.431 270.532 452.072C271.385 452.71 272.451 454.414 272.451 455.482ZM279.27 459.53C279.27 460.808 278.416 461.237 277.353 460.598C276.287 459.957 275.435 458.466 275.435 457.186C275.435 455.908 276.289 455.484 277.353 456.121C278.415 456.758 279.27 458.256 279.27 459.53ZM286.299 463.58C286.299 464.857 285.449 465.283 284.384 464.646C283.316 464.005 282.465 462.515 282.465 461.237C282.465 459.957 283.318 459.53 284.384 460.167C285.449 460.808 286.299 462.301 286.299 463.58ZM322.312 488.085L318.264 485.74C317.623 485.317 317.198 484.462 317.198 483.608V479.346C317.198 478.493 317.623 478.068 318.262 478.493L322.312 480.838C322.955 481.263 323.38 482.116 323.38 482.966V487.232C323.592 488.085 322.955 488.512 322.312 488.085Z" fill="white"/>
<path d="M328.282 529.211L243.041 479.987C241.126 478.921 239.632 475.938 239.632 473.38V457.186C239.632 454.63 241.124 453.565 243.041 454.63L328.282 503.854C330.201 504.922 331.692 507.903 331.692 510.459V526.655C331.692 529.211 330.199 530.278 328.282 529.211Z" fill="#66C206"/>
<path opacity="0.5" d="M325.724 523.461L245.386 477.004C244.321 476.365 243.682 474.871 243.682 473.595V461.66C243.682 460.383 244.537 459.744 245.388 460.383L325.722 506.837C326.788 507.478 327.425 508.97 327.425 510.25V522.396C327.425 523.461 326.786 524.097 325.722 523.461H325.724Z" fill="#D4ECFF"/>
<path d="M262.221 480.629L250.29 473.594C249.436 472.959 248.585 471.677 248.585 470.399C248.585 469.118 249.438 468.479 250.291 469.118L262.221 476.152C263.076 476.791 263.924 478.07 263.924 479.348C263.924 480.629 263.076 481.265 262.221 480.629ZM272.451 484.249C272.451 485.527 271.598 485.956 270.532 485.317C269.466 484.676 268.617 483.184 268.617 481.906C268.617 480.628 269.466 480.199 270.532 480.84C271.385 481.479 272.451 482.968 272.451 484.249ZM279.27 488.301C279.27 489.576 278.416 490.003 277.353 489.365C276.287 488.724 275.435 487.234 275.435 485.954C275.435 484.674 276.289 484.249 277.353 484.887C278.415 485.527 279.27 487.018 279.27 488.3V488.301ZM286.299 492.35C286.299 493.626 285.449 494.051 284.384 493.414C283.318 492.773 282.465 491.282 282.465 490.003C282.465 488.724 283.318 488.3 284.384 488.937C285.449 489.574 286.299 491.07 286.299 492.35ZM322.312 516.641L318.264 514.299C317.623 513.87 317.198 513.019 317.198 512.166V507.903C317.198 507.05 317.623 506.627 318.262 507.05L322.312 509.395C322.955 509.82 323.38 510.671 323.38 511.525V515.787C323.592 516.641 322.955 517.067 322.312 516.641Z" fill="white"/>
<path d="M328.282 557.98L243.041 508.756C241.126 507.689 239.632 504.704 239.632 502.148V485.954C239.632 483.394 241.124 482.33 243.041 483.394L328.28 532.618C330.199 533.684 331.69 536.667 331.69 539.225V555.422C331.692 557.764 330.199 559.046 328.282 557.98Z" fill="#66C206"/>
<path opacity="0.5" d="M325.725 552.227L245.387 505.771C244.323 505.134 243.683 503.64 243.683 502.36V490.217C243.683 488.939 244.538 488.3 245.387 488.939L325.725 535.392C326.79 536.035 327.428 537.526 327.428 538.805V550.951C327.428 552.227 326.789 552.866 325.725 552.227Z" fill="#D4ECFF"/>
<path d="M262.221 509.397L250.29 502.362C249.435 501.723 248.585 500.445 248.585 499.167C248.585 497.887 249.436 497.246 250.29 497.887L262.221 504.924C263.076 505.559 263.924 506.837 263.924 508.117C263.924 509.183 263.076 509.822 262.221 509.397Z" fill="white"/>
<path d="M268.086 507.846C266.659 508.67 266.694 511.403 268.165 513.951C269.635 516.498 271.984 517.896 273.411 517.073C274.838 516.25 274.802 513.517 273.332 510.969C271.861 508.421 269.512 507.023 268.086 507.846Z" fill="white"/>
<path d="M288.86 522.82C288.86 524.097 288.008 524.523 286.943 523.884C285.875 523.245 285.025 521.753 285.025 520.475C285.025 519.197 285.875 518.77 286.943 519.411C288.008 520.05 288.86 521.539 288.86 522.82ZM295.893 526.869C295.893 528.147 295.039 528.574 293.974 527.936C292.908 527.296 292.057 525.807 292.057 524.525C292.057 523.247 292.912 522.822 293.974 523.461C295.039 524.097 295.893 525.589 295.893 526.869ZM322.315 545.408L318.264 543.065C317.625 542.638 317.201 541.788 317.201 540.933V536.671C317.201 535.815 317.625 535.391 318.264 535.815L322.315 538.161C322.957 538.588 323.382 539.437 323.382 540.294V544.555C323.595 545.408 322.957 545.833 322.315 545.408Z" fill="white"/>
<path d="M243.682 529.213C241.975 529.213 240.485 528.788 238.994 527.936L173.787 490.219C171.656 488.941 170.592 487.022 170.592 484.678C170.592 482.334 171.656 480.203 173.787 478.923L191.902 468.056C192.541 467.633 193.18 467.843 193.604 468.48C194.031 469.119 193.817 469.76 193.181 470.189L175.067 481.052C173.789 481.907 173.148 483.187 173.148 484.676C173.148 486.165 174.001 487.445 175.281 488.087L240.487 525.805C241.553 526.432 242.767 526.762 244.003 526.762C245.24 526.762 246.454 526.432 247.52 525.805L269.895 512.166C270.531 511.741 271.173 511.951 271.598 512.59C272.023 513.229 271.809 513.867 271.173 514.295L248.798 527.933C247.091 528.786 245.388 529.213 243.682 529.213Z" fill="white"/>
</svg>
