<svg width="548" height="271" viewBox="0 0 548 271" fill="none" xmlns="http://www.w3.org/2000/svg">
<g clip-path="url(#clip0_429_1425)">
<path fill-rule="evenodd" clip-rule="evenodd" d="M470.83 95.3153L470.41 95.0845L421.441 67.2165C415.476 63.8014 414.736 58.6896 419.692 55.6645L419.963 55.5044L471.888 25.8787C477.04 22.9448 486.027 23.2365 492.025 26.4773L492.438 26.7082L541.347 54.6157C547.312 58.0308 548.033 63.1425 543.152 66.1302L542.885 66.2882L490.96 95.914C485.93 98.778 477.338 98.5682 471.27 95.5418L470.83 95.3153Z" stroke="#8E8E8E" stroke-width="3" stroke-dasharray="11 11"/>
<path d="M449.314 83.0455L298.355 179.177" stroke="#8E8E8E" stroke-width="3" stroke-dasharray="11 11"/>
<path fill-rule="evenodd" clip-rule="evenodd" d="M437.934 265.84L437.514 265.609L388.545 237.742C382.58 234.326 381.839 229.215 386.796 226.189L387.067 226.029L438.991 196.404C444.144 193.47 453.13 193.762 459.128 197.002L459.542 197.233L508.451 225.141C514.415 228.556 515.137 233.668 510.255 236.655L509.989 236.813L458.064 266.439C453.034 269.303 444.442 269.093 438.373 266.067L437.934 265.84Z" stroke="#8E8E8E" stroke-width="3" stroke-dasharray="11 11"/>
<path d="M416.418 253.211L402.503 262.632C397.248 266.189 390.405 266.364 384.976 263.081L284.822 202.525C280.979 200.201 279.747 195.202 282.07 191.358C282.827 190.105 283.908 189.08 285.2 188.391L302.457 179.177" stroke="#8E8E8E" stroke-width="3" stroke-dasharray="11 11"/>
<path fill-rule="evenodd" clip-rule="evenodd" d="M56.041 143.852L55.621 143.622L6.65194 115.754C0.687245 112.338 -0.0535215 107.227 4.90309 104.202L5.17408 104.042L57.0988 74.4158C62.2514 71.4819 71.2377 71.7736 77.2355 75.0144L77.6491 75.2453L126.558 103.153C132.523 106.568 133.244 111.68 128.363 114.667L128.096 114.825L76.1712 144.451C71.1413 147.315 62.549 147.105 56.4804 144.079L56.041 143.852Z" stroke="#8E8E8E" stroke-width="3" stroke-dasharray="11 11"/>
<path d="M100.08 131.111L203.994 194.643C212.41 199.789 223.098 199.358 231.072 193.55L272.587 163.314" stroke="#8E8E8E" stroke-width="3" stroke-dasharray="11 11"/>
<path fill-rule="evenodd" clip-rule="evenodd" d="M366.196 89.9438L288.608 45.1369L213.565 1.80061L211.018 0.331024C210.677 0.132932 210.358 0.0695032 210.072 0.101705C209.992 0.09375 209.913 0.10073 209.857 0.132932L209.854 0.133908C209.725 0.175868 209.609 0.248079 209.501 0.33883L206.639 1.9909C206.54 2.04847 206.552 2.14898 206.667 2.21534L208.927 3.52099V5.30772V17.9144V121.904C208.927 125.306 211.013 129.295 213.565 130.768L361.617 216.266L359.811 217.309C359.708 217.369 359.72 217.474 359.84 217.543L363.158 219.459C363.278 219.528 363.461 219.536 363.565 219.475L366.591 217.728C366.598 217.724 366.604 217.72 366.611 217.716L366.941 217.527C366.962 217.513 366.958 217.494 366.97 217.478C367.784 216.832 368.29 215.604 368.29 213.935V109.944V97.3376V93.9437C368.29 92.4077 367.347 90.6093 366.196 89.9438Z" fill="#D7DCE0"/>
<path fill-rule="evenodd" clip-rule="evenodd" d="M210.691 132.446L360.778 219.12C363.328 220.593 365.416 219.015 365.416 215.613V99.0166C365.416 95.6149 363.328 91.6257 360.778 90.1522L210.691 3.47867C208.14 2.00518 206.053 3.58406 206.053 6.98675V123.582C206.053 126.984 208.14 130.973 210.691 132.446Z" fill="#F2F3F4"/>
<path fill-rule="evenodd" clip-rule="evenodd" d="M206.055 19.592L365.418 111.623V95.6212C365.418 94.0873 364.476 92.2869 363.325 91.6214L208.148 2.00861C206.996 1.34407 206.055 2.05642 206.055 3.59139V19.592Z" fill="#6DC67E"/>
<path fill-rule="evenodd" clip-rule="evenodd" d="M355.842 96.8927C355.842 98.131 356.712 99.6367 357.783 100.255C358.855 100.875 359.725 100.372 359.725 99.1351C359.725 97.8958 358.855 96.3901 357.783 95.7724C356.712 95.1528 355.842 95.6544 355.842 96.8927Z" fill="white"/>
<path fill-rule="evenodd" clip-rule="evenodd" d="M347.244 91.9268C347.244 93.1652 348.113 94.6709 349.185 95.2895C350.258 95.9092 351.126 95.4066 351.126 94.1693C351.126 92.93 350.258 91.4243 349.185 90.8066C348.113 90.187 347.244 90.6885 347.244 91.9268Z" fill="white"/>
<path fill-rule="evenodd" clip-rule="evenodd" d="M338.645 86.961C338.645 88.1993 339.514 89.705 340.585 90.3237C341.658 90.9434 342.526 90.4408 342.526 89.2035C342.526 87.9642 341.658 86.4585 340.585 85.8408C339.514 85.2211 338.645 85.7227 338.645 86.961Z" fill="white"/>
<path fill-rule="evenodd" clip-rule="evenodd" d="M337.738 173.471L234.415 113.802C227.911 110.046 222.639 99.9699 222.639 91.2949V71.9072C222.639 63.2331 227.911 59.2459 234.415 63.0019L337.738 122.671C344.243 126.426 349.516 136.503 349.516 145.178V164.566C349.516 173.24 344.243 177.227 337.738 173.471Z" fill="white"/>
<path fill-rule="evenodd" clip-rule="evenodd" d="M187.015 122.257C187.015 140.589 214.352 171.176 214.352 171.176C214.352 171.176 241.688 172.041 241.688 153.708C241.688 143.965 242.441 122.782 242.441 122.782L214.352 95.0211L185.557 90.8632C185.557 90.8632 187.015 112.936 187.015 122.257Z" fill="#70C480"/>
<path fill-rule="evenodd" clip-rule="evenodd" d="M179.713 93.8271L185.556 90.8635L189.072 98.3744L179.713 93.8271Z" fill="#70C480"/>
<path fill-rule="evenodd" clip-rule="evenodd" d="M223.559 171.827L232.309 167.659L224.091 165.276L223.559 171.827Z" fill="#70C480"/>
<path fill-rule="evenodd" clip-rule="evenodd" d="M181.171 125.221C181.171 143.554 208.508 174.14 208.508 174.14C208.508 174.14 235.844 175.005 235.844 156.672C235.844 146.928 236.597 125.746 236.597 125.746L208.508 97.9859L179.713 93.8269C179.713 93.8269 181.171 115.9 181.171 125.221Z" fill="#7FDB93"/>
<path fill-rule="evenodd" clip-rule="evenodd" d="M203.213 124.943C203.213 122.063 205.239 120.892 207.732 122.332C210.224 123.772 212.251 127.286 212.251 130.166V132.777L203.213 127.554V124.943ZM206.396 139.328C205.818 138.508 205.472 137.539 205.472 136.695C205.472 135.253 206.485 134.669 207.732 135.389C208.978 136.108 209.991 137.866 209.991 139.306C209.991 140.15 209.645 140.72 209.067 140.872L209.423 144.781C209.44 144.976 209.389 145.131 209.282 145.208C209.175 145.285 209.022 145.275 208.861 145.181L206.602 143.876C206.441 143.784 206.287 143.616 206.181 143.416C206.074 143.215 206.023 143 206.04 142.827L206.396 139.328ZM197.564 124.943V141.264C197.564 142.705 198.578 144.461 199.824 145.181L215.639 154.322C216.275 154.689 216.85 154.717 217.261 154.465C217.656 154.222 217.899 153.722 217.899 153.017V136.695C217.899 136.334 217.646 135.896 217.334 135.715L215.639 134.736V132.124C215.639 127.085 212.092 120.935 207.732 118.415C203.371 115.895 199.824 117.944 199.824 122.984V125.596L198.129 124.616C197.817 124.435 197.564 124.582 197.564 124.943Z" fill="white"/>
<path fill-rule="evenodd" clip-rule="evenodd" d="M246.211 83.9553L249.586 85.904V94.4552C249.897 93.939 250.378 93.6199 251.029 93.4979C251.681 93.3759 252.52 93.6101 253.544 94.2015C254.15 94.5508 254.7 94.9763 255.197 95.4769C255.694 95.9775 256.128 96.5483 256.501 97.1914C256.858 97.8432 257.137 98.5702 257.338 99.3723C257.54 100.174 257.642 101.039 257.642 101.965V110.863L254.266 108.913V100.577C254.266 99.6153 254.095 98.8083 253.753 98.1574C253.413 97.5056 252.868 96.965 252.124 96.5347C251.394 96.1131 250.789 96.0175 250.308 96.2478C249.827 96.4771 249.586 97.1084 249.586 98.1418V106.212L246.211 104.262V83.9553Z" fill="#97B7D1"/>
<path fill-rule="evenodd" clip-rule="evenodd" d="M265.254 115.527C263.966 114.782 262.988 113.848 262.321 112.723C261.654 111.599 261.321 110.306 261.321 108.845V101.765L259.76 100.865V98.1122L261.321 99.0128V95.9927L264.672 97.9287V100.949L267.233 102.427V105.179L264.672 103.701V110.434C264.672 110.986 264.785 111.465 265.01 111.872C265.234 112.278 265.572 112.611 266.022 112.871C266.271 113.014 266.499 113.124 266.709 113.2C266.919 113.276 267.117 113.324 267.303 113.343V116.335C267.07 116.29 266.782 116.208 266.442 116.092C266.1 115.975 265.704 115.786 265.254 115.527Z" fill="#97B7D1"/>
<path fill-rule="evenodd" clip-rule="evenodd" d="M274.309 120.756C273.021 120.011 272.043 119.077 271.375 117.953C270.708 116.829 270.374 115.535 270.374 114.075V106.994L268.814 106.094V103.341L270.374 104.242V101.222L273.727 103.159V106.179L276.287 107.657V110.409L273.727 108.931V115.663C273.727 116.216 273.84 116.695 274.064 117.101C274.288 117.507 274.626 117.84 275.077 118.099C275.325 118.243 275.554 118.353 275.764 118.429C275.973 118.506 276.17 118.554 276.358 118.573V121.565C276.125 121.52 275.837 121.438 275.496 121.321C275.154 121.203 274.759 121.016 274.309 120.756Z" fill="#97B7D1"/>
<path fill-rule="evenodd" clip-rule="evenodd" d="M285.18 124.041C286.111 124.579 286.825 124.637 287.322 124.22C287.818 123.8 288.067 122.903 288.067 121.528V121.313C288.067 119.883 287.796 118.663 287.251 117.653C286.708 116.642 286.01 115.889 285.157 115.397C284.272 114.886 283.554 114.825 283.004 115.212C282.453 115.6 282.176 116.499 282.176 117.911V118.126C282.176 119.538 282.445 120.742 282.98 121.739C283.516 122.737 284.249 123.504 285.18 124.041ZM278.918 109.177L282.294 111.126V113.317C282.635 112.837 283.143 112.542 283.818 112.433C284.493 112.325 285.281 112.529 286.18 113.05C286.926 113.48 287.62 114.037 288.264 114.72C288.908 115.403 289.471 116.188 289.953 117.071C290.433 117.955 290.81 118.92 291.082 119.967C291.353 121.014 291.488 122.118 291.488 123.275V123.49C291.488 124.647 291.353 125.594 291.082 126.327C290.81 127.061 290.442 127.597 289.975 127.933C289.494 128.278 288.932 128.426 288.288 128.374C287.643 128.323 286.941 128.077 286.18 127.639C285.234 127.092 284.427 126.389 283.76 125.532C283.093 124.675 282.603 123.818 282.294 122.963V129.856L278.918 127.906V109.177Z" fill="#97B7D1"/>
<path fill-rule="evenodd" clip-rule="evenodd" d="M298.45 134.723C296.804 133.772 295.525 132.633 294.609 131.306C293.693 129.976 293.204 128.539 293.143 126.992L296.285 128.807C296.362 129.481 296.553 130.08 296.856 130.605C297.158 131.13 297.682 131.608 298.427 132.037C299.079 132.414 299.56 132.558 299.87 132.467C300.179 132.377 300.337 132.089 300.337 131.604C300.337 131.12 300.145 130.646 299.766 130.184C299.385 129.722 298.753 129.164 297.867 128.509C297.061 127.901 296.375 127.325 295.808 126.785C295.241 126.244 294.78 125.701 294.423 125.156C294.05 124.603 293.783 124.035 293.62 123.45C293.457 122.867 293.375 122.236 293.375 121.559C293.375 120.829 293.511 120.27 293.783 119.884C294.054 119.497 294.415 119.247 294.865 119.132C295.3 119.028 295.808 119.053 296.39 119.211C296.972 119.37 297.574 119.628 298.194 119.986C298.861 120.371 299.486 120.809 300.067 121.297C300.65 121.784 301.166 122.328 301.616 122.927C302.05 123.517 302.408 124.171 302.687 124.885C302.967 125.6 303.144 126.382 303.223 127.231L300.127 125.442C300.033 124.823 299.839 124.293 299.544 123.848C299.249 123.404 298.807 123.012 298.218 122.671C297.674 122.358 297.251 122.247 296.948 122.337C296.646 122.426 296.495 122.683 296.495 123.107C296.495 123.549 296.665 123.973 297.007 124.382C297.348 124.792 297.961 125.322 298.846 125.974C299.607 126.538 300.281 127.088 300.871 127.625C301.46 128.161 301.958 128.706 302.361 129.259C302.749 129.822 303.048 130.414 303.257 131.033C303.467 131.653 303.572 132.337 303.572 133.084C303.572 134.599 303.121 135.483 302.221 135.739C301.321 135.994 300.063 135.655 298.45 134.723Z" fill="#97B7D1"/>
<path fill-rule="evenodd" clip-rule="evenodd" d="M307.971 140.168C307.381 139.828 306.893 139.318 306.504 138.64C306.116 137.961 305.922 137.293 305.922 136.634C305.922 135.993 306.116 135.556 306.504 135.326C306.893 135.097 307.381 135.151 307.971 135.493C308.56 135.833 309.056 136.347 309.46 137.034C309.863 137.721 310.065 138.386 310.065 139.026C310.065 139.347 310.012 139.62 309.902 139.841C309.794 140.065 309.647 140.228 309.46 140.334C309.275 140.44 309.053 140.482 308.797 140.459C308.541 140.434 308.265 140.339 307.971 140.168ZM307.971 132.42C307.381 132.079 306.893 131.569 306.504 130.891C306.116 130.213 305.922 129.544 305.922 128.885C305.922 128.244 306.116 127.808 306.504 127.578C306.893 127.348 307.381 127.403 307.971 127.744C308.56 128.084 309.056 128.599 309.46 129.286C309.863 129.973 310.065 130.636 310.065 131.278C310.065 131.599 310.012 131.871 309.902 132.093C309.794 132.315 309.647 132.479 309.46 132.585C309.275 132.691 309.053 132.733 308.797 132.71C308.541 132.686 308.265 132.59 307.971 132.42Z" fill="#97B7D1"/>
<path fill-rule="evenodd" clip-rule="evenodd" d="M318.61 125.337L321.38 126.937L314.21 147.486L311.463 145.899L318.61 125.337Z" fill="#97B7D1"/>
<path fill-rule="evenodd" clip-rule="evenodd" d="M326.526 129.908L329.296 131.508L322.126 152.056L319.379 150.47L326.526 129.908Z" fill="#97B7D1"/>
<path fill-rule="evenodd" clip-rule="evenodd" d="M449.314 23.4367L481.395 41.9627L513.475 23.4367L481.394 4.91003L449.314 23.4367Z" fill="#CEB54D"/>
<mask id="mask0_429_1425" style="mask-type:alpha" maskUnits="userSpaceOnUse" x="461" y="0" width="30" height="62">
<path d="M461.803 0.09375H490.067V61.4035H461.803V0.09375Z" fill="white"/>
</mask>
<g mask="url(#mask0_429_1425)">
<path fill-rule="evenodd" clip-rule="evenodd" d="M488.893 46.2981L462.977 61.2636C462.331 61.6369 461.803 61.2376 461.803 60.3763V17.4447C461.803 16.5827 462.331 15.5726 462.977 15.2001L488.893 0.233013C489.539 -0.14027 490.067 0.260664 490.067 1.12109V44.0535C490.067 44.9148 489.539 45.9248 488.893 46.2981Z" fill="#D3DCE0"/>
</g>
<path fill-rule="evenodd" clip-rule="evenodd" d="M475.8 14.6765L464.918 20.9613C464.471 21.2191 464.105 20.9426 464.105 20.3465C464.105 19.7503 464.471 19.0518 464.918 18.7931L475.8 12.5091C476.248 12.2513 476.614 12.527 476.614 13.124C476.614 13.7193 476.248 14.4187 475.8 14.6765Z" fill="#97A5AF"/>
<path fill-rule="evenodd" clip-rule="evenodd" d="M487.201 14.6653L464.528 27.7595C464.296 27.8937 464.105 27.7497 464.105 27.439C464.105 27.1284 464.296 26.7649 464.528 26.6307L487.201 13.5373C487.434 13.4023 487.625 13.5471 487.625 13.8569C487.625 14.1676 487.434 14.5311 487.201 14.6653Z" fill="#97A5AF"/>
<path fill-rule="evenodd" clip-rule="evenodd" d="M487.201 18.2122L464.528 31.3056C464.296 31.4406 464.105 31.2959 464.105 30.986C464.105 30.6753 464.296 30.3118 464.528 30.1776L487.201 17.0834C487.434 16.9493 487.625 17.0932 487.625 17.4039C487.625 17.7145 487.434 18.0781 487.201 18.2122Z" fill="#97A5AF"/>
<path fill-rule="evenodd" clip-rule="evenodd" d="M487.201 21.759L464.528 34.8524C464.296 34.9866 464.105 34.8426 464.105 34.5319C464.105 34.2213 464.296 33.8578 464.528 33.7236L487.201 20.6302C487.434 20.496 487.625 20.64 487.625 20.9506C487.625 21.2605 487.434 21.624 487.201 21.759Z" fill="#97A5AF"/>
<path fill-rule="evenodd" clip-rule="evenodd" d="M487.201 25.3051L464.528 38.3993C464.296 38.5335 464.105 38.3896 464.105 38.0789C464.105 37.7682 464.296 37.4047 464.528 37.2705L487.201 24.1763C487.434 24.0422 487.625 24.1861 487.625 24.4968C487.625 24.8074 487.434 25.171 487.201 25.3051Z" fill="#97A5AF"/>
<path fill-rule="evenodd" clip-rule="evenodd" d="M487.201 28.852L464.528 41.9454C464.296 42.0796 464.105 41.9356 464.105 41.625C464.105 41.3151 464.296 40.9516 464.528 40.8166L487.201 27.7232C487.434 27.589 487.625 27.733 487.625 28.0436C487.625 28.3535 487.434 28.7178 487.201 28.852Z" fill="#97A5AF"/>
<path fill-rule="evenodd" clip-rule="evenodd" d="M487.201 32.3981L464.528 45.4923C464.296 45.6264 464.105 45.4825 464.105 45.1718C464.105 44.8612 464.296 44.4976 464.528 44.3635L487.201 31.2701C487.434 31.1351 487.625 31.2798 487.625 31.5897C487.625 31.9004 487.434 32.2639 487.201 32.3981Z" fill="#97A5AF"/>
<path fill-rule="evenodd" clip-rule="evenodd" d="M487.201 35.9449L464.528 49.0383C464.296 49.1733 464.105 49.0285 464.105 48.7187C464.105 48.408 464.296 48.0445 464.528 47.9103L487.201 34.8161C487.434 34.6819 487.625 34.8259 487.625 35.1365C487.625 35.4472 487.434 35.8107 487.201 35.9449Z" fill="#97A5AF"/>
<path fill-rule="evenodd" clip-rule="evenodd" d="M471.824 51.0775L464.529 55.2901C464.297 55.4243 464.105 55.2804 464.105 54.9697C464.105 54.6599 464.297 54.2963 464.529 54.1613L471.824 49.9487C472.056 49.8145 472.247 49.9584 472.247 50.2691C472.247 50.5798 472.056 50.9433 471.824 51.0775Z" fill="#97A5AF"/>
<path fill-rule="evenodd" clip-rule="evenodd" d="M487.202 42.1969L479.907 46.4095C479.675 46.5437 479.484 46.3998 479.484 46.0891C479.484 45.7792 479.675 45.4149 479.907 45.2807L487.202 41.0681C487.435 40.9339 487.626 41.0778 487.626 41.3885C487.626 41.6991 487.435 42.0627 487.202 42.1969Z" fill="#97A5AF"/>
<path fill-rule="evenodd" clip-rule="evenodd" d="M487.039 8.96063L484.2 10.6002C483.878 10.7864 483.613 10.5863 483.613 10.1561V7.0869C483.613 6.65669 483.878 6.15166 484.2 5.96461L487.039 4.3259C487.361 4.13885 487.626 4.33892 487.626 4.76994V7.83834C487.626 8.26855 487.361 8.7744 487.039 8.96063Z" fill="#60AAD8"/>
<path fill-rule="evenodd" clip-rule="evenodd" d="M496.901 51.689L470.985 66.6545C470.339 67.0277 469.811 66.6284 469.811 65.7672V22.8348C469.811 21.9735 470.339 20.9635 470.985 20.5902L496.901 5.62388C497.546 5.25059 498.075 5.65071 498.075 6.51195V49.4444C498.075 50.3056 497.546 51.3157 496.901 51.689Z" fill="#E4EBEF"/>
<path fill-rule="evenodd" clip-rule="evenodd" d="M483.809 20.0667L472.926 26.3523C472.479 26.6101 472.113 26.3328 472.113 25.7375C472.113 25.1414 472.479 24.4428 472.926 24.1842L483.809 17.9001C484.255 17.6423 484.621 17.918 484.621 18.5142C484.621 19.1103 484.255 19.8089 483.809 20.0667Z" fill="#97A5AF"/>
<path fill-rule="evenodd" clip-rule="evenodd" d="M495.21 20.0562L472.537 33.1504C472.304 33.2846 472.113 33.1407 472.113 32.83C472.113 32.5193 472.304 32.1558 472.537 32.0216L495.21 18.9274C495.442 18.7933 495.633 18.9372 495.633 19.2479C495.633 19.5585 495.442 19.922 495.21 20.0562Z" fill="#97A5AF"/>
<path fill-rule="evenodd" clip-rule="evenodd" d="M495.21 23.6032L472.537 36.6966C472.304 36.8308 472.113 36.6868 472.113 36.3762C472.113 36.0663 472.304 35.702 472.537 35.5678L495.21 22.4744C495.442 22.3403 495.633 22.4842 495.633 22.7949C495.633 23.1047 495.442 23.469 495.21 23.6032Z" fill="#97A5AF"/>
<path fill-rule="evenodd" clip-rule="evenodd" d="M495.21 27.1493L472.537 40.2434C472.304 40.3776 472.113 40.2337 472.113 39.923C472.113 39.6124 472.304 39.2488 472.537 39.1147L495.21 26.0205C495.442 25.8863 495.633 26.031 495.633 26.3409C495.633 26.6515 495.442 27.0151 495.21 27.1493Z" fill="#97A5AF"/>
<path fill-rule="evenodd" clip-rule="evenodd" d="M495.21 30.6961L472.537 43.7895C472.304 43.9245 472.113 43.7797 472.113 43.4699C472.113 43.1592 472.304 42.7957 472.537 42.6607L495.21 29.5673C495.442 29.4331 495.633 29.5771 495.633 29.8878C495.633 30.1984 495.442 30.5619 495.21 30.6961Z" fill="#97A5AF"/>
<path fill-rule="evenodd" clip-rule="evenodd" d="M495.21 34.243L472.537 47.3364C472.304 47.4706 472.113 47.3266 472.113 47.0159C472.113 46.7053 472.304 46.3418 472.537 46.2076L495.21 33.1142C495.442 32.9792 495.633 33.124 495.633 33.4338C495.633 33.7445 495.442 34.108 495.21 34.243Z" fill="#97A5AF"/>
<path fill-rule="evenodd" clip-rule="evenodd" d="M495.21 37.789L472.537 50.8832C472.304 51.0174 472.113 50.8726 472.113 50.5628C472.113 50.2521 472.304 49.8886 472.537 49.7544L495.21 36.6602C495.442 36.526 495.633 36.67 495.633 36.9807C495.633 37.2913 495.442 37.6548 495.21 37.789Z" fill="#97A5AF"/>
<path fill-rule="evenodd" clip-rule="evenodd" d="M495.21 41.3359L472.537 54.4293C472.304 54.5635 472.113 54.4195 472.113 54.1089C472.113 53.799 472.304 53.4347 472.537 53.3005L495.21 40.2071C495.442 40.0729 495.633 40.2169 495.633 40.5275C495.633 40.8374 495.442 41.2009 495.21 41.3359Z" fill="#97A5AF"/>
<path fill-rule="evenodd" clip-rule="evenodd" d="M479.832 56.4685L472.537 60.6811C472.304 60.8153 472.113 60.6714 472.113 60.3607C472.113 60.05 472.304 59.6865 472.537 59.5523L479.832 55.3397C480.064 55.2055 480.254 55.3494 480.254 55.6601C480.254 55.9699 480.064 56.3335 479.832 56.4685Z" fill="#97A5AF"/>
<path fill-rule="evenodd" clip-rule="evenodd" d="M495.209 47.5878L487.914 51.8005C487.681 51.9347 487.49 51.7907 487.49 51.4801C487.49 51.1694 487.681 50.8059 487.914 50.6717L495.209 46.459C495.441 46.324 495.631 46.4688 495.631 46.7787C495.631 47.0893 495.441 47.4528 495.209 47.5878Z" fill="#97A5AF"/>
<path fill-rule="evenodd" clip-rule="evenodd" d="M495.045 14.3508L492.206 15.9903C491.883 16.1766 491.619 15.9773 491.619 15.5463V12.4779C491.619 12.0469 491.883 11.5426 492.206 11.3556L495.045 9.71689C495.367 9.52985 495.632 9.72991 495.632 10.1609V13.2285C495.632 13.6595 495.367 14.1646 495.045 14.3508Z" fill="#7AE284"/>
<path fill-rule="evenodd" clip-rule="evenodd" d="M503.745 57.0791L477.828 72.0454C477.183 72.4187 476.654 72.0186 476.654 71.1582V28.2249C476.654 27.3637 477.183 26.3544 477.828 25.9812L503.745 11.0149C504.39 10.6416 504.919 11.0417 504.919 11.9029V54.8346C504.919 55.6966 504.39 56.7067 503.745 57.0791Z" fill="#EFF5F9"/>
<path fill-rule="evenodd" clip-rule="evenodd" d="M490.652 25.4576L479.769 31.7424C479.322 32.0002 478.957 31.7237 478.957 31.1284C478.957 30.5315 479.322 29.8337 479.769 29.5751L490.652 23.2903C491.099 23.0333 491.464 23.309 491.464 23.9051C491.464 24.5004 491.099 25.1998 490.652 25.4576Z" fill="#97A5AF"/>
<path fill-rule="evenodd" clip-rule="evenodd" d="M502.053 25.4474L479.38 38.5407C479.147 38.6749 478.957 38.531 478.957 38.2203C478.957 37.9105 479.147 37.5469 479.38 37.4119L502.053 24.3186C502.285 24.1844 502.476 24.3283 502.476 24.639C502.476 24.9496 502.285 25.3132 502.053 25.4474Z" fill="#97A5AF"/>
<path fill-rule="evenodd" clip-rule="evenodd" d="M502.053 28.9934L479.38 42.0876C479.147 42.2218 478.957 42.0778 478.957 41.7672C478.957 41.4565 479.147 41.093 479.38 40.9588L502.053 27.8654C502.285 27.7304 502.476 27.8752 502.476 28.185C502.476 28.4957 502.285 28.8592 502.053 28.9934Z" fill="#97A5AF"/>
<path fill-rule="evenodd" clip-rule="evenodd" d="M502.053 32.5402L479.38 45.6336C479.147 45.7686 478.957 45.6239 478.957 45.314C478.957 45.0033 479.147 44.6398 479.38 44.5056L502.053 31.4115C502.285 31.2773 502.476 31.4212 502.476 31.7319C502.476 32.0425 502.285 32.4061 502.053 32.5402Z" fill="#97A5AF"/>
<path fill-rule="evenodd" clip-rule="evenodd" d="M502.053 36.0871L479.38 49.1805C479.147 49.3147 478.957 49.1707 478.957 48.8601C478.957 48.5494 479.147 48.1859 479.38 48.0517L502.053 34.9583C502.285 34.8241 502.476 34.9681 502.476 35.2787C502.476 35.5886 502.285 35.9521 502.053 36.0871Z" fill="#97A5AF"/>
<path fill-rule="evenodd" clip-rule="evenodd" d="M502.053 39.6331L479.38 52.7273C479.147 52.8615 478.957 52.7176 478.957 52.4069C478.957 52.0962 479.147 51.7327 479.38 51.5985L502.053 38.5043C502.285 38.3702 502.476 38.5141 502.476 38.8248C502.476 39.1354 502.285 39.499 502.053 39.6331Z" fill="#97A5AF"/>
<path fill-rule="evenodd" clip-rule="evenodd" d="M502.053 43.18L479.38 56.2734C479.147 56.4076 478.957 56.2636 478.957 55.953C478.957 55.6431 479.147 55.2796 479.38 55.1446L502.053 42.0512C502.285 41.917 502.476 42.061 502.476 42.3716C502.476 42.6815 502.285 43.0458 502.053 43.18Z" fill="#97A5AF"/>
<path fill-rule="evenodd" clip-rule="evenodd" d="M502.053 46.7261L479.38 59.8203C479.147 59.9544 478.957 59.8105 478.957 59.4998C478.957 59.1892 479.147 58.8256 479.38 58.6915L502.053 45.5981C502.285 45.4631 502.476 45.6078 502.476 45.9177C502.476 46.2284 502.285 46.5919 502.053 46.7261Z" fill="#97A5AF"/>
<path fill-rule="evenodd" clip-rule="evenodd" d="M486.675 61.8586L479.38 66.0721C479.147 66.2063 478.957 66.0623 478.957 65.7517C478.957 65.441 479.147 65.0775 479.38 64.9433L486.675 60.7298C486.907 60.5956 487.098 60.7404 487.098 61.0502C487.098 61.3609 486.907 61.7244 486.675 61.8586Z" fill="#97A5AF"/>
<path fill-rule="evenodd" clip-rule="evenodd" d="M502.053 52.978L494.759 57.1915C494.526 57.3256 494.336 57.1817 494.336 56.871C494.336 56.5604 494.526 56.1968 494.759 56.0627L502.053 51.8492C502.286 51.715 502.477 51.859 502.477 52.1696C502.477 52.4803 502.286 52.8438 502.053 52.978Z" fill="#97A5AF"/>
<path fill-rule="evenodd" clip-rule="evenodd" d="M501.888 19.7418L499.05 21.3813C498.726 21.5675 498.463 21.3675 498.463 20.9373V17.868C498.463 17.4378 498.726 16.9328 499.05 16.7457L501.888 15.107C502.211 14.9208 502.475 15.1201 502.475 15.5519V18.6195C502.475 19.0497 502.211 19.5555 501.888 19.7418Z" fill="#F9B25D"/>
<path fill-rule="evenodd" clip-rule="evenodd" d="M513.475 60.487L481.395 79.0129V41.9628L513.475 23.436V60.487Z" fill="#FFE780"/>
<mask id="mask1_429_1425" style="mask-type:alpha" maskUnits="userSpaceOnUse" x="449" y="23" width="33" height="57">
<path d="M449.314 23.4363H481.395V79.0132H449.314V23.4363Z" fill="white"/>
</mask>
<g mask="url(#mask1_429_1425)">
<path fill-rule="evenodd" clip-rule="evenodd" d="M481.395 79.0132L449.314 60.4873V23.4363L481.395 41.9622V79.0132Z" fill="#FFDF5A"/>
</g>
<path fill-rule="evenodd" clip-rule="evenodd" d="M488.228 56.8687C489.625 56.0611 490.285 54.7721 490.285 53.1123V53.0228C490.285 51.3735 489.674 50.8417 488.208 51.6883L487.586 52.0469V57.2387L488.228 56.8687ZM486.014 51.5419L488.285 50.2301C490.723 48.8224 491.926 49.6527 491.926 52.0526V52.142C491.926 54.542 490.713 56.8467 488.276 58.2536L486.014 59.5605V51.5419Z" fill="#CEB54D"/>
<path fill-rule="evenodd" clip-rule="evenodd" d="M494.42 51.6325L496.255 50.5729L495.342 47.6354L494.42 51.6325ZM494.41 46.6937L496.459 45.5104L498.711 52.2262L497.071 53.1745L496.595 51.6659L494.08 53.1184L493.605 55.1759L492.129 56.0282L494.41 46.6937Z" fill="#CEB54D"/>
<path fill-rule="evenodd" clip-rule="evenodd" d="M500.341 44.6811L498.467 45.7635V44.3509L503.797 41.2727V42.6853L501.924 43.767V50.3722L500.341 51.2855V44.6811Z" fill="#CEB54D"/>
<path fill-rule="evenodd" clip-rule="evenodd" d="M505.846 45.0352L507.681 43.9747L506.768 41.0373L505.846 45.0352ZM505.836 40.0955L507.885 38.9122L510.137 45.6289L508.496 46.5771L508.021 45.0686L505.506 46.5202L505.03 48.5777L503.555 49.43L505.836 40.0955Z" fill="#CEB54D"/>
<path fill-rule="evenodd" clip-rule="evenodd" d="M90.4609 76.435L93.9376 73.7204V73.7187L91.6374 71.819L90.4609 76.435Z" fill="#6D90AA"/>
<path fill-rule="evenodd" clip-rule="evenodd" d="M66.5898 86.2841L85.13 95.029C89.1733 87.556 91.6377 79.3088 91.6377 71.8187L66.5898 86.2841Z" fill="#6D90AA"/>
<path fill-rule="evenodd" clip-rule="evenodd" d="M68.89 88.1845L66.5898 86.2839C66.5898 86.2839 72.6382 86.9451 72.4146 86.998C72.1918 87.05 68.89 88.1845 68.89 88.1845Z" fill="#6D90AA"/>
<mask id="mask2_429_1425" style="mask-type:alpha" maskUnits="userSpaceOnUse" x="68" y="73" width="26" height="24">
<path d="M68.8887 73.7191H93.9368V96.9294H68.8887V73.7191Z" fill="white"/>
</mask>
<g mask="url(#mask2_429_1425)">
<path fill-rule="evenodd" clip-rule="evenodd" d="M68.8887 88.1844L87.4296 96.9294C91.4721 89.4572 93.9373 81.2092 93.9373 73.7191L68.8887 88.1844Z" fill="#8BA7C1"/>
</g>
<path fill-rule="evenodd" clip-rule="evenodd" d="M66.4199 54.902V83.8318L91.4686 69.3665C91.4686 60.2442 87.8131 54.2196 82.1022 52.215C77.81 50.7088 72.356 51.4741 66.4199 54.902Z" fill="#94EAA4"/>
<path fill-rule="evenodd" clip-rule="evenodd" d="M87.6014 55.8219L85.9419 54.4337L85.4297 55.861L87.6014 55.8219Z" fill="#94EAA4"/>
<path fill-rule="evenodd" clip-rule="evenodd" d="M68.7188 56.8025V85.7323L93.7674 71.267C93.7674 55.2898 82.5529 48.8131 68.7188 56.8025Z" fill="#85E09A"/>
<path fill-rule="evenodd" clip-rule="evenodd" d="M66.4199 54.902L68.7201 56.8025V85.7324L66.4199 83.8318V54.902Z" fill="#6DC67E"/>
<path fill-rule="evenodd" clip-rule="evenodd" d="M82.8628 97.5818L85.1629 99.4824L81.4375 98.883L82.8628 97.5818Z" fill="#91C6E8"/>
<path fill-rule="evenodd" clip-rule="evenodd" d="M44.9824 118.384L47.0777 120.118L46.7882 117.845L44.9824 118.384Z" fill="#91C6E8"/>
<mask id="mask3_429_1425" style="mask-type:alpha" maskUnits="userSpaceOnUse" x="39" y="59" width="44" height="63">
<path d="M39.2734 59.907H82.8629V121.188H39.2734V59.907Z" fill="white"/>
</mask>
<g mask="url(#mask3_429_1425)">
<path fill-rule="evenodd" clip-rule="evenodd" d="M64.3221 59.907C50.4879 67.8964 39.2734 87.3242 39.2734 103.302C39.2734 119.279 50.4879 125.755 64.3221 117.767C71.6713 113.522 78.2806 106.051 82.863 97.5817L64.3221 88.8368V59.907Z" fill="#91C6E8"/>
</g>
<path fill-rule="evenodd" clip-rule="evenodd" d="M64.3236 59.9033L66.6229 61.8071L64.0829 64.865L60.9746 64.7332L64.3236 59.9033Z" fill="#91C6E8"/>
<mask id="mask4_429_1425" style="mask-type:alpha" maskUnits="userSpaceOnUse" x="41" y="61" width="45" height="63">
<path d="M41.5742 61.8075H85.1638V123.089H41.5742V61.8075Z" fill="white"/>
</mask>
<g mask="url(#mask4_429_1425)">
<path fill-rule="evenodd" clip-rule="evenodd" d="M66.6229 61.8075C52.7887 69.7969 41.5742 89.2247 41.5742 105.203C41.5742 121.18 52.7887 127.656 66.6229 119.667C73.9721 115.423 80.5806 107.951 85.1638 99.4823L66.6229 90.7373V61.8075Z" fill="#A7D7F2"/>
</g>
<path fill-rule="evenodd" clip-rule="evenodd" d="M448.491 177.383L479.996 195.577L448.491 213.771L416.986 195.577L448.491 177.383Z" fill="#F2F3F4"/>
<path fill-rule="evenodd" clip-rule="evenodd" d="M448.506 213.76V248.949L417 230.755V195.566L448.506 213.76Z" fill="#EDEEEF"/>
<path fill-rule="evenodd" clip-rule="evenodd" d="M480.012 230.755L448.506 248.949V213.76L480.012 195.566V230.755Z" fill="#E1E6EA"/>
<path fill-rule="evenodd" clip-rule="evenodd" d="M430.076 198.376C428.293 197.289 425.967 197.854 424.881 199.638C423.794 201.421 424.359 203.748 426.143 204.834C427.925 205.921 430.252 205.356 431.338 203.573C432.424 201.789 431.859 199.462 430.076 198.376Z" fill="#F7D9AD"/>
<path fill-rule="evenodd" clip-rule="evenodd" d="M450.607 194.168C450.862 193.976 451.046 193.821 451.275 193.632C453.547 191.749 453.862 188.382 451.981 186.11C450.257 184.029 447.287 183.589 445.055 184.977L444.63 185.1C443.163 185.789 441.469 186.736 439.518 187.83C436.278 189.646 429.919 194.852 426.17 198.373L425.783 198.691C424.174 200.023 423.951 202.407 425.283 204.015C426.489 205.472 428.559 205.793 430.133 204.85L430.457 204.675C433.459 202.773 446.403 197.677 450.316 194.414L450.607 194.168Z" fill="#EFCA95"/>
<path fill-rule="evenodd" clip-rule="evenodd" d="M434.778 223.422C435.269 224.274 436.357 224.568 437.209 224.078C438.062 223.586 438.354 222.498 437.864 221.645C437.374 220.794 436.285 220.5 435.433 220.99C434.581 221.481 434.287 222.57 434.778 223.422Z" fill="#F7D9AD"/>
<path fill-rule="evenodd" clip-rule="evenodd" d="M434.792 223.417C435.283 224.269 436.371 224.563 437.223 224.072C438.007 223.62 438.318 222.662 437.98 221.848L437.832 221.107C437.766 220.768 437.637 219.987 437.64 219.985C436.815 216.11 436.211 211.678 435.106 207.984C434.221 205.022 432.812 202.869 431.661 200.146L431.426 199.719C430.384 197.908 428.073 197.286 426.263 198.328C424.453 199.37 423.831 201.682 424.872 203.492L424.926 203.621C425.007 203.783 431.282 216.489 432.993 219.731C433.439 220.607 434.35 222.557 434.78 223.397L434.792 223.417Z" fill="#F7D9AD"/>
<path fill-rule="evenodd" clip-rule="evenodd" d="M434.785 223.425C434.295 222.572 434.588 221.484 435.44 220.993C436.293 220.503 437.381 220.796 437.871 221.648L437.899 221.697C437.899 221.697 438.713 223.024 439.305 224.583L439.33 224.659C439.618 225.315 439.612 226.151 439.213 226.963C438.33 228.758 436.454 232.415 434.095 232.047C432.493 231.796 433.65 228.055 434.378 226.742C434.488 226.543 434.585 226.331 434.678 226.115L434.716 226.008C435.11 225.142 434.952 224.082 434.804 223.522L434.785 223.425Z" fill="#87594C"/>
<path fill-rule="evenodd" clip-rule="evenodd" d="M439.947 227.44C438.895 229.315 436.669 233.131 434.159 232.597C433.741 232.509 433.625 232.475 433.333 231.905C433.248 231.739 433.074 231.492 433.022 231.291C432.675 229.958 436.528 229.807 437.094 228.904C437.953 227.538 438.214 226.599 439.1 225.204C439.504 224.57 439.051 223.33 439.471 223.773C439.549 223.856 439.886 224.384 439.951 224.478C440.183 224.816 440.421 225.304 440.487 225.74C440.534 226.05 440.281 226.845 439.947 227.44Z" fill="black"/>
<path fill-rule="evenodd" clip-rule="evenodd" d="M434.56 226.086C434.639 225.866 434.788 225.672 434.888 225.453C434.838 226.046 434.831 226.529 435.166 226.926C435.737 227.605 439.274 224.89 438.779 223.471C438.75 223.389 438.653 223.218 438.618 222.995C439.185 223.307 439.75 224.144 440 224.568C440.343 225.148 439.788 225.999 439.395 226.72C438.408 228.525 436.343 232.452 433.872 231.91C433.384 231.803 432.84 231.276 432.813 230.663C432.783 230.006 433.325 229.595 433.581 228.783C433.877 227.843 434.364 226.635 434.56 226.086Z" fill="#3A3A3A"/>
<path fill-rule="evenodd" clip-rule="evenodd" d="M440.316 176.843C440.485 177.685 441.305 178.231 442.148 178.062C442.99 177.892 443.535 177.071 443.365 176.229C443.196 175.386 442.376 174.841 441.534 175.01C440.691 175.18 440.147 176 440.316 176.843Z" fill="#87594C"/>
<path fill-rule="evenodd" clip-rule="evenodd" d="M444.336 163.673C443.123 166.21 440.732 173.342 440.305 176.43C440.305 176.43 440.315 176.728 440.342 176.862C440.511 177.704 441.331 178.249 442.174 178.08C442.557 178.003 442.88 177.79 443.101 177.501C443.101 177.501 444.722 175.174 444.717 175.166C446.005 172.965 451.508 164.653 451.743 162.188L451.768 162.058C451.939 161.017 451.542 160.028 450.61 159.305C449.591 158.517 448.131 158.479 447.076 159.219C447.07 159.224 447.063 159.229 447.056 159.234C446.728 159.468 446.467 159.78 446.258 160.124C445.889 160.729 445.11 162.054 444.336 163.673Z" fill="#87594C"/>
<path fill-rule="evenodd" clip-rule="evenodd" d="M430.932 184.778C431.996 184.328 434.421 183.237 434.532 183.194C438.378 181.683 441.96 178.56 442.592 177.925L442.715 177.812C443.031 177.632 443.182 177.42 443.31 177.05C443.592 176.239 443.162 175.352 442.35 175.07C441.821 174.886 441.305 174.985 440.856 175.336L440.734 175.393C439.917 175.704 438.699 175.996 437.966 176.36C435.213 177.725 432.606 181.548 429.824 183.085L429.817 183.089C429.662 183.207 429.523 183.386 429.455 183.584C429.272 184.11 429.551 184.685 430.077 184.868C430.371 184.97 430.68 184.928 430.927 184.779L430.932 184.778Z" fill="#87594C"/>
<path fill-rule="evenodd" clip-rule="evenodd" d="M430.946 184.746C431.404 184.441 431.529 183.821 431.224 183.362C430.919 182.904 430.3 182.779 429.841 183.084C429.383 183.389 429.258 184.008 429.563 184.468C429.868 184.926 430.487 185.051 430.946 184.746Z" fill="#87594C"/>
<path fill-rule="evenodd" clip-rule="evenodd" d="M429.73 186.925C430.314 186.437 430.551 185.908 430.834 185.168C431.001 184.731 431.271 184.545 431.298 184.293C431.32 184.083 430.71 182.984 430.262 182.96C429.992 182.946 429.779 183.149 429.167 183.143C428.544 183.135 427.835 183.435 427.235 183.936C427.058 184.084 426.562 184.4 426.778 184.427C426.884 184.44 427.003 184.58 426.891 184.716C426.827 184.795 426.663 184.907 426.591 184.975C426.156 185.381 426.578 186.187 426.988 186.679C427.678 187.503 428.905 187.615 429.73 186.925Z" fill="#87594C"/>
<path fill-rule="evenodd" clip-rule="evenodd" d="M427.511 184.701C427.375 184.538 427.132 184.516 426.969 184.652L424.536 186.684C424.374 186.819 424.352 187.063 424.487 187.225C424.623 187.388 424.866 187.411 425.029 187.275L427.462 185.243C427.624 185.108 427.646 184.864 427.511 184.701Z" fill="#87594C"/>
<path fill-rule="evenodd" clip-rule="evenodd" d="M427.772 185.676C427.636 185.513 427.393 185.491 427.23 185.627L424.797 187.658C424.635 187.794 424.613 188.038 424.749 188.2C424.884 188.363 425.128 188.385 425.29 188.25L427.723 186.217C427.886 186.082 427.908 185.838 427.772 185.676Z" fill="#87594C"/>
<path fill-rule="evenodd" clip-rule="evenodd" d="M428.684 186.106C428.549 185.944 428.305 185.922 428.142 186.057L425.709 188.089C425.547 188.225 425.525 188.469 425.661 188.63C425.796 188.793 426.04 188.815 426.202 188.68L428.636 186.648C428.798 186.513 428.82 186.269 428.684 186.106Z" fill="#87594C"/>
<path fill-rule="evenodd" clip-rule="evenodd" d="M429.971 186.222C429.836 186.059 429.593 186.038 429.43 186.173L426.997 188.205C426.835 188.341 426.813 188.585 426.948 188.746C427.083 188.909 427.327 188.932 427.49 188.796L429.923 186.765C430.085 186.629 430.107 186.385 429.971 186.222Z" fill="#87594C"/>
<path fill-rule="evenodd" clip-rule="evenodd" d="M429.442 183.577C429.405 183.368 429.205 183.227 428.997 183.264L425.874 183.806C425.665 183.843 425.525 184.043 425.561 184.251C425.597 184.459 425.798 184.601 426.006 184.564L429.129 184.022C429.337 183.985 429.477 183.785 429.442 183.577Z" fill="#87594C"/>
<path fill-rule="evenodd" clip-rule="evenodd" d="M430.949 184.75C431.408 184.445 431.533 183.825 431.227 183.366C430.922 182.908 430.304 182.783 429.845 183.088C429.386 183.393 429.261 184.012 429.566 184.472C429.872 184.93 430.491 185.055 430.949 184.75Z" fill="#87594C"/>
<path fill-rule="evenodd" clip-rule="evenodd" d="M442.608 190.084C442.933 193.003 445.562 195.106 448.48 194.78C451.399 194.455 453.501 191.824 453.176 188.905C452.851 185.986 450.221 183.884 447.302 184.209C444.384 184.534 442.282 187.165 442.608 190.084Z" fill="#F7D9AD"/>
<path fill-rule="evenodd" clip-rule="evenodd" d="M445.818 162.024C446.002 163.673 447.486 164.86 449.135 164.676C450.783 164.492 451.97 163.007 451.786 161.359C451.602 159.711 450.118 158.523 448.469 158.707C446.821 158.891 445.634 160.376 445.818 162.024Z" fill="#F7D297"/>
<path fill-rule="evenodd" clip-rule="evenodd" d="M445.991 159.177C445.835 159.153 445.626 159.176 445.798 159.078C445.4 159.302 444.74 159.632 444.107 160.87C443.473 162.108 442.286 165.416 441.976 166.906C441.186 170.7 440.996 171.346 441.109 171.741C441.225 172.145 442.097 172.608 443.079 173.043C443.93 173.422 444.966 173.853 445.248 173.775C445.653 173.665 445.673 172.377 445.737 172.107C446.6 168.46 447.061 164.816 447.994 161.218C447.326 160.541 446.661 159.855 445.991 159.177Z" fill="#BCDDC3"/>
<path fill-rule="evenodd" clip-rule="evenodd" d="M445.643 164.78C445.271 165.61 444.917 165.839 444.595 166.611C444.272 167.384 443.282 169.358 443.217 170.139C443.113 171.355 443.892 172.55 444.257 173.545C444.787 173.775 445.281 173.991 445.75 174.013C446.318 174.04 445.394 172.5 445.417 171.948C446.29 168.38 447.083 164.794 448.004 161.247C447.092 162.261 446.167 163.609 445.643 164.78Z" fill="#AECEB4"/>
<path fill-rule="evenodd" clip-rule="evenodd" d="M445.322 181.087C445.823 180.05 446.421 178.168 446.236 176.778C445.773 173.277 443.762 172.35 444.262 169.509C444.56 167.821 445.379 166.093 445.482 164.445C445.566 163.098 445.066 161.656 446.701 159.702C447.399 158.867 448.658 158.415 449.852 158.744C454.939 160.148 458.445 161.141 463.283 163.971C464.559 164.716 465.388 166.085 464.371 168.419C464.184 168.849 462.676 171.831 462.314 172.914C461.999 173.858 461.776 174.984 461.322 176.576C461.058 177.498 459.903 180.831 460.417 182.215C462.626 188.172 462.86 190.044 462.857 190.906C462.85 192.681 462.857 196.224 461.922 197.441C460.346 199.493 450.267 193.933 445.864 191.39C444.952 190.863 442.622 190.63 442.622 189.991C442.622 189.112 443.011 187.308 443.471 185.991C444.082 184.244 444.919 181.921 445.322 181.087Z" fill="#BCDDC3"/>
<path fill-rule="evenodd" clip-rule="evenodd" d="M458.836 166.945C459.019 168.593 460.504 169.781 462.152 169.597C463.8 169.413 464.987 167.928 464.804 166.28C464.62 164.631 463.135 163.444 461.487 163.628C459.839 163.812 458.652 165.297 458.836 166.945Z" fill="#F7D9AD"/>
<path fill-rule="evenodd" clip-rule="evenodd" d="M452.014 195.403C452.339 198.321 454.969 200.424 457.887 200.098C460.806 199.773 462.907 197.143 462.582 194.224C462.258 191.305 459.627 189.202 456.709 189.528C453.79 189.853 451.689 192.484 452.014 195.403Z" fill="#F7D9AD"/>
<path fill-rule="evenodd" clip-rule="evenodd" d="M439.479 203.697C437.696 202.611 435.37 203.175 434.283 204.959C433.196 206.743 433.762 209.069 435.545 210.156C437.328 211.242 439.654 210.677 440.74 208.894C441.827 207.11 441.262 204.784 439.479 203.697Z" fill="#F7D9AD"/>
<path fill-rule="evenodd" clip-rule="evenodd" d="M460.009 199.489C460.265 199.298 460.449 199.143 460.678 198.953C462.949 197.071 463.265 193.704 461.384 191.432C459.66 189.35 456.69 188.911 454.457 190.298L454.032 190.422C452.565 191.111 450.872 192.058 448.92 193.152C445.68 194.967 439.322 200.173 435.573 203.695L435.184 204.012C433.577 205.344 433.353 207.728 434.685 209.336C435.892 210.794 437.961 211.114 439.536 210.171L439.859 209.997C442.861 208.094 455.805 202.999 459.718 199.735L460.009 199.489Z" fill="#EFCA95"/>
<path fill-rule="evenodd" clip-rule="evenodd" d="M432.608 229.195C432.618 230.178 433.423 230.967 434.406 230.957C435.389 230.946 436.178 230.141 436.168 229.158C436.157 228.175 435.352 227.385 434.369 227.396C433.386 227.405 432.598 228.211 432.608 229.195Z" fill="#F7D9AD"/>
<path fill-rule="evenodd" clip-rule="evenodd" d="M432.623 229.196C432.633 230.179 433.438 230.969 434.421 230.958C435.326 230.948 436.066 230.266 436.17 229.391L436.404 228.672C436.513 228.344 436.783 227.599 436.787 227.6C437.965 223.816 439.609 219.657 440.455 215.896C441.134 212.88 440.961 210.312 441.291 207.375L441.295 206.887C441.273 204.798 439.563 203.123 437.475 203.145C435.387 203.166 433.712 204.876 433.733 206.965L433.718 207.104C433.707 207.285 432.955 221.437 432.859 225.101V225.102C432.82 226.084 432.659 228.23 432.622 229.172L432.623 229.196Z" fill="#F7D9AD"/>
<path fill-rule="evenodd" clip-rule="evenodd" d="M432.612 229.2C432.603 228.217 433.391 227.411 434.374 227.401C435.357 227.391 436.163 228.18 436.173 229.164L436.174 229.22C436.174 229.22 436.232 230.775 435.986 232.425L435.97 232.504C435.9 233.216 435.485 233.941 434.739 234.454C433.09 235.587 429.664 237.856 427.788 236.378C426.515 235.375 429.355 232.68 430.632 231.892C430.826 231.772 431.015 231.636 431.202 231.493L431.286 231.419C432.055 230.856 432.435 229.855 432.582 229.294L432.612 229.2Z" fill="#87594C"/>
<path fill-rule="evenodd" clip-rule="evenodd" d="M435.146 235.229C433.31 236.348 429.501 238.584 427.574 236.89C427.253 236.607 427.168 236.521 427.193 235.882C427.201 235.693 427.169 235.395 427.223 235.193C427.574 233.861 431.006 235.618 431.942 235.109C433.359 234.338 434.047 233.647 435.503 232.866C436.165 232.51 436.378 231.208 436.526 231.8C436.554 231.91 436.59 232.535 436.6 232.649C436.636 233.058 436.604 233.599 436.449 234.012C436.338 234.305 435.728 234.874 435.146 235.229Z" fill="black"/>
<path fill-rule="evenodd" clip-rule="evenodd" d="M431.113 231.41C431.289 231.256 431.515 231.16 431.709 231.019C431.375 231.511 431.132 231.929 431.229 232.44C431.395 233.31 435.808 232.678 436.072 231.197C436.087 231.112 436.086 230.915 436.164 230.703C436.505 231.254 436.588 232.26 436.599 232.752C436.613 233.425 435.713 233.896 435.016 234.331C433.273 235.422 429.549 237.832 427.661 236.151C427.288 235.817 427.071 235.091 427.348 234.544C427.644 233.956 428.318 233.864 428.938 233.281C429.657 232.606 430.672 231.792 431.113 231.41Z" fill="#3A3A3A"/>
<path fill-rule="evenodd" clip-rule="evenodd" d="M463.159 163.787C458.326 160.96 453.933 159.731 448.849 158.328C447.656 157.998 446.792 158.52 445.839 159.047C445.091 159.46 444.899 160.161 444.339 160.717C444.974 161.879 445.456 162.915 445.371 164.261C445.269 165.909 444.692 167.235 444.818 168.943C445.043 171.999 445.661 173.834 446.126 177.333C446.4 179.408 445.694 183.682 445.333 186.205C445.07 188.048 448.156 189.043 449.767 189.235C453.489 189.681 457.811 190.389 460.909 187.617C462.404 186.278 460.096 183.709 460.146 181.764C460.188 180.125 460.934 177.446 461.306 175.687C461.645 174.086 461.656 172.575 461.842 170.998C462.995 170.648 464.107 170.543 464.962 169.589C466.517 167.852 464.434 164.533 463.159 163.787Z" fill="#BCDDC3"/>
<path fill-rule="evenodd" clip-rule="evenodd" d="M460.295 182.019C460.082 180.559 460.937 177.304 461.199 176.383C462.148 173.063 459.802 171.083 457.934 168.399C456.811 170.595 456.251 173.619 457.083 176.018C458.549 180.248 458.358 184.012 459.262 187.094C459.133 187.451 459.721 188.532 459.925 188.462C460.477 188.274 462.265 187.898 462.17 187.394C461.848 185.689 460.548 183.752 460.295 182.019Z" fill="#AECEB4"/>
<path fill-rule="evenodd" clip-rule="evenodd" d="M424.562 203.929C423.671 202.559 423.642 200.78 424.491 199.387C424.851 198.796 425.353 198.298 425.946 197.945C429.869 194.27 436.156 189.173 439.302 187.411C440.891 186.521 442.392 185.684 443.732 185.016L445.771 188.864L445.915 189.266C446.465 190.813 446.989 192.288 447.869 193.234C444.802 195.155 439.951 199.086 436.441 202.263C435.498 202.698 434.602 203.114 433.802 203.493C433.935 203.764 434.062 204.032 434.188 204.299C433.605 205.044 433.269 205.969 433.272 206.938L433.251 207.177C433.164 208.837 432.832 215.146 432.606 219.994C432.6 219.983 432.593 219.967 432.587 219.956C430.96 216.872 425.273 205.366 424.562 203.929Z" fill="#6D90AA"/>
<path fill-rule="evenodd" clip-rule="evenodd" d="M432.178 228.25C432.2 227.778 432.236 227.788 432.278 227.127C432.327 226.352 432.378 225.572 432.397 225.088C432.424 224.052 432.505 222.171 432.605 219.995C432.831 215.146 433.163 208.836 433.251 207.177L433.271 206.938C433.269 205.969 433.604 205.043 434.188 204.299C434.503 203.898 434.888 203.546 435.338 203.275C435.685 202.95 436.057 202.609 436.441 202.263C439.95 199.086 444.801 195.156 447.869 193.234C446.988 192.288 446.465 190.813 445.914 189.266L445.77 188.864L443.731 185.016L443.73 185.012L443.938 184.388C443.984 184.278 444.339 183.37 444.339 183.37C444.636 183.687 444.949 184.001 445.29 184.309C446.679 185.565 448.549 186.714 451.885 187.471C452.389 187.586 452.905 187.666 453.425 187.723C456.487 188.057 459.703 187.49 461.501 187.075L462.088 186.977L462.214 187.415C462.646 188.926 462.894 190.247 463.043 191.036C463.085 191.262 463.118 191.438 463.144 191.553C463.658 193.86 463.233 196.367 462.312 197.777C461.962 198.374 461.523 198.894 461.005 199.323L460.948 199.369C460.738 199.544 460.559 199.693 460.34 199.857L460.046 200.105C457.546 202.19 451.488 204.982 446.619 207.226C444.63 208.143 442.895 208.943 441.615 209.592C441.596 209.904 441.58 210.215 441.564 210.525C441.475 212.259 441.381 214.053 440.943 216.001C440.377 218.517 439.456 221.213 438.566 223.821C438.121 225.123 437.661 226.471 437.265 227.743L436.745 229.592C436.454 230.683 435.698 230.761 434.581 230.773H434.563C434.416 230.773 434.269 230.759 434.129 230.732C433.072 230.535 432.096 230.253 432.085 229.177C432.083 229.074 432.165 228.333 432.178 228.25Z" fill="#8BA7C1"/>
<path fill-rule="evenodd" clip-rule="evenodd" d="M454.012 193.506V194.324L452.52 194.012L454.012 193.506Z" fill="#E4E6EA"/>
<path fill-rule="evenodd" clip-rule="evenodd" d="M439.328 202.812L417.28 190.099C417.015 189.945 417.015 189.562 417.28 189.409L431.42 181.255C431.543 181.184 431.694 181.184 431.817 181.255L453.789 193.925C454.088 194.098 454.088 194.53 453.789 194.703L439.726 202.812C439.602 202.883 439.451 202.883 439.328 202.812Z" fill="#E4E6EA"/>
<path fill-rule="evenodd" clip-rule="evenodd" d="M417.08 188.898V189.784L418.764 189.52L417.08 188.898Z" fill="#E4E6EA"/>
<path fill-rule="evenodd" clip-rule="evenodd" d="M439.268 201.99L417.292 189.317C416.969 189.13 416.969 188.665 417.292 188.479L431.36 180.367C431.448 180.316 431.556 180.316 431.644 180.367L453.844 193.168C454.068 193.298 454.068 193.62 453.844 193.748L439.552 201.99C439.464 202.04 439.356 202.04 439.268 201.99Z" fill="#C2C7CC"/>
<path fill-rule="evenodd" clip-rule="evenodd" d="M434.329 187.486L436.339 186.327C436.472 186.249 436.637 186.25 436.769 186.329C437.863 186.977 442.856 189.871 443.79 190.412C443.859 190.451 443.855 190.548 443.787 190.587L441.747 191.763C441.523 191.893 441.184 191.906 440.99 191.795L434.274 187.922C434.08 187.81 434.104 187.615 434.329 187.486Z" fill="#E4E6EA"/>
<path fill-rule="evenodd" clip-rule="evenodd" d="M444.317 190.28L444.678 190.072C444.782 190.012 444.769 189.908 444.65 189.838L441.462 187.997C441.343 187.929 441.161 187.922 441.059 187.981L440.697 188.19C440.594 188.249 440.607 188.354 440.726 188.423L443.913 190.263C444.033 190.332 444.214 190.339 444.317 190.28Z" fill="#E4E6EA"/>
<path fill-rule="evenodd" clip-rule="evenodd" d="M440.563 188.089L440.924 187.88C441.028 187.821 441.015 187.716 440.896 187.648L437.708 185.806C437.589 185.738 437.407 185.731 437.305 185.79L436.943 185.998C436.84 186.058 436.853 186.163 436.972 186.232L440.159 188.072C440.279 188.141 440.46 188.149 440.563 188.089Z" fill="#E4E6EA"/>
<path fill-rule="evenodd" clip-rule="evenodd" d="M442.565 195.528L444.417 196.597C444.541 196.669 444.73 196.677 444.837 196.615L445.35 196.319C445.457 196.257 445.443 196.148 445.319 196.076L443.467 195.007C443.344 194.935 443.155 194.928 443.048 194.99L442.535 195.286C442.428 195.347 442.441 195.456 442.565 195.528Z" fill="#E4E6EA"/>
<path fill-rule="evenodd" clip-rule="evenodd" d="M439.913 193.997L441.765 195.066C441.889 195.138 442.077 195.146 442.184 195.084L442.698 194.788C442.804 194.726 442.791 194.617 442.667 194.546L440.814 193.476C440.692 193.404 440.502 193.397 440.396 193.459L439.883 193.755C439.775 193.816 439.789 193.925 439.913 193.997Z" fill="#E4E6EA"/>
<path fill-rule="evenodd" clip-rule="evenodd" d="M437.262 192.466L439.115 193.535C439.238 193.607 439.427 193.615 439.534 193.553L440.047 193.256C440.154 193.195 440.141 193.086 440.017 193.015L438.164 191.945C438.041 191.873 437.853 191.866 437.745 191.928L437.232 192.224C437.125 192.285 437.139 192.394 437.262 192.466Z" fill="#E4E6EA"/>
<path fill-rule="evenodd" clip-rule="evenodd" d="M434.612 190.935L436.464 192.004C436.587 192.076 436.776 192.084 436.883 192.022L437.396 191.726C437.504 191.664 437.49 191.555 437.366 191.484L435.514 190.414C435.391 190.343 435.202 190.335 435.095 190.396L434.582 190.693C434.475 190.754 434.488 190.864 434.612 190.935Z" fill="#E4E6EA"/>
<path fill-rule="evenodd" clip-rule="evenodd" d="M431.959 189.404L433.812 190.473C433.935 190.545 434.125 190.553 434.231 190.491L434.744 190.195C434.851 190.133 434.838 190.024 434.714 189.953L432.862 188.883C432.738 188.811 432.55 188.804 432.442 188.866L431.929 189.162C431.823 189.223 431.836 189.332 431.959 189.404Z" fill="#E4E6EA"/>
<path fill-rule="evenodd" clip-rule="evenodd" d="M429.309 187.873L431.161 188.943C431.285 189.014 431.474 189.022 431.581 188.96L432.094 188.664C432.201 188.602 432.188 188.493 432.064 188.421L430.211 187.352C430.088 187.28 429.899 187.273 429.792 187.335L429.279 187.631C429.172 187.693 429.186 187.802 429.309 187.873Z" fill="#E4E6EA"/>
<path fill-rule="evenodd" clip-rule="evenodd" d="M426.659 186.342L428.511 187.412C428.634 187.483 428.823 187.491 428.93 187.429L429.443 187.133C429.551 187.071 429.537 186.963 429.413 186.891L427.56 185.821C427.437 185.749 427.249 185.742 427.142 185.804L426.628 186.1C426.521 186.162 426.535 186.271 426.659 186.342Z" fill="#E4E6EA"/>
<path fill-rule="evenodd" clip-rule="evenodd" d="M441.381 196.211L443.233 197.28C443.357 197.352 443.546 197.36 443.653 197.298L444.166 197.001C444.273 196.94 444.259 196.831 444.136 196.759L442.283 195.69C442.16 195.618 441.972 195.611 441.864 195.673L441.351 195.969C441.245 196.03 441.258 196.139 441.381 196.211Z" fill="#E4E6EA"/>
<path fill-rule="evenodd" clip-rule="evenodd" d="M438.731 194.68L440.583 195.749C440.707 195.821 440.896 195.829 441.003 195.767L441.516 195.471C441.623 195.409 441.609 195.3 441.485 195.229L439.633 194.159C439.51 194.087 439.321 194.08 439.214 194.142L438.701 194.438C438.594 194.499 438.607 194.608 438.731 194.68Z" fill="#E4E6EA"/>
<path fill-rule="evenodd" clip-rule="evenodd" d="M436.081 193.149L437.933 194.219C438.057 194.29 438.245 194.298 438.352 194.236L438.865 193.94C438.972 193.878 438.959 193.769 438.835 193.698L436.982 192.628C436.86 192.556 436.67 192.549 436.564 192.611L436.051 192.907C435.943 192.969 435.957 193.078 436.081 193.149Z" fill="#E4E6EA"/>
<path fill-rule="evenodd" clip-rule="evenodd" d="M433.428 191.618L435.281 192.687C435.404 192.759 435.593 192.767 435.7 192.705L436.213 192.409C436.32 192.347 436.307 192.238 436.183 192.167L434.33 191.097C434.207 191.026 434.019 191.018 433.911 191.079L433.398 191.376C433.291 191.437 433.305 191.547 433.428 191.618Z" fill="#E4E6EA"/>
<path fill-rule="evenodd" clip-rule="evenodd" d="M430.778 190.087L432.63 191.157C432.753 191.228 432.943 191.236 433.049 191.174L433.562 190.878C433.67 190.816 433.656 190.708 433.532 190.636L431.68 189.566C431.557 189.494 431.368 189.487 431.261 189.549L430.748 189.845C430.641 189.907 430.654 190.016 430.778 190.087Z" fill="#E4E6EA"/>
<path fill-rule="evenodd" clip-rule="evenodd" d="M428.125 188.556L429.978 189.626C430.101 189.697 430.291 189.705 430.397 189.643L430.91 189.347C431.017 189.285 431.004 189.176 430.88 189.104L429.028 188.035C428.904 187.963 428.716 187.956 428.608 188.018L428.095 188.314C427.989 188.376 428.002 188.485 428.125 188.556Z" fill="#E4E6EA"/>
<path fill-rule="evenodd" clip-rule="evenodd" d="M425.475 187.025L427.327 188.094C427.451 188.166 427.64 188.174 427.747 188.112L428.26 187.816C428.367 187.754 428.354 187.645 428.23 187.574L426.377 186.504C426.254 186.432 426.065 186.425 425.958 186.487L425.445 186.783C425.338 186.844 425.352 186.953 425.475 187.025Z" fill="#E4E6EA"/>
<path fill-rule="evenodd" clip-rule="evenodd" d="M440.2 196.894L442.052 197.964C442.176 198.035 442.364 198.043 442.472 197.981L442.985 197.685C443.091 197.623 443.078 197.514 442.955 197.442L441.102 196.373C440.979 196.301 440.79 196.294 440.683 196.356L440.17 196.652C440.063 196.714 440.076 196.823 440.2 196.894Z" fill="#E4E6EA"/>
<path fill-rule="evenodd" clip-rule="evenodd" d="M437.547 195.363L439.399 196.432C439.523 196.504 439.712 196.512 439.819 196.45L440.332 196.154C440.439 196.092 440.425 195.983 440.302 195.912L438.45 194.842C438.326 194.77 438.138 194.763 438.03 194.824L437.517 195.121C437.411 195.182 437.424 195.291 437.547 195.363Z" fill="#E4E6EA"/>
<path fill-rule="evenodd" clip-rule="evenodd" d="M434.897 193.832L436.749 194.901C436.873 194.973 437.062 194.981 437.169 194.918L437.682 194.622C437.789 194.561 437.775 194.452 437.651 194.381L435.799 193.311C435.676 193.239 435.487 193.232 435.38 193.294L434.867 193.59C434.76 193.651 434.773 193.76 434.897 193.832Z" fill="#E4E6EA"/>
<path fill-rule="evenodd" clip-rule="evenodd" d="M432.247 192.301L434.099 193.37C434.223 193.442 434.411 193.45 434.518 193.388L435.032 193.092C435.138 193.029 435.125 192.921 435.001 192.85L433.148 191.78C433.026 191.709 432.836 191.701 432.73 191.762L432.217 192.059C432.109 192.12 432.123 192.23 432.247 192.301Z" fill="#E4E6EA"/>
<path fill-rule="evenodd" clip-rule="evenodd" d="M429.594 190.77L431.446 191.84C431.57 191.911 431.758 191.919 431.866 191.857L432.379 191.561C432.486 191.499 432.472 191.391 432.349 191.319L430.496 190.249C430.373 190.177 430.184 190.17 430.077 190.232L429.564 190.528C429.457 190.59 429.471 190.699 429.594 190.77Z" fill="#E4E6EA"/>
<path fill-rule="evenodd" clip-rule="evenodd" d="M426.944 189.239L428.796 190.309C428.919 190.38 429.109 190.388 429.215 190.326L429.728 190.03C429.836 189.968 429.822 189.859 429.698 189.787L427.846 188.718C427.723 188.646 427.534 188.639 427.427 188.701L426.914 188.997C426.807 189.059 426.82 189.168 426.944 189.239Z" fill="#E4E6EA"/>
<path fill-rule="evenodd" clip-rule="evenodd" d="M424.293 187.708L426.145 188.777C426.27 188.849 426.459 188.857 426.565 188.795L427.078 188.499C427.185 188.437 427.172 188.329 427.048 188.257L425.196 187.187C425.072 187.116 424.884 187.108 424.776 187.17L424.263 187.466C424.157 187.528 424.17 187.637 424.293 187.708Z" fill="#E4E6EA"/>
<path fill-rule="evenodd" clip-rule="evenodd" d="M439.016 197.577L440.868 198.647C440.992 198.718 441.181 198.726 441.288 198.664L441.801 198.368C441.908 198.306 441.895 198.197 441.771 198.125L439.918 197.056C439.795 196.984 439.606 196.977 439.499 197.039L438.986 197.335C438.879 197.397 438.893 197.506 439.016 197.577Z" fill="#E4E6EA"/>
<path fill-rule="evenodd" clip-rule="evenodd" d="M436.366 196.046L438.218 197.115C438.341 197.187 438.53 197.195 438.637 197.133L439.15 196.837C439.258 196.774 439.244 196.666 439.12 196.595L437.267 195.525C437.145 195.454 436.956 195.446 436.849 195.507L436.336 195.803C436.228 195.865 436.242 195.975 436.366 196.046Z" fill="#E4E6EA"/>
<path fill-rule="evenodd" clip-rule="evenodd" d="M433.713 194.515L435.565 195.585C435.689 195.656 435.878 195.664 435.985 195.602L436.498 195.306C436.605 195.244 436.591 195.135 436.468 195.064L434.616 193.994C434.492 193.922 434.304 193.915 434.196 193.977L433.683 194.273C433.577 194.335 433.59 194.444 433.713 194.515Z" fill="#E4E6EA"/>
<path fill-rule="evenodd" clip-rule="evenodd" d="M431.063 192.984L432.915 194.054C433.039 194.125 433.228 194.133 433.335 194.071L433.848 193.775C433.955 193.713 433.941 193.604 433.818 193.532L431.965 192.463C431.842 192.391 431.653 192.384 431.546 192.446L431.033 192.742C430.926 192.804 430.939 192.913 431.063 192.984Z" fill="#E4E6EA"/>
<path fill-rule="evenodd" clip-rule="evenodd" d="M428.413 191.453L430.265 192.522C430.389 192.594 430.577 192.602 430.684 192.54L431.198 192.244C431.304 192.182 431.291 192.074 431.167 192.002L429.314 190.932C429.192 190.86 429.002 190.853 428.896 190.915L428.383 191.211C428.275 191.273 428.289 191.382 428.413 191.453Z" fill="#E4E6EA"/>
<path fill-rule="evenodd" clip-rule="evenodd" d="M425.76 189.922L427.612 190.992C427.736 191.063 427.924 191.071 428.032 191.009L428.545 190.713C428.652 190.651 428.638 190.542 428.515 190.47L426.662 189.401C426.539 189.329 426.35 189.322 426.243 189.384L425.73 189.68C425.624 189.742 425.637 189.851 425.76 189.922Z" fill="#E4E6EA"/>
<path fill-rule="evenodd" clip-rule="evenodd" d="M423.11 188.391L424.962 189.46C425.085 189.532 425.275 189.54 425.381 189.478L425.894 189.182C426.002 189.12 425.988 189.012 425.864 188.94L424.012 187.87C423.889 187.799 423.7 187.791 423.593 187.853L423.08 188.149C422.973 188.21 422.986 188.32 423.11 188.391Z" fill="#E4E6EA"/>
<path fill-rule="evenodd" clip-rule="evenodd" d="M437.832 198.26L439.685 199.33C439.808 199.401 439.998 199.409 440.104 199.347L440.617 199.051C440.724 198.989 440.711 198.88 440.587 198.808L438.735 197.739C438.611 197.667 438.423 197.66 438.315 197.722L437.802 198.018C437.696 198.08 437.709 198.189 437.832 198.26Z" fill="#E4E6EA"/>
<path fill-rule="evenodd" clip-rule="evenodd" d="M435.182 196.729L437.034 197.798C437.158 197.87 437.347 197.878 437.454 197.816L437.967 197.52C438.074 197.457 438.061 197.349 437.937 197.278L436.084 196.208C435.961 196.137 435.772 196.129 435.665 196.19L435.152 196.486C435.045 196.548 435.059 196.658 435.182 196.729Z" fill="#E4E6EA"/>
<path fill-rule="evenodd" clip-rule="evenodd" d="M432.532 195.198L434.384 196.267C434.507 196.339 434.696 196.347 434.803 196.285L435.316 195.989C435.424 195.927 435.41 195.818 435.286 195.747L433.433 194.677C433.311 194.605 433.122 194.598 433.015 194.66L432.502 194.956C432.394 195.018 432.408 195.126 432.532 195.198Z" fill="#E4E6EA"/>
<path fill-rule="evenodd" clip-rule="evenodd" d="M429.881 193.667L431.733 194.737C431.857 194.808 432.046 194.816 432.153 194.754L432.666 194.458C432.773 194.396 432.759 194.287 432.636 194.215L430.784 193.146C430.66 193.074 430.472 193.067 430.364 193.129L429.851 193.425C429.745 193.487 429.758 193.596 429.881 193.667Z" fill="#E4E6EA"/>
<path fill-rule="evenodd" clip-rule="evenodd" d="M427.229 192.136L429.081 193.205C429.205 193.277 429.394 193.285 429.501 193.223L430.014 192.927C430.121 192.865 430.107 192.757 429.984 192.685L428.131 191.615C428.008 191.543 427.819 191.536 427.712 191.598L427.199 191.894C427.092 191.956 427.105 192.064 427.229 192.136Z" fill="#E4E6EA"/>
<path fill-rule="evenodd" clip-rule="evenodd" d="M424.579 190.605L426.431 191.675C426.555 191.746 426.743 191.754 426.851 191.692L427.364 191.396C427.47 191.334 427.457 191.225 427.333 191.154L425.481 190.084C425.358 190.012 425.169 190.005 425.062 190.067L424.549 190.363C424.441 190.425 424.455 190.534 424.579 190.605Z" fill="#E4E6EA"/>
<path fill-rule="evenodd" clip-rule="evenodd" d="M421.926 189.074L423.778 190.143C423.902 190.215 424.091 190.223 424.198 190.161L424.711 189.865C424.818 189.803 424.804 189.695 424.681 189.623L422.828 188.553C422.705 188.482 422.516 188.474 422.409 188.536L421.896 188.832C421.79 188.893 421.803 189.003 421.926 189.074Z" fill="#E4E6EA"/>
<path fill-rule="evenodd" clip-rule="evenodd" d="M460.652 183.944C461.172 184.628 462.148 184.76 462.832 184.24C463.515 183.719 463.648 182.743 463.128 182.06C462.607 181.376 461.631 181.243 460.948 181.764C460.264 182.283 460.131 183.26 460.652 183.944Z" fill="#F7D9AD"/>
<path fill-rule="evenodd" clip-rule="evenodd" d="M458.517 170.34C458.533 173.152 459.498 180.613 460.462 183.577C460.462 183.577 460.6 183.841 460.683 183.949C461.204 184.633 462.179 184.766 462.863 184.245C463.175 184.008 463.372 183.675 463.445 183.319C463.445 183.319 463.886 180.517 463.878 180.513C464.075 177.969 465.397 168.088 464.532 165.768L464.497 165.641C464.197 164.63 463.406 163.913 462.253 163.671C460.992 163.406 459.662 164.011 459.037 165.137C459.033 165.144 459.029 165.152 459.025 165.159C458.833 165.512 458.734 165.908 458.695 166.308C458.628 167.015 458.507 168.546 458.517 170.34Z" fill="#87594C"/>
<path fill-rule="evenodd" clip-rule="evenodd" d="M440.124 202.364L417.972 189.59C417.846 189.517 417.767 189.381 417.767 189.235V170.97C417.767 170.654 418.108 170.457 418.382 170.614L440.488 183.362C440.615 183.435 440.693 183.571 440.693 183.717V202.035C440.693 202.327 440.378 202.51 440.124 202.364Z" fill="#E4E6EA"/>
<path fill-rule="evenodd" clip-rule="evenodd" d="M417.767 170.97C417.767 170.655 418.108 170.457 418.381 170.615L440.488 183.362C440.615 183.435 440.693 183.571 440.693 183.717V199.808L417.767 176.337V170.97Z" fill="#E4E6EA"/>
<path fill-rule="evenodd" clip-rule="evenodd" d="M439.734 202.811L440.496 202.368C440.496 202.368 439.398 201.526 439.417 201.556C439.437 201.585 439.734 202.811 439.734 202.811Z" fill="#E4E6EA"/>
<path fill-rule="evenodd" clip-rule="evenodd" d="M417.169 171.062L417.949 170.632C417.949 170.632 418.445 172.272 418.386 172.231C418.326 172.192 417.169 171.062 417.169 171.062Z" fill="#E4E6EA"/>
<path fill-rule="evenodd" clip-rule="evenodd" d="M439.332 202.819L417.147 190.027C417.047 189.969 416.986 189.862 416.986 189.745V171.39C416.986 171.093 417.307 170.906 417.564 171.055L439.719 183.83C439.838 183.899 439.912 184.027 439.912 184.165V202.484C439.912 202.782 439.59 202.968 439.332 202.819Z" fill="#E4E6EA"/>
<path fill-rule="evenodd" clip-rule="evenodd" d="M416.986 171.384C416.986 171.09 417.305 170.905 417.56 171.052L439.707 183.823C439.834 183.896 439.912 184.032 439.912 184.178V200.269L416.986 176.798V171.384Z" fill="#E9EDF2"/>
<path fill-rule="evenodd" clip-rule="evenodd" d="M457.605 154.856C457.131 157.316 457.035 158.623 457.567 161.261C457.609 161.466 455.926 162.346 454.371 162.402C452.551 162.468 450.86 161.643 451.6 160.828C452.958 159.335 452.298 156.502 452.091 155.952C451.319 153.902 452.298 153.573 454.082 153.384C455.866 153.196 456.155 154.801 457.605 154.856Z" fill="#72483F"/>
<path fill-rule="evenodd" clip-rule="evenodd" d="M458.625 144.27C459.621 145.896 460.549 148.543 460.296 150.58C460.042 152.618 459.97 153.525 458.661 154.852C457.19 156.345 454.827 158.118 452.651 157.59C450.96 157.178 450.154 155.619 449.541 153.962C448.928 152.307 448.653 150.123 448.982 148.333C449.364 146.246 449.827 143.737 451.528 142.466C454.685 140.103 456.632 141.02 458.625 144.27Z" fill="#87594C"/>
<path fill-rule="evenodd" clip-rule="evenodd" d="M465.679 145.982C464.466 146.525 462.915 145.697 462.214 144.132C461.513 142.567 461.928 140.858 463.141 140.315C464.355 139.771 465.906 140.599 466.607 142.164C467.308 143.729 466.892 145.438 465.679 145.982Z" fill="#26221D"/>
<path fill-rule="evenodd" clip-rule="evenodd" d="M462.422 147.232C462.422 147.232 464.048 146.32 464.417 145.957C464.786 145.593 462.735 141.61 462.025 141.644C461.314 141.678 460.435 142.432 460.435 142.432L462.422 147.232Z" fill="#C6C6C6"/>
<path fill-rule="evenodd" clip-rule="evenodd" d="M451.805 144.402C451.805 144.402 454.186 148.328 456.22 149.16C458.254 149.991 457.965 150.951 457.965 150.951C457.965 150.951 458.133 149.696 459.014 149.685C459.896 149.675 459.955 151.39 459.955 151.39C459.955 151.39 459.854 152.857 458.639 153.037C457.424 153.217 458.658 155.021 458.658 155.021C458.658 155.021 461.895 151.979 462.241 151.403C463.679 149.01 463.223 146.27 462.528 144.397C461.654 142.033 461.509 142.097 459.744 140.822C459.096 140.353 458.399 140.115 457.718 140.022C455.677 139.742 453.781 140.76 453.781 140.76C453.781 140.76 452.295 140.288 450.47 142.473C448.631 144.676 449.204 146.67 449.204 146.67C449.204 146.67 449.894 144.624 451.805 144.402Z" fill="#26221D"/>
<path fill-rule="evenodd" clip-rule="evenodd" d="M453.794 140.766C453.794 140.766 447.652 139.606 447.803 145.872C447.852 147.946 448.944 148.662 448.944 148.662C448.944 148.662 449.469 144.428 451.806 144.402C454.144 144.375 453.794 140.766 453.794 140.766Z" fill="#26221D"/>
<path fill-rule="evenodd" clip-rule="evenodd" d="M450.897 191.131C451.965 190.692 454.401 189.626 454.513 189.585C458.375 188.114 461.988 185.026 462.627 184.398L462.751 184.287C463.068 184.111 463.221 183.9 463.354 183.532C463.643 182.722 463.223 181.831 462.414 181.542C461.887 181.353 461.371 181.446 460.916 181.792L460.794 181.847C459.975 182.15 458.754 182.43 458.017 182.787C455.25 184.123 452.604 187.918 449.807 189.427L449.799 189.432C449.643 189.546 449.503 189.725 449.432 189.922C449.243 190.447 449.516 191.025 450.041 191.213C450.334 191.318 450.643 191.279 450.893 191.132L450.897 191.131Z" fill="#87594C"/>
<path fill-rule="evenodd" clip-rule="evenodd" d="M450.911 191.099C451.373 190.798 451.504 190.181 451.204 189.719C450.904 189.257 450.286 189.126 449.824 189.426C449.363 189.727 449.232 190.345 449.532 190.807C449.832 191.268 450.45 191.399 450.911 191.099Z" fill="#87594C"/>
<path fill-rule="evenodd" clip-rule="evenodd" d="M449.674 193.266C450.264 192.784 450.506 192.257 450.796 191.52C450.968 191.085 451.24 190.903 451.269 190.651C451.293 190.441 450.694 189.335 450.248 189.306C449.978 189.289 449.762 189.49 449.15 189.477C448.528 189.464 447.816 189.758 447.211 190.251C447.032 190.398 446.533 190.708 446.748 190.738C446.855 190.752 446.972 190.893 446.86 191.028C446.794 191.106 446.628 191.216 446.556 191.283C446.117 191.684 446.53 192.495 446.936 192.991C447.617 193.823 448.843 193.946 449.674 193.266Z" fill="#87594C"/>
<path fill-rule="evenodd" clip-rule="evenodd" d="M447.478 191.019C447.344 190.855 447.101 190.831 446.936 190.964L444.483 192.971C444.319 193.105 444.295 193.349 444.429 193.512C444.562 193.677 444.806 193.701 444.97 193.567L447.423 191.561C447.588 191.426 447.612 191.182 447.478 191.019Z" fill="#87594C"/>
<path fill-rule="evenodd" clip-rule="evenodd" d="M447.728 191.996C447.594 191.833 447.351 191.808 447.186 191.942L444.733 193.948C444.569 194.082 444.545 194.326 444.679 194.49C444.812 194.654 445.056 194.678 445.22 194.544L447.673 192.538C447.838 192.404 447.862 192.161 447.728 191.996Z" fill="#87594C"/>
<path fill-rule="evenodd" clip-rule="evenodd" d="M448.636 192.436C448.502 192.272 448.259 192.248 448.095 192.382L445.641 194.388C445.478 194.522 445.452 194.766 445.587 194.93C445.721 195.094 445.964 195.118 446.128 194.984L448.582 192.978C448.745 192.844 448.77 192.6 448.636 192.436Z" fill="#87594C"/>
<path fill-rule="evenodd" clip-rule="evenodd" d="M449.923 192.566C449.789 192.401 449.546 192.377 449.382 192.511L446.928 194.517C446.764 194.652 446.74 194.896 446.874 195.059C447.008 195.223 447.251 195.247 447.415 195.114L449.869 193.107C450.033 192.972 450.057 192.729 449.923 192.566Z" fill="#87594C"/>
<path fill-rule="evenodd" clip-rule="evenodd" d="M449.419 189.915C449.385 189.706 449.186 189.563 448.977 189.597L445.849 190.107C445.641 190.142 445.497 190.34 445.532 190.549C445.566 190.758 445.764 190.9 445.973 190.866L449.101 190.356C449.31 190.322 449.453 190.123 449.419 189.915Z" fill="#87594C"/>
<path fill-rule="evenodd" clip-rule="evenodd" d="M450.915 191.103C451.377 190.802 451.508 190.185 451.208 189.723C450.908 189.261 450.29 189.13 449.828 189.43C449.366 189.73 449.236 190.349 449.536 190.81C449.836 191.272 450.453 191.403 450.915 191.103Z" fill="#87594C"/>
<path fill-rule="evenodd" clip-rule="evenodd" d="M458.145 174.98C457.98 173.433 457.88 172.068 457.876 171.177C457.865 169.359 457.985 167.81 458.058 167.048C458.112 166.48 458.262 165.969 458.501 165.53L458.516 165.502C459.209 164.254 459.95 163.314 461.391 163.314C461.659 163.314 461.925 163.342 462.186 163.396C463.667 163.708 464.748 164.669 465.153 166.035L465.183 166.144C465.688 167.576 465.551 170.909 465.215 174.731C463.439 175.173 461.046 175.796 458.145 174.98Z" fill="#BCDDC3"/>
</g>
<defs>
<clipPath id="clip0_429_1425">
<rect width="548" height="270" fill="white" transform="translate(0 0.09375)"/>
</clipPath>
</defs>
</svg>
