<svg width="673" height="972" viewBox="0 0 673 972" fill="none" xmlns="http://www.w3.org/2000/svg">
<path fill-rule="evenodd" clip-rule="evenodd" d="M0.673828 486.097C0.673828 753.122 1.05483 971.597 1.52083 971.597C1.98683 971.597 6.36783 969.086 11.2548 966.018C84.7028 919.906 127.025 853.98 144.091 759.097C150.45 723.738 153.02 695.857 156.673 622.597C159.809 559.686 162.625 530.246 168.279 501.248C184.754 416.757 227.452 370.904 308.174 351.019C334.916 344.431 357.638 342.031 406.674 340.614C425.537 340.069 445.199 338.964 451.674 338.085C512.661 329.81 558.183 309.184 595.921 272.725C616.156 253.175 629.826 234.187 643.17 207.097C658.526 175.92 667.368 144.576 671.803 105.597C673.355 91.9533 673.337 55.0073 671.772 41.5973C670.445 30.2353 666.151 6.98329 664.651 3.03629L663.724 0.59729H332.199H0.673828V486.097Z" fill="white" fill-opacity="0.2"/>
</svg>
