<svg width="673" height="969" viewBox="0 0 673 969" fill="none" xmlns="http://www.w3.org/2000/svg">
<path fill-rule="evenodd" clip-rule="evenodd" d="M0.496094 483.375C0.496094 750.4 0.877094 968.875 1.34309 968.875C1.80909 968.875 6.19009 966.364 11.0771 963.296C84.5251 917.184 126.847 851.258 143.913 756.375C150.272 721.016 152.842 693.135 156.495 619.875C159.631 556.964 162.447 527.524 168.101 498.526C184.576 414.035 227.274 368.182 307.996 348.297C334.738 341.709 357.46 339.309 406.496 337.892C425.359 337.347 445.021 336.242 451.496 335.363C512.483 327.088 558.005 306.462 595.743 270.003C615.978 250.453 629.648 231.465 642.992 204.375C658.348 173.198 667.19 141.854 671.625 102.875C673.177 89.231 673.159 52.285 671.594 38.875C670.267 27.513 665.973 4.261 664.473 0.314L663.546 -2.125H332.021H0.496094V483.375Z" fill="#66C206" fill-opacity="0.1"/>
</svg>
