<svg width="59" height="60" viewBox="0 0 59 60" fill="none" xmlns="http://www.w3.org/2000/svg">
<path d="M29.4092 5.18515C15.4161 5.18514 4.15049 16.4508 4.15049 30.3253C4.15049 44.3184 15.4161 55.5841 29.4092 55.5841C43.2838 55.5841 54.5494 44.3184 54.5494 30.3253C54.5494 16.4508 43.2838 5.18515 29.4092 5.18515ZM17.7878 20.957C17.7878 14.5534 23.0056 9.33564 29.4092 9.33564C35.6943 9.33564 40.9121 14.5534 40.912 20.957L40.912 24.0403C40.912 24.6332 40.4377 25.1075 39.8448 25.1075L37.7102 25.1075C37.1173 25.1075 36.643 24.6332 36.643 24.0403L36.643 20.957C36.643 11.233 21.9383 11.233 21.9383 20.957L21.9383 24.0403C21.9383 24.6332 21.5826 25.1075 20.9897 25.1075L18.8551 25.1075C18.2622 25.1075 17.7878 24.6332 17.7878 24.0403L17.7878 20.957ZM46.1298 45.0299C46.1298 46.2158 45.1811 47.1645 44.1139 47.1645L14.7046 47.1645C13.5188 47.1645 12.5701 46.2158 12.5701 45.0299L12.5701 28.3093C12.5701 27.1235 13.5188 26.1748 14.7046 26.1748L44.1139 26.1748C45.1811 26.1748 46.1298 27.1235 46.1298 28.3094L46.1298 45.0299ZM16.7206 28.7837L16.7206 44.5556C16.7206 44.9113 16.4834 45.0299 16.2462 45.0299L15.179 45.0299C14.8232 45.0299 14.7046 44.9113 14.7046 44.5556L14.7046 28.7837C14.7046 28.5465 14.8232 28.3093 15.179 28.3093L16.2462 28.3093C16.4834 28.3093 16.7206 28.5465 16.7206 28.7837ZM33.5597 34.5944C33.5597 36.136 32.7296 37.4404 31.4252 38.152L31.4252 41.9467C31.4252 42.5396 30.9508 43.014 30.3579 43.014L28.342 43.014C27.749 43.014 27.2747 42.5396 27.2747 41.9467L27.2747 38.152C25.9703 37.4404 25.1402 36.136 25.1402 34.5944C25.1402 32.2227 27.0375 30.3253 29.2907 30.3253C31.6624 30.3253 33.5597 32.2227 33.5597 34.5944ZM29.4092 0.916061C13.163 0.916058 -5.06795e-06 14.0791 -7.90854e-06 30.3253C-1.07491e-05 46.5715 13.163 59.7345 29.4092 59.7346C45.6555 59.7346 58.8185 46.5715 58.8185 30.3253C58.8185 14.0791 45.6555 0.916064 29.4092 0.916061ZM29.4092 57.7186C14.3489 57.7186 2.01595 45.3857 2.01595 30.3253C2.01595 15.2649 14.3489 3.0506 29.4092 3.0506C44.4696 3.05061 56.6839 15.2649 56.6839 30.3253C56.6839 45.3857 44.4696 57.7186 29.4092 57.7186Z" fill="#66C206"/>
</svg>
