<svg width="80" height="109" viewBox="0 0 80 109" fill="none" xmlns="http://www.w3.org/2000/svg">
<g clip-path="url(#clip0_432_831)">
<path d="M44.4792 105.017C44.7717 105.018 45.0576 105.105 45.3008 105.268C45.5441 105.43 45.7338 105.661 45.8462 105.931C45.9894 106.271 46.0005 106.652 45.8773 107C45.754 107.347 45.5054 107.636 45.1802 107.81C44.8549 107.984 44.4765 108.03 44.1191 107.939C43.7616 107.848 43.451 107.627 43.2482 107.319C43.0575 107.035 42.9716 106.693 43.0052 106.352C43.0387 106.011 43.1897 105.692 43.4322 105.45C43.71 105.173 44.0866 105.017 44.4792 105.017ZM44.4792 90.0973C44.8717 90.0973 45.2481 90.2532 45.5257 90.5308C45.8032 90.8083 45.9592 91.1848 45.9592 91.5773C45.9592 91.9698 45.8032 92.3463 45.5257 92.6238C45.2481 92.9014 44.8717 93.0573 44.4792 93.0573C44.0866 93.0573 43.7102 92.9014 43.4327 92.6238C43.1551 92.3463 42.9992 91.9698 42.9992 91.5773C42.9992 91.1848 43.1551 90.8083 43.4327 90.5308C43.7102 90.2532 44.0866 90.0973 44.4792 90.0973V90.0973Z" fill="#4E9406"/>
<path d="M44.48 78.1373C44.6744 78.1373 44.8668 78.099 45.0464 78.0246C45.2259 77.9503 45.3891 77.8412 45.5265 77.7038C45.664 77.5664 45.773 77.4032 45.8473 77.2237C45.9217 77.0441 45.96 76.8516 45.96 76.6573C45.96 76.4629 45.9217 76.2705 45.8473 76.0909C45.773 75.9114 45.664 75.7482 45.5265 75.6108C45.3891 75.4733 45.2259 75.3643 45.0464 75.2899C44.8668 75.2156 44.6744 75.1773 44.48 75.1773C44.0875 75.1773 43.711 75.3332 43.4335 75.6108C43.1559 75.8883 43 76.2648 43 76.6573C43 77.0498 43.1559 77.4263 43.4335 77.7038C43.711 77.9814 44.0875 78.1373 44.48 78.1373V78.1373ZM44.48 63.2273C44.8725 63.2273 45.249 63.0714 45.5265 62.7938C45.8041 62.5163 45.96 62.1398 45.96 61.7473C45.96 61.3548 45.8041 60.9783 45.5265 60.7008C45.249 60.4232 44.8725 60.2673 44.48 60.2673C44.0875 60.2673 43.711 60.4232 43.4335 60.7008C43.1559 60.9783 43 61.3548 43 61.7473C43 62.1398 43.1559 62.5163 43.4335 62.7938C43.711 63.0714 44.0875 63.2273 44.48 63.2273ZM44.48 48.3073C44.8725 48.3073 45.249 48.1514 45.5265 47.8738C45.8041 47.5963 45.96 47.2198 45.96 46.8273C45.96 46.4348 45.8041 46.0583 45.5265 45.7808C45.249 45.5032 44.8725 45.3473 44.48 45.3473C44.0875 45.3473 43.711 45.5032 43.4335 45.7808C43.1559 46.0583 43 46.4348 43 46.8273C43 47.2198 43.1559 47.5963 43.4335 47.8738C43.711 48.1514 44.0875 48.3073 44.48 48.3073ZM44.48 33.3873C44.8725 33.3873 45.249 33.2314 45.5265 32.9538C45.8041 32.6763 45.96 32.2998 45.96 31.9073C45.96 31.5148 45.8041 31.1383 45.5265 30.8608C45.249 30.5832 44.8725 30.4273 44.48 30.4273C44.0875 30.4273 43.711 30.5832 43.4335 30.8608C43.1559 31.1383 43 31.5148 43 31.9073C43 32.2998 43.1559 32.6763 43.4335 32.9538C43.711 33.2314 44.0875 33.3873 44.48 33.3873ZM44.48 18.4773C44.8725 18.4773 45.249 18.3214 45.5265 18.0438C45.8041 17.7663 45.96 17.3898 45.96 16.9973C45.96 16.6048 45.8041 16.2283 45.5265 15.9508C45.249 15.6732 44.8725 15.5173 44.48 15.5173C44.0875 15.5173 43.711 15.6732 43.4335 15.9508C43.1559 16.2283 43 16.6048 43 16.9973C43 17.3898 43.1559 17.7663 43.4335 18.0438C43.711 18.3214 44.0875 18.4773 44.48 18.4773ZM44.48 3.55729C44.6744 3.55729 44.8668 3.51901 45.0464 3.44463C45.2259 3.37025 45.3891 3.26124 45.5265 3.12381C45.664 2.98638 45.773 2.82322 45.8473 2.64366C45.9217 2.4641 45.96 2.27165 45.96 2.07729C45.96 1.88293 45.9217 1.69048 45.8473 1.51092C45.773 1.33136 45.664 1.1682 45.5265 1.03077C45.3891 0.893341 45.2259 0.784325 45.0464 0.709948C44.8668 0.635571 44.6744 0.59729 44.48 0.59729C44.0875 0.59729 43.711 0.753218 43.4335 1.03077C43.1559 1.30833 43 1.68477 43 2.07729C43 2.46981 43.1559 2.84625 43.4335 3.12381C43.711 3.40136 44.0875 3.55729 44.48 3.55729V3.55729Z" fill="#E4E4E4"/>
<path d="M55.7801 105.017C56.0729 105.018 56.3589 105.105 56.6023 105.268C56.8457 105.43 57.0356 105.661 57.1481 105.931C57.232 106.133 57.27 106.352 57.2594 106.57C57.2487 106.789 57.1897 107.003 57.0866 107.196C56.9834 107.389 56.8387 107.557 56.6629 107.687C56.487 107.818 56.2844 107.907 56.0697 107.95C55.855 107.993 55.6335 107.987 55.4211 107.934C55.2088 107.881 55.0109 107.781 54.8417 107.642C54.6725 107.503 54.5363 107.328 54.4428 107.13C54.3494 106.932 54.301 106.716 54.3011 106.497C54.2998 106.303 54.3372 106.11 54.4111 105.929C54.485 105.749 54.594 105.586 54.7317 105.448C54.8693 105.31 55.033 105.201 55.2132 105.127C55.3934 105.053 55.5864 105.016 55.7811 105.017H55.7801ZM55.7801 90.0973C56.0719 90.0978 56.3569 90.1844 56.5996 90.3463C56.8423 90.5082 57.0318 90.7381 57.1443 91.0073C57.2567 91.2765 57.2872 91.5728 57.2319 91.8593C57.1765 92.1457 57.0378 92.4094 56.8331 92.6173C56.6282 92.8253 56.3662 92.968 56.0803 93.0274C55.7944 93.0869 55.4973 93.0604 55.2264 92.9514C54.9555 92.8423 54.7229 92.6556 54.5579 92.4146C54.3929 92.1737 54.3029 91.8893 54.2991 91.5973C54.2951 91.4009 54.3305 91.2057 54.4032 91.0232C54.4759 90.8407 54.5845 90.6746 54.7224 90.5348C54.8604 90.395 55.025 90.2842 55.2065 90.2091C55.388 90.1339 55.5827 90.0959 55.7791 90.0973H55.7801Z" fill="#4E9406"/>
<path d="M55.7788 78.1373C55.9732 78.1373 56.1656 78.099 56.3452 78.0246C56.5248 77.9503 56.6879 77.8412 56.8253 77.7038C56.9628 77.5664 57.0718 77.4032 57.1462 77.2237C57.2205 77.0441 57.2588 76.8516 57.2588 76.6573C57.2588 76.4629 57.2205 76.2705 57.1462 76.0909C57.0718 75.9114 56.9628 75.7482 56.8253 75.6108C56.6879 75.4733 56.5248 75.3643 56.3452 75.2899C56.1656 75.2156 55.9732 75.1773 55.7788 75.1773C55.3863 75.1773 55.0099 75.3332 54.7323 75.6108C54.4548 75.8883 54.2988 76.2648 54.2988 76.6573C54.2988 77.0498 54.4548 77.4263 54.7323 77.7038C55.0099 77.9814 55.3863 78.1373 55.7788 78.1373V78.1373ZM55.7788 63.2273C56.1713 63.2273 56.5478 63.0714 56.8253 62.7938C57.1029 62.5163 57.2588 62.1398 57.2588 61.7473C57.2588 61.3548 57.1029 60.9783 56.8253 60.7008C56.5478 60.4232 56.1713 60.2673 55.7788 60.2673C55.3863 60.2673 55.0099 60.4232 54.7323 60.7008C54.4548 60.9783 54.2988 61.3548 54.2988 61.7473C54.2988 62.1398 54.4548 62.5163 54.7323 62.7938C55.0099 63.0714 55.3863 63.2273 55.7788 63.2273ZM55.7788 48.3073C56.1713 48.3073 56.5478 48.1514 56.8253 47.8738C57.1029 47.5963 57.2588 47.2198 57.2588 46.8273C57.2588 46.4348 57.1029 46.0583 56.8253 45.7808C56.5478 45.5032 56.1713 45.3473 55.7788 45.3473C55.3863 45.3473 55.0099 45.5032 54.7323 45.7808C54.4548 46.0583 54.2988 46.4348 54.2988 46.8273C54.2988 47.2198 54.4548 47.5963 54.7323 47.8738C55.0099 48.1514 55.3863 48.3073 55.7788 48.3073ZM55.7788 33.3873C56.1713 33.3873 56.5478 33.2314 56.8253 32.9538C57.1029 32.6763 57.2588 32.2998 57.2588 31.9073C57.2588 31.5148 57.1029 31.1383 56.8253 30.8608C56.5478 30.5832 56.1713 30.4273 55.7788 30.4273C55.3863 30.4273 55.0099 30.5832 54.7323 30.8608C54.4548 31.1383 54.2988 31.5148 54.2988 31.9073C54.2988 32.2998 54.4548 32.6763 54.7323 32.9538C55.0099 33.2314 55.3863 33.3873 55.7788 33.3873ZM55.7788 18.4773C56.1713 18.4773 56.5478 18.3214 56.8253 18.0438C57.1029 17.7663 57.2588 17.3898 57.2588 16.9973C57.2588 16.6048 57.1029 16.2283 56.8253 15.9508C56.5478 15.6732 56.1713 15.5173 55.7788 15.5173C55.3863 15.5173 55.0099 15.6732 54.7323 15.9508C54.4548 16.2283 54.2988 16.6048 54.2988 16.9973C54.2988 17.3898 54.4548 17.7663 54.7323 18.0438C55.0099 18.3214 55.3863 18.4773 55.7788 18.4773ZM55.7788 3.55729C55.9732 3.55729 56.1656 3.51901 56.3452 3.44463C56.5248 3.37025 56.6879 3.26124 56.8253 3.12381C56.9628 2.98638 57.0718 2.82322 57.1462 2.64366C57.2205 2.4641 57.2588 2.27165 57.2588 2.07729C57.2588 1.88293 57.2205 1.69048 57.1462 1.51092C57.0718 1.33136 56.9628 1.1682 56.8253 1.03077C56.6879 0.893341 56.5248 0.784325 56.3452 0.709948C56.1656 0.635571 55.9732 0.59729 55.7788 0.59729C55.3863 0.59729 55.0099 0.753218 54.7323 1.03077C54.4548 1.30833 54.2988 1.68477 54.2988 2.07729C54.2988 2.46981 54.4548 2.84625 54.7323 3.12381C55.0099 3.40136 55.3863 3.55729 55.7788 3.55729Z" fill="#E4E4E4"/>
<path d="M67.0684 105.017C67.3609 105.018 67.6468 105.105 67.89 105.268C68.1332 105.43 68.3229 105.661 68.4354 105.931C68.5568 106.225 68.5807 106.549 68.5034 106.857C68.4262 107.165 68.252 107.44 68.0065 107.642C67.761 107.843 67.4572 107.96 67.1401 107.976C66.8229 107.991 66.5092 107.904 66.2453 107.728C65.9813 107.551 65.7811 107.294 65.6743 106.995C65.5674 106.696 65.5595 106.371 65.6518 106.067C65.744 105.763 65.9316 105.497 66.1866 105.308C66.4417 105.119 66.7509 105.017 67.0684 105.017V105.017ZM67.0684 90.0973C67.2659 90.0922 67.4625 90.1266 67.6465 90.1987C67.8305 90.2707 67.9982 90.3789 68.1397 90.5168C68.2812 90.6547 68.3937 90.8195 68.4705 91.0015C68.5473 91.1836 68.5869 91.3792 68.5869 91.5768C68.5869 91.7744 68.5473 91.97 68.4705 92.152C68.3937 92.3341 68.2812 92.4989 68.1397 92.6368C67.9982 92.7747 67.8305 92.8829 67.6465 92.9549C67.4625 93.0269 67.2659 93.0614 67.0684 93.0563C66.6827 93.0463 66.3161 92.886 66.0468 92.6096C65.7776 92.3332 65.6269 91.9626 65.6269 91.5768C65.6269 91.1909 65.7776 90.8203 66.0468 90.544C66.3161 90.2676 66.6827 90.1073 67.0684 90.0973V90.0973Z" fill="#4E9406"/>
<path d="M67.0699 75.1873C67.363 75.1873 67.6496 75.2744 67.8932 75.4374C68.1368 75.6005 68.3264 75.8322 68.4382 76.1033C68.5499 76.3743 68.5786 76.6724 68.5207 76.9597C68.4628 77.2471 68.3208 77.5108 68.1128 77.7173C67.9048 77.9239 67.6402 78.0641 67.3524 78.1201C67.0647 78.176 66.7668 78.1453 66.4965 78.0317C66.2263 77.9182 65.9958 77.7269 65.8344 77.4822C65.673 77.2375 65.5879 76.9504 65.5899 76.6573C65.5899 76.4634 65.6282 76.2714 65.7027 76.0924C65.7772 75.9134 65.8864 75.7509 66.024 75.6143C66.1615 75.4777 66.3248 75.3696 66.5043 75.2963C66.6838 75.223 66.876 75.186 67.0699 75.1873V75.1873ZM67.0699 60.2673C67.4624 60.2673 67.8388 60.4232 68.1164 60.7008C68.394 60.9783 68.5499 61.3548 68.5499 61.7473C68.5499 62.1398 68.394 62.5163 68.1164 62.7938C67.8388 63.0714 67.4624 63.2273 67.0699 63.2273C66.6774 63.2273 66.3009 63.0714 66.0234 62.7938C65.7458 62.5163 65.5899 62.1398 65.5899 61.7473C65.5899 61.3548 65.7458 60.9783 66.0234 60.7008C66.3009 60.4232 66.6774 60.2673 67.0699 60.2673V60.2673ZM67.0699 45.3473C67.4624 45.3473 67.8388 45.5032 68.1164 45.7808C68.394 46.0583 68.5499 46.4348 68.5499 46.8273C68.5499 47.2198 68.394 47.5963 68.1164 47.8738C67.8388 48.1514 67.4624 48.3073 67.0699 48.3073C66.6774 48.3073 66.3009 48.1514 66.0234 47.8738C65.7458 47.5963 65.5899 47.2198 65.5899 46.8273C65.5899 46.4348 65.7458 46.0583 66.0234 45.7808C66.3009 45.5032 66.6774 45.3473 67.0699 45.3473ZM67.0699 30.4273C67.4624 30.4273 67.8388 30.5832 68.1164 30.8608C68.394 31.1383 68.5499 31.5148 68.5499 31.9073C68.5499 32.2998 68.394 32.6763 68.1164 32.9538C67.8388 33.2314 67.4624 33.3873 67.0699 33.3873C66.6774 33.3873 66.3009 33.2314 66.0234 32.9538C65.7458 32.6763 65.5899 32.2998 65.5899 31.9073C65.5899 31.5148 65.7458 31.1383 66.0234 30.8608C66.3009 30.5832 66.6774 30.4273 67.0699 30.4273V30.4273ZM67.0699 15.5173C67.4624 15.5173 67.8388 15.6732 68.1164 15.9508C68.394 16.2283 68.5499 16.6048 68.5499 16.9973C68.5499 17.3898 68.394 17.7663 68.1164 18.0438C67.8388 18.3214 67.4624 18.4773 67.0699 18.4773C66.6774 18.4773 66.3009 18.3214 66.0234 18.0438C65.7458 17.7663 65.5899 17.3898 65.5899 16.9973C65.5899 16.6048 65.7458 16.2283 66.0234 15.9508C66.3009 15.6732 66.6774 15.5173 67.0699 15.5173V15.5173ZM67.0699 0.59729C67.2642 0.59729 67.4567 0.635571 67.6362 0.709948C67.8158 0.784325 67.979 0.893341 68.1164 1.03077C68.2538 1.1682 68.3628 1.33136 68.4372 1.51092C68.5116 1.69048 68.5499 1.88293 68.5499 2.07729C68.5499 2.27165 68.5116 2.4641 68.4372 2.64366C68.3628 2.82322 68.2538 2.98638 68.1164 3.12381C67.979 3.26124 67.8158 3.37025 67.6362 3.44463C67.4567 3.51901 67.2642 3.55729 67.0699 3.55729C66.6774 3.55729 66.3009 3.40136 66.0234 3.12381C65.7458 2.84625 65.5899 2.46981 65.5899 2.07729C65.5899 1.68477 65.7458 1.30833 66.0234 1.03077C66.3009 0.753218 66.6774 0.59729 67.0699 0.59729V0.59729Z" fill="#E4E4E4"/>
<path d="M78.3701 105.017C78.6628 105.018 78.9489 105.105 79.1923 105.268C79.4357 105.43 79.6256 105.661 79.7381 105.931C79.8595 106.225 79.8834 106.549 79.8062 106.857C79.7289 107.165 79.5547 107.44 79.3092 107.642C79.0637 107.843 78.7599 107.96 78.4428 107.976C78.1257 107.991 77.812 107.904 77.548 107.728C77.2841 107.551 77.0839 107.294 76.977 106.995C76.8701 106.696 76.8622 106.371 76.9545 106.067C77.0468 105.763 77.2343 105.497 77.4894 105.308C77.7445 105.119 78.0536 105.017 78.3711 105.017H78.3701ZM78.3701 90.0973C78.5676 90.0922 78.7642 90.1266 78.9482 90.1987C79.1322 90.2707 79.2999 90.3789 79.4414 90.5168C79.5829 90.6547 79.6954 90.8195 79.7722 91.0015C79.849 91.1836 79.8886 91.3792 79.8886 91.5768C79.8886 91.7744 79.849 91.97 79.7722 92.152C79.6954 92.3341 79.5829 92.4989 79.4414 92.6368C79.2999 92.7747 79.1322 92.8829 78.9482 92.9549C78.7642 93.0269 78.5676 93.0614 78.3701 93.0563C77.9844 93.0463 77.6178 92.886 77.3486 92.6096C77.0793 92.3332 76.9286 91.9626 76.9286 91.5768C76.9286 91.1909 77.0793 90.8203 77.3486 90.544C77.6178 90.2676 77.9844 90.1073 78.3701 90.0973V90.0973Z" fill="#4E9406"/>
<path d="M78.3687 75.1873C78.6618 75.1873 78.9484 75.2744 79.192 75.4374C79.4356 75.6005 79.6253 75.8322 79.737 76.1033C79.8487 76.3743 79.8774 76.6724 79.8195 76.9597C79.7616 77.2471 79.6196 77.5108 79.4116 77.7173C79.2037 77.9239 78.939 78.0641 78.6513 78.1201C78.3635 78.176 78.0656 78.1453 77.7954 78.0317C77.5251 77.9182 77.2947 77.7269 77.1333 77.4822C76.9718 77.2375 76.8867 76.9504 76.8887 76.6573C76.8887 76.4634 76.9271 76.2714 77.0016 76.0924C77.0761 75.9134 77.1852 75.7509 77.3228 75.6143C77.4604 75.4777 77.6236 75.3696 77.8031 75.2963C77.9826 75.223 78.1748 75.186 78.3687 75.1873V75.1873ZM78.3687 60.2673C78.7612 60.2673 79.1377 60.4232 79.4152 60.7008C79.6928 60.9783 79.8487 61.3548 79.8487 61.7473C79.8487 62.1398 79.6928 62.5163 79.4152 62.7938C79.1377 63.0714 78.7612 63.2273 78.3687 63.2273C77.9762 63.2273 77.5997 63.0714 77.3222 62.7938C77.0446 62.5163 76.8887 62.1398 76.8887 61.7473C76.8887 61.3548 77.0446 60.9783 77.3222 60.7008C77.5997 60.4232 77.9762 60.2673 78.3687 60.2673V60.2673ZM78.3687 45.3473C78.7612 45.3473 79.1377 45.5032 79.4152 45.7808C79.6928 46.0583 79.8487 46.4348 79.8487 46.8273C79.8487 47.2198 79.6928 47.5963 79.4152 47.8738C79.1377 48.1514 78.7612 48.3073 78.3687 48.3073C77.9762 48.3073 77.5997 48.1514 77.3222 47.8738C77.0446 47.5963 76.8887 47.2198 76.8887 46.8273C76.8887 46.4348 77.0446 46.0583 77.3222 45.7808C77.5997 45.5032 77.9762 45.3473 78.3687 45.3473ZM78.3687 30.4273C78.7614 30.4273 79.1379 30.5833 79.4156 30.8609C79.6932 31.1386 79.8492 31.5151 79.8492 31.9078C79.8492 32.3004 79.6932 32.677 79.4156 32.9547C79.1379 33.2323 78.7614 33.3883 78.3687 33.3883C77.9762 33.3883 77.5997 33.2324 77.3222 32.9548C77.0446 32.6773 76.8887 32.3008 76.8887 31.9083C76.8887 31.5158 77.0446 31.1393 77.3222 30.8618C77.5997 30.5842 77.9762 30.4283 78.3687 30.4283V30.4273ZM78.3687 15.5173C78.7612 15.5173 79.1377 15.6732 79.4152 15.9508C79.6928 16.2283 79.8487 16.6048 79.8487 16.9973C79.8487 17.3898 79.6928 17.7663 79.4152 18.0438C79.1377 18.3214 78.7612 18.4773 78.3687 18.4773C77.9762 18.4773 77.5997 18.3214 77.3222 18.0438C77.0446 17.7663 76.8887 17.3898 76.8887 16.9973C76.8887 16.6048 77.0446 16.2283 77.3222 15.9508C77.5997 15.6732 77.9762 15.5173 78.3687 15.5173V15.5173ZM78.3687 0.59729C78.5631 0.59729 78.7555 0.635571 78.9351 0.709948C79.1146 0.784325 79.2778 0.893341 79.4152 1.03077C79.5527 1.1682 79.6617 1.33136 79.736 1.51092C79.8104 1.69048 79.8487 1.88293 79.8487 2.07729C79.8487 2.27165 79.8104 2.4641 79.736 2.64366C79.6617 2.82322 79.5527 2.98638 79.4152 3.12381C79.2778 3.26124 79.1146 3.37025 78.9351 3.44463C78.7555 3.51901 78.5631 3.55729 78.3687 3.55729C77.9762 3.55729 77.5997 3.40136 77.3222 3.12381C77.0446 2.84625 76.8887 2.46981 76.8887 2.07729C76.8887 1.68477 77.0446 1.30833 77.3222 1.03077C77.5997 0.753218 77.9762 0.59729 78.3687 0.59729V0.59729Z" fill="#E4E4E4"/>
<path d="M1.4805 105.017C1.77305 105.018 2.05886 105.105 2.30206 105.268C2.54526 105.43 2.73501 105.661 2.8475 105.931C2.96892 106.225 2.99278 106.549 2.91555 106.857C2.83831 107.165 2.66407 107.44 2.41857 107.642C2.17307 107.843 1.86932 107.96 1.55218 107.976C1.23505 107.991 0.921334 107.904 0.657383 107.728C0.393432 107.551 0.193235 107.294 0.0863598 106.995C-0.0205151 106.696 -0.0284015 106.371 0.0638655 106.067C0.156132 105.763 0.343661 105.497 0.598754 105.308C0.853847 105.119 1.16298 105.017 1.4805 105.017V105.017ZM1.4805 90.0973C1.67802 90.0922 1.87458 90.1266 2.05857 90.1987C2.24256 90.2707 2.41027 90.3789 2.55179 90.5168C2.69332 90.6547 2.80579 90.8195 2.8826 91.0015C2.9594 91.1836 2.99896 91.3792 2.99896 91.5768C2.99896 91.7744 2.9594 91.97 2.8826 92.152C2.80579 92.3341 2.69332 92.4989 2.55179 92.6368C2.41027 92.7747 2.24256 92.8829 2.05857 92.9549C1.87458 93.0269 1.67802 93.0614 1.4805 93.0563C1.09477 93.0463 0.728206 92.886 0.458932 92.6096C0.189658 92.3332 0.0389631 91.9626 0.0389631 91.5768C0.0389631 91.1909 0.189658 90.8203 0.458932 90.544C0.728206 90.2676 1.09477 90.1073 1.4805 90.0973V90.0973Z" fill="#4E9406"/>
<path d="M1.48 78.1373C1.67436 78.1373 1.86681 78.099 2.04637 78.0246C2.22593 77.9503 2.38909 77.8412 2.52652 77.7038C2.66395 77.5664 2.77296 77.4032 2.84734 77.2237C2.92172 77.0441 2.96 76.8516 2.96 76.6573C2.96 76.4629 2.92172 76.2705 2.84734 76.0909C2.77296 75.9114 2.66395 75.7482 2.52652 75.6108C2.38909 75.4733 2.22593 75.3643 2.04637 75.2899C1.86681 75.2156 1.67436 75.1773 1.48 75.1773C1.08748 75.1773 0.711036 75.3332 0.433482 75.6108C0.155928 75.8883 1.24755e-07 76.2648 1.24755e-07 76.6573C1.24755e-07 77.0498 0.155928 77.4263 0.433482 77.7038C0.711036 77.9814 1.08748 78.1373 1.48 78.1373V78.1373ZM1.48 63.2273C1.87252 63.2273 2.24896 63.0714 2.52652 62.7938C2.80407 62.5163 2.96 62.1398 2.96 61.7473C2.96 61.3548 2.80407 60.9783 2.52652 60.7008C2.24896 60.4232 1.87252 60.2673 1.48 60.2673C1.08748 60.2673 0.711036 60.4232 0.433482 60.7008C0.155928 60.9783 0 61.3548 0 61.7473C0 62.1398 0.155928 62.5163 0.433482 62.7938C0.711036 63.0714 1.08748 63.2273 1.48 63.2273V63.2273ZM1.48 48.3073C1.87252 48.3073 2.24896 48.1514 2.52652 47.8738C2.80407 47.5963 2.96 47.2198 2.96 46.8273C2.96 46.4348 2.80407 46.0583 2.52652 45.7808C2.24896 45.5032 1.87252 45.3473 1.48 45.3473C1.08748 45.3473 0.711036 45.5032 0.433482 45.7808C0.155928 46.0583 0 46.4348 0 46.8273C0 47.2198 0.155928 47.5963 0.433482 47.8738C0.711036 48.1514 1.08748 48.3073 1.48 48.3073V48.3073ZM1.48 33.3873C1.87252 33.3873 2.24896 33.2314 2.52652 32.9538C2.80407 32.6763 2.96 32.2998 2.96 31.9073C2.96 31.5148 2.80407 31.1383 2.52652 30.8608C2.24896 30.5832 1.87252 30.4273 1.48 30.4273C1.08748 30.4273 0.711036 30.5832 0.433482 30.8608C0.155928 31.1383 0 31.5148 0 31.9073C0 32.2998 0.155928 32.6763 0.433482 32.9538C0.711036 33.2314 1.08748 33.3873 1.48 33.3873V33.3873ZM1.48 18.4773C1.87252 18.4773 2.24896 18.3214 2.52652 18.0438C2.80407 17.7663 2.96 17.3898 2.96 16.9973C2.96 16.6048 2.80407 16.2283 2.52652 15.9508C2.24896 15.6732 1.87252 15.5173 1.48 15.5173C1.08748 15.5173 0.711036 15.6732 0.433482 15.9508C0.155928 16.2283 0 16.6048 0 16.9973C0 17.3898 0.155928 17.7663 0.433482 18.0438C0.711036 18.3214 1.08748 18.4773 1.48 18.4773V18.4773ZM1.48 3.55729C1.67436 3.55729 1.86681 3.51901 2.04637 3.44463C2.22593 3.37025 2.38909 3.26124 2.52652 3.12381C2.66395 2.98638 2.77296 2.82322 2.84734 2.64366C2.92172 2.4641 2.96 2.27165 2.96 2.07729C2.96 1.88293 2.92172 1.69048 2.84734 1.51092C2.77296 1.33136 2.66395 1.1682 2.52652 1.03077C2.38909 0.893341 2.22593 0.784325 2.04637 0.709948C1.86681 0.635571 1.67436 0.59729 1.48 0.59729C1.08748 0.59729 0.711036 0.753218 0.433482 1.03077C0.155928 1.30833 2.20537e-08 1.68477 2.20537e-08 2.07729C2.20537e-08 2.46981 0.155928 2.84625 0.433482 3.12381C0.711036 3.40136 1.08748 3.55729 1.48 3.55729V3.55729Z" fill="#E4E4E4"/>
<path d="M12.7801 105.017C13.0729 105.018 13.3589 105.105 13.6023 105.268C13.8457 105.43 14.0356 105.661 14.1481 105.931C14.232 106.133 14.27 106.352 14.2594 106.57C14.2487 106.789 14.1897 107.003 14.0866 107.196C13.9834 107.389 13.8387 107.557 13.6629 107.687C13.487 107.818 13.2844 107.907 13.0697 107.95C12.855 107.993 12.6335 107.987 12.4211 107.934C12.2088 107.881 12.0109 107.781 11.8417 107.642C11.6725 107.503 11.5363 107.328 11.4428 107.13C11.3494 106.932 11.301 106.716 11.3011 106.497C11.2998 106.303 11.3372 106.11 11.4111 105.929C11.485 105.749 11.594 105.586 11.7317 105.448C11.8694 105.31 12.033 105.201 12.2132 105.127C12.3934 105.053 12.5864 105.016 12.7811 105.017H12.7801ZM12.7801 90.0973C13.0719 90.0978 13.3569 90.1844 13.5996 90.3463C13.8423 90.5082 14.0318 90.7381 14.1442 91.0073C14.2567 91.2765 14.2872 91.5728 14.2319 91.8593C14.1765 92.1457 14.0378 92.4094 13.8331 92.6173C13.6282 92.8253 13.3662 92.968 13.0803 93.0274C12.7944 93.0869 12.4973 93.0604 12.2264 92.9514C11.9555 92.8423 11.7229 92.6556 11.5579 92.4146C11.3929 92.1737 11.3029 91.8893 11.2991 91.5973C11.2951 91.4009 11.3305 91.2057 11.4032 91.0232C11.4759 90.8407 11.5845 90.6746 11.7224 90.5348C11.8604 90.395 12.025 90.2842 12.2065 90.2091C12.388 90.1339 12.5827 90.0959 12.7791 90.0973H12.7801Z" fill="#4E9406"/>
<path d="M12.7808 78.1373C12.9751 78.1373 13.1676 78.099 13.3472 78.0246C13.5267 77.9503 13.6899 77.8412 13.8273 77.7038C13.9647 77.5664 14.0737 77.4032 14.1481 77.2237C14.2225 77.0441 14.2608 76.8516 14.2608 76.6573C14.2608 76.4629 14.2225 76.2705 14.1481 76.0909C14.0737 75.9114 13.9647 75.7482 13.8273 75.6108C13.6899 75.4733 13.5267 75.3643 13.3472 75.2899C13.1676 75.2156 12.9751 75.1773 12.7808 75.1773C12.3883 75.1773 12.0118 75.3332 11.7343 75.6108C11.4567 75.8883 11.3008 76.2648 11.3008 76.6573C11.3008 77.0498 11.4567 77.4263 11.7343 77.7038C12.0118 77.9814 12.3883 78.1373 12.7808 78.1373V78.1373ZM12.7808 63.2273C13.1733 63.2273 13.5497 63.0714 13.8273 62.7938C14.1049 62.5163 14.2608 62.1398 14.2608 61.7473C14.2608 61.3548 14.1049 60.9783 13.8273 60.7008C13.5497 60.4232 13.1733 60.2673 12.7808 60.2673C12.3883 60.2673 12.0118 60.4232 11.7343 60.7008C11.4567 60.9783 11.3008 61.3548 11.3008 61.7473C11.3008 62.1398 11.4567 62.5163 11.7343 62.7938C12.0118 63.0714 12.3883 63.2273 12.7808 63.2273ZM12.7808 48.3073C13.1733 48.3073 13.5497 48.1514 13.8273 47.8738C14.1049 47.5963 14.2608 47.2198 14.2608 46.8273C14.2608 46.4348 14.1049 46.0583 13.8273 45.7808C13.5497 45.5032 13.1733 45.3473 12.7808 45.3473C12.3883 45.3473 12.0118 45.5032 11.7343 45.7808C11.4567 46.0583 11.3008 46.4348 11.3008 46.8273C11.3008 47.2198 11.4567 47.5963 11.7343 47.8738C12.0118 48.1514 12.3883 48.3073 12.7808 48.3073ZM12.7808 33.3873C13.1733 33.3873 13.5497 33.2314 13.8273 32.9538C14.1049 32.6763 14.2608 32.2998 14.2608 31.9073C14.2608 31.5148 14.1049 31.1383 13.8273 30.8608C13.5497 30.5832 13.1733 30.4273 12.7808 30.4273C12.3883 30.4273 12.0118 30.5832 11.7343 30.8608C11.4567 31.1383 11.3008 31.5148 11.3008 31.9073C11.3008 32.2998 11.4567 32.6763 11.7343 32.9538C12.0118 33.2314 12.3883 33.3873 12.7808 33.3873ZM12.7808 18.4773C13.1733 18.4773 13.5497 18.3214 13.8273 18.0438C14.1049 17.7663 14.2608 17.3898 14.2608 16.9973C14.2608 16.6048 14.1049 16.2283 13.8273 15.9508C13.5497 15.6732 13.1733 15.5173 12.7808 15.5173C12.3883 15.5173 12.0118 15.6732 11.7343 15.9508C11.4567 16.2283 11.3008 16.6048 11.3008 16.9973C11.3008 17.3898 11.4567 17.7663 11.7343 18.0438C12.0118 18.3214 12.3883 18.4773 12.7808 18.4773ZM12.7808 3.55729C12.9751 3.55729 13.1676 3.51901 13.3472 3.44463C13.5267 3.37025 13.6899 3.26124 13.8273 3.12381C13.9647 2.98638 14.0737 2.82322 14.1481 2.64366C14.2225 2.4641 14.2608 2.27165 14.2608 2.07729C14.2608 1.88293 14.2225 1.69048 14.1481 1.51092C14.0737 1.33136 13.9647 1.1682 13.8273 1.03077C13.6899 0.893341 13.5267 0.784325 13.3472 0.709948C13.1676 0.635571 12.9751 0.59729 12.7808 0.59729C12.3883 0.59729 12.0118 0.753218 11.7343 1.03077C11.4567 1.30833 11.3008 1.68477 11.3008 2.07729C11.3008 2.46981 11.4567 2.84625 11.7343 3.12381C12.0118 3.40136 12.3883 3.55729 12.7808 3.55729Z" fill="#E4E4E4"/>
<path d="M24.0703 105.017C24.3629 105.018 24.6487 105.105 24.8919 105.268C25.1351 105.43 25.3249 105.661 25.4373 105.931C25.5588 106.225 25.5826 106.549 25.5054 106.857C25.4282 107.165 25.2539 107.44 25.0084 107.642C24.7629 107.843 24.4592 107.96 24.142 107.976C23.8249 107.991 23.5112 107.904 23.2472 107.728C22.9833 107.551 22.7831 107.294 22.6762 106.995C22.5693 106.696 22.5614 106.371 22.6537 106.067C22.746 105.763 22.9335 105.497 23.1886 105.308C23.4437 105.119 23.7528 105.017 24.0703 105.017V105.017ZM24.0703 90.0973C24.2679 90.0922 24.4644 90.1266 24.6484 90.1987C24.8324 90.2707 25.0001 90.3789 25.1416 90.5168C25.2832 90.6547 25.3956 90.8195 25.4724 91.0015C25.5492 91.1836 25.5888 91.3792 25.5888 91.5768C25.5888 91.7744 25.5492 91.97 25.4724 92.152C25.3956 92.3341 25.2832 92.4989 25.1416 92.6368C25.0001 92.7747 24.8324 92.8829 24.6484 92.9549C24.4644 93.0269 24.2679 93.0614 24.0703 93.0563C23.6846 93.0463 23.3181 92.886 23.0488 92.6096C22.7795 92.3332 22.6288 91.9626 22.6288 91.5768C22.6288 91.1909 22.7795 90.8203 23.0488 90.544C23.3181 90.2676 23.6846 90.1073 24.0703 90.0973V90.0973Z" fill="#4E9406"/>
<path d="M24.0699 75.1873C24.363 75.1873 24.6496 75.2744 24.8932 75.4374C25.1367 75.6005 25.3264 75.8322 25.4381 76.1033C25.5499 76.3743 25.5786 76.6724 25.5207 76.9597C25.4627 77.2471 25.3208 77.5108 25.1128 77.7173C24.9048 77.9239 24.6402 78.0641 24.3524 78.1201C24.0647 78.176 23.7668 78.1453 23.4965 78.0317C23.2263 77.9182 22.9958 77.7269 22.8344 77.4822C22.673 77.2375 22.5879 76.9504 22.5899 76.6573C22.5899 76.4634 22.6282 76.2714 22.7027 76.0924C22.7772 75.9134 22.8864 75.7509 23.024 75.6143C23.1615 75.4777 23.3248 75.3696 23.5043 75.2963C23.6838 75.223 23.876 75.186 24.0699 75.1873V75.1873ZM24.0699 60.2673C24.4624 60.2673 24.8388 60.4232 25.1164 60.7008C25.3939 60.9783 25.5499 61.3548 25.5499 61.7473C25.5499 62.1398 25.3939 62.5163 25.1164 62.7938C24.8388 63.0714 24.4624 63.2273 24.0699 63.2273C23.6774 63.2273 23.3009 63.0714 23.0234 62.7938C22.7458 62.5163 22.5899 62.1398 22.5899 61.7473C22.5899 61.3548 22.7458 60.9783 23.0234 60.7008C23.3009 60.4232 23.6774 60.2673 24.0699 60.2673V60.2673ZM24.0699 45.3473C24.4624 45.3473 24.8388 45.5032 25.1164 45.7808C25.3939 46.0583 25.5499 46.4348 25.5499 46.8273C25.5499 47.2198 25.3939 47.5963 25.1164 47.8738C24.8388 48.1514 24.4624 48.3073 24.0699 48.3073C23.6774 48.3073 23.3009 48.1514 23.0234 47.8738C22.7458 47.5963 22.5899 47.2198 22.5899 46.8273C22.5899 46.4348 22.7458 46.0583 23.0234 45.7808C23.3009 45.5032 23.6774 45.3473 24.0699 45.3473V45.3473ZM24.0699 30.4273C24.4624 30.4273 24.8388 30.5832 25.1164 30.8608C25.3939 31.1383 25.5499 31.5148 25.5499 31.9073C25.5499 32.2998 25.3939 32.6763 25.1164 32.9538C24.8388 33.2314 24.4624 33.3873 24.0699 33.3873C23.6774 33.3873 23.3009 33.2314 23.0234 32.9538C22.7458 32.6763 22.5899 32.2998 22.5899 31.9073C22.5899 31.5148 22.7458 31.1383 23.0234 30.8608C23.3009 30.5832 23.6774 30.4273 24.0699 30.4273V30.4273ZM24.0699 15.5173C24.4624 15.5173 24.8388 15.6732 25.1164 15.9508C25.3939 16.2283 25.5499 16.6048 25.5499 16.9973C25.5499 17.3898 25.3939 17.7663 25.1164 18.0438C24.8388 18.3214 24.4624 18.4773 24.0699 18.4773C23.6774 18.4773 23.3009 18.3214 23.0234 18.0438C22.7458 17.7663 22.5899 17.3898 22.5899 16.9973C22.5899 16.6048 22.7458 16.2283 23.0234 15.9508C23.3009 15.6732 23.6774 15.5173 24.0699 15.5173V15.5173ZM24.0699 0.59729C24.2642 0.59729 24.4567 0.635571 24.6362 0.709948C24.8158 0.784325 24.979 0.893341 25.1164 1.03077C25.2538 1.1682 25.3628 1.33136 25.4372 1.51092C25.5116 1.69048 25.5499 1.88293 25.5499 2.07729C25.5499 2.27165 25.5116 2.4641 25.4372 2.64366C25.3628 2.82322 25.2538 2.98638 25.1164 3.12381C24.979 3.26124 24.8158 3.37025 24.6362 3.44463C24.4567 3.51901 24.2642 3.55729 24.0699 3.55729C23.6774 3.55729 23.3009 3.40136 23.0234 3.12381C22.7458 2.84625 22.5899 2.46981 22.5899 2.07729C22.5899 1.68477 22.7458 1.30833 23.0234 1.03077C23.3009 0.753218 23.6774 0.59729 24.0699 0.59729V0.59729Z" fill="#E4E4E4"/>
<path d="M35.3701 105.017C35.6628 105.018 35.9489 105.105 36.1923 105.268C36.4357 105.43 36.6256 105.661 36.7381 105.931C36.8595 106.225 36.8834 106.549 36.8062 106.857C36.7289 107.165 36.5547 107.44 36.3092 107.642C36.0637 107.843 35.7599 107.96 35.4428 107.976C35.1257 107.991 34.812 107.904 34.548 107.728C34.2841 107.551 34.0839 107.294 33.977 106.995C33.8701 106.696 33.8622 106.371 33.9545 106.067C34.0468 105.763 34.2343 105.497 34.4894 105.308C34.7445 105.119 35.0536 105.017 35.3711 105.017H35.3701ZM35.3701 90.0973C35.5676 90.0922 35.7642 90.1266 35.9482 90.1987C36.1322 90.2707 36.2999 90.3789 36.4414 90.5168C36.5829 90.6547 36.6954 90.8195 36.7722 91.0015C36.849 91.1836 36.8886 91.3792 36.8886 91.5768C36.8886 91.7744 36.849 91.97 36.7722 92.152C36.6954 92.3341 36.5829 92.4989 36.4414 92.6368C36.2999 92.7747 36.1322 92.8829 35.9482 92.9549C35.7642 93.0269 35.5676 93.0614 35.3701 93.0563C34.9844 93.0463 34.6178 92.886 34.3486 92.6096C34.0793 92.3332 33.9286 91.9626 33.9286 91.5768C33.9286 91.1909 34.0793 90.8203 34.3486 90.544C34.6178 90.2676 34.9844 90.1073 35.3701 90.0973V90.0973Z" fill="#4E9406"/>
<path d="M35.3707 75.1873C35.6638 75.1873 35.9503 75.2744 36.1939 75.4374C36.4375 75.6005 36.6272 75.8322 36.7389 76.1033C36.8507 76.3743 36.8794 76.6724 36.8214 76.9597C36.7635 77.2471 36.6216 77.5108 36.4136 77.7173C36.2056 77.9239 35.941 78.0641 35.6532 78.1201C35.3655 78.176 35.0676 78.1453 34.7973 78.0317C34.5271 77.9182 34.2966 77.7269 34.1352 77.4822C33.9738 77.2375 33.8887 76.9504 33.8907 76.6573C33.8907 76.4634 33.929 76.2714 34.0035 76.0924C34.078 75.9134 34.1872 75.7509 34.3247 75.6143C34.4623 75.4777 34.6255 75.3696 34.805 75.2963C34.9845 75.223 35.1768 75.186 35.3707 75.1873V75.1873ZM35.3707 60.2673C35.7632 60.2673 36.1396 60.4232 36.4172 60.7008C36.6947 60.9783 36.8507 61.3548 36.8507 61.7473C36.8507 62.1398 36.6947 62.5163 36.4172 62.7938C36.1396 63.0714 35.7632 63.2273 35.3707 63.2273C34.9781 63.2273 34.6017 63.0714 34.3241 62.7938C34.0466 62.5163 33.8907 62.1398 33.8907 61.7473C33.8907 61.3548 34.0466 60.9783 34.3241 60.7008C34.6017 60.4232 34.9781 60.2673 35.3707 60.2673V60.2673ZM35.3707 45.3473C35.7632 45.3473 36.1396 45.5032 36.4172 45.7808C36.6947 46.0583 36.8507 46.4348 36.8507 46.8273C36.8507 47.2198 36.6947 47.5963 36.4172 47.8738C36.1396 48.1514 35.7632 48.3073 35.3707 48.3073C34.9781 48.3073 34.6017 48.1514 34.3241 47.8738C34.0466 47.5963 33.8907 47.2198 33.8907 46.8273C33.8907 46.4348 34.0466 46.0583 34.3241 45.7808C34.6017 45.5032 34.9781 45.3473 35.3707 45.3473ZM35.3707 30.4273C35.7633 30.4273 36.1399 30.5833 36.4175 30.8609C36.6952 31.1386 36.8512 31.5151 36.8512 31.9078C36.8512 32.3004 36.6952 32.677 36.4175 32.9547C36.1399 33.2323 35.7633 33.3883 35.3707 33.3883C34.9781 33.3883 34.6017 33.2324 34.3241 32.9548C34.0466 32.6773 33.8907 32.3008 33.8907 31.9083C33.8907 31.5158 34.0466 31.1393 34.3241 30.8618C34.6017 30.5842 34.9781 30.4283 35.3707 30.4283V30.4273ZM35.3707 15.5173C35.7632 15.5173 36.1396 15.6732 36.4172 15.9508C36.6947 16.2283 36.8507 16.6048 36.8507 16.9973C36.8507 17.3898 36.6947 17.7663 36.4172 18.0438C36.1396 18.3214 35.7632 18.4773 35.3707 18.4773C34.9781 18.4773 34.6017 18.3214 34.3241 18.0438C34.0466 17.7663 33.8907 17.3898 33.8907 16.9973C33.8907 16.6048 34.0466 16.2283 34.3241 15.9508C34.6017 15.6732 34.9781 15.5173 35.3707 15.5173V15.5173ZM35.3707 0.59729C35.565 0.59729 35.7575 0.635571 35.937 0.709948C36.1166 0.784325 36.2797 0.893341 36.4172 1.03077C36.5546 1.1682 36.6636 1.33136 36.738 1.51092C36.8124 1.69048 36.8507 1.88293 36.8507 2.07729C36.8507 2.27165 36.8124 2.4641 36.738 2.64366C36.6636 2.82322 36.5546 2.98638 36.4172 3.12381C36.2797 3.26124 36.1166 3.37025 35.937 3.44463C35.7575 3.51901 35.565 3.55729 35.3707 3.55729C34.9781 3.55729 34.6017 3.40136 34.3241 3.12381C34.0466 2.84625 33.8907 2.46981 33.8907 2.07729C33.8907 1.68477 34.0466 1.30833 34.3241 1.03077C34.6017 0.753218 34.9781 0.59729 35.3707 0.59729V0.59729Z" fill="#E4E4E4"/>
</g>
<defs>
<clipPath id="clip0_432_831">
<rect width="80" height="108" fill="white" transform="translate(0 0.59729)"/>
</clipPath>
</defs>
</svg>
