<svg width="36" height="48" viewBox="0 0 36 48" fill="none" xmlns="http://www.w3.org/2000/svg">
<path d="M20.5624 0.875137L14.6875 0.875136C6.51755 0.875135 -3.23193e-06 7.48449 -4.64435e-06 15.5626L-7.72599e-06 33.1875C-9.15446e-06 41.3574 6.51755 47.875 14.6874 47.875L20.5624 47.875C28.6405 47.875 35.2499 41.3574 35.2499 33.1875L35.2499 15.5626C35.2499 7.48449 28.6405 0.875139 20.5624 0.875137ZM2.93749 15.5626C2.93749 9.13683 8.16989 3.90442 14.6874 3.81263L16.1562 3.81263L16.1562 18.5001L2.93749 18.5001L2.93749 15.5626ZM32.3124 33.1875C32.2206 39.7051 26.9882 44.9375 20.5624 44.9375L14.6874 44.9375C8.16989 44.9375 2.93748 39.7051 2.93748 33.1875L2.93748 21.4376L32.3124 21.4376L32.3124 33.1875ZM32.3124 18.5001L19.0937 18.5001L19.0937 3.81263L20.5624 3.81263C26.9882 3.90443 32.2206 9.13683 32.3124 15.5626L32.3124 18.5001Z" fill="#66C206"/>
</svg>
