<svg width="17" height="15" viewBox="0 0 17 15" fill="none" xmlns="http://www.w3.org/2000/svg">
<path d="M8.23828 0.796876C3.80078 0.796876 0.23828 3.70312 0.238279 7.29688C0.238279 8.82812 0.925779 10.2656 2.01953 11.3594C1.64453 12.9531 0.332028 14.3594 0.332028 14.3594C0.238278 14.4219 0.238278 14.5469 0.269528 14.6406C0.300778 14.7344 0.394528 14.7969 0.488278 14.7969C2.58203 14.7969 4.08203 13.7969 4.89453 13.1719C5.92578 13.5469 7.05078 13.7969 8.23828 13.7969C12.6758 13.7969 16.207 10.8594 16.207 7.29688C16.207 3.73438 12.6445 0.796877 8.23828 0.796876ZM8.48828 9.79688L4.98828 9.79688C4.55078 9.79688 4.23828 9.48438 4.23828 9.04688C4.23828 8.64063 4.55078 8.29688 4.98828 8.29688L8.48828 8.29688C8.89453 8.29688 9.23828 8.64063 9.23828 9.04688C9.23828 9.48438 8.89453 9.79688 8.48828 9.79688ZM11.4883 6.79688L4.98828 6.79688C4.55078 6.79688 4.23828 6.48438 4.23828 6.04688C4.23828 5.64063 4.55078 5.29688 4.98828 5.29688L11.4883 5.29688C11.8945 5.29688 12.2383 5.64063 12.2383 6.04688C12.2383 6.48438 11.8945 6.79688 11.4883 6.79688Z" fill="white"/>
</svg>
