<svg width="78" height="23" viewBox="0 0 78 23" fill="none" xmlns="http://www.w3.org/2000/svg">
<path fill-rule="evenodd" clip-rule="evenodd" d="M42.0521 6.64301V21.6806H46.2227V6.64301H42.0521ZM42.5514 4.0878C42.9952 4.49898 43.5271 4.70458 44.1472 4.70458C44.7672 4.70458 45.2959 4.49898 45.7332 4.0878C46.177 3.67009 46.3989 3.1708 46.3989 2.58992C46.3989 2.01556 46.177 1.5228 45.7332 1.11161C45.2959 0.693902 44.7672 0.485046 44.1472 0.485046C43.5271 0.485046 42.9952 0.693902 42.5514 1.11161C42.1141 1.5228 41.8955 2.01556 41.8955 2.58992C41.8955 3.1708 42.1141 3.67009 42.5514 4.0878ZM40.0897 1.63049V21.6806H35.9191V1.63049H40.0897ZM7.46762 21.0051C8.57716 21.6512 9.8923 21.9743 11.413 21.9743C12.9338 21.9743 14.2456 21.6512 15.3486 21.0051C16.4582 20.3524 17.3132 19.4452 17.9136 18.2834C18.5141 17.1151 18.8143 15.7609 18.8143 14.2205C18.8143 12.6672 18.5141 11.3096 17.9136 10.1479C17.3132 8.97958 16.4582 8.07237 15.3486 7.42622C14.2456 6.77355 12.9338 6.44721 11.413 6.44721C9.8923 6.44721 8.57716 6.77355 7.46762 7.42622C6.3646 8.07237 5.51287 8.97958 4.91241 10.1479C4.31195 11.3096 4.01172 12.6672 4.01172 14.2205C4.01172 14.3264 4.01314 14.4313 4.01597 14.5353C4.11244 14.5287 4.21024 14.5255 4.30935 14.5255C5.33208 14.5255 6.22696 14.8983 6.99401 15.6441C7.76105 16.3898 8.14458 17.2847 8.14458 18.3287C8.14458 19.0318 7.96347 19.6764 7.60125 20.2623C7.4771 20.4655 7.33899 20.6547 7.18694 20.8299C7.27862 20.8902 7.37218 20.9486 7.46762 21.0051ZM13.1655 18.1562C12.7021 18.5478 12.1244 18.7436 11.4326 18.7436C10.7342 18.7436 10.1468 18.5478 9.67039 18.1562C9.20047 17.758 8.84476 17.2163 8.60327 16.531C8.36831 15.8457 8.25083 15.0658 8.25083 14.1912C8.25083 13.3166 8.36831 12.5366 8.60327 11.8513C8.84476 11.166 9.20047 10.6243 9.67039 10.2262C10.1468 9.82806 10.7342 9.62899 11.4326 9.62899C12.1244 9.62899 12.7021 9.82806 13.1655 10.2262C13.6289 10.6243 13.978 11.166 14.213 11.8513C14.4545 12.5366 14.5752 13.3166 14.5752 14.1912C14.5752 15.0658 14.4545 15.8457 14.213 16.531C13.978 17.2163 13.6289 17.758 13.1655 18.1562ZM24.3183 21.6806V12.987C24.3249 12.3408 24.4456 11.7893 24.6806 11.3325C24.922 10.8691 25.2549 10.5166 25.6791 10.2751C26.1099 10.0336 26.6059 9.9129 27.1672 9.9129C28.0027 9.9129 28.6586 10.174 29.135 10.6961C29.6115 11.2117 29.8465 11.9297 29.8399 12.8499V21.6806H34.0105V12.1059C34.0105 10.9376 33.7951 9.93248 33.3644 9.09054C32.9336 8.24206 32.3299 7.58939 31.5532 7.13252C30.7765 6.67565 29.866 6.44721 28.8218 6.44721C27.7057 6.44721 26.7561 6.70502 25.9729 7.22063C25.1896 7.72971 24.6316 8.42155 24.2987 9.29613H24.1225V6.64301H20.1477V21.6806H24.3183ZM52.3557 12.987V21.6806H48.1851V6.64301H52.1599V9.29613H52.3361C52.669 8.42155 53.227 7.72971 54.0102 7.22063C54.7934 6.70502 55.743 6.44721 56.8591 6.44721C57.9034 6.44721 58.8139 6.67565 59.5905 7.13252C60.3672 7.58939 60.971 8.24206 61.4017 9.09054C61.8325 9.93248 62.0479 10.9376 62.0479 12.1059V21.6806H57.8773V12.8499C57.8838 11.9297 57.6488 11.2117 57.1724 10.6961C56.6959 10.174 56.04 9.9129 55.2046 9.9129C54.6433 9.9129 54.1473 10.0336 53.7165 10.2751C53.2923 10.5166 52.9594 10.8691 52.7179 11.3325C52.4829 11.7893 52.3622 12.3408 52.3557 12.987ZM66.8151 21.0344C67.9312 21.661 69.2627 21.9743 70.8095 21.9743C72.0496 21.9743 73.1428 21.785 74.0892 21.4065C75.0421 21.0214 75.8188 20.4862 76.4192 19.8009C77.0262 19.1091 77.4276 18.2997 77.6234 17.373L73.7661 17.1184C73.6225 17.497 73.4137 17.8168 73.1395 18.0778C72.8654 18.3389 72.5358 18.5347 72.1507 18.6652C71.7657 18.7958 71.3414 18.861 70.878 18.861C70.1797 18.861 69.576 18.7142 69.0669 18.4205C68.5578 18.1268 68.1629 17.7091 67.8823 17.1674C67.6081 16.6256 67.4711 15.9828 67.4711 15.2387V15.2289H77.7115V14.0835C77.7115 12.8042 77.532 11.6882 77.1731 10.7353C76.8141 9.77584 76.3115 8.97958 75.6654 8.34649C75.0258 7.7134 74.2752 7.24021 73.4137 6.92693C72.5587 6.60712 71.6351 6.44721 70.6431 6.44721C69.168 6.44721 67.8823 6.77355 66.7858 7.42622C65.6958 8.07889 64.8506 8.98937 64.2501 10.1577C63.6497 11.3259 63.3495 12.6835 63.3495 14.2303C63.3495 15.8163 63.6497 17.1902 64.2501 18.352C64.8506 19.5072 65.7056 20.4014 66.8151 21.0344ZM67.475 12.6443C67.5002 12.1044 67.6392 11.6116 67.8921 11.166C68.1662 10.6765 68.5447 10.2882 69.0277 10.001C69.5172 9.70731 70.0785 9.56046 70.7116 9.56046C71.3186 9.56046 71.8505 9.69426 72.3074 9.96185C72.7708 10.2229 73.133 10.5852 73.3941 11.0486C73.6552 11.512 73.7857 12.0439 73.7857 12.6443H67.475Z" fill="#3C3C3C"/>
<path d="M3.45237 22.211C2.50297 22.211 1.68783 21.8753 1.00694 21.2041C0.335647 20.5232 0 19.708 0 18.7586C0 17.8188 0.335647 17.0133 1.00694 16.342C1.68783 15.6707 2.50297 15.335 3.45237 15.335C4.373 15.335 5.17856 15.6707 5.86903 16.342C6.5595 17.0133 6.90474 17.8188 6.90474 18.7586C6.90474 19.3916 6.74171 19.9717 6.41566 20.4992C6.09919 21.017 5.68203 21.4342 5.16417 21.7507C4.64632 22.0576 4.07572 22.211 3.45237 22.211Z" fill="#0FA64B"/>
</svg>
