<svg width="46" height="22" viewBox="0 0 46 22" fill="none" xmlns="http://www.w3.org/2000/svg">
<path fill-rule="evenodd" clip-rule="evenodd" d="M7.46762 15.1547C8.57716 15.8009 9.8923 16.1239 11.413 16.1239C12.9338 16.1239 14.2456 15.8009 15.3486 15.1547C16.4582 14.5021 17.3132 13.5948 17.9136 12.4331C18.5141 11.2648 18.8143 9.9105 18.8143 8.37019C18.8143 6.81683 18.5141 5.45927 17.9136 4.29752C17.3132 3.12923 16.4582 2.22202 15.3486 1.57587C14.2456 0.923199 12.9338 0.596863 11.413 0.596863C9.8923 0.596863 8.57716 0.923199 7.46762 1.57587C6.3646 2.22202 5.51287 3.12923 4.91241 4.29752C4.31195 5.45927 4.01172 6.81683 4.01172 8.37019C4.01172 8.476 4.01314 8.58093 4.01597 8.68498C4.11244 8.6784 4.21024 8.6751 4.30935 8.6751C5.33208 8.6751 6.22696 9.04797 6.99401 9.79371C7.76105 10.5394 8.14458 11.4343 8.14458 12.4784C8.14458 13.1815 7.96347 13.826 7.60125 14.412C7.4771 14.6151 7.33899 14.8043 7.18694 14.9796C7.27862 15.0399 7.37218 15.0983 7.46762 15.1547ZM13.1655 12.3058C12.7021 12.6974 12.1244 12.8932 11.4326 12.8932C10.7342 12.8932 10.1468 12.6974 9.67039 12.3058C9.20047 11.9077 8.84476 11.366 8.60327 10.6807C8.36831 9.99535 8.25083 9.2154 8.25083 8.34082C8.25083 7.46624 8.36831 6.6863 8.60327 6.00099C8.84476 5.31569 9.20047 4.77397 9.67039 4.37584C10.1468 3.97771 10.7342 3.77864 11.4326 3.77864C12.1244 3.77864 12.7021 3.97771 13.1655 4.37584C13.6289 4.77397 13.978 5.31569 14.213 6.00099C14.4545 6.6863 14.5752 7.46624 14.5752 8.34082C14.5752 9.2154 14.4545 9.99535 14.213 10.6807C13.978 11.366 13.6289 11.9077 13.1655 12.3058Z" fill="#163B4F"/>
<path d="M3.45237 16.3606C2.50297 16.3606 1.68783 16.025 1.00694 15.3537C0.335647 14.6728 0 13.8577 0 12.9083C0 11.9685 0.335647 11.1629 1.00694 10.4916C1.68783 9.82033 2.50297 9.48468 3.45237 9.48468C4.373 9.48468 5.17856 9.82033 5.86903 10.4916C6.5595 11.1629 6.90474 11.9685 6.90474 12.9083C6.90474 13.5412 6.74171 14.1214 6.41566 14.6489C6.09919 15.1667 5.68203 15.5839 5.16417 15.9003C4.64632 16.2072 4.07572 16.3606 3.45237 16.3606Z" fill="#F58420"/>
<path d="M21.2402 15.8498V0.812245H25.2835V3.43599H25.4402C25.7143 2.50267 26.1744 1.79778 26.8206 1.32133C27.4667 0.838353 28.2108 0.596863 29.0527 0.596863C29.2616 0.596863 29.4868 0.609917 29.7282 0.636024C29.9697 0.662131 30.1819 0.698028 30.3646 0.743714V4.44437C30.1688 4.38563 29.8979 4.33341 29.552 4.28773C29.2061 4.24204 28.8896 4.2192 28.6024 4.2192C27.9889 4.2192 27.4406 4.353 26.9576 4.62059C26.4812 4.88166 26.1026 5.24716 25.822 5.71708C25.5479 6.18701 25.4108 6.72872 25.4108 7.34224V15.8498H21.2402Z" fill="#163B4F"/>
<path d="M38.5956 21.8022C37.2446 21.8022 36.0861 21.6162 35.1201 21.2442C34.1607 20.8787 33.3971 20.3794 32.8293 19.7463C32.2614 19.1132 31.8927 18.4018 31.723 17.612L35.5803 17.0932C35.6978 17.3934 35.8838 17.674 36.1383 17.9351C36.3928 18.1962 36.729 18.405 37.1467 18.5617C37.5709 18.7248 38.0865 18.8064 38.6935 18.8064C39.6007 18.8064 40.348 18.5845 40.9354 18.1407C41.5294 17.7034 41.8263 16.9692 41.8263 15.9379V13.1869H41.6501C41.4674 13.6046 41.1933 13.9995 40.8278 14.3715C40.4623 14.7435 39.9923 15.047 39.418 15.282C38.8436 15.517 38.1583 15.6344 37.3621 15.6344C36.2329 15.6344 35.205 15.3734 34.2782 14.8512C33.3579 14.3226 32.6237 13.5165 32.0754 12.4331C31.5337 11.3431 31.2628 9.96598 31.2628 8.30166C31.2628 6.59819 31.5402 5.17536 32.095 4.03319C32.6498 2.89101 33.3873 2.03601 34.3076 1.46818C35.2344 0.900357 36.2493 0.616444 37.3523 0.616444C38.1942 0.616444 38.8991 0.760032 39.4669 1.04721C40.0348 1.32786 40.4916 1.6803 40.8375 2.10454C41.19 2.52225 41.4608 2.93343 41.6501 3.33809H41.8068V0.812245H45.948V15.9967C45.948 17.2759 45.6347 18.3463 45.0081 19.2078C44.3816 20.0694 43.5135 20.7155 42.404 21.1463C41.3009 21.5836 40.0315 21.8022 38.5956 21.8022ZM38.6837 12.5016C39.356 12.5016 39.9238 12.3352 40.3872 12.0023C40.8571 11.6629 41.2161 11.18 41.4641 10.5534C41.7187 9.92029 41.8459 9.16319 41.8459 8.28209C41.8459 7.40098 41.7219 6.63735 41.4739 5.9912C41.2259 5.33853 40.8669 4.83271 40.397 4.47374C39.9271 4.11477 39.356 3.93528 38.6837 3.93528C37.9984 3.93528 37.4208 4.1213 36.9509 4.49332C36.481 4.85882 36.1253 5.3679 35.8838 6.02057C35.6423 6.67325 35.5215 7.42708 35.5215 8.28209C35.5215 9.15014 35.6423 9.90071 35.8838 10.5338C36.1318 11.1604 36.4875 11.6466 36.9509 11.9925C37.4208 12.3319 37.9984 12.5016 38.6837 12.5016Z" fill="#163B4F"/>
</svg>
