<svg width="17" height="17" viewBox="0 0 17 17" fill="none" xmlns="http://www.w3.org/2000/svg">
<path d="M16.207 12.8906L15.457 16.0469C15.3633 16.5156 14.9883 16.8281 14.5195 16.8281C6.64453 16.7969 0.238279 10.3906 0.23828 2.51562C0.23828 2.04688 0.51953 1.67188 0.98828 1.57813L4.14453 0.828126C4.58203 0.734376 5.05078 0.984376 5.23828 1.39063L6.70703 4.79688C6.86328 5.20313 6.76953 5.67188 6.42578 5.92188L4.73828 7.29688C5.80078 9.45313 7.55078 11.2031 9.73828 12.2656L11.1133 10.5781C11.3633 10.2656 11.832 10.1406 12.2383 10.2969L15.6445 11.7656C16.0508 11.9844 16.3008 12.4531 16.207 12.8906Z" fill="white"/>
</svg>
