<svg width="472" height="505" viewBox="0 0 472 505" fill="none" xmlns="http://www.w3.org/2000/svg">
<g clip-path="url(#clip0_425_5250)">
<path d="M331.603 124.021H347.504L343.626 115.107L183.836 53.0967V319.743C183.836 320.13 184.224 320.906 184.999 320.906L330.439 405.008C330.827 405.008 331.215 405.395 331.215 405.395L331.603 124.021Z" fill="#48486A"/>
<path d="M425.459 85.6523L333.541 138.361V405.783C334.705 405.783 335.48 405.395 336.644 405.008L424.295 354.624C425.071 354.236 425.459 353.461 425.847 352.686L425.459 85.6523Z" fill="url(#paint0_linear_425_5250)"/>
<path d="M326.948 58.1351V403.07L330.827 405.395C331.602 405.783 332.766 406.17 333.541 406.17C334.705 406.17 334.705 405.395 335.481 405.008L336.256 404.62L335.093 363.926V299.202L337.032 58.1351H326.948Z" fill="#363650"/>
<path d="M337.032 363.926V136.036L333.153 138.361V405.783H333.929C334.317 405.783 334.705 405.395 335.48 405.395L336.256 405.008L337.032 404.62V363.926Z" fill="#C0C7CF"/>
<path d="M321.131 144.563C321.131 142.237 319.967 140.299 318.028 139.137C317.252 138.749 316.477 138.749 315.701 138.749L313.374 139.912H314.925V140.687C314.925 143.012 316.089 144.95 318.028 146.113L318.804 146.5L318.028 147.663L320.355 146.5C321.131 146.113 321.519 145.338 321.131 144.563Z" fill="url(#paint1_linear_425_5250)"/>
<path d="M319.192 145.725C319.192 147.663 317.64 148.438 316.089 147.663C314.15 146.5 312.986 144.563 312.986 142.237C312.986 140.299 314.538 139.524 316.089 140.299C317.64 141.462 318.804 143.4 319.192 145.725Z" fill="url(#paint2_linear_425_5250)"/>
<path d="M317.64 144.95C317.64 146.113 316.864 146.5 315.701 146.113C314.537 145.338 313.762 144.175 313.762 143.012C313.762 141.85 314.537 141.462 315.701 141.85C316.864 142.625 317.64 143.787 317.64 144.95Z" fill="#5D6873"/>
<path d="M198.185 74.8004C198.185 72.475 197.022 70.5372 195.083 69.3745C194.307 68.9869 193.531 68.9869 192.756 68.9869L190.429 70.1496H191.98V70.9248C191.98 73.2502 193.144 75.188 195.083 76.7383L195.858 77.1259L195.083 78.2886L197.41 77.1259C197.798 76.3507 198.185 75.5756 198.185 74.8004Z" fill="url(#paint3_linear_425_5250)"/>
<path d="M195.859 75.9631C195.859 77.901 194.307 78.6761 192.756 77.901C190.817 76.7383 189.653 74.8004 189.653 72.475C189.653 70.5372 191.205 69.7621 192.756 70.5372C194.695 71.6999 195.859 73.6377 195.859 75.9631Z" fill="url(#paint4_linear_425_5250)"/>
<path d="M194.695 75.188C194.695 76.3507 193.919 76.7383 192.756 76.3507C191.592 75.5756 190.816 74.4129 190.816 73.2502C190.816 72.0875 191.592 71.6999 192.756 72.0875C193.919 72.8626 194.695 74.0253 194.695 75.188Z" fill="#5D6873"/>
<path d="M322.682 389.893C322.682 387.567 321.518 385.629 319.579 384.467C318.803 383.691 318.028 383.691 317.252 384.079L314.925 385.242H316.476V386.017C316.476 388.342 317.64 390.28 319.579 391.443L320.355 391.83L319.579 392.993L321.906 391.83C322.294 391.443 322.682 390.668 322.682 389.893Z" fill="url(#paint5_linear_425_5250)"/>
<path d="M320.355 391.055C320.355 392.993 318.803 393.768 317.252 392.993C315.313 391.83 314.149 389.893 314.149 387.567C314.149 385.629 315.701 384.854 317.252 385.629C318.803 386.792 319.967 388.73 320.355 391.055Z" fill="url(#paint6_linear_425_5250)"/>
<path d="M318.803 390.668C318.803 391.83 318.028 392.218 316.864 391.83C315.7 391.055 314.925 389.893 314.925 388.73C314.925 387.567 315.7 387.18 316.864 387.567C318.028 387.955 318.803 389.117 318.803 390.668Z" fill="#5D6873"/>
<path d="M197.798 317.418C197.798 315.092 196.634 313.154 194.695 311.992C193.919 311.604 193.144 311.604 192.368 311.604L190.041 312.767H191.592V313.542C191.592 315.867 192.756 317.805 194.695 318.968L195.471 319.355L194.695 320.518L197.022 319.355C197.41 318.968 197.798 318.193 197.798 317.418Z" fill="url(#paint7_linear_425_5250)"/>
<path d="M195.471 318.58C195.471 320.518 193.92 321.293 192.368 320.518C190.429 319.355 189.266 317.418 189.266 315.092C189.266 313.154 190.817 312.379 192.368 313.154C194.308 314.317 195.471 316.255 195.471 318.58Z" fill="url(#paint8_linear_425_5250)"/>
<path d="M194.307 317.805C194.307 318.968 193.531 319.355 192.368 318.968C191.204 318.193 190.429 317.03 190.429 315.867C190.429 314.705 191.204 314.317 192.368 314.705C193.531 315.48 194.307 316.642 194.307 317.805Z" fill="#5D6873"/>
<path opacity="0.4" d="M191.205 67.8242L319.58 141.85V391.055L191.205 317.03V67.8242Z" fill="#363650"/>
<path opacity="0.1" d="M183.836 280.986L326.561 185.257V136.424L183.836 53.0967V280.986Z" fill="#F0F0F0"/>
<path d="M330.439 138.361L184.999 54.647C183.448 53.8718 183.836 52.3216 185.387 51.1589L273.039 0.775139C274.978 -0.387562 276.917 -0.387562 278.856 0.387572L424.296 84.1021C425.847 84.8772 425.459 86.4275 423.908 87.5902L336.256 137.974C334.705 139.137 332.378 139.137 330.439 138.361Z" fill="#F2F3F4"/>
<path d="M277.305 9.30161L207.494 49.6086L200.513 48.4459V53.4843L331.99 129.447L398.698 84.1021L277.305 9.30161Z" fill="url(#paint9_linear_425_5250)"/>
<path d="M408.782 80.2264V85.2647L331.99 129.447V124.409L408.782 80.2264Z" fill="url(#paint10_linear_425_5250)"/>
<path d="M331.99 124.409L200.513 48.4459L277.305 4.26324L408.782 80.2264L331.99 124.409Z" fill="#F2F3F4"/>
<path d="M408.007 179.444V263.933L347.116 299.202V303.077L411.885 265.871V177.506L408.007 179.444Z" fill="url(#paint11_linear_425_5250)"/>
<path d="M450.669 288.738L447.179 290.675L412.273 270.522C411.497 270.134 410.722 270.134 409.946 270.522L350.219 305.015L347.116 303.465L348.28 306.566C348.28 306.566 348.28 306.953 348.668 306.953L385.124 327.882C385.9 328.269 386.676 328.269 387.451 327.882L448.73 292.613C449.118 292.613 449.118 292.226 449.118 292.226L450.669 288.738Z" fill="url(#paint12_linear_425_5250)"/>
<path d="M449.893 289.125L387.063 325.556C386.288 325.944 385.512 325.944 384.736 325.556L347.116 303.853C346.34 303.465 346.728 303.077 347.116 302.69L409.946 266.646C410.721 266.259 411.497 266.259 412.273 266.646L449.893 288.35C450.669 288.35 450.669 288.738 449.893 289.125Z" fill="#F2F3F4"/>
<path d="M368.06 317.417V316.642L370.387 318.193V318.968L368.06 317.417C368.06 317.805 368.06 317.805 368.06 317.417ZM371.938 319.743V318.968L374.265 320.518V321.293L371.938 319.743Z" fill="#5D639E"/>
<path d="M357.2 301.915L409.558 271.685C409.946 271.297 410.334 271.297 410.722 271.685L429.338 282.536C429.338 282.536 429.726 282.924 429.338 282.924L376.98 313.154C376.592 313.542 376.204 313.542 375.816 313.154L357.2 301.915C356.812 302.302 356.812 302.302 357.2 301.915C357.2 301.915 356.812 301.915 357.2 301.915Z" fill="#C0C7CF"/>
<path d="M357.2 302.69L409.17 272.46C409.558 272.072 409.946 272.072 410.334 272.46L428.95 283.312C428.95 283.312 429.338 282.924 428.95 282.924L410.334 272.072C409.946 271.685 409.558 271.685 409.17 272.072L357.2 302.69C356.812 302.302 356.812 301.915 357.2 302.69C357.2 302.69 356.812 302.302 357.2 302.69Z" fill="#5D639E"/>
<path d="M411.884 274.398L366.507 300.752L364.568 299.589L409.945 273.235L411.884 274.398ZM416.926 277.498L374.264 301.915L372.325 300.752L414.987 276.335L416.926 277.498ZM420.029 279.048L369.998 307.728L368.059 306.566L418.09 277.886L420.029 279.048ZM423.132 280.986L373.101 310.054L371.161 308.891L421.193 279.823L423.132 280.986ZM426.622 282.924L376.591 311.992L374.652 310.829L424.683 282.149L426.622 282.924ZM363.792 302.302L361.853 303.465L359.914 302.302L361.853 301.14L363.792 302.302ZM370.774 303.853L366.895 306.178L364.568 305.015L368.834 302.69L370.774 303.853Z" fill="#49486B"/>
<path d="M411.498 309.279L425.46 301.14C425.848 301.14 425.848 300.752 425.848 300.365L425.46 299.977L415.764 294.551C414.988 294.163 414.6 294.163 413.825 294.551L399.862 302.69C399.475 302.69 399.475 303.078 399.475 303.465L399.862 303.853L409.558 309.279C409.946 309.666 410.722 309.666 411.498 309.279Z" fill="#DEE2E6"/>
<path d="M399.862 303.078L413.824 294.939C414.6 294.551 414.988 294.551 415.763 294.939L425.459 300.365L425.847 300.752C425.847 300.365 425.847 299.977 425.459 299.977L415.763 294.551C414.988 294.163 414.6 294.163 413.824 294.551L399.862 303.078C399.474 302.69 399.086 303.078 399.862 303.078C399.474 303.078 399.474 303.078 399.862 303.078Z" fill="#80909F"/>
<path d="M408.007 179.444L347.116 214.712V299.202L408.007 263.933V179.444Z" fill="#24126A"/>
<path d="M408.007 179.444L347.116 214.712V299.202L408.007 263.933V179.444Z" fill="#363650"/>
<path d="M404.517 266.259V185.257L346.729 218.588V299.202L404.517 266.259Z" fill="#48486A"/>
<g opacity="0.11">
<path d="M410.721 266.259L347.891 302.302C347.116 302.69 346.34 302.69 345.564 302.302L308.332 280.599C307.556 280.211 307.944 279.823 308.332 279.436L371.162 243.392C371.937 243.005 372.713 243.005 373.489 243.392L410.721 265.096C411.109 265.096 411.109 265.871 410.721 266.259Z" fill="url(#paint13_linear_425_5250)"/>
<path d="M347.891 272.46L361.853 264.321C362.241 264.321 362.241 263.933 362.241 263.546L361.853 263.158L352.157 257.732C351.382 257.345 350.994 257.345 350.218 257.732L336.256 265.871C335.868 265.871 335.868 266.259 335.868 266.646L336.256 267.034L345.952 272.46C346.34 272.847 347.115 272.847 347.891 272.46Z" fill="url(#paint14_linear_425_5250)"/>
<path d="M336.256 266.646L350.218 258.507C350.994 258.12 351.381 258.12 352.157 258.507L361.853 263.933L362.241 264.321C362.241 263.933 362.241 263.546 361.853 263.546L352.157 258.12C351.381 257.732 350.994 257.732 350.218 258.12L336.256 266.646C335.868 266.259 335.868 266.646 336.256 266.646C335.868 266.646 336.256 266.646 336.256 266.646Z" fill="#9198DB"/>
<path d="M330.05 285.249L382.021 255.407C382.409 255.019 382.796 255.019 383.184 255.407L401.801 266.259C401.801 266.259 402.188 266.646 401.801 266.646L349.83 296.489C349.442 296.876 349.054 296.876 348.667 296.489L330.05 285.249C329.662 285.637 330.05 286.025 330.05 285.249Z" fill="#ADB1F2"/>
<path d="M330.05 286.025L381.633 256.182C382.021 255.794 382.409 255.794 382.797 256.182L401.025 266.646C401.025 266.646 401.413 266.259 401.025 266.259L382.409 255.407C382.021 255.019 381.633 255.019 381.245 255.407L329.663 285.249C329.663 285.249 329.275 285.637 329.663 285.637C329.663 286.025 330.05 286.025 330.05 286.025Z" fill="#9198DB"/>
<path d="M396.759 265.096L351.382 291.063L353.321 292.226L398.698 266.259L396.759 265.096ZM392.105 262.383L349.055 287.187L350.994 288.35L394.044 263.546L392.105 262.383ZM345.952 289.125L342.074 291.45L344.013 292.613L347.891 290.288L345.952 289.125ZM349.443 292.613L346.728 294.163L348.667 295.326L351.382 293.776L349.443 292.613ZM389.002 260.833L338.583 289.9L340.522 291.063L390.941 261.995L389.002 260.833ZM386.287 258.895L335.868 287.962L337.808 289.125L388.227 260.058L386.287 258.895ZM383.185 257.345L332.766 286.412L334.705 287.575L385.124 258.507L383.185 257.345Z" fill="#24126A"/>
</g>
<path d="M363.792 225.177L360.302 227.114V224.789L363.792 222.851V225.177ZM363.792 241.842L360.302 243.78V229.44L363.792 227.502V241.842ZM363.792 249.593L359.914 251.919V246.105L363.405 244.167L363.792 249.593ZM363.792 258.12L360.302 260.058V254.244L363.792 251.919V258.12ZM369.222 230.215L365.732 232.153V226.339L369.222 224.401V230.215ZM369.222 241.067L365.732 243.005V234.478L369.222 232.54V241.067ZM369.222 250.756L365.732 252.694V245.718L369.222 243.78V250.756ZM363.792 266.259L360.302 268.584V262.771L363.792 260.833V266.259ZM369.222 222.076L365.732 224.014V221.688L369.222 219.751V222.076Z" fill="#DEE2E6"/>
<path d="M366.508 272.46L360.303 275.948V273.622L366.508 270.134V272.46Z" fill="url(#paint15_linear_425_5250)"/>
<path d="M246.278 43.4075L243.951 42.2448V41.0821L264.119 29.4551L266.834 30.6178L266.446 31.3929L246.278 43.4075Z" fill="#5D6873"/>
<path d="M264.506 30.2303L266.833 31.393L268.384 30.6178L264.894 28.68L242.787 41.4697L244.338 42.2448L264.506 30.2303Z" fill="url(#paint16_linear_425_5250)"/>
<path d="M252.871 46.8957L250.544 45.733V44.5703L270.712 32.9432L273.426 34.1059L273.039 34.8811L252.871 46.8957Z" fill="#5D6873"/>
<path d="M271.1 34.1059L273.427 35.2686L274.978 34.4935L271.488 32.5557L249.381 45.3454L250.932 46.1205L271.1 34.1059Z" fill="url(#paint17_linear_425_5250)"/>
<path d="M259.465 50.7713L257.138 49.6086V48.4459L277.305 36.8188L280.02 38.3691L279.632 39.1443L259.465 50.7713Z" fill="#5D6873"/>
<path d="M278.08 37.594L280.407 38.7567L281.959 37.9816L278.468 36.0438L255.974 48.8335L257.525 49.6086L278.08 37.594Z" fill="url(#paint18_linear_425_5250)"/>
<path d="M266.057 54.647L263.73 53.4843L264.118 52.3216L284.286 40.6946L287.001 42.2448L286.613 42.6324L266.057 54.647Z" fill="#5D6873"/>
<path d="M284.674 41.4697L287.001 42.6324L288.552 41.8573L285.062 39.9194L262.955 52.7092L264.506 53.4843L284.674 41.4697Z" fill="url(#paint19_linear_425_5250)"/>
<path d="M285.449 65.8864L283.122 64.7237V63.561L303.29 51.934L306.005 53.0967V54.2594L285.449 65.8864Z" fill="#5D6873"/>
<path d="M304.066 52.7091L306.393 53.8718L307.944 53.0967L304.453 51.1589L282.347 63.9486L283.898 64.7237L304.066 52.7091Z" fill="url(#paint20_linear_425_5250)"/>
<path d="M292.043 69.7621L289.716 68.5994V67.4367L309.883 55.8097L312.598 56.9724L312.21 57.7475L292.043 69.7621Z" fill="#5D6873"/>
<path d="M310.659 56.5848L312.986 57.7475L314.538 56.9724L311.047 55.0345L288.94 67.8243L290.492 68.5994L310.659 56.5848Z" fill="url(#paint21_linear_425_5250)"/>
<path d="M298.636 73.6378L296.309 72.4751L296.696 71.3124L316.864 59.6854L319.579 61.2356L319.191 62.0108L298.636 73.6378Z" fill="#5D6873"/>
<path d="M317.252 60.4605L319.579 61.6232L321.131 60.8481L317.64 58.9102L295.533 71.6999L297.085 72.4751L317.252 60.4605Z" fill="url(#paint22_linear_425_5250)"/>
<path d="M305.229 77.5135L302.902 76.3508L303.29 75.188L323.458 63.561L326.173 64.7237L325.785 65.4989L305.229 77.5135Z" fill="#5D6873"/>
<path d="M323.846 64.3362L326.173 65.4989L327.724 64.7237L324.234 62.7859L302.127 75.5756L303.678 76.3507L323.846 64.3362Z" fill="url(#paint23_linear_425_5250)"/>
<path d="M324.621 88.7529L322.294 87.5902V86.4275L342.462 74.8005L345.176 75.9632V76.7383L324.621 88.7529Z" fill="#5D6873"/>
<path d="M343.238 75.5756L345.565 76.7383L347.116 75.9632L343.625 74.0253L321.519 86.815L323.07 87.5902L343.238 75.5756Z" fill="url(#paint24_linear_425_5250)"/>
<path d="M331.602 92.241L329.275 91.0783L329.663 89.9156L349.831 78.2886L352.546 79.4513L352.158 80.2264L331.602 92.241Z" fill="#5D6873"/>
<path d="M349.83 79.4513L352.157 80.614L353.709 79.8388L349.83 77.5134L327.724 90.3031L329.275 91.0783L349.83 79.4513Z" fill="url(#paint25_linear_425_5250)"/>
<path d="M338.195 96.1167L335.868 94.954L336.256 93.7913L356.424 82.1642L359.139 83.7145L358.751 84.4896L338.195 96.1167Z" fill="#5D6873"/>
<path d="M356.424 82.9394L358.751 84.1021L360.303 83.3269L356.424 81.3891L334.317 94.1788L335.869 94.9539L356.424 82.9394Z" fill="url(#paint26_linear_425_5250)"/>
<path d="M344.789 99.9923L342.462 98.8296L342.85 97.6669L363.017 86.0399L365.732 87.2026L365.344 87.9778L344.789 99.9923Z" fill="#5D6873"/>
<path d="M363.017 86.815L365.344 87.9777L366.895 87.2026L363.017 85.2648L340.91 98.0545L342.462 98.8296L363.017 86.815Z" fill="url(#paint27_linear_425_5250)"/>
<g opacity="0.8">
<path d="M228.437 178.668L225.722 174.793L232.703 170.53C233.091 170.142 233.479 170.142 233.479 170.142C236.194 168.979 239.296 169.367 242.011 171.305C243.95 172.467 245.502 174.018 247.053 175.568L251.707 172.855C252.095 172.467 252.483 172.467 252.483 172.467C255.973 170.917 260.24 171.305 263.73 173.63C273.426 179.444 280.795 194.559 280.795 207.348C280.795 208.511 280.795 209.674 280.407 210.449C285.837 216.262 289.327 223.626 289.327 231.765C289.715 235.253 288.164 238.741 285.837 241.067C285.449 241.454 285.061 241.454 284.673 241.842L277.692 246.105L271.487 238.354L271.875 237.191L232.315 214.325C224.558 208.511 219.904 199.597 219.904 189.908C219.904 182.157 223.395 178.281 228.437 178.668Z" fill="url(#paint28_linear_425_5250)"/>
<path d="M247.053 175.568C245.501 174.018 243.95 172.467 242.011 171.305C239.684 169.367 236.581 168.979 233.478 170.142C233.091 170.142 232.703 170.53 232.703 170.53L225.722 174.793L228.049 177.893L240.46 181.381L247.053 175.568Z" fill="url(#paint29_linear_425_5250)"/>
<path d="M285.061 241.067C285.449 241.067 285.837 240.679 286.225 240.292C288.94 237.966 290.103 234.478 289.715 230.99C289.715 222.851 286.225 215.487 280.795 209.674L272.65 214.325L273.814 239.904L278.08 244.555L285.061 241.067Z" fill="url(#paint30_linear_425_5250)"/>
<path d="M220.68 183.319C221.843 175.18 227.273 171.692 234.254 175.568C236.581 177.118 238.908 179.056 240.46 181.381C243.562 175.568 249.38 173.63 255.973 177.893C265.669 183.707 273.038 198.822 273.038 211.612C273.038 212.774 273.038 213.937 272.65 214.712C278.08 220.526 281.571 227.889 281.571 236.028C281.571 244.942 276.141 248.818 269.548 244.942L224.558 218.588C216.802 212.774 212.147 203.86 212.147 194.171C212.147 187.195 215.638 182.932 220.68 183.319Z" fill="#5CA510"/>
</g>
<path d="M470.06 446.477V455.004C470.06 456.942 468.897 459.267 466.958 460.042L465.794 460.817C460.752 463.918 454.547 463.918 449.505 461.205L434.379 453.066C433.216 452.291 432.828 450.741 433.216 449.578C433.604 449.19 433.604 448.803 434.379 448.415C437.094 446.09 440.197 444.927 443.687 444.539C445.239 444.927 446.79 444.927 447.954 444.927L454.935 445.702L470.06 446.477Z" fill="#48486A"/>
<path d="M434.379 451.128L449.505 459.267C454.547 461.98 460.752 461.98 465.794 458.88L466.958 458.104C468.897 456.942 470.06 455.004 470.06 453.066V455.004C470.06 456.942 468.897 459.267 466.958 460.042L465.794 460.817C460.752 463.918 454.547 463.918 449.505 461.205L434.379 453.066C433.216 452.291 432.828 451.128 433.216 449.965L434.379 451.128Z" fill="#363650"/>
<path d="M445.627 450.353L443.688 449.578L445.627 445.315H447.954L445.627 450.353ZM449.117 451.128L447.178 450.353L449.505 445.702L451.444 446.09L449.117 451.128Z" fill="white"/>
<path d="M445.627 463.918V472.444C445.627 474.77 444.463 476.708 442.524 477.483L441.361 478.258C436.319 481.358 430.113 481.358 425.071 478.645L409.946 470.506C408.782 469.731 408.394 468.181 408.782 467.018C409.17 466.631 409.17 466.243 409.946 465.856C412.661 463.53 415.763 462.368 419.254 461.98C420.805 462.368 422.357 462.368 423.52 462.368L430.501 463.143L445.627 463.918Z" fill="#48486A"/>
<path d="M409.558 468.569L424.684 476.708C429.726 479.421 435.931 479.421 440.973 476.32L442.136 475.545C444.076 474.382 445.239 472.444 445.239 470.507V472.444C445.239 474.382 444.076 476.708 442.136 477.483L440.973 478.258C435.931 481.358 429.726 481.358 424.684 478.645L409.558 470.507C408.394 469.731 408.007 468.569 408.394 467.406L409.558 468.569Z" fill="#363650"/>
<path d="M443.3 306.953C446.79 306.953 449.505 304.24 449.505 300.752C449.505 298.427 448.342 296.489 446.403 295.326L418.09 279.048C414.988 277.498 411.109 278.273 409.558 281.374C408.007 284.474 408.782 288.35 411.885 289.9L440.197 306.178C440.973 306.566 442.136 306.953 443.3 306.953Z" fill="#F2B1B5"/>
<path d="M420.805 290.675C421.193 291.838 420.417 292.613 419.642 292.613L412.661 294.164C411.885 294.164 411.109 293.776 411.109 293.001V292.613C411.109 291.838 411.497 291.063 412.273 290.675L419.254 289.125C420.03 289.513 420.805 289.9 420.805 290.675Z" fill="#F2B1B5"/>
<path d="M462.692 455.779C466.959 455.779 470.061 452.291 470.061 448.028V447.64L467.346 395.706L470.837 339.121C470.837 334.47 467.346 330.982 462.692 330.982C458.038 330.982 449.506 334.47 449.506 339.121L454.548 447.253C454.548 451.903 458.426 455.779 462.692 455.779Z" fill="#D4DAED"/>
<path d="M437.095 473.219C441.749 473.219 445.239 469.731 445.239 465.081L444.076 409.658L450.281 356.949C450.281 352.299 441.361 348.81 437.095 348.81C432.441 348.81 428.95 352.299 428.95 356.949V465.081C428.95 469.731 432.829 473.219 437.095 473.219Z" fill="#D4DAED"/>
<path opacity="0.3" d="M468.51 329.82L472 355.787C472 358.887 470.061 361.988 467.346 363.926L446.015 375.94C441.749 378.266 436.707 376.715 434.38 372.84C433.604 371.677 433.216 370.127 433.216 368.576V315.48C433.216 312.379 426.235 314.317 429.338 312.767L459.201 295.326C464.631 292.226 468.51 323.231 468.51 329.82Z" fill="#49486B"/>
<path d="M471.224 287.962L469.673 313.154C470.061 318.58 470.061 324.006 470.449 329.432C471.224 337.959 472 346.873 472 355.399C471.612 357.337 466.182 361.6 459.201 365.088C458.426 365.476 458.038 348.81 457.262 349.198C456.486 349.586 456.099 366.639 455.323 367.026C446.403 370.902 435.543 373.615 428.174 370.127L428.95 339.121L427.398 319.743C426.623 306.566 423.908 289.125 437.094 280.986C437.482 280.599 438.258 280.211 438.646 279.823L452.608 272.46C455.711 270.522 459.977 270.522 463.08 272.46C468.509 275.948 471.612 281.761 471.224 287.962Z" fill="#62AC15"/>
<path d="M420.805 467.794L418.866 467.018L420.805 462.755H423.132L420.805 467.794ZM424.684 468.569L422.745 467.794L425.072 463.143L427.011 463.53L424.684 468.569Z" fill="white"/>
<path d="M450.281 281.374C452.996 281.374 455.323 279.048 455.323 276.335V256.957C455.323 254.244 452.996 251.919 450.281 251.919C447.566 251.919 445.239 254.244 445.239 256.957V276.335C445.239 279.048 447.566 281.374 450.281 281.374Z" fill="#F2B1B5"/>
<path d="M450.669 275.173H448.729C438.646 275.173 430.501 267.034 430.501 256.957V242.617H450.669C452.996 242.617 454.547 244.555 454.547 246.493V271.297C454.547 273.622 452.996 275.173 450.669 275.173Z" fill="#F2B1B5"/>
<path d="M424.296 235.641C425.071 234.478 426.235 233.315 427.786 232.928C430.501 232.54 433.216 232.153 435.931 232.153C438.646 231.765 441.749 231.765 444.463 231.765C450.281 232.153 455.711 234.091 460.365 237.191C463.08 238.741 464.631 241.067 465.019 244.167C466.182 248.431 466.57 253.081 466.182 257.732C465.407 262.383 463.467 266.259 460.365 269.747C459.589 270.909 458.038 272.072 456.874 272.847C451.057 275.173 447.566 265.483 446.79 261.22C446.403 259.67 446.015 258.12 444.463 257.732C443.3 257.345 442.524 257.732 441.749 258.895C440.973 259.67 440.585 260.833 440.585 261.608C440.585 261.995 440.197 262.771 439.809 263.158C439.421 263.546 438.646 263.933 438.258 263.546L437.87 253.856C437.87 251.919 438.258 248.818 437.094 247.268C435.931 246.105 433.216 246.105 432.053 245.33C429.726 244.942 427.398 243.78 425.847 242.229C424.296 240.679 423.908 238.741 424.684 236.804C423.908 236.416 423.908 236.028 424.296 235.641Z" fill="#49486B"/>
<path d="M444.464 268.972C443.3 265.483 440.585 263.933 440.198 260.833V258.895C439.422 258.895 438.646 258.507 437.871 258.507C437.871 260.833 438.258 265.483 435.543 267.034C434.38 267.421 433.216 267.421 432.441 266.259C432.053 265.483 432.053 264.321 432.053 263.546C432.053 262.771 430.889 260.833 430.114 260.833C428.95 261.22 428.95 263.546 428.95 264.321C428.95 266.646 429.338 268.972 430.502 271.297C432.441 274.01 435.543 275.948 439.034 275.948C440.198 275.948 441.361 275.948 442.525 275.56C443.688 275.173 444.464 274.398 445.239 273.235C445.239 271.297 444.852 270.134 444.464 268.972Z" fill="#49486B"/>
<path d="M398.699 308.503C397.535 308.503 397.147 307.728 397.147 307.341V301.14C397.147 300.365 397.923 299.977 398.311 299.977H398.699C399.475 299.977 399.862 300.752 399.862 301.14V307.341C399.862 307.728 399.475 308.503 398.699 308.503Z" fill="#F2B1B5"/>
<path opacity="0.3" d="M432.44 320.518C431.277 322.843 429.726 324.394 427.786 325.944L427.399 320.906C427.399 318.968 427.011 316.642 427.011 314.705C427.011 312.379 427.011 310.441 427.399 308.116L433.604 295.714C434.768 293.388 437.482 292.226 439.809 293.388C439.809 293.388 440.197 293.388 440.197 293.776C442.524 295.326 443.3 298.427 442.136 300.752L432.44 320.518Z" fill="#231F20"/>
<path d="M415.375 327.494C421.193 327.494 426.622 324.394 429.725 319.743L442.524 299.589C444.075 296.876 443.3 293.388 440.585 291.838C437.87 290.288 434.379 291.063 432.828 293.776L420.029 313.929C418.478 316.642 414.987 317.418 412.272 315.867L411.885 315.48L394.82 301.915C392.493 299.977 389.002 300.365 387.063 302.69C385.124 305.015 385.512 308.503 387.839 310.441L404.904 324.006C408.006 326.332 411.885 327.494 415.375 327.494Z" fill="#F2B1B5"/>
<path d="M428.562 312.379C426.235 311.216 424.296 309.666 423.521 307.341L432.829 293.001C434.768 289.9 438.646 289.125 441.361 291.063C444.076 293.001 445.24 296.876 443.3 299.589L435.544 311.992C434.768 313.154 433.992 314.704 433.216 316.255C431.665 314.317 430.114 313.154 428.562 312.379Z" fill="#62AC15"/>
<path opacity="0.3" d="M164.056 410.046C161.729 410.046 159.79 408.108 159.79 405.783C159.79 404.233 160.566 402.682 162.117 401.907L264.894 342.222C266.834 340.672 269.548 341.447 271.1 343.384C272.651 345.322 271.875 348.035 269.936 349.586C269.936 349.586 269.548 349.973 269.161 349.973L166.383 409.658C165.608 409.658 164.832 410.046 164.056 410.046Z" fill="url(#paint31_linear_425_5250)"/>
<path opacity="0.6" d="M163.668 406.946C163.281 406.946 162.505 406.558 162.505 405.783C162.505 405.395 162.893 405.008 162.893 405.008L266.834 344.935C267.221 344.547 267.997 344.935 268.385 345.322C268.773 345.71 268.385 346.485 267.997 346.485L164.444 406.558C164.056 406.946 163.668 406.946 163.668 406.946Z" fill="url(#paint32_linear_425_5250)"/>
<path opacity="0.3" d="M140.01 394.543C138.846 392.606 139.622 389.893 141.561 388.73L244.338 329.044C246.277 327.494 248.992 328.269 250.544 330.207C252.095 332.145 251.319 334.858 249.38 336.408C248.992 336.408 248.992 336.796 248.604 336.796L145.827 396.481C143.888 397.256 141.173 396.869 140.01 394.543Z" fill="url(#paint33_linear_425_5250)"/>
<path opacity="0.6" d="M143.5 393.768C143.113 393.768 142.337 393.381 142.337 392.606C142.337 392.218 142.725 391.83 142.725 391.83L246.278 331.757C246.666 331.37 247.441 331.757 247.829 332.145C248.217 332.533 247.829 333.308 247.441 333.308L143.5 393.768C143.5 393.381 143.5 393.768 143.5 393.768Z" fill="url(#paint34_linear_425_5250)"/>
<path opacity="0.02" d="M120.23 377.49L215.639 432.525C220.293 435.238 221.844 440.664 219.129 445.315C218.354 446.865 217.19 448.028 215.639 448.803L120.23 502.287C114.413 505.775 107.044 505.775 100.838 502.287L5.04226 448.415C0.388193 445.702 -1.16316 440.276 1.55171 435.625C2.32739 434.075 3.4909 432.913 5.04226 432.137L100.838 377.49C107.044 374.002 114.413 374.002 120.23 377.49Z" fill="#F7F6F7"/>
<path opacity="0.039" d="M120.23 377.49L215.251 432.137C219.517 434.85 221.456 440.276 218.741 444.927C217.966 446.477 216.802 447.64 215.251 448.415L120.23 501.899C114.413 505.388 107.044 505.388 101.226 501.899L5.81769 448.415C1.55147 445.702 -0.387729 440.276 2.32714 435.626C3.10282 434.075 4.26634 432.913 5.81769 432.137L100.838 377.49C107.044 374.39 114.413 374.39 120.23 377.49Z" fill="#F1EFF2"/>
<path opacity="0.059" d="M120.23 377.878L214.863 432.525C219.129 434.85 220.68 440.664 218.353 444.927C217.577 446.477 216.414 447.64 214.863 448.415L120.23 501.512C114.412 505 107.043 505 101.226 501.512L6.20525 448.415C1.93903 446.09 0.387669 440.276 2.7147 436.013C3.49038 434.463 4.6539 433.3 6.20525 432.525L100.838 378.266C107.043 374.777 114.412 374.777 120.23 377.878Z" fill="#EBEAED"/>
<path opacity="0.078" d="M120.23 378.265L214.474 432.525C218.741 434.85 220.292 440.664 217.965 444.927C217.189 446.477 216.026 447.64 214.474 448.415L120.23 501.124C114.412 504.612 107.043 504.612 101.226 501.124L6.98064 448.415C2.71442 446.09 1.16306 440.276 3.49009 436.013C4.26577 434.463 5.42929 433.3 6.98064 432.525L101.226 378.265C107.043 374.777 114.024 374.777 120.23 378.265Z" fill="#E6E4E9"/>
<path opacity="0.098" d="M120.23 378.653L214.087 432.525C218.354 434.85 219.905 440.664 217.578 444.927C216.802 446.477 215.639 447.64 214.087 448.415L120.23 501.124C114.413 504.225 107.044 504.225 101.226 501.124L7.36932 448.415C3.10309 446.09 1.55173 440.276 3.87877 436.013C4.65444 434.463 5.81796 433.3 7.36932 432.525L101.226 378.653C107.044 375.165 114.025 375.165 120.23 378.653Z" fill="#E1DFE5"/>
<path opacity="0.118" d="M120.23 379.041L213.312 432.525C217.578 434.85 219.129 440.664 216.802 444.927C216.027 446.477 214.863 447.64 213.312 448.415L119.842 500.737C114.025 503.837 107.044 503.837 101.226 500.737L7.75701 448.415C3.49078 446.09 1.93943 440.276 4.26646 436.013C5.04214 434.463 6.20566 433.3 7.75701 432.525L101.226 379.041C107.044 375.553 114.413 375.553 120.23 379.041Z" fill="#DDDAE1"/>
<path opacity="0.137" d="M119.842 379.428L212.536 432.913C216.802 435.238 218.353 441.051 216.026 445.315C215.251 446.865 214.087 448.028 212.536 448.803L119.842 500.737C114.025 503.837 107.044 503.837 101.226 500.737L8.14471 448.415C3.87848 446.09 2.32712 440.276 4.65416 436.013C5.42983 434.463 6.59335 433.3 8.14471 432.525L100.838 379.041C107.044 375.94 114.025 375.94 119.842 379.428Z" fill="#D8D6DD"/>
<path opacity="0.157" d="M119.842 379.428L212.148 432.525C216.414 434.85 217.965 440.276 215.638 444.927C214.863 446.477 213.699 447.64 212.148 448.415L119.842 499.962C114.024 503.062 107.043 503.062 101.226 499.962L8.9201 448.415C4.65387 446.09 3.10251 440.664 5.42955 436.013C6.20523 434.463 7.36874 433.3 8.9201 432.525L101.226 379.428C107.043 376.328 114.024 376.328 119.842 379.428Z" fill="#D4D1D9"/>
<path opacity="0.176" d="M119.842 379.816L211.76 432.525C216.026 434.85 217.577 440.664 214.862 444.927C214.087 446.09 212.923 447.252 211.76 448.028L119.842 499.574C114.024 502.675 107.043 502.675 101.226 499.574L9.30783 448.028C5.0416 445.702 3.49025 439.889 6.20512 435.625C6.9808 434.463 8.14431 433.3 9.30783 432.525L101.226 379.816C107.043 376.328 114.024 376.328 119.842 379.816Z" fill="#CFCDD6"/>
<path opacity="0.196" d="M119.843 380.203L211.373 432.913C215.639 435.238 217.19 440.664 214.863 444.927C214.087 446.477 212.924 447.253 211.373 448.415L119.843 499.574C114.025 502.675 107.044 502.675 101.614 499.574L10.0842 448.028C5.81793 445.702 4.26658 440.276 6.59361 436.013C7.36929 434.463 8.5328 433.688 10.0842 432.525L101.614 379.816C107.044 376.715 114.025 376.715 119.843 380.203Z" fill="#CBC8D2"/>
<path opacity="0.216" d="M119.842 380.591L210.597 432.912C214.863 435.238 216.414 440.664 214.087 444.927C213.312 446.477 212.148 447.64 210.597 448.415L119.455 499.574C113.637 502.675 106.656 502.675 101.226 499.574L10.4719 448.028C6.20563 445.702 4.65427 440.276 6.9813 436.013C7.75698 434.463 8.9205 433.3 10.4719 432.525L101.614 380.203C107.044 377.103 114.025 377.103 119.842 380.591Z" fill="#C7C4CF"/>
<path opacity="0.235" d="M119.842 380.591L210.209 432.525C214.475 434.85 216.026 440.276 213.699 444.539C212.924 446.09 211.76 447.252 210.209 448.028L119.842 498.799C114.025 501.899 107.431 501.899 101.614 498.799L10.8596 448.028C6.59332 445.702 5.04197 440.276 7.369 436.013C8.14468 434.463 9.30819 433.3 10.8596 432.525L101.226 380.591C107.044 377.49 114.025 377.49 119.842 380.591Z" fill="#C3C0CB"/>
<path opacity="0.255" d="M119.842 380.979L209.821 432.912C214.087 435.238 215.638 440.664 213.311 444.927C212.536 446.477 211.372 447.64 209.821 448.415L119.842 498.799C114.412 501.899 107.431 501.899 101.614 498.799L11.6349 448.028C7.36871 445.702 5.81736 440.276 8.14439 436.013C8.92007 434.463 10.0836 433.3 11.6349 432.525L101.614 380.591C107.043 377.878 114.024 377.878 119.842 380.979Z" fill="#BFBBC8"/>
<path opacity="0.275" d="M119.842 381.366L209.433 432.912C213.699 435.238 215.25 440.664 212.535 444.927C211.76 446.477 210.596 447.252 209.433 448.028L119.842 498.411C114.412 501.512 107.431 501.512 101.613 498.411L12.0227 448.028C7.75644 445.702 6.20509 440.276 8.91996 436.013C9.69564 434.463 10.8592 433.688 12.0227 432.912L101.613 381.366C107.043 378.266 114.024 378.266 119.842 381.366Z" fill="#BBB7C5"/>
<path opacity="0.294" d="M119.842 381.366L209.045 432.525C213.311 434.85 214.862 440.276 212.147 444.539C211.372 446.09 210.208 446.865 209.045 447.64L119.842 497.636C114.412 500.737 107.431 500.737 101.613 497.636L12.4104 447.64C8.14414 445.315 6.59278 439.889 9.30766 435.625C10.0833 434.075 11.2469 433.3 12.4104 432.525L101.613 381.366C107.043 378.266 114.024 378.266 119.842 381.366Z" fill="#B7B3C2"/>
<path opacity="0.314" d="M119.842 381.754L208.269 432.912C212.536 435.238 213.699 440.664 211.372 444.54C210.596 446.09 209.433 446.865 208.269 447.64L119.454 497.249C114.025 500.349 107.043 500.349 101.614 497.249L12.7986 448.028C8.53236 445.702 7.36884 440.276 9.69587 436.401C10.4716 434.85 11.6351 434.075 12.7986 433.3L101.226 382.141C107.043 378.653 114.025 378.653 119.842 381.754Z" fill="#B4AFBE"/>
<path opacity="0.333" d="M119.454 382.141L207.493 432.912C211.76 435.238 212.923 440.664 210.596 444.539C209.82 446.09 208.657 446.865 207.493 447.64L119.454 497.249C114.024 500.349 107.043 500.349 101.613 497.249L13.574 448.028C9.30775 445.702 8.14423 440.276 10.4713 436.401C11.2469 434.85 12.4105 434.075 13.574 433.3L101.613 382.529C107.043 379.041 114.024 379.041 119.454 382.141Z" fill="#B0ABBB"/>
<path opacity="0.353" d="M119.455 382.529L207.106 432.912C211.373 435.238 212.536 440.664 210.209 444.539C209.434 445.702 208.27 446.865 207.106 447.64L119.455 496.861C114.025 499.962 107.432 499.962 101.614 496.861L13.9626 448.028C9.69642 445.702 8.5329 440.276 10.8599 436.401C11.6356 435.238 12.7991 434.075 13.9626 433.3L101.614 382.916C107.044 379.428 114.025 379.428 119.455 382.529Z" fill="#ACA8B8"/>
<path opacity="0.373" d="M119.455 382.916L206.718 432.912C210.985 435.238 212.148 440.276 209.821 444.539C209.045 445.702 207.882 446.865 206.718 447.64L119.455 496.474C114.025 499.574 107.432 499.574 102.002 496.474L14.3503 447.64C10.0841 445.315 8.9206 440.276 11.2476 436.013C12.0233 434.85 13.1868 433.688 14.3503 432.912L101.614 382.916C107.044 379.816 114.025 379.816 119.455 382.916Z" fill="#A9A4B5"/>
<path opacity="0.392" d="M119.454 383.304L206.33 433.3C210.209 435.625 211.76 440.664 209.433 444.927C208.657 446.09 207.494 447.252 206.33 448.028L119.454 496.861C114.025 499.962 107.431 499.962 102.002 496.861L15.1257 447.64C11.2474 445.315 9.696 440.276 12.023 436.013C12.7987 434.85 13.9622 433.688 15.1257 432.912L102.002 382.916C107.044 380.203 114.025 380.203 119.454 383.304Z" fill="#A5A0B2"/>
<path opacity="0.412" d="M119.454 383.304L205.555 432.912C209.433 435.238 210.984 440.276 208.657 444.54C207.882 445.702 206.718 446.865 205.555 447.64L119.066 496.086C113.637 499.186 107.043 499.186 101.614 496.086L15.5134 447.64C11.6351 445.315 10.0837 440.276 12.4107 436.013C13.1864 434.85 14.3499 433.688 15.5134 432.912L101.614 383.304C107.043 380.203 114.025 380.203 119.454 383.304Z" fill="#A29CAF"/>
<path opacity="0.431" d="M119.454 383.691L205.167 432.913C209.045 435.238 210.596 440.276 208.269 444.152C207.494 445.315 206.33 446.477 205.167 447.253L119.454 495.311C114.024 498.411 107.431 498.411 102.001 495.311L15.9011 447.64C12.0227 445.315 10.4714 440.276 12.7984 436.401C13.5741 435.238 14.7376 434.075 15.9011 433.3L102.001 383.691C107.431 380.591 114.024 380.591 119.454 383.691Z" fill="#9E99AC"/>
<path opacity="0.451" d="M119.455 384.079L204.779 432.913C208.658 435.238 210.209 440.276 207.882 444.152C207.106 445.315 205.943 446.477 204.779 447.253L119.455 495.311C114.025 498.411 107.432 498.411 102.39 495.311L17.0652 447.253C13.1868 444.927 11.6355 439.889 13.9625 436.013C14.7382 434.85 15.9017 433.688 17.0652 432.913L102.39 384.079C107.432 380.979 114.025 380.979 119.455 384.079Z" fill="#9A95A9"/>
<path opacity="0.471" d="M119.455 384.467L204.391 433.3C208.27 435.626 209.821 440.664 207.494 444.54C206.718 445.702 205.555 446.865 204.391 447.64L119.455 495.311C114.025 498.411 107.82 498.411 102.39 495.311L17.0652 447.64C13.1868 445.315 11.6355 440.276 13.9625 436.401C14.7382 435.238 15.9017 434.075 17.0652 433.3L102.002 384.467C107.432 381.366 114.025 381.366 119.455 384.467Z" fill="#9792A7"/>
<path opacity="0.49" d="M119.067 384.854L203.616 433.3C207.494 435.626 209.045 440.664 206.718 444.54C205.943 445.702 204.779 446.865 203.616 447.64L119.067 494.923C113.637 498.024 107.432 498.024 102.002 494.923L17.4529 447.64C13.5745 445.315 12.0232 440.276 14.3502 436.401C15.1259 435.238 16.2894 434.075 17.4529 433.3L102.002 384.854C107.432 381.754 114.025 381.754 119.067 384.854Z" fill="#948EA4"/>
<path opacity="0.51" d="M119.066 384.854L202.84 433.3C206.718 435.625 208.269 440.664 205.942 444.54C205.167 445.702 204.003 446.865 202.84 447.64L118.679 494.923C113.249 498.024 107.043 498.024 101.614 494.923L18.2283 447.64C14.3499 445.315 12.7985 440.276 15.1256 436.401C15.9013 435.238 17.0648 434.075 18.2283 433.3L102.001 384.854C107.431 382.141 113.637 382.141 119.066 384.854Z" fill="#908BA1"/>
<path opacity="0.529" d="M119.066 385.242L202.452 433.3C206.33 435.625 207.881 440.664 205.554 444.54C204.779 445.702 203.615 446.865 202.452 447.64L119.066 494.536C114.024 497.636 107.431 497.636 102.389 494.536L18.616 447.64C14.7376 445.315 13.1862 440.276 15.5133 436.401C16.2889 435.238 17.4525 434.075 18.616 433.3L102.001 385.242C107.431 382.141 114.024 382.529 119.066 385.242Z" fill="#8D889E"/>
<path opacity="0.549" d="M119.067 385.629L202.064 433.3C205.943 435.626 207.494 440.276 205.167 444.152C204.392 445.315 203.228 446.477 202.064 447.253L119.067 493.761C114.025 496.861 107.432 496.861 102.39 493.761L19.3924 447.253C15.514 444.927 13.9626 440.276 16.2896 436.401C17.0653 435.238 18.2288 434.075 19.3924 433.3L102.39 385.629C107.432 382.529 113.637 382.529 119.067 385.629Z" fill="#8A849C"/>
<path opacity="0.569" d="M118.679 386.017L201.289 433.3C205.167 435.625 206.33 440.276 204.391 444.152C203.616 445.315 202.452 446.477 201.289 447.252L118.679 493.761C113.637 496.474 107.044 496.474 102.002 493.761L19.3921 447.252C15.5137 444.927 14.3502 440.276 16.2894 436.401C17.065 435.238 18.2286 434.075 19.3921 433.3L102.002 386.017C107.432 382.916 113.637 382.916 118.679 386.017Z" fill="#878199"/>
<path opacity="0.588" d="M119.066 386.404L201.288 433.688C205.167 436.013 206.33 440.664 204.391 444.54C203.615 445.702 202.452 446.865 201.288 447.64L119.066 493.761C114.024 496.474 107.819 496.474 102.389 493.761L20.1675 447.253C16.2891 444.927 15.1256 440.276 17.0647 436.401C17.8404 435.238 19.0039 434.075 20.1675 433.3L102.389 386.017C107.431 383.304 114.024 383.304 119.066 386.404Z" fill="#847E97"/>
<path opacity="0.608" d="M119.066 386.404L200.512 433.3C204.391 435.625 205.554 440.276 203.615 444.152C202.839 445.315 202.064 446.477 200.512 447.252L118.678 492.985C113.637 495.698 107.431 495.698 102.389 492.985L20.5552 447.252C16.6768 444.927 15.5132 440.276 17.4524 436.401C18.2281 435.238 19.0038 434.075 20.5552 433.3L102.001 386.404C107.431 383.691 113.637 383.691 119.066 386.404Z" fill="#817B94"/>
<path opacity="0.627" d="M119.067 386.792L200.125 433.3C204.004 435.625 205.167 440.276 203.228 444.152C202.452 445.315 201.677 446.477 200.125 447.253L119.067 492.985C114.025 495.698 107.82 495.698 102.778 492.985L21.3315 447.64C17.4531 445.315 16.2896 440.664 18.2288 436.788C19.0045 435.625 19.7802 434.463 21.3315 433.688L102.39 387.18C107.432 383.691 113.637 383.692 119.067 386.792Z" fill="#7E7892"/>
<path opacity="0.647" d="M118.679 387.18L199.349 433.688C203.228 436.013 204.391 440.664 202.452 444.54C201.676 445.702 200.901 446.865 199.349 447.64L118.679 492.21C113.637 494.923 107.432 494.923 102.39 492.21L21.7192 447.253C17.8408 444.927 16.6773 440.276 18.6165 436.401C19.3922 435.238 20.1679 434.075 21.7192 433.3L102.39 386.792C107.432 384.079 113.637 384.079 118.679 387.18Z" fill="#7B758F"/>
<path opacity="0.667" d="M118.679 387.567L198.961 433.688C202.84 435.625 204.003 440.276 202.064 444.152C201.289 445.315 200.125 446.477 198.961 447.253L118.679 492.21C113.637 494.923 107.431 494.923 102.39 492.21L22.1069 447.253C18.2285 445.315 17.065 440.664 19.0042 436.788C19.7799 435.625 20.9434 434.463 22.1069 433.688L102.39 387.567C107.431 384.467 113.637 384.467 118.679 387.567Z" fill="#78738D"/>
<path opacity="0.686" d="M119.066 387.567L198.961 433.3C202.84 435.238 204.003 439.889 202.064 443.764C201.288 444.927 200.125 446.09 198.961 446.865L119.066 491.435C114.024 494.148 107.819 494.148 103.165 491.435L22.8823 447.252C19.0039 445.315 17.8404 440.664 19.7796 436.788C20.5553 435.625 21.7188 434.463 22.8823 433.688L102.389 387.567C107.431 384.854 114.024 384.854 119.066 387.567Z" fill="#75708B"/>
<path opacity="0.706" d="M118.678 387.955L198.185 433.688C202.064 435.625 203.227 440.664 201.288 444.152C200.512 445.315 199.737 446.477 198.185 447.252L118.678 491.823C113.636 494.536 107.819 494.536 102.777 491.823L23.27 447.252C19.3916 445.315 18.2281 440.276 20.1673 436.788C20.943 435.625 21.7186 434.463 23.27 433.688L102.389 387.955C107.431 385.242 113.636 385.242 118.678 387.955Z" fill="#726D89"/>
<path opacity="0.725" d="M118.678 388.342L197.41 433.688C201.288 436.013 202.452 440.664 200.125 444.152C199.349 445.315 198.573 446.09 197.41 446.865L118.678 491.048C113.637 493.76 107.819 493.76 102.777 491.048L23.6579 446.865C19.7795 444.539 18.616 439.889 20.943 436.401C21.7187 435.238 22.4943 434.463 23.6579 433.688L102.389 388.342C107.431 385.629 113.637 385.629 118.678 388.342Z" fill="#6F6A86"/>
<path opacity="0.745" d="M118.679 388.73L197.022 433.688C200.513 436.013 202.064 440.664 199.737 444.152C198.961 445.315 198.186 446.09 197.022 446.865L118.679 490.66C113.637 493.373 107.819 493.373 102.777 490.66L24.4337 446.865C20.9431 444.539 19.3918 439.889 21.7188 436.401C22.4945 435.238 23.2702 434.463 24.4337 433.688L102.777 388.73C107.431 385.629 113.637 385.629 118.679 388.73Z" fill="#6D6884"/>
<path opacity="0.765" d="M118.679 389.117L196.247 434.075C199.737 436.401 200.901 441.051 198.962 444.54C198.186 445.702 197.41 446.477 196.247 447.252L118.291 491.048C113.249 493.761 107.432 493.761 102.778 491.048L24.8219 446.865C21.3314 444.54 20.1678 439.889 22.107 436.401C22.8827 435.238 23.6584 434.463 24.8219 433.688L102.778 388.73C107.432 386.017 113.637 386.017 118.679 389.117Z" fill="#6A6582"/>
<path opacity="0.784" d="M118.29 389.117L195.47 433.688C198.961 435.625 200.512 440.276 198.185 444.152C197.41 445.315 196.634 446.477 195.47 446.865L118.29 490.272C113.636 492.985 107.819 492.985 102.777 490.272L25.2091 446.865C21.7185 444.927 20.1672 440.276 22.4942 436.401C23.2699 435.238 24.0455 434.075 25.2091 433.688L102.389 389.117C107.431 386.404 113.249 386.404 118.29 389.117Z" fill="#676380"/>
<path opacity="0.804" d="M118.679 389.505L195.471 433.688C198.962 435.625 200.513 440.276 198.186 443.764C197.41 444.927 196.635 446.09 195.471 446.477L118.291 489.885C113.637 492.598 107.432 492.598 102.778 489.885L25.9854 446.865C22.4949 444.927 20.9435 440.276 23.2706 436.788C24.0462 435.625 24.8219 434.463 25.9854 434.075L102.778 389.893C107.819 386.792 113.637 386.792 118.679 389.505Z" fill="#64607E"/>
<path opacity="0.824" d="M118.291 389.893L195.083 434.075C198.573 436.013 199.737 440.664 197.798 444.152C197.022 445.315 196.246 446.09 195.083 446.865L118.678 489.885C114.024 492.598 107.819 492.598 103.165 489.885L26.3727 446.865C22.8821 444.927 21.7186 440.276 23.6578 436.788C24.4335 435.625 25.2092 434.85 26.3727 434.075L102.777 390.28C107.819 387.18 113.636 387.18 118.291 389.893Z" fill="#615E7C"/>
<path opacity="0.843" d="M118.291 390.28L194.308 434.075C197.798 436.013 198.962 440.664 197.023 444.152C196.247 445.315 195.471 446.09 194.308 446.865L118.291 489.497C113.637 492.21 107.82 492.21 103.165 489.497L27.149 446.865C23.6585 444.927 22.495 440.276 24.4342 436.788C25.2099 435.625 25.9855 434.85 27.149 434.075L103.165 390.28C107.82 387.567 113.637 387.567 118.291 390.28Z" fill="#5F5B7A"/>
<path opacity="0.863" d="M118.291 390.28L193.92 434.075C197.41 436.013 198.574 440.664 196.635 444.152C195.859 445.315 195.083 446.477 193.92 446.865L118.291 489.11C113.637 491.823 107.819 491.823 103.165 489.11L27.5367 446.865C24.0462 444.927 22.8827 440.276 24.8219 436.788C25.5975 435.625 26.3732 434.463 27.5367 434.075L103.165 390.668C107.819 387.567 113.637 387.567 118.291 390.28Z" fill="#5C5978"/>
<path opacity="0.882" d="M118.291 390.668L193.532 434.075C197.022 436.013 198.186 440.664 196.247 444.152C195.471 445.315 194.695 446.09 193.532 446.865L118.291 489.11C113.637 491.823 107.819 491.823 103.165 489.11L27.9244 446.477C24.4339 444.539 23.2704 439.889 25.2096 436.401C25.9852 435.238 26.7609 434.463 27.9244 433.688L103.165 390.668C107.819 387.955 113.637 387.955 118.291 390.668Z" fill="#595676"/>
<path opacity="0.902" d="M118.291 391.055L193.144 434.075C196.634 436.013 197.798 440.664 195.859 444.152C195.083 445.315 194.307 446.09 193.144 446.865L118.291 488.722C113.637 491.435 107.819 491.435 103.165 488.722L28.3121 446.477C24.8216 444.539 23.6581 439.889 25.5973 436.401C26.3729 435.238 27.1486 434.463 28.3121 433.688L102.777 390.668C107.819 388.342 113.637 388.342 118.291 391.055Z" fill="#565474"/>
<path opacity="0.922" d="M118.29 391.443L192.368 434.075C195.858 436.013 197.022 440.276 195.083 443.764C194.307 444.927 193.531 445.702 192.368 446.477L118.29 488.335C113.636 491.048 107.819 491.048 103.165 488.335L29.0875 446.477C25.597 444.539 24.4335 440.276 26.3727 436.788C27.1483 435.625 27.924 434.85 29.0875 434.075L103.165 391.443C107.819 388.73 113.636 388.73 118.29 391.443Z" fill="#545272"/>
<path opacity="0.941" d="M118.291 391.83L191.981 434.075C195.471 436.013 196.635 440.276 194.695 443.764C193.92 444.927 193.144 445.702 191.981 446.477L118.291 487.947C113.637 490.66 108.207 490.66 103.553 487.947L29.8639 446.477C26.3733 444.54 25.2098 440.276 27.149 436.788C27.9247 435.625 28.7004 434.85 29.8639 434.075L103.553 391.83C107.82 389.117 113.637 389.117 118.291 391.83Z" fill="#514F70"/>
<path opacity="0.961" d="M117.903 391.83L191.205 434.075C194.695 436.013 195.859 440.276 193.92 443.764C193.144 444.927 192.368 445.702 191.205 446.477L117.903 487.56C113.249 490.272 107.82 490.272 103.165 487.56L29.8639 446.477C26.3733 444.54 25.2098 440.276 27.149 436.788C27.9247 435.625 28.7004 434.85 29.8639 434.075L103.165 391.83C107.82 389.505 113.249 389.117 117.903 391.83Z" fill="#4E4D6E"/>
<path opacity="0.98" d="M118.291 392.218L190.817 434.075C194.307 436.013 195.471 440.276 193.532 443.764C192.756 444.927 191.98 445.702 190.817 446.477L117.903 487.172C113.249 489.885 107.819 489.885 103.165 487.172L30.6393 446.477C27.1487 444.54 25.9852 440.276 27.9244 436.788C28.7001 435.625 29.4758 434.85 30.6393 434.075L103.553 392.218C107.819 389.505 113.637 389.505 118.291 392.218Z" fill="#4B4B6C"/>
<path d="M117.903 392.606L190.429 434.075C193.919 436.013 195.083 440.276 193.144 443.764C192.368 444.927 191.592 445.702 190.429 446.477L117.903 487.172C113.249 489.885 107.819 489.885 103.165 487.172L31.027 446.477C27.5364 444.54 26.3729 440.276 28.3121 436.788C29.0878 435.625 29.8635 434.85 31.027 434.075L103.165 392.606C107.819 389.893 113.637 389.893 117.903 392.606Z" fill="#49486B"/>
<path d="M119.067 384.467L204.779 424.774V437.563C204.779 441.051 202.84 444.152 200.125 445.702L118.679 491.435C113.637 494.148 107.431 494.148 102.002 491.435L20.5554 445.315C17.4527 443.764 15.9014 440.664 15.9014 437.176V422.836L102.002 384.079C107.431 381.366 114.025 381.366 119.067 384.467Z" fill="url(#paint35_linear_425_5250)"/>
<path d="M119.066 368.964L201.288 416.247C205.167 418.573 206.33 423.223 204.391 427.099C203.615 428.262 202.452 429.424 201.288 430.2L119.066 476.32C114.024 479.033 107.819 479.033 102.389 476.32L20.1675 430.2C16.2891 427.874 15.1256 423.223 17.0647 419.348C17.8404 418.185 19.0039 417.022 20.1675 416.247L102.389 368.964C107.431 365.863 114.024 365.863 119.066 368.964Z" fill="#EBEEF6"/>
<path d="M70.5865 444.152C50.0311 432.137 50.0311 413.147 70.5865 401.132C91.142 389.117 124.884 389.117 145.439 401.132C165.995 413.147 165.995 432.137 145.439 444.152C124.496 456.167 91.142 456.167 70.5865 444.152Z" fill="url(#paint36_linear_425_5250)"/>
<path opacity="0.31" d="M76.0163 441.051C58.5636 430.975 58.5636 414.697 76.0163 404.62C93.4691 394.543 122.169 394.543 139.622 404.62C157.075 414.697 157.075 430.975 139.622 441.051C122.169 451.128 93.4691 451.128 76.0163 441.051Z" fill="white"/>
<g opacity="0.4">
<path d="M70.9744 444.152C50.8067 432.525 50.8067 413.534 70.9744 401.52C91.142 389.505 124.496 389.893 145.052 401.52C165.607 413.147 165.607 432.137 145.052 444.152C124.496 455.779 91.142 455.779 70.9744 444.152Z" fill="url(#paint37_linear_425_5250)"/>
<path opacity="0.98" d="M70.9744 441.827C50.8067 430.2 50.8067 411.209 70.9744 399.194C91.142 387.18 124.496 387.567 145.052 399.194C165.607 410.821 165.607 429.812 145.052 441.827C124.496 453.841 91.142 453.454 70.9744 441.827Z" fill="url(#paint38_linear_425_5250)"/>
<path opacity="0.961" d="M70.9744 439.501C50.8067 427.874 50.8067 408.883 70.9744 396.869C91.142 384.854 124.496 385.242 145.052 396.869C165.607 408.496 165.607 427.487 145.052 439.501C124.496 451.516 91.142 451.516 70.9744 439.501Z" fill="url(#paint39_linear_425_5250)"/>
<path opacity="0.941" d="M70.9744 437.563C50.8067 425.936 50.8067 406.946 70.9744 394.931C91.142 382.916 124.496 383.304 145.052 394.931C165.607 406.558 165.607 425.549 145.052 437.563C124.496 449.578 91.142 449.19 70.9744 437.563Z" fill="url(#paint40_linear_425_5250)"/>
<path opacity="0.922" d="M70.9744 435.238C50.8067 423.611 50.8067 404.62 70.9744 392.606C91.142 380.591 124.496 380.979 145.052 392.606C165.607 404.233 165.607 423.223 145.052 435.238C124.496 447.253 91.142 446.865 70.9744 435.238Z" fill="url(#paint41_linear_425_5250)"/>
<path opacity="0.902" d="M70.9744 432.913C50.8067 421.286 50.8067 402.295 70.9744 390.28C91.142 378.266 124.496 378.653 145.052 390.28C165.607 401.907 165.607 420.898 145.052 432.913C124.496 444.927 91.142 444.927 70.9744 432.913Z" fill="url(#paint42_linear_425_5250)"/>
<path opacity="0.882" d="M70.9744 430.975C50.8067 419.348 50.8067 400.357 70.9744 388.342C91.142 376.328 124.496 376.715 145.052 388.342C165.607 399.969 165.607 418.96 145.052 430.975C124.496 442.602 91.142 442.602 70.9744 430.975Z" fill="url(#paint43_linear_425_5250)"/>
<path opacity="0.863" d="M70.9744 428.649C50.8067 417.022 50.8067 398.031 70.9744 386.017C91.142 374.002 124.496 374.39 145.052 386.017C165.607 397.644 165.607 416.635 145.052 428.649C124.496 440.664 91.142 440.276 70.9744 428.649Z" fill="url(#paint44_linear_425_5250)"/>
<path opacity="0.843" d="M70.9744 426.324C50.8067 414.697 50.8067 395.706 70.9744 383.692C91.142 371.677 124.496 372.064 145.052 383.692C165.607 395.319 165.607 414.309 145.052 426.324C124.496 438.338 91.142 438.338 70.9744 426.324Z" fill="url(#paint45_linear_425_5250)"/>
<path opacity="0.824" d="M70.9744 424.386C50.8067 412.759 50.8067 393.768 70.9744 381.754C91.142 369.739 124.496 370.127 145.052 381.754C165.607 393.381 165.607 412.371 145.052 424.386C124.496 436.401 91.142 436.013 70.9744 424.386Z" fill="url(#paint46_linear_425_5250)"/>
<path opacity="0.804" d="M70.9744 422.061C50.8067 410.434 50.8067 391.443 70.9744 379.428C91.142 367.414 124.496 367.801 145.052 379.428C165.607 391.055 165.607 410.046 145.052 422.061C124.496 434.075 91.142 433.688 70.9744 422.061Z" fill="url(#paint47_linear_425_5250)"/>
<path opacity="0.784" d="M70.9744 419.735C50.8067 408.108 50.8067 389.117 70.9744 377.103C91.142 365.088 124.496 365.476 145.052 377.103C165.607 388.73 165.607 407.721 145.052 419.735C124.496 431.75 91.142 431.75 70.9744 419.735Z" fill="url(#paint48_linear_425_5250)"/>
<path opacity="0.765" d="M70.9744 417.797C50.8067 406.17 50.8067 387.18 70.9744 375.165C91.142 363.15 124.496 363.538 145.052 375.165C165.607 386.792 165.607 405.783 145.052 417.797C124.496 429.424 91.142 429.424 70.9744 417.797Z" fill="url(#paint49_linear_425_5250)"/>
<path opacity="0.745" d="M70.9744 415.472C50.8067 403.845 50.8067 384.854 70.9744 372.84C91.142 360.825 124.496 361.213 145.052 372.84C165.607 384.467 165.607 403.457 145.052 415.472C124.496 427.487 91.142 427.099 70.9744 415.472Z" fill="url(#paint50_linear_425_5250)"/>
<path opacity="0.725" d="M70.9744 413.534C50.8067 401.907 50.8067 382.916 70.9744 370.902C91.142 358.887 124.496 359.275 145.052 370.902C165.607 382.529 165.607 401.52 145.052 413.534C124.496 425.549 91.142 425.161 70.9744 413.534Z" fill="url(#paint51_linear_425_5250)"/>
<path opacity="0.706" d="M70.9744 411.209C50.8067 399.582 50.8067 380.591 70.9744 368.576C91.142 356.562 124.496 356.949 145.052 368.576C165.607 380.203 165.607 399.194 145.052 411.209C124.496 423.223 91.142 422.836 70.9744 411.209Z" fill="url(#paint52_linear_425_5250)"/>
<path opacity="0.686" d="M70.9744 408.883C50.8067 397.256 50.8067 378.266 70.9744 366.251C91.142 354.236 124.496 354.624 145.052 366.251C165.607 377.878 165.607 396.869 145.052 408.883C124.496 420.51 91.142 420.51 70.9744 408.883Z" fill="url(#paint53_linear_425_5250)"/>
<path opacity="0.667" d="M70.9744 406.558C50.8067 394.931 50.8067 375.94 70.9744 363.926C91.142 351.911 124.496 352.299 145.052 363.926C165.607 375.553 165.607 394.543 145.052 406.558C124.496 418.573 91.142 418.573 70.9744 406.558Z" fill="url(#paint54_linear_425_5250)"/>
<path opacity="0.647" d="M70.9744 404.62C50.8067 392.993 50.8067 374.002 70.9744 361.988C91.142 349.973 124.496 350.361 145.052 361.988C165.607 373.615 165.607 392.606 145.052 404.62C124.496 416.247 91.142 416.247 70.9744 404.62Z" fill="url(#paint55_linear_425_5250)"/>
<path opacity="0.627" d="M70.9744 402.682C50.8067 391.055 50.8067 372.064 70.9744 360.05C91.142 348.035 124.496 348.423 145.052 360.05C165.607 371.677 165.607 390.668 145.052 402.682C124.496 413.922 91.142 414.309 70.9744 402.682Z" fill="url(#paint56_linear_425_5250)"/>
<path opacity="0.608" d="M70.9744 400.357C50.8067 388.73 50.8067 369.739 70.9744 357.725C91.142 345.71 124.496 346.098 145.052 357.725C165.607 369.352 165.607 388.342 145.052 400.357C124.496 412.371 91.142 411.984 70.9744 400.357Z" fill="url(#paint57_linear_425_5250)"/>
<path opacity="0.588" d="M70.9744 398.031C50.8067 386.404 50.8067 367.414 70.9744 355.399C91.142 343.385 124.496 343.772 145.052 355.399C165.607 367.026 165.607 386.017 145.052 398.031C124.496 410.046 91.142 409.658 70.9744 398.031Z" fill="url(#paint58_linear_425_5250)"/>
<path opacity="0.569" d="M70.9744 395.706C50.8067 384.079 50.8067 365.088 70.9744 353.074C91.142 341.059 124.496 341.447 145.052 353.074C165.607 364.701 165.607 383.692 145.052 395.706C124.496 407.721 91.142 407.333 70.9744 395.706Z" fill="url(#paint59_linear_425_5250)"/>
<path opacity="0.549" d="M70.9744 393.768C50.8067 382.141 50.8067 363.15 70.9744 351.136C91.142 339.121 124.496 339.509 145.052 351.136C165.607 362.763 165.607 381.754 145.052 393.768C124.496 405.395 91.142 405.395 70.9744 393.768Z" fill="url(#paint60_linear_425_5250)"/>
<path opacity="0.529" d="M70.9744 391.443C50.8067 379.816 50.8067 360.825 70.9744 348.81C91.142 336.796 124.496 337.183 145.052 348.81C165.607 360.437 165.607 379.428 145.052 391.443C124.496 403.07 91.142 403.07 70.9744 391.443Z" fill="url(#paint61_linear_425_5250)"/>
<path opacity="0.51" d="M70.9744 389.117C50.8067 377.49 50.8067 358.5 70.9744 346.485C91.142 334.471 124.496 334.858 145.052 346.485C165.607 358.112 165.607 377.103 145.052 389.117C124.496 401.132 91.142 400.744 70.9744 389.117Z" fill="url(#paint62_linear_425_5250)"/>
<path opacity="0.49" d="M70.9744 387.18C50.8067 375.553 50.8067 356.562 70.9744 344.547C91.142 332.533 124.496 332.92 145.052 344.547C165.607 356.174 165.607 375.165 145.052 387.18C124.496 398.807 91.142 398.807 70.9744 387.18Z" fill="url(#paint63_linear_425_5250)"/>
<path opacity="0.471" d="M70.9744 384.854C50.8067 373.227 50.8067 354.236 70.9744 342.222C91.142 330.207 124.496 330.595 145.052 342.222C165.607 353.849 165.607 372.84 145.052 384.854C124.496 396.869 91.142 396.481 70.9744 384.854Z" fill="url(#paint64_linear_425_5250)"/>
<path opacity="0.451" d="M70.9744 382.529C50.8067 370.902 50.8067 351.911 70.9744 339.896C91.142 327.882 124.496 328.269 145.052 339.896C165.607 351.523 165.607 370.514 145.052 382.529C124.496 394.543 91.142 394.156 70.9744 382.529Z" fill="url(#paint65_linear_425_5250)"/>
<path opacity="0.431" d="M70.9744 380.591C50.8067 368.964 50.8067 349.973 70.9744 337.959C91.142 325.944 124.496 326.332 145.052 337.959C165.607 349.586 165.607 368.576 145.052 380.591C124.496 392.218 91.142 392.218 70.9744 380.591Z" fill="url(#paint66_linear_425_5250)"/>
<path opacity="0.412" d="M70.9744 378.266C50.8067 366.639 50.8067 347.648 70.9744 335.633C91.142 323.619 124.496 324.006 145.052 335.633C165.607 347.26 165.607 366.251 145.052 378.266C124.496 389.893 91.142 389.893 70.9744 378.266Z" fill="url(#paint67_linear_425_5250)"/>
<path opacity="0.392" d="M70.9744 375.94C50.8067 364.313 50.8067 345.322 70.9744 333.308C91.142 321.293 124.496 321.681 145.052 333.308C165.607 344.935 165.607 363.926 145.052 375.94C124.496 387.955 91.142 387.567 70.9744 375.94Z" fill="url(#paint68_linear_425_5250)"/>
<path opacity="0.373" d="M70.9744 374.002C50.8067 362.375 50.8067 343.385 70.9744 331.37C91.142 319.355 124.496 319.743 145.052 331.37C165.607 342.997 165.607 361.988 145.052 374.002C124.496 386.017 91.142 385.629 70.9744 374.002Z" fill="url(#paint69_linear_425_5250)"/>
<path opacity="0.353" d="M70.9744 371.677C50.8067 360.05 50.8067 341.059 70.9744 329.045C91.142 317.03 124.496 317.418 145.052 329.045C165.607 340.672 165.607 359.662 145.052 371.677C124.496 383.304 91.142 383.304 70.9744 371.677Z" fill="url(#paint70_linear_425_5250)"/>
<path opacity="0.333" d="M70.9744 369.352C50.8067 357.725 50.8067 338.734 70.9744 326.719C91.142 314.705 124.496 315.092 145.052 326.719C165.607 338.346 165.607 357.337 145.052 369.352C124.496 381.366 91.142 380.979 70.9744 369.352Z" fill="url(#paint71_linear_425_5250)"/>
<path opacity="0.314" d="M70.9744 367.414C50.8067 355.787 50.8067 336.796 70.9744 324.781C91.142 312.767 124.496 313.154 145.052 324.781C165.607 336.408 165.607 355.399 145.052 367.414C124.496 379.041 91.142 379.041 70.9744 367.414Z" fill="url(#paint72_linear_425_5250)"/>
<path opacity="0.294" d="M70.9744 365.088C50.8067 353.461 50.8067 334.47 70.9744 322.456C91.142 310.441 124.496 310.829 145.052 322.456C165.607 334.083 165.607 353.074 145.052 365.088C124.496 377.103 91.142 376.715 70.9744 365.088Z" fill="url(#paint73_linear_425_5250)"/>
<path opacity="0.275" d="M70.9744 362.763C50.8067 351.136 50.8067 332.145 70.9744 320.13C91.142 308.116 124.496 308.503 145.052 320.13C165.607 331.757 165.607 350.748 145.052 362.763C124.496 374.777 91.142 374.39 70.9744 362.763Z" fill="url(#paint74_linear_425_5250)"/>
<path opacity="0.255" d="M70.9744 360.825C50.8067 349.198 50.8067 330.207 70.9744 318.193C91.142 306.178 124.496 306.566 145.052 318.193C165.607 329.82 165.607 348.81 145.052 360.825C124.496 372.84 91.142 372.452 70.9744 360.825Z" fill="url(#paint75_linear_425_5250)"/>
<path opacity="0.235" d="M70.9744 358.5C50.8067 346.873 50.8067 327.882 70.9744 315.867C91.142 303.853 124.496 304.24 145.052 315.867C165.607 327.494 165.607 346.485 145.052 358.5C124.496 370.514 91.142 370.127 70.9744 358.5Z" fill="url(#paint76_linear_425_5250)"/>
<path opacity="0.216" d="M70.9744 356.174C50.8067 344.547 50.8067 325.556 70.9744 313.542C91.142 301.527 124.496 301.915 145.052 313.542C165.607 325.169 165.607 344.16 145.052 356.174C124.496 368.189 91.142 367.801 70.9744 356.174Z" fill="url(#paint77_linear_425_5250)"/>
<path opacity="0.196" d="M70.9744 354.236C50.8067 342.609 50.8067 323.619 70.9744 311.604C91.142 299.589 124.496 299.977 145.052 311.604C165.607 323.231 165.607 342.222 145.052 354.236C124.496 365.863 91.142 365.863 70.9744 354.236Z" fill="url(#paint78_linear_425_5250)"/>
<path opacity="0.176" d="M70.9744 351.911C50.8067 340.284 50.8067 321.293 70.9744 309.279C91.142 297.264 124.496 297.652 145.052 309.279C165.607 320.906 165.607 339.896 145.052 351.911C124.496 363.538 91.142 363.538 70.9744 351.911Z" fill="url(#paint79_linear_425_5250)"/>
<path opacity="0.157" d="M70.9744 349.586C50.8067 337.959 50.8067 318.968 70.9744 306.953C91.142 294.939 124.496 295.326 145.052 306.953C165.607 318.58 165.607 337.571 145.052 349.586C124.496 361.213 91.142 361.213 70.9744 349.586Z" fill="url(#paint80_linear_425_5250)"/>
<path opacity="0.137" d="M70.9744 347.648C50.8067 336.021 50.8067 317.03 70.9744 305.015C91.142 293.001 124.496 293.388 145.052 305.015C165.607 316.642 165.607 335.633 145.052 347.648C124.496 359.662 91.142 359.275 70.9744 347.648Z" fill="url(#paint81_linear_425_5250)"/>
<path opacity="0.118" d="M70.9744 345.322C50.8067 333.695 50.8067 314.705 70.9744 302.69C91.142 290.675 124.496 291.063 145.052 302.69C165.607 314.317 165.607 333.308 145.052 345.322C124.496 357.337 91.142 356.949 70.9744 345.322Z" fill="url(#paint82_linear_425_5250)"/>
<path opacity="0.098" d="M70.9744 343.385C50.8067 331.757 50.8067 312.767 70.9744 300.752C91.142 288.738 124.496 289.125 145.052 300.752C165.607 312.379 165.607 331.37 145.052 343.385C124.496 354.624 91.142 355.012 70.9744 343.385Z" fill="url(#paint83_linear_425_5250)"/>
<path opacity="0.078" d="M70.9744 341.059C50.8067 329.432 50.8067 310.441 70.9744 298.427C91.142 286.412 124.496 286.8 145.052 298.427C165.607 310.054 165.607 329.045 145.052 341.059C124.496 352.686 91.142 352.686 70.9744 341.059Z" fill="url(#paint84_linear_425_5250)"/>
<path opacity="0.059" d="M70.9744 338.734C50.8067 327.107 50.8067 308.116 70.9744 296.101C91.142 284.087 124.496 284.474 145.052 296.101C165.607 307.728 165.607 326.719 145.052 338.734C124.496 350.748 91.142 350.361 70.9744 338.734Z" fill="url(#paint85_linear_425_5250)"/>
<path opacity="0.039" d="M70.9744 336.408C50.8067 324.781 50.8067 305.791 70.9744 293.776C91.142 281.761 124.496 282.149 145.052 293.776C165.607 305.403 165.607 324.394 145.052 336.408C124.496 348.423 91.142 348.035 70.9744 336.408Z" fill="url(#paint86_linear_425_5250)"/>
<path opacity="0.02" d="M70.9744 334.471C50.8067 322.843 50.8067 303.853 70.9744 291.838C91.142 279.824 124.496 280.211 145.052 291.838C165.607 303.465 165.607 322.456 145.052 334.471C124.496 346.485 91.142 346.098 70.9744 334.471Z" fill="url(#paint87_linear_425_5250)"/>
</g>
</g>
<defs>
<linearGradient id="paint0_linear_425_5250" x1="379.694" y1="405.783" x2="379.694" y2="85.6523" gradientUnits="userSpaceOnUse">
<stop stop-color="#EFF0F8"/>
<stop offset="1" stop-color="#E0E0E0"/>
</linearGradient>
<linearGradient id="paint1_linear_425_5250" x1="321.239" y1="143.206" x2="313.638" y2="143.206" gradientUnits="userSpaceOnUse">
<stop stop-color="#C0C6CE"/>
<stop offset="0.07" stop-color="#C6CBD2"/>
<stop offset="0.41" stop-color="#DEE0E2"/>
<stop offset="0.73" stop-color="#ECECEC"/>
<stop offset="1" stop-color="#F1F0EF"/>
</linearGradient>
<linearGradient id="paint2_linear_425_5250" x1="312.707" y1="143.981" x2="319.029" y2="143.981" gradientUnits="userSpaceOnUse">
<stop stop-color="#B8BEC6"/>
<stop offset="0.76" stop-color="#BDC3CB"/>
<stop offset="1" stop-color="#C0C6CE"/>
</linearGradient>
<linearGradient id="paint3_linear_425_5250" x1="198.178" y1="73.6377" x2="190.537" y2="73.6377" gradientUnits="userSpaceOnUse">
<stop stop-color="#C0C6CE"/>
<stop offset="0.07" stop-color="#C6CBD2"/>
<stop offset="0.41" stop-color="#DEE0E2"/>
<stop offset="0.73" stop-color="#ECECEC"/>
<stop offset="1" stop-color="#F1F0EF"/>
</linearGradient>
<linearGradient id="paint4_linear_425_5250" x1="189.646" y1="74.2191" x2="195.929" y2="74.2191" gradientUnits="userSpaceOnUse">
<stop stop-color="#B8BEC6"/>
<stop offset="0.76" stop-color="#BDC3CB"/>
<stop offset="1" stop-color="#C0C6CE"/>
</linearGradient>
<linearGradient id="paint5_linear_425_5250" x1="322.402" y1="388.408" x2="314.801" y2="388.408" gradientUnits="userSpaceOnUse">
<stop stop-color="#C0C6CE"/>
<stop offset="0.07" stop-color="#C6CBD2"/>
<stop offset="0.41" stop-color="#DEE0E2"/>
<stop offset="0.73" stop-color="#ECECEC"/>
<stop offset="1" stop-color="#F1F0EF"/>
</linearGradient>
<linearGradient id="paint6_linear_425_5250" x1="313.87" y1="389.311" x2="320.153" y2="389.311" gradientUnits="userSpaceOnUse">
<stop stop-color="#B8BEC6"/>
<stop offset="0.76" stop-color="#BDC3CB"/>
<stop offset="1" stop-color="#C0C6CE"/>
</linearGradient>
<linearGradient id="paint7_linear_425_5250" x1="197.79" y1="316.061" x2="190.15" y2="316.061" gradientUnits="userSpaceOnUse">
<stop stop-color="#C0C6CE"/>
<stop offset="0.07" stop-color="#C6CBD2"/>
<stop offset="0.41" stop-color="#DEE0E2"/>
<stop offset="0.73" stop-color="#ECECEC"/>
<stop offset="1" stop-color="#F1F0EF"/>
</linearGradient>
<linearGradient id="paint8_linear_425_5250" x1="189.219" y1="316.836" x2="195.541" y2="316.836" gradientUnits="userSpaceOnUse">
<stop stop-color="#B8BEC6"/>
<stop offset="0.76" stop-color="#BDC3CB"/>
<stop offset="1" stop-color="#C0C6CE"/>
</linearGradient>
<linearGradient id="paint9_linear_425_5250" x1="200.513" y1="69.3745" x2="398.698" y2="69.3745" gradientUnits="userSpaceOnUse">
<stop stop-color="#EFF0F8"/>
<stop offset="1" stop-color="#E2E2E2"/>
</linearGradient>
<linearGradient id="paint10_linear_425_5250" x1="331.99" y1="104.837" x2="408.782" y2="104.837" gradientUnits="userSpaceOnUse">
<stop stop-color="#E9E8E9"/>
<stop offset="1" stop-color="#C7C7C7"/>
</linearGradient>
<linearGradient id="paint11_linear_425_5250" x1="379.501" y1="303.077" x2="379.501" y2="177.506" gradientUnits="userSpaceOnUse">
<stop stop-color="#B8BFC7"/>
<stop offset="1" stop-color="#C0C7CF"/>
</linearGradient>
<linearGradient id="paint12_linear_425_5250" x1="347.116" y1="299.202" x2="450.669" y2="299.202" gradientUnits="userSpaceOnUse">
<stop stop-color="#9AA6D4"/>
<stop offset="1" stop-color="#E9E8E9"/>
</linearGradient>
<linearGradient id="paint13_linear_425_5250" x1="342.64" y1="272.847" x2="445.766" y2="272.847" gradientUnits="userSpaceOnUse">
<stop stop-color="#C0BFF6"/>
<stop offset="0.29" stop-color="#C5C4F7"/>
<stop offset="0.64" stop-color="#D3D2F9"/>
<stop offset="1" stop-color="#E9E9FD"/>
</linearGradient>
<linearGradient id="paint14_linear_425_5250" x1="335.837" y1="265.096" x2="362.21" y2="265.096" gradientUnits="userSpaceOnUse">
<stop stop-color="#C0BFF6"/>
<stop offset="0.29" stop-color="#C5C4F7"/>
<stop offset="0.64" stop-color="#D3D2F9"/>
<stop offset="1" stop-color="#E9E9FD"/>
</linearGradient>
<linearGradient id="paint15_linear_425_5250" x1="359.977" y1="273.041" x2="366.338" y2="273.041" gradientUnits="userSpaceOnUse">
<stop offset="0.15" stop-color="#8EA971"/>
<stop offset="1" stop-color="#83B544"/>
</linearGradient>
<linearGradient id="paint16_linear_425_5250" x1="242.713" y1="35.4624" x2="268.194" y2="35.4624" gradientUnits="userSpaceOnUse">
<stop stop-color="#7F8F9E"/>
<stop offset="0.18" stop-color="#8493A2"/>
<stop offset="0.4" stop-color="#92A0AD"/>
<stop offset="0.64" stop-color="#AAB5BF"/>
<stop offset="0.88" stop-color="#CBD1D7"/>
<stop offset="1" stop-color="#DEE2E6"/>
</linearGradient>
<linearGradient id="paint17_linear_425_5250" x1="249.307" y1="39.3381" x2="274.827" y2="39.3381" gradientUnits="userSpaceOnUse">
<stop stop-color="#7F8F9E"/>
<stop offset="0.18" stop-color="#8493A2"/>
<stop offset="0.4" stop-color="#92A0AD"/>
<stop offset="0.64" stop-color="#AAB5BF"/>
<stop offset="0.88" stop-color="#CBD1D7"/>
<stop offset="1" stop-color="#DEE2E6"/>
</linearGradient>
<linearGradient id="paint18_linear_425_5250" x1="255.939" y1="42.8262" x2="281.459" y2="42.8262" gradientUnits="userSpaceOnUse">
<stop stop-color="#7F8F9E"/>
<stop offset="0.18" stop-color="#8493A2"/>
<stop offset="0.4" stop-color="#92A0AD"/>
<stop offset="0.64" stop-color="#AAB5BF"/>
<stop offset="0.88" stop-color="#CBD1D7"/>
<stop offset="1" stop-color="#DEE2E6"/>
</linearGradient>
<linearGradient id="paint19_linear_425_5250" x1="262.571" y1="46.7019" x2="288.091" y2="46.7019" gradientUnits="userSpaceOnUse">
<stop stop-color="#7F8F9E"/>
<stop offset="0.18" stop-color="#8493A2"/>
<stop offset="0.4" stop-color="#92A0AD"/>
<stop offset="0.64" stop-color="#AAB5BF"/>
<stop offset="0.88" stop-color="#CBD1D7"/>
<stop offset="1" stop-color="#DEE2E6"/>
</linearGradient>
<linearGradient id="paint20_linear_425_5250" x1="281.924" y1="57.9413" x2="307.444" y2="57.9413" gradientUnits="userSpaceOnUse">
<stop stop-color="#7F8F9E"/>
<stop offset="0.18" stop-color="#8493A2"/>
<stop offset="0.4" stop-color="#92A0AD"/>
<stop offset="0.64" stop-color="#AAB5BF"/>
<stop offset="0.88" stop-color="#CBD1D7"/>
<stop offset="1" stop-color="#DEE2E6"/>
</linearGradient>
<linearGradient id="paint21_linear_425_5250" x1="288.556" y1="61.817" x2="314.076" y2="61.817" gradientUnits="userSpaceOnUse">
<stop stop-color="#7F8F9E"/>
<stop offset="0.18" stop-color="#8493A2"/>
<stop offset="0.4" stop-color="#92A0AD"/>
<stop offset="0.64" stop-color="#AAB5BF"/>
<stop offset="0.88" stop-color="#CBD1D7"/>
<stop offset="1" stop-color="#DEE2E6"/>
</linearGradient>
<linearGradient id="paint22_linear_425_5250" x1="295.188" y1="65.6926" x2="320.708" y2="65.6926" gradientUnits="userSpaceOnUse">
<stop stop-color="#7F8F9E"/>
<stop offset="0.18" stop-color="#8493A2"/>
<stop offset="0.4" stop-color="#92A0AD"/>
<stop offset="0.64" stop-color="#AAB5BF"/>
<stop offset="0.88" stop-color="#CBD1D7"/>
<stop offset="1" stop-color="#DEE2E6"/>
</linearGradient>
<linearGradient id="paint23_linear_425_5250" x1="301.821" y1="69.5683" x2="327.34" y2="69.5683" gradientUnits="userSpaceOnUse">
<stop stop-color="#7F8F9E"/>
<stop offset="0.18" stop-color="#8493A2"/>
<stop offset="0.4" stop-color="#92A0AD"/>
<stop offset="0.64" stop-color="#AAB5BF"/>
<stop offset="0.88" stop-color="#CBD1D7"/>
<stop offset="1" stop-color="#DEE2E6"/>
</linearGradient>
<linearGradient id="paint24_linear_425_5250" x1="321.173" y1="80.8078" x2="346.693" y2="80.8078" gradientUnits="userSpaceOnUse">
<stop stop-color="#7F8F9E"/>
<stop offset="0.18" stop-color="#8493A2"/>
<stop offset="0.4" stop-color="#92A0AD"/>
<stop offset="0.64" stop-color="#AAB5BF"/>
<stop offset="0.88" stop-color="#CBD1D7"/>
<stop offset="1" stop-color="#DEE2E6"/>
</linearGradient>
<linearGradient id="paint25_linear_425_5250" x1="327.805" y1="84.2959" x2="353.325" y2="84.2959" gradientUnits="userSpaceOnUse">
<stop stop-color="#7F8F9E"/>
<stop offset="0.18" stop-color="#8493A2"/>
<stop offset="0.4" stop-color="#92A0AD"/>
<stop offset="0.64" stop-color="#AAB5BF"/>
<stop offset="0.88" stop-color="#CBD1D7"/>
<stop offset="1" stop-color="#DEE2E6"/>
</linearGradient>
<linearGradient id="paint26_linear_425_5250" x1="334.438" y1="88.1715" x2="359.957" y2="88.1715" gradientUnits="userSpaceOnUse">
<stop stop-color="#7F8F9E"/>
<stop offset="0.18" stop-color="#8493A2"/>
<stop offset="0.4" stop-color="#92A0AD"/>
<stop offset="0.64" stop-color="#AAB5BF"/>
<stop offset="0.88" stop-color="#CBD1D7"/>
<stop offset="1" stop-color="#DEE2E6"/>
</linearGradient>
<linearGradient id="paint27_linear_425_5250" x1="341.03" y1="92.0472" x2="366.55" y2="92.0472" gradientUnits="userSpaceOnUse">
<stop stop-color="#7F8F9E"/>
<stop offset="0.18" stop-color="#8493A2"/>
<stop offset="0.4" stop-color="#92A0AD"/>
<stop offset="0.64" stop-color="#AAB5BF"/>
<stop offset="0.88" stop-color="#CBD1D7"/>
<stop offset="1" stop-color="#DEE2E6"/>
</linearGradient>
<linearGradient id="paint28_linear_425_5250" x1="278.751" y1="257.473" x2="246.032" y2="188.189" gradientUnits="userSpaceOnUse">
<stop offset="0.15" stop-color="#66C206"/>
<stop offset="1" stop-color="#85E026"/>
</linearGradient>
<linearGradient id="paint29_linear_425_5250" x1="225.722" y1="175.435" x2="247.053" y2="175.435" gradientUnits="userSpaceOnUse">
<stop offset="0.15" stop-color="#66C206"/>
<stop offset="1" stop-color="#7FEB0F"/>
</linearGradient>
<linearGradient id="paint30_linear_425_5250" x1="272.65" y1="227.114" x2="289.788" y2="227.114" gradientUnits="userSpaceOnUse">
<stop offset="0.15" stop-color="#66C206"/>
<stop offset="1" stop-color="#7FEB0F"/>
</linearGradient>
<linearGradient id="paint31_linear_425_5250" x1="271.177" y1="375.723" x2="159.782" y2="375.723" gradientUnits="userSpaceOnUse">
<stop offset="0.15" stop-color="#66C206"/>
<stop offset="1" stop-color="#68BDEA"/>
</linearGradient>
<linearGradient id="paint32_linear_425_5250" x1="268.3" y1="375.859" x2="162.575" y2="375.859" gradientUnits="userSpaceOnUse">
<stop offset="0.15" stop-color="#66C206"/>
<stop offset="1" stop-color="#68BDEA"/>
</linearGradient>
<linearGradient id="paint33_linear_425_5250" x1="250.831" y1="362.53" x2="139.436" y2="362.53" gradientUnits="userSpaceOnUse">
<stop offset="0.15" stop-color="#66C206"/>
<stop offset="1" stop-color="#68BDEA"/>
</linearGradient>
<linearGradient id="paint34_linear_425_5250" x1="247.988" y1="362.681" x2="142.337" y2="362.681" gradientUnits="userSpaceOnUse">
<stop offset="0.15" stop-color="#66C206"/>
<stop offset="1" stop-color="#68BDEA"/>
</linearGradient>
<linearGradient id="paint35_linear_425_5250" x1="16.1263" y1="437.78" x2="205.004" y2="437.78" gradientUnits="userSpaceOnUse">
<stop stop-color="#9AA7D5"/>
<stop offset="0.13" stop-color="#9EAAD7"/>
<stop offset="0.26" stop-color="#AAB5DB"/>
<stop offset="0.39" stop-color="#BDC6E3"/>
<stop offset="0.5" stop-color="#D4DAED"/>
<stop offset="0.54" stop-color="#CED5EB"/>
<stop offset="0.84" stop-color="#A8B4DB"/>
<stop offset="1" stop-color="#9AA7D5"/>
</linearGradient>
<linearGradient id="paint36_linear_425_5250" x1="54.9644" y1="422.642" x2="160.817" y2="422.642" gradientUnits="userSpaceOnUse">
<stop stop-color="#66C206"/>
<stop offset="0.92" stop-color="#86DE2A"/>
</linearGradient>
<linearGradient id="paint37_linear_425_5250" x1="55.8486" y1="422.762" x2="160.468" y2="422.762" gradientUnits="userSpaceOnUse">
<stop offset="0.15" stop-color="#66C206"/>
<stop offset="1" stop-color="#94C75F"/>
</linearGradient>
<linearGradient id="paint38_linear_425_5250" x1="55.8486" y1="420.51" x2="160.468" y2="420.51" gradientUnits="userSpaceOnUse">
<stop offset="0.15" stop-color="#66C206"/>
<stop offset="1" stop-color="#7FEB0F"/>
</linearGradient>
<linearGradient id="paint39_linear_425_5250" x1="55.8486" y1="418.257" x2="160.468" y2="418.257" gradientUnits="userSpaceOnUse">
<stop offset="0.15" stop-color="#66C206"/>
<stop offset="1" stop-color="#7FEB0F"/>
</linearGradient>
<linearGradient id="paint40_linear_425_5250" x1="55.8486" y1="416.247" x2="160.468" y2="416.247" gradientUnits="userSpaceOnUse">
<stop offset="0.15" stop-color="#66C206"/>
<stop offset="1" stop-color="#7FEB0F"/>
</linearGradient>
<linearGradient id="paint41_linear_425_5250" x1="55.8486" y1="413.922" x2="160.468" y2="413.922" gradientUnits="userSpaceOnUse">
<stop offset="0.15" stop-color="#66C206"/>
<stop offset="1" stop-color="#7FEB0F"/>
</linearGradient>
<linearGradient id="paint42_linear_425_5250" x1="55.8486" y1="411.669" x2="160.468" y2="411.669" gradientUnits="userSpaceOnUse">
<stop offset="0.15" stop-color="#66C206"/>
<stop offset="1" stop-color="#7FEB0F"/>
</linearGradient>
<linearGradient id="paint43_linear_425_5250" x1="55.8486" y1="409.585" x2="160.468" y2="409.585" gradientUnits="userSpaceOnUse">
<stop offset="0.15" stop-color="#66C206"/>
<stop offset="1" stop-color="#94C75F"/>
</linearGradient>
<linearGradient id="paint44_linear_425_5250" x1="55.8486" y1="407.333" x2="160.468" y2="407.333" gradientUnits="userSpaceOnUse">
<stop offset="0.15" stop-color="#66C206"/>
<stop offset="1" stop-color="#7FEB0F"/>
</linearGradient>
<linearGradient id="paint45_linear_425_5250" x1="55.8486" y1="405.08" x2="160.468" y2="405.08" gradientUnits="userSpaceOnUse">
<stop offset="0.15" stop-color="#66C206"/>
<stop offset="1" stop-color="#7FEB0F"/>
</linearGradient>
<linearGradient id="paint46_linear_425_5250" x1="55.8486" y1="403.07" x2="160.468" y2="403.07" gradientUnits="userSpaceOnUse">
<stop offset="0.15" stop-color="#66C206"/>
<stop offset="1" stop-color="#7FEB0F"/>
</linearGradient>
<linearGradient id="paint47_linear_425_5250" x1="55.8486" y1="400.744" x2="160.468" y2="400.744" gradientUnits="userSpaceOnUse">
<stop offset="0.15" stop-color="#66C206"/>
<stop offset="1" stop-color="#7FEB0F"/>
</linearGradient>
<linearGradient id="paint48_linear_425_5250" x1="55.8486" y1="398.491" x2="160.468" y2="398.491" gradientUnits="userSpaceOnUse">
<stop offset="0.15" stop-color="#66C206"/>
<stop offset="1" stop-color="#7FEB0F"/>
</linearGradient>
<linearGradient id="paint49_linear_425_5250" x1="55.8486" y1="396.408" x2="160.468" y2="396.408" gradientUnits="userSpaceOnUse">
<stop offset="0.15" stop-color="#66C206"/>
<stop offset="1" stop-color="#94C75F"/>
</linearGradient>
<linearGradient id="paint50_linear_425_5250" x1="55.8486" y1="394.156" x2="160.468" y2="394.156" gradientUnits="userSpaceOnUse">
<stop offset="0.15" stop-color="#66C206"/>
<stop offset="1" stop-color="#7FEB0F"/>
</linearGradient>
<linearGradient id="paint51_linear_425_5250" x1="55.8486" y1="392.218" x2="160.468" y2="392.218" gradientUnits="userSpaceOnUse">
<stop offset="0.15" stop-color="#66C206"/>
<stop offset="1" stop-color="#7FEB0F"/>
</linearGradient>
<linearGradient id="paint52_linear_425_5250" x1="55.8486" y1="389.893" x2="160.468" y2="389.893" gradientUnits="userSpaceOnUse">
<stop offset="0.15" stop-color="#66C206"/>
<stop offset="1" stop-color="#7FEB0F"/>
</linearGradient>
<linearGradient id="paint53_linear_425_5250" x1="55.8486" y1="387.494" x2="160.468" y2="387.494" gradientUnits="userSpaceOnUse">
<stop offset="0.15" stop-color="#66C206"/>
<stop offset="1" stop-color="#94C75F"/>
</linearGradient>
<linearGradient id="paint54_linear_425_5250" x1="55.8486" y1="385.314" x2="160.468" y2="385.314" gradientUnits="userSpaceOnUse">
<stop offset="0.15" stop-color="#66C206"/>
<stop offset="1" stop-color="#7FEB0F"/>
</linearGradient>
<linearGradient id="paint55_linear_425_5250" x1="55.8486" y1="383.23" x2="160.468" y2="383.23" gradientUnits="userSpaceOnUse">
<stop offset="0.15" stop-color="#66C206"/>
<stop offset="1" stop-color="#94C75F"/>
</linearGradient>
<linearGradient id="paint56_linear_425_5250" x1="55.8486" y1="381.219" x2="160.468" y2="381.219" gradientUnits="userSpaceOnUse">
<stop offset="0.15" stop-color="#66C206"/>
<stop offset="1" stop-color="#66C206"/>
</linearGradient>
<linearGradient id="paint57_linear_425_5250" x1="55.8486" y1="379.041" x2="160.468" y2="379.041" gradientUnits="userSpaceOnUse">
<stop offset="0.15" stop-color="#66C206"/>
<stop offset="1" stop-color="#7FEB0F"/>
</linearGradient>
<linearGradient id="paint58_linear_425_5250" x1="55.8486" y1="376.715" x2="160.468" y2="376.715" gradientUnits="userSpaceOnUse">
<stop offset="0.15" stop-color="#66C206"/>
<stop offset="1" stop-color="#7FEB0F"/>
</linearGradient>
<linearGradient id="paint59_linear_425_5250" x1="55.8486" y1="374.39" x2="160.468" y2="374.39" gradientUnits="userSpaceOnUse">
<stop offset="0.15" stop-color="#66C206"/>
<stop offset="1" stop-color="#7FEB0F"/>
</linearGradient>
<linearGradient id="paint60_linear_425_5250" x1="55.8486" y1="372.378" x2="160.468" y2="372.378" gradientUnits="userSpaceOnUse">
<stop offset="0.15" stop-color="#66C206"/>
<stop offset="1" stop-color="#94C75F"/>
</linearGradient>
<linearGradient id="paint61_linear_425_5250" x1="55.8486" y1="370.053" x2="160.468" y2="370.053" gradientUnits="userSpaceOnUse">
<stop offset="0.15" stop-color="#66C206"/>
<stop offset="1" stop-color="#94C75F"/>
</linearGradient>
<linearGradient id="paint62_linear_425_5250" x1="55.8486" y1="367.801" x2="160.468" y2="367.801" gradientUnits="userSpaceOnUse">
<stop offset="0.15" stop-color="#66C206"/>
<stop offset="1" stop-color="#7FEB0F"/>
</linearGradient>
<linearGradient id="paint63_linear_425_5250" x1="55.8486" y1="365.79" x2="160.468" y2="365.79" gradientUnits="userSpaceOnUse">
<stop offset="0.15" stop-color="#66C206"/>
<stop offset="1" stop-color="#94C75F"/>
</linearGradient>
<linearGradient id="paint64_linear_425_5250" x1="55.8486" y1="363.538" x2="160.468" y2="363.538" gradientUnits="userSpaceOnUse">
<stop offset="0.15" stop-color="#66C206"/>
<stop offset="1" stop-color="#7FEB0F"/>
</linearGradient>
<linearGradient id="paint65_linear_425_5250" x1="55.8486" y1="361.213" x2="160.468" y2="361.213" gradientUnits="userSpaceOnUse">
<stop offset="0.15" stop-color="#66C206"/>
<stop offset="1" stop-color="#7FEB0F"/>
</linearGradient>
<linearGradient id="paint66_linear_425_5250" x1="55.8486" y1="359.201" x2="160.468" y2="359.201" gradientUnits="userSpaceOnUse">
<stop offset="0.15" stop-color="#66C206"/>
<stop offset="1" stop-color="#94C75F"/>
</linearGradient>
<linearGradient id="paint67_linear_425_5250" x1="55.8486" y1="356.876" x2="160.468" y2="356.876" gradientUnits="userSpaceOnUse">
<stop offset="0.15" stop-color="#66C206"/>
<stop offset="1" stop-color="#94C75F"/>
</linearGradient>
<linearGradient id="paint68_linear_425_5250" x1="55.8486" y1="354.624" x2="160.468" y2="354.624" gradientUnits="userSpaceOnUse">
<stop offset="0.15" stop-color="#66C206"/>
<stop offset="1" stop-color="#7FEB0F"/>
</linearGradient>
<linearGradient id="paint69_linear_425_5250" x1="55.8486" y1="352.686" x2="160.468" y2="352.686" gradientUnits="userSpaceOnUse">
<stop offset="0.15" stop-color="#66C206"/>
<stop offset="1" stop-color="#7FEB0F"/>
</linearGradient>
<linearGradient id="paint70_linear_425_5250" x1="55.8486" y1="350.287" x2="160.468" y2="350.287" gradientUnits="userSpaceOnUse">
<stop offset="0.15" stop-color="#66C206"/>
<stop offset="1" stop-color="#94C75F"/>
</linearGradient>
<linearGradient id="paint71_linear_425_5250" x1="55.8486" y1="348.035" x2="160.468" y2="348.035" gradientUnits="userSpaceOnUse">
<stop offset="0.15" stop-color="#66C206"/>
<stop offset="1" stop-color="#7FEB0F"/>
</linearGradient>
<linearGradient id="paint72_linear_425_5250" x1="55.8486" y1="346.024" x2="160.468" y2="346.024" gradientUnits="userSpaceOnUse">
<stop offset="0.15" stop-color="#66C206"/>
<stop offset="1" stop-color="#94C75F"/>
</linearGradient>
<linearGradient id="paint73_linear_425_5250" x1="55.8486" y1="343.772" x2="160.468" y2="343.772" gradientUnits="userSpaceOnUse">
<stop offset="0.15" stop-color="#66C206"/>
<stop offset="1" stop-color="#7FEB0F"/>
</linearGradient>
<linearGradient id="paint74_linear_425_5250" x1="55.8486" y1="341.447" x2="160.468" y2="341.447" gradientUnits="userSpaceOnUse">
<stop offset="0.15" stop-color="#66C206"/>
<stop offset="1" stop-color="#7FEB0F"/>
</linearGradient>
<linearGradient id="paint75_linear_425_5250" x1="55.8486" y1="339.509" x2="160.468" y2="339.509" gradientUnits="userSpaceOnUse">
<stop offset="0.15" stop-color="#66C206"/>
<stop offset="1" stop-color="#7FEB0F"/>
</linearGradient>
<linearGradient id="paint76_linear_425_5250" x1="55.8486" y1="337.183" x2="160.468" y2="337.183" gradientUnits="userSpaceOnUse">
<stop offset="0.15" stop-color="#66C206"/>
<stop offset="1" stop-color="#7FEB0F"/>
</linearGradient>
<linearGradient id="paint77_linear_425_5250" x1="55.8486" y1="334.858" x2="160.468" y2="334.858" gradientUnits="userSpaceOnUse">
<stop offset="0.15" stop-color="#66C206"/>
<stop offset="1" stop-color="#7FEB0F"/>
</linearGradient>
<linearGradient id="paint78_linear_425_5250" x1="55.8486" y1="332.847" x2="160.468" y2="332.847" gradientUnits="userSpaceOnUse">
<stop offset="0.15" stop-color="#66C206"/>
<stop offset="1" stop-color="#94C75F"/>
</linearGradient>
<linearGradient id="paint79_linear_425_5250" x1="55.8486" y1="330.521" x2="160.468" y2="330.521" gradientUnits="userSpaceOnUse">
<stop offset="0.15" stop-color="#66C206"/>
<stop offset="1" stop-color="#94C75F"/>
</linearGradient>
<linearGradient id="paint80_linear_425_5250" x1="55.8486" y1="328.196" x2="160.468" y2="328.196" gradientUnits="userSpaceOnUse">
<stop offset="0.15" stop-color="#66C206"/>
<stop offset="1" stop-color="#94C75F"/>
</linearGradient>
<linearGradient id="paint81_linear_425_5250" x1="55.8486" y1="326.332" x2="160.468" y2="326.332" gradientUnits="userSpaceOnUse">
<stop offset="0.15" stop-color="#66C206"/>
<stop offset="1" stop-color="#7FEB0F"/>
</linearGradient>
<linearGradient id="paint82_linear_425_5250" x1="55.8486" y1="324.006" x2="160.468" y2="324.006" gradientUnits="userSpaceOnUse">
<stop offset="0.15" stop-color="#66C206"/>
<stop offset="1" stop-color="#7FEB0F"/>
</linearGradient>
<linearGradient id="paint83_linear_425_5250" x1="55.8486" y1="321.925" x2="160.468" y2="321.925" gradientUnits="userSpaceOnUse">
<stop offset="0.15" stop-color="#4EA0D8"/>
<stop offset="1" stop-color="#68BDEA"/>
</linearGradient>
<linearGradient id="paint84_linear_425_5250" x1="55.8486" y1="319.669" x2="160.468" y2="319.669" gradientUnits="userSpaceOnUse">
<stop offset="0.15" stop-color="#66C206"/>
<stop offset="1" stop-color="#94C75F"/>
</linearGradient>
<linearGradient id="paint85_linear_425_5250" x1="55.8486" y1="317.418" x2="160.468" y2="317.418" gradientUnits="userSpaceOnUse">
<stop offset="0.15" stop-color="#66C206"/>
<stop offset="1" stop-color="#7FEB0F"/>
</linearGradient>
<linearGradient id="paint86_linear_425_5250" x1="55.8486" y1="315.092" x2="160.468" y2="315.092" gradientUnits="userSpaceOnUse">
<stop offset="0.15" stop-color="#66C206"/>
<stop offset="1" stop-color="#7FEB0F"/>
</linearGradient>
<linearGradient id="paint87_linear_425_5250" x1="55.8486" y1="313.154" x2="160.468" y2="313.154" gradientUnits="userSpaceOnUse">
<stop offset="0.15" stop-color="#66C206"/>
<stop offset="1" stop-color="#7FEB0F"/>
</linearGradient>
<clipPath id="clip0_425_5250">
<rect width="472" height="505" fill="white"/>
</clipPath>
</defs>
</svg>
