<svg width="57" height="22" viewBox="0 0 57 22" fill="none" xmlns="http://www.w3.org/2000/svg">
<path d="M3.45237 18.6473C2.50297 18.6473 1.68783 18.3116 1.00694 17.6403C0.335647 16.9594 0 16.1443 0 15.1949C0 14.2551 0.335647 13.4495 1.00694 12.7782C1.68783 12.1069 2.50297 11.7713 3.45237 11.7713C4.373 11.7713 5.17856 12.1069 5.86903 12.7782C6.5595 13.4495 6.90474 14.2551 6.90474 15.1949C6.90474 15.8278 6.74171 16.408 6.41566 16.9355C6.09919 17.4533 5.68203 17.8705 5.16417 18.187C4.64632 18.4938 4.07572 18.6473 3.45237 18.6473Z" fill="#FD5A1F"/>
<path fill-rule="evenodd" clip-rule="evenodd" d="M19.6136 0.829255C18.8891 1.33208 18.8028 1.76098 18.8028 4.86294V7.76638L18.1811 9.04015C17.3402 10.7633 17.3396 11.3693 18.1774 12.1358L18.7954 12.7011L18.8379 15.4617L18.8805 18.2223H20.6678H22.4551L22.4965 13.9529C22.5369 9.77213 22.5446 9.67973 22.8695 9.5074C23.2975 9.2804 24.5663 9.2807 24.9946 9.50786C25.7551 9.9112 25.8511 10.4116 25.9434 14.4492L26.0297 18.2223H27.817H29.6043L29.5943 13.9872C29.5849 9.92352 29.5698 9.71484 29.2209 8.83286C28.7307 7.59389 27.5798 6.4555 26.3357 5.97901C25.6238 5.70642 25.0739 5.62033 23.9704 5.60893L22.5328 5.594V3.77674C22.5328 1.83444 22.3824 1.28757 21.722 0.829255C21.2758 0.519399 20.0598 0.519399 19.6136 0.829255ZM11.2408 5.66761C7.9732 6.35755 6.53917 9.7247 8.45375 12.2119C9.06982 13.0124 10.2426 13.5286 12.0922 13.8135C13.8888 14.0904 14.1586 14.2955 13.5715 14.9385C13.1222 15.4306 11.7138 15.2752 10.7928 14.6317C10.4064 14.3619 10.0502 14.1412 10.0012 14.1412C9.82873 14.1412 7.62989 15.9147 7.54099 16.1256C7.48706 16.2532 7.71708 16.5836 8.11479 16.9492C9.56358 18.2815 11.7104 18.9323 13.5603 18.5998C15.2957 18.2881 16.3831 17.5309 17.0241 16.1881C17.7421 14.6844 17.4232 12.9888 16.1893 11.7488C15.4209 10.9766 14.57 10.6238 13.0227 10.436C11.3206 10.2295 11.1874 10.1809 11.1874 9.76643C11.1874 9.03753 12.754 8.82562 14.1403 9.3671C15.5602 9.92167 16.4409 9.69205 16.8792 8.65267C17.3187 7.61007 16.8024 6.80786 15.2329 6.09436C14.1279 5.59199 12.4489 5.41258 11.2408 5.66761ZM35.4714 5.75493C35.0227 5.87474 34.3614 6.12131 34.002 6.30303C32.9635 6.82803 31.5997 8.28969 31.0397 9.47768C30.5921 10.4276 30.547 10.6615 30.5422 12.0622C30.5371 13.5268 30.5651 13.6609 31.1143 14.8005C31.8232 16.2716 32.8559 17.3145 34.3029 18.0206C35.3027 18.5083 35.4251 18.5304 37.1412 18.5304C38.8572 18.5304 38.98 18.5083 39.9804 18.0206C44.0315 16.0453 45.047 10.877 42.015 7.66505C40.3093 5.85796 37.8145 5.12967 35.4714 5.75493ZM49.017 5.67577C47.4883 5.97608 46.1133 7.01145 45.5749 8.26751C45.4408 8.5806 45.3011 9.48938 45.2587 10.3258C45.1959 11.5617 45.136 11.8379 44.9169 11.9069C44.4665 12.0485 43.9723 12.6848 43.8815 13.2398C43.8114 13.6677 43.9312 14.027 44.5092 15.1221L45.2237 16.4755V18.9919C45.2237 20.3759 45.2661 21.6178 45.318 21.7518C45.396 21.9534 45.7053 21.9955 47.1092 21.9955C48.7876 21.9955 48.8076 21.9911 48.9576 21.6004C49.0409 21.3831 49.1091 20.6288 49.1091 19.9243V18.6432L50.6244 18.5819C51.9292 18.5293 52.2869 18.4523 53.1989 18.0285C55.8463 16.798 57.411 13.8703 56.8974 11.1083C56.2093 7.40801 52.6587 4.96027 49.017 5.67577ZM38.8858 9.86269C40.5107 11.0909 40.2922 13.7259 38.4938 14.5885C37.0009 15.3046 35.3176 14.77 34.5638 13.3404C34.0317 12.3309 34.4654 10.5057 35.39 9.86407C36.0443 9.41007 36.2048 9.37249 37.3145 9.41361C38.1525 9.44472 38.4422 9.52757 38.8858 9.86269ZM52.0412 9.83635C52.7491 10.3524 53.15 11.1856 53.15 12.1407C53.15 13.7197 51.9546 14.915 50.3812 14.9091C49.0556 14.9043 49.1091 15.0106 49.1091 12.3813C49.1091 10.2026 49.1321 10.0168 49.4419 9.68728C49.7303 9.38035 49.8912 9.34154 50.6488 9.3959C51.2607 9.43979 51.6785 9.57193 52.0412 9.83635Z" fill="#012851"/>
</svg>
