<svg width="48" height="42" viewBox="0 0 48 42" fill="none" xmlns="http://www.w3.org/2000/svg">
<path d="M8.57809 15.5001L4.17186 15.5001C2.06054 15.5001 0.499995 17.1524 0.499994 19.1719L0.499991 38.2656C0.49999 40.3769 2.06053 41.9375 4.17185 41.9375L8.57809 41.9375C10.5976 41.9375 12.25 40.377 12.25 38.2656L12.25 19.1719C12.25 17.1524 10.5976 15.5001 8.57809 15.5001ZM9.31246 38.2656C9.31246 38.7246 8.94528 39 8.57809 39L4.17185 39C3.71287 39 3.43748 38.7246 3.43748 38.2656L3.43748 19.1719C3.43748 18.8048 3.71287 18.4376 4.17186 18.4376L8.57809 18.4376C8.94528 18.4376 9.31247 18.8048 9.31247 19.1719L9.31246 38.2656ZM47.4998 18.254C47.4998 15.1329 44.9295 12.5626 41.8085 12.5626L32.4452 12.5626C33.455 10.0841 34.0975 7.69737 34.0975 6.41222C34.0975 3.65832 31.9862 0.812629 28.4062 0.812629C24.6425 0.812628 23.8163 3.56653 22.9902 5.86144C20.5116 13.6641 15.1874 14.8575 15.1874 16.9688C15.1874 17.8868 15.83 18.4376 16.6562 18.4376C17.0234 18.4376 17.3906 18.3458 17.666 18.0704C22.4394 13.2052 23.8163 12.9298 25.8359 6.77941C26.662 4.2091 26.9374 3.75012 28.4062 3.75012C30.3339 3.75012 31.1601 5.31066 31.1601 6.41222C31.1601 7.33019 30.3339 10.4513 28.7733 13.3888C28.5897 13.5724 28.5897 13.8477 28.5897 14.0313C28.5897 14.9493 29.3241 15.5001 30.0585 15.5001L41.8085 15.5001C43.2772 15.5001 44.5624 16.7852 44.5624 18.254C44.5624 19.6309 43.369 20.8243 41.992 20.9161C41.2577 21.0079 40.6151 21.6505 40.6151 22.3848C40.6151 23.4864 41.7167 23.5782 41.7167 25.2305C41.7167 26.5157 40.7987 27.6172 39.5135 27.8926C38.9628 27.9844 38.3202 28.4434 38.3202 29.2696C38.3202 30.0957 38.9628 30.2793 38.9628 31.4727C38.9628 34.3184 36.0253 33.4922 36.0253 35.4199C36.0253 35.7871 36.2089 35.8789 36.2089 36.3379C36.2089 37.8067 34.9237 39 33.455 39L28.3144 39C20.787 39 18.4003 33.125 16.6562 33.125C15.83 33.125 15.1874 33.8594 15.1874 34.5938C15.0956 36.1543 21.0624 41.9375 28.3144 41.9375L33.455 41.9375C36.576 41.9375 39.1463 39.459 39.1464 36.3379C40.7987 35.3281 41.9002 33.4922 41.9002 31.4727C41.9002 31.0137 41.8085 30.5547 41.7167 30.1875C43.4608 29.1778 44.6541 27.3418 44.6541 25.2305C44.6541 24.5879 44.5624 23.8536 44.287 23.3028C46.2147 22.3848 47.4998 20.4571 47.4998 18.254Z" fill="#66C206"/>
</svg>
