<svg width="45" height="21" viewBox="0 0 45 21" fill="none" xmlns="http://www.w3.org/2000/svg">
<path d="M2.82756 16.6769C2.04998 16.6769 1.38236 16.402 0.824705 15.8522C0.274901 15.2945 0 14.6269 0 13.8493C0 13.0796 0.274901 12.4199 0.824705 11.8701C1.38236 11.3202 2.04998 11.0453 2.82756 11.0453C3.58158 11.0453 4.24134 11.3202 4.80685 11.8701C5.37236 12.4199 5.65512 13.0796 5.65512 13.8493C5.65512 14.3677 5.5216 14.8429 5.25455 15.2749C4.99536 15.699 4.65369 16.0407 4.22956 16.2999C3.80542 16.5512 3.33809 16.6769 2.82756 16.6769Z" fill="url(#paint0_linear_432_664)"/>
<path d="M15.4999 3.58831V6.83989H7.27344V3.58831H15.4999ZM8.86671 0.596863H13.3539V12.0587C13.3539 12.2321 13.3837 12.3784 13.4433 12.4976C13.5029 12.6114 13.595 12.6982 13.7197 12.7578C13.8443 12.812 14.0042 12.8391 14.1993 12.8391C14.3348 12.8391 14.4919 12.8228 14.6708 12.7903C14.855 12.7578 14.9905 12.7307 15.0772 12.709L15.7275 15.863C15.527 15.9226 15.2398 15.9958 14.8659 16.0825C14.4974 16.1692 14.0584 16.2261 13.549 16.2532C12.5193 16.3074 11.6549 16.2017 10.9558 15.9362C10.2568 15.6652 9.73109 15.2398 9.37883 14.6599C9.02658 14.0801 8.85587 13.3539 8.86671 12.4814V0.596863Z" fill="url(#paint1_linear_432_664)"/>
<path d="M23.2123 16.302C21.8574 16.302 20.6977 16.0337 19.7331 15.4972C18.7684 14.9553 18.0287 14.202 17.5139 13.2374C16.999 12.2673 16.7416 11.1428 16.7416 9.86386C16.7416 8.58491 16.999 7.46311 17.5139 6.49848C18.0287 5.52842 18.7684 4.77514 19.7331 4.23863C20.6977 3.6967 21.8574 3.42573 23.2123 3.42573C24.5671 3.42573 25.7268 3.6967 26.6915 4.23863C27.6561 4.77514 28.3958 5.52842 28.9107 6.49848C29.4255 7.46311 29.6829 8.58491 29.6829 9.86386C29.6829 11.1428 29.4255 12.2673 28.9107 13.2374C28.3958 14.202 27.6561 14.9553 26.6915 15.4972C25.7268 16.0337 24.5671 16.302 23.2123 16.302ZM23.2448 12.9854C23.6241 12.9854 23.952 12.858 24.2284 12.6033C24.5048 12.3486 24.7188 11.9855 24.8706 11.514C25.0223 11.0426 25.0982 10.4817 25.0982 9.83134C25.0982 9.17561 25.0223 8.61471 24.8706 8.14865C24.7188 7.67717 24.5048 7.31408 24.2284 7.05937C23.952 6.80467 23.6241 6.67731 23.2448 6.67731C22.8438 6.67731 22.4996 6.80467 22.2124 7.05937C21.9252 7.31408 21.7057 7.67717 21.554 8.14865C21.4022 8.61471 21.3263 9.17561 21.3263 9.83134C21.3263 10.4817 21.4022 11.0426 21.554 11.514C21.7057 11.9855 21.9252 12.3486 22.2124 12.6033C22.4996 12.858 22.8438 12.9854 23.2448 12.9854Z" fill="url(#paint2_linear_432_664)"/>
<path d="M31.5038 20.7566V3.58831H35.9584V5.76687H36.056C36.2186 5.34417 36.457 4.95669 36.7713 4.60443C37.0857 4.24676 37.4759 3.96224 37.9419 3.75089C38.408 3.53412 38.9499 3.42573 39.5677 3.42573C40.3914 3.42573 41.1745 3.64522 41.917 4.08418C42.6648 4.52314 43.2718 5.2141 43.7378 6.15706C44.2093 7.10002 44.4451 8.32478 44.4451 9.83134C44.4451 11.2729 44.2202 12.4678 43.7704 13.4162C43.326 14.3646 42.7299 15.0718 41.982 15.5379C41.2396 16.0039 40.4239 16.2369 39.5352 16.2369C38.9499 16.2369 38.4269 16.1421 37.9663 15.9524C37.5111 15.7573 37.1209 15.4945 36.7957 15.1639C36.476 14.8279 36.2294 14.4486 36.056 14.0259H35.991V20.7566H31.5038ZM35.8934 9.83134C35.8934 10.4383 35.972 10.964 36.1292 11.4084C36.2917 11.8473 36.5193 12.1887 36.812 12.4326C37.11 12.6711 37.465 12.7903 37.8769 12.7903C38.2887 12.7903 38.6383 12.6738 38.9255 12.4407C39.2182 12.2023 39.4403 11.8636 39.5921 11.4246C39.7492 10.9802 39.8278 10.4491 39.8278 9.83134C39.8278 9.21354 39.7492 8.68516 39.5921 8.2462C39.4403 7.80182 39.2182 7.46311 38.9255 7.23008C38.6383 6.99163 38.2887 6.87241 37.8769 6.87241C37.465 6.87241 37.11 6.99163 36.812 7.23008C36.5193 7.46311 36.2917 7.80182 36.1292 8.2462C35.972 8.68516 35.8934 9.21354 35.8934 9.83134Z" fill="url(#paint3_linear_432_664)"/>
<defs>
<linearGradient id="paint0_linear_432_664" x1="2.82756" y1="11.0453" x2="2.82756" y2="16.6769" gradientUnits="userSpaceOnUse">
<stop stop-color="#E7380D"/>
<stop offset="1" stop-color="#F67A3C"/>
</linearGradient>
<linearGradient id="paint1_linear_432_664" x1="25.8593" y1="0.596863" x2="25.8593" y2="20.7566" gradientUnits="userSpaceOnUse">
<stop stop-color="#E7380D"/>
<stop offset="1" stop-color="#F67A3C"/>
</linearGradient>
<linearGradient id="paint2_linear_432_664" x1="25.8593" y1="0.596863" x2="25.8593" y2="20.7566" gradientUnits="userSpaceOnUse">
<stop stop-color="#E7380D"/>
<stop offset="1" stop-color="#F67A3C"/>
</linearGradient>
<linearGradient id="paint3_linear_432_664" x1="25.8593" y1="0.596863" x2="25.8593" y2="20.7566" gradientUnits="userSpaceOnUse">
<stop stop-color="#E7380D"/>
<stop offset="1" stop-color="#F67A3C"/>
</linearGradient>
</defs>
</svg>
