<svg width="32" height="29" viewBox="0 0 32 29" fill="none" xmlns="http://www.w3.org/2000/svg">
<circle cx="17.4443" cy="14.9193" r="13.9658" fill="#00A2E1"/>
<path d="M3.2134 23.3717C2.80814 23.3717 2.46019 23.2285 2.16955 22.9419C1.88301 22.6513 1.73973 22.3033 1.73973 21.8981C1.73973 21.4969 1.88301 21.1531 2.16955 20.8665C2.46019 20.58 2.80814 20.4367 3.2134 20.4367C3.60637 20.4367 3.95023 20.58 4.24496 20.8665C4.53969 21.1531 4.68706 21.4969 4.68706 21.8981C4.68706 22.1683 4.61747 22.4159 4.47829 22.6411C4.3432 22.8621 4.16514 23.0402 3.94409 23.1753C3.72304 23.3062 3.47947 23.3717 3.2134 23.3717Z" fill="#00A2E1"/>
<path d="M12.8828 19.1964V13.7807H15.4985V23.2121H12.9872V21.499H12.8889C12.6761 22.0516 12.322 22.4957 11.8267 22.8314C11.3354 23.1671 10.7357 23.3349 10.0276 23.3349C9.39715 23.3349 8.84248 23.1916 8.36354 22.9051C7.8846 22.6185 7.51005 22.2112 7.23987 21.6832C6.9738 21.1551 6.83871 20.5227 6.83462 19.7858V13.7807H9.45037V19.3192C9.45446 19.8759 9.60388 20.3159 9.89861 20.6393C10.1933 20.9627 10.5884 21.1244 11.0837 21.1244C11.3989 21.1244 11.6936 21.0528 11.9679 20.9095C12.2421 20.7621 12.4632 20.5452 12.631 20.2586C12.803 19.9721 12.8869 19.618 12.8828 19.1964ZM19.961 20.4981L19.9671 17.3604H20.3478L23.3688 13.7807H26.3714L22.3127 18.5209H21.6925L19.961 20.4981ZM17.5908 23.2121V10.6368H20.2066V23.2121H17.5908ZM23.4855 23.2121L20.7101 19.1043L22.4539 17.256L26.5495 23.2121H23.4855Z" fill="white"/>
</svg>
